<?xml version="1.0" encoding="utf-8"?>
<!-- Generator: Adobe Illustrator 27.6.1, SVG Export Plug-In . SVG Version: 6.00 Build 0)  -->
<svg version="1.1" id="Layer_3" xmlns="http://www.w3.org/2000/svg" xmlns:xlink="http://www.w3.org/1999/xlink" x="0px" y="0px"
	 viewBox="0 0 16 16" style="enable-background:new 0 0 16 16;" xml:space="preserve">
<g id="Iu3nrb.tif">
	<g>
		<path d="M8,0.3c0.2,0.1,0.2,0.2,0.2,0.4c0,1,0,2.1,0,3.1C8.2,4,8,4.1,7.9,4.1C7.7,4.1,7.6,4,7.6,3.8c0-1,0-2.1,0-3.1
			c0-0.2,0.1-0.3,0.2-0.4C7.8,0.3,7.9,0.3,8,0.3z"/>
		<path d="M0.5,11.7c0.2-0.1,0.4-0.2,0.6-0.3c0.1,0,0.1-0.1,0.2-0.2c0.1-0.2,0.1-0.4,0.2-0.6c0-0.1,0-0.1,0.1-0.1
			c0.1,0,0.1,0.1,0.1,0.1c0.1,0.2,0.1,0.4,0.2,0.6c0,0.1,0.1,0.1,0.2,0.2c0.2,0.1,0.3,0.1,0.5,0.2c0.1,0,0.1,0.1,0.1,0.1
			c0,0.1-0.1,0.1-0.1,0.1C2.4,12,2.3,12,2.1,12.1c-0.1,0-0.1,0.1-0.2,0.2c-0.1,0.2-0.1,0.4-0.2,0.6c0,0.1,0,0.1-0.1,0.1
			c-0.1,0-0.1-0.1-0.1-0.1c-0.1-0.2-0.1-0.4-0.2-0.5c0-0.1-0.1-0.1-0.2-0.2c-0.2-0.1-0.4-0.2-0.6-0.3C0.5,11.8,0.5,11.7,0.5,11.7z"
			/>
		<path d="M7.9,5.8c0.9,0,1.7,0.3,2.4,0.8c0.7,0.4,1.2,1,1.7,1.5c0.2,0.2,0.2,0.3,0,0.6c-0.7,0.8-1.5,1.5-2.4,1.9
			c-1.2,0.6-2.4,0.5-3.6-0.1c-0.9-0.5-1.7-1.1-2.3-1.9c-0.2-0.2-0.2-0.3,0-0.5c0.8-0.9,1.7-1.7,2.8-2.1C6.9,5.9,7.4,5.8,7.9,5.8z
			 M7.9,6.4c-1.1,0-2,0.9-2,2c0,1.1,0.8,2.1,2,2.1c1.1,0,2-0.9,2-2C9.9,7.2,8.9,6.4,7.9,6.4z M5.4,9.5c-0.3-0.7-0.3-1.4,0-2.2
			C5,7.7,4.7,8,4.3,8.4c-0.1,0.1-0.1,0.1,0,0.2C4.6,8.8,4.8,9,5,9.2C5.2,9.3,5.3,9.4,5.4,9.5z M10.3,9.5c0.4-0.3,0.8-0.7,1.1-1
			c0.1-0.1,0-0.1,0-0.1c-0.2-0.3-0.5-0.5-0.8-0.8c-0.1-0.1-0.2-0.2-0.3-0.2C10.6,8.7,10.5,8.5,10.3,9.5z"/>
		<path d="M7.8,5.2C6.9,5.2,6,5.5,5.2,6C4.3,6.5,3.5,7.2,2.9,8C2.8,8.2,2.6,8.2,2.5,8.1C2.3,8,2.3,7.8,2.4,7.6
			c0.9-1.1,2-2.1,3.4-2.7C6.5,4.7,7.2,4.5,8,4.6c1,0,2,0.4,2.8,0.9c0.9,0.6,1.7,1.3,2.4,2.1c0.2,0.2,0.2,0.4,0,0.5
			C13.1,8.2,13,8.2,12.8,8C12,7,11,6.1,9.8,5.6C9.2,5.3,8.4,5.2,7.8,5.2z"/>
		<path d="M7.9,12.4c-1.1,0-2-0.3-3-0.9c-0.3-0.2-0.6-0.4-0.9-0.6c-0.2-0.1-0.2-0.3-0.1-0.5c0.1-0.2,0.3-0.2,0.5,0
			c0.6,0.5,1.2,0.8,1.9,1.1c1.3,0.5,2.6,0.4,3.9-0.3c0.5-0.2,0.9-0.5,1.3-0.8c0.2-0.2,0.4-0.1,0.5,0.1c0,0.1,0,0.2-0.1,0.3
			c-0.9,0.7-1.9,1.3-3.1,1.5C8.4,12.3,8.1,12.4,7.9,12.4z"/>
		<path d="M7.9,12.8c0.4,0,0.8,0,1.2,0c0.3,0,0.5,0.2,0.3,0.5c-0.4,0.7-0.8,1.4-1.2,2.1c-0.1,0.3-0.4,0.3-0.6,0
			c-0.4-0.7-0.8-1.4-1.2-2.1c-0.1-0.2,0-0.5,0.3-0.5C7,12.8,7.4,12.8,7.9,12.8z M8.6,13.4c-0.5,0-0.9,0-1.3,0c-0.1,0-0.1,0.1,0,0.1
			c0.2,0.3,0.4,0.6,0.5,0.9c0,0.1,0.1,0.1,0.1,0.2C8.1,14.2,8.3,13.8,8.6,13.4z"/>
		<path d="M12.6,2.1c0.2,0,0.4,0.2,0.3,0.5c-0.3,0.6-0.7,1.2-1.1,1.8c-0.1,0.2-0.2,0.4-0.3,0.6C11.4,5,11.3,5.1,11.1,5
			c-0.1,0-0.2-0.1-0.3-0.2c0-0.1,0-0.2,0.1-0.3c0.3-0.5,0.6-1.1,1-1.6c0.1-0.2,0.3-0.4,0.4-0.6C12.4,2.2,12.5,2.1,12.6,2.1z"/>
		<path d="M3.1,2.1c0.1,0,0.2,0.1,0.3,0.2C3.7,2.8,4,3.3,4.3,3.8C4.4,4,4.6,4.3,4.8,4.6c0.1,0.1,0.1,0.3,0,0.4C4.7,5,4.5,5.1,4.4,5
			C4.3,5,4.3,4.9,4.3,4.9C3.8,4.1,3.3,3.4,2.9,2.6C2.8,2.4,2.9,2.1,3.1,2.1z"/>
		<path d="M12.7,6.1c-0.2,0-0.3-0.1-0.3-0.2c-0.1-0.1,0-0.2,0.1-0.3c0.1-0.2,0.3-0.3,0.4-0.5c0.2-0.2,0.5-0.5,0.7-0.7
			c0.1-0.1,0.3-0.2,0.4,0c0.1,0.1,0.1,0.3,0,0.4C13.7,5.2,13.3,5.6,13,6C12.9,6.1,12.8,6.1,12.7,6.1z"/>
		<path d="M5.8,2.1C5.9,2.2,6,2.2,6,2.3C6.2,2.9,6.4,3.4,6.5,4c0,0.1-0.1,0.3-0.2,0.4C6.2,4.4,6,4.3,6,4.1C5.8,3.8,5.7,3.4,5.6,3
			C5.6,2.9,5.5,2.7,5.5,2.5C5.4,2.3,5.6,2.1,5.8,2.1z"/>
		<path d="M3,6.1c-0.1,0-0.2,0-0.2-0.1C2.4,5.6,2,5.2,1.6,4.8c-0.1-0.1-0.1-0.3,0-0.4c0.1-0.1,0.3-0.1,0.4,0
			c0.4,0.4,0.8,0.8,1.2,1.2c0.1,0.1,0.1,0.2,0.1,0.3C3.2,6.1,3.1,6.1,3,6.1z"/>
		<path d="M10.3,2.5c0,0.1-0.1,0.3-0.1,0.5C10,3.4,9.9,3.7,9.8,4.1c0,0.2-0.2,0.2-0.3,0.2c-0.1,0-0.2-0.1-0.3-0.3c0-0.1,0-0.1,0-0.2
			c0.2-0.5,0.3-1,0.5-1.6c0-0.2,0.2-0.3,0.3-0.2C10.1,2.2,10.3,2.3,10.3,2.5z"/>
		<path d="M13.7,10.2C13.7,10.3,13.7,10.3,13.7,10.2c0.1,0.1,0.1,0.1,0.1,0.1c0.1,0.4,0.3,0.6,0.6,0.7c0,0,0.1,0,0.1,0.1
			c0,0.1,0,0.1-0.1,0.1c0,0,0,0,0,0c-0.4,0.1-0.5,0.3-0.6,0.7c0,0.1,0,0.1-0.1,0.1c-0.1,0-0.1-0.1-0.1-0.1c0,0,0,0,0,0
			c-0.1-0.3-0.2-0.6-0.6-0.7c-0.1,0-0.1,0-0.1-0.1c0-0.1,0.1-0.1,0.1-0.1c0.4-0.1,0.5-0.3,0.6-0.7C13.6,10.3,13.6,10.2,13.7,10.2z"
			/>
		<path d="M12.5,13.9c0,0.3-0.2,0.5-0.5,0.5c-0.3,0-0.5-0.2-0.5-0.5c0-0.3,0.3-0.5,0.5-0.5C12.3,13.3,12.5,13.6,12.5,13.9z"/>
		<path d="M1.4,6.6c0.1,0,0.1,0,0.2,0C1.7,6.8,1.9,6.9,2,7c0.1,0.1,0.1,0.3,0,0.4C2,7.5,1.8,7.6,1.7,7.5C1.5,7.4,1.3,7.2,1.2,7.1
			C1.1,7,1.1,6.9,1.1,6.8C1.2,6.7,1.3,6.6,1.4,6.6z"/>
		<path d="M13.6,7.2c0-0.1,0-0.2,0.1-0.2c0.1-0.1,0.3-0.2,0.4-0.3c0.1-0.1,0.3-0.1,0.4,0.1c0.1,0.1,0.1,0.3,0,0.4
			c-0.1,0.1-0.3,0.2-0.4,0.3c-0.1,0.1-0.2,0.1-0.3,0C13.7,7.4,13.6,7.3,13.6,7.2z"/>
		<path d="M4.3,13.7c0,0.1-0.1,0.2-0.2,0.2c-0.1,0-0.2-0.1-0.2-0.2c0-0.1,0.1-0.2,0.2-0.2C4.2,13.4,4.3,13.5,4.3,13.7z"/>
		<path d="M7.9,7.1c0.7,0,1.3,0.6,1.3,1.3c0,0.7-0.6,1.3-1.3,1.3c-0.7,0-1.3-0.6-1.3-1.3C6.5,7.7,7.1,7.1,7.9,7.1z M7.9,7.7
			C7.5,7.7,7.2,8,7.1,8.4c0,0.4,0.3,0.7,0.7,0.7c0.4,0,0.7-0.3,0.7-0.7C8.6,8.1,8.3,7.8,7.9,7.7z"/>
		<path d="M7.5,8.3c0-0.1,0.1-0.2,0.2-0.2c0.1,0,0.2,0.1,0.2,0.2c0,0.1-0.1,0.2-0.2,0.2C7.6,8.5,7.5,8.4,7.5,8.3z"/>
	</g>
</g>
</svg>
