<?xml version="1.0" encoding="utf-8"?>
<!-- Generator: Adobe Illustrator 27.6.1, SVG Export Plug-In . SVG Version: 6.00 Build 0)  -->
<svg version="1.1" id="Layer_3" xmlns="http://www.w3.org/2000/svg" xmlns:xlink="http://www.w3.org/1999/xlink" x="0px" y="0px"
	 viewBox="0 0 32 32" style="enable-background:new 0 0 32 32;" xml:space="preserve">
<style type="text/css">
	.st0{fill:#FFFFFF;}
</style>
<g id="AKhZnz_00000078740766417640578870000005377149736456320181_">
	<g>
		<path class="st0" d="M15.2,7.2c1.2,0,2.4-0.1,3.5,0.2c0.9,0.2,1.8,0.4,2.6,0.7c0.5,0.2,1,0.4,1.5,0.7c0.8,0.3,1.5,0.8,2.2,1.2
			c0.3,0.2,0.6,0.4,0.9,0.6c0.6,0.4,1.2,0.9,1.7,1.3c0.4,0.3,0.8,0.7,1.2,1c0.4,0.3,0.7,0.8,1.1,1.1c0.4,0.3,0.6,0.8,1,1.1
			c0.1,0.1,0,0.1,0,0.2c-0.4,0.4-0.7,0.9-1.1,1.3c-0.2,0.1-0.3,0.3-0.5,0.5c-0.8,0.8-1.6,1.5-2.5,2.2c-0.5,0.4-1.1,0.8-1.7,1.2
			c-0.7,0.4-1.4,0.8-2.1,1.2c-0.9,0.5-1.9,0.8-2.9,1.1c-1.6,0.4-3.2,0.6-4.8,0.5c-1,0-2-0.2-3-0.5c-0.9-0.2-1.7-0.5-2.5-0.8
			c-0.9-0.4-1.8-0.8-2.7-1.4C6,20.1,5,19.4,4,18.5c-0.6-0.5-1.1-1-1.6-1.5c-0.5-0.5-0.9-1-1.3-1.5c-0.1-0.1-0.1-0.1,0-0.3
			c0.4-0.4,0.7-0.9,1.1-1.3c0.2-0.2,0.4-0.4,0.6-0.7c0.1-0.2,0.4-0.3,0.5-0.5c0.6-0.5,1.2-1,1.8-1.5c0.6-0.5,1.2-0.9,1.8-1.3
			c0.6-0.4,1.3-0.8,2-1.1c1-0.5,2-0.9,3.1-1.2c0.5-0.2,1.1-0.3,1.7-0.4C14.1,7.3,14.7,7.2,15.2,7.2z M10.8,15.3
			c0,2.9,2.3,5.2,5.2,5.2c2.9,0,5.4-2.3,5.2-5.6C21,12.4,19,10.2,16,10.1C13.1,10.1,10.8,12.4,10.8,15.3z"/>
		<path class="st0" d="M16,18.9c-2,0-3.6-1.7-3.6-3.6c0-1.9,1.6-3.8,3.9-3.7c1.7,0.1,3.3,1.6,3.3,3.7C19.6,17.3,18,19,16,18.9z
			 M18.1,15.4c0.3,0,0.4,0,0.4-0.3c0.1-0.3,0-0.6-0.2-0.9c-0.4-0.6-0.9-1.1-1.6-1.4c-0.2-0.1-0.4-0.2-0.6,0.1
			c-0.2,0.2-0.1,0.4-0.1,0.7c0.2,0.5,0.5,0.9,0.9,1.2C17.3,15.1,17.6,15.4,18.1,15.4z"/>
	</g>
</g>
</svg>
