<?xml version="1.0" encoding="utf-8"?>
<!-- Generator: Adobe Illustrator 27.6.1, SVG Export Plug-In . SVG Version: 6.00 Build 0)  -->
<svg version="1.1" id="Layer_1" xmlns="http://www.w3.org/2000/svg" xmlns:xlink="http://www.w3.org/1999/xlink" x="0px" y="0px"
	 viewBox="0 0 189.8 253.5" style="enable-background:new 0 0 189.8 253.5;" xml:space="preserve">
<style type="text/css">
	.st0{fill:none;}
	.st1{fill:#FFFFFF;}
	.st2{fill:#73AFE2;}
	.st3{fill:#E9DDB4;}
	.st4{fill:#CDA95F;}
	.st5{fill:#5C567E;}
	.st6{fill:url(#SVGID_1_);}
	.st7{fill:url(#SVGID_00000021094728585570715890000003807323617736691621_);}
	.st8{fill:url(#SVGID_00000156562307909142464300000004058430757314036360_);}
	.st9{fill:url(#SVGID_00000165200538736689083200000007977039270625689521_);}
	.st10{fill:url(#SVGID_00000106840480606120698830000013260769926394068878_);}
	.st11{fill:#101D26;}
</style>
<pattern  x="-864.8" y="-410.8" width="5" height="5" patternUnits="userSpaceOnUse" id="VT_Halftone_5" viewBox="0.8 -5.8 5 5" style="overflow:visible;">
	<g>
		<rect x="0.8" y="-5.8" class="st0" width="5" height="5"/>
		<circle cx="4.6" cy="-0.8" r="0.8"/>
		<circle cx="2.1" cy="-0.8" r="0.8"/>
		<circle cx="5.8" cy="-3.3" r="0.8"/>
		<circle cx="3.3" cy="-3.3" r="0.8"/>
		<circle cx="0.8" cy="-3.3" r="0.8"/>
		<circle cx="4.6" cy="-5.8" r="0.8"/>
		<circle cx="2.1" cy="-5.8" r="0.8"/>
	</g>
</pattern>
<g id="Lna6Sz.tif">
	<g>
		<path class="st1" d="M6.3,89.5c0-1.4,0-2.8,0-4.2C6.7,85,6.5,84.5,6.6,84c0.1-2.1,0-4.3,0.3-6.3c0.9-4.7,1.7-9.5,3.5-13.9
			c1.2-3,2.5-6,4-9c2.3-4.5,5.1-8.7,8.2-12.6c3.2-4,6.7-7.7,10.7-10.9c2.1-1.7,4.1-3.4,6.4-4.9c2.2-1.4,4.4-3,6.7-4.2
			c2-1.1,3.9-2.3,5.9-3.3c3.2-1.5,6.6-2.9,9.9-4c1.5-0.5,2.9-1.1,4.4-1.4c3.5-0.8,6.9-1.9,10.5-2.3c2-0.2,3.9-0.9,5.9-1
			c2.6-0.1,5.2-0.6,7.8-0.4c0.3,0,0.5,0,0.6-0.3c1.8,0,3.6,0,5.4,0c1.8,0.7,3.8,0.4,5.6,0.5c4.4,0.2,8.7,1.1,13,1.9
			c2.7,0.6,5.4,1.3,8,2.1c1.3,0.4,2.7,0.9,4,1.4c3.2,1.1,6.3,2.5,9.4,3.9c1.8,0.9,3.5,2,5.3,2.9c2.6,1.4,5,3,7.4,4.7
			c2.7,2,5.5,4,7.8,6.4c1.2,1.2,2.7,2.2,3.8,3.5c2.4,2.9,5,5.6,7.1,8.8c1.3,2,2.7,3.9,3.9,6c1.4,2.3,2.5,4.8,3.6,7.2
			c1.2,2.4,2.1,5,2.9,7.5c1.1,3.5,1.9,7,2.3,10.7c0.5,3.9,1,7.7,1,11.6c0,1.3-0.3,2.5-0.2,3.8c0.2,3.8,1.1,7.5-0.2,11.3
			c-0.9,2.4-0.6,5.2-1.2,7.8c-0.6,2.7-0.4,5.6-0.9,8.3c-0.6,3.1-1.3,6.1-3,8.7c-0.3,0.4-0.8,0.8-0.8,1.2c-0.5,2.7-1.9,5-3,7.5
			c-0.5,1.1-1.4,2.1-1.5,3.3c-0.5,3.2-1.9,6-3.7,8.6c-1.4,1.9-3.3,3.7-2.9,6.4c0,0.2-0.1,0.4-0.2,0.5c-1.2,1.5-1.6,3.4-2.3,5.1
			c-0.6,1.6-1.2,3.1-2,4.6c-1,2-1.9,4.1-2.7,6.2c-0.7,1.9-1.6,3.6-2.7,5.3c-1,1.6-1.4,3.7-3.2,4.8c-0.7,0.4-1.3,1.3-1.2,2.1
			c0.1,1.5-0.6,2.9-0.7,4.3c-0.2,1.8-0.5,3.6-1.6,5.3c-1.2,1.8-2.7,3.4-3.9,5.2c-0.8,1.1-1.7,2.2-2.4,3.4c-1,1.6-2.4,3-3.7,4.4
			c-2.4,2.5-3.6,6.2-7.3,7.5c-0.1,0-0.2,0.2-0.3,0.3c-1.9,1.6-3.9,3.2-5.1,5.4c-0.9,1.5-2.6,2.4-3,4.4c-0.2,1,0.4,1.7,0.1,2.7
			c-0.9,3.3-2.6,6.2-4.5,8.9c-0.9,1.2-1.7,2.6-3.1,3.3c-1.6,0.8-2.6,1.9-3.4,3.6c-0.7,1.5-2.5,1.9-3.3,1c-1.1-1.2-1.9-0.8-2.8,0.2
			c-1,1.2-2.2,2.1-3.9,2c-0.5,0-0.9,0.3-1.3,0.8c-0.5,0.7-1.1,1.5-2.1,0.5c-0.1-0.1-0.4-0.1-0.6-0.1c-1.1,0.6-1.8,0.3-2.4-0.8
			c-0.3-0.5-0.9-0.5-1.4-0.7c-0.5-0.2-1.3-0.2-1.6-0.5c-0.7-0.9-1.3-0.6-2-0.2c-0.4,0.2-0.7,0.4-1.1-0.1c-0.5-0.7-1.1-1.3-2.2-0.8
			c-0.4,0.2-1-0.2-1.2-0.6c-1.1-1.7-2.8-2.7-4.5-3.7c-2.6-1.5-4.5-3.5-5.9-6.2c-0.5-1-0.5-2.1-1.1-3c-2-2.9-3.5-5.9-3.8-9.5
			c0-0.6-0.5-0.8-0.9-1.1c-1.6-1.1-2.7-2.7-3.9-4.2c-1.2-1.4-1.8-3.2-3.9-4c-2.7-1.1-5.3-2.7-7.3-4.9c-0.3-0.3-0.7-0.6-1.2-0.3
			c-0.4,0.3-0.7,0.6-0.7,1.2c-0.1,1.1,0,2.2-0.1,3.2c-0.3,1.9-0.7,3.8-1,5.8c-0.8,5.6-2.4,10.9-5.8,15.5c-2,2.6-5.5,3.6-8.4,0.6
			c-1.3-1.4-2.3-2.9-3.1-4.6c-1.2-2.4-2-5-2.7-7.5c-0.9-3.3-1.2-6.6-1.7-10c-0.2-1.4-0.9-3-0.3-4.3c0.4-0.9,0.6-1.8,0.5-2.7
			c-0.2-1.4-0.1-2.8,0.1-4.1c0.4-3.4,0.6-6.8,0.5-10.2c-0.1-2.1,0-4.2,0.4-6.2c0.9-3.7,2.1-7.4,3.9-10.7c1-1.7,1.8-3,0.1-4.7
			c-0.3-0.3-0.2-0.6,0.1-0.9c0.2-0.2,0.5-0.6,0.7-0.2c0.5,1,1.6,0.8,2.4,1.2c0.2,0.1,0.6,0.6,0.9,0.1c0.2-0.4,0.2-0.8-0.2-1.1
			c-1-0.7-1.6-1.9-2.7-2.3c-1.9-0.8-2-2.4-2.4-3.9c-0.1-0.4-0.2-0.7-0.3-1.1c-0.8-2.1-2.6-3.2-4.2-4.4c-2.9-2.1-5.8-4.2-8-7.1
			c-2-2.6-3.9-5.2-5.5-8.1c-1.3-2.2-2.4-4.4-3.1-6.8c-0.9-2.9-1.7-5.9-2.2-8.9c-0.2-1.1,0.1-2.2-0.3-3.2c-0.8-2.7-0.5-5.3,0-8
			c0.3-1.6,0.4-3.4-0.1-5c-0.6-2.3-1.2-4.6-1.7-6.9C7,98,6.7,94.2,6.6,90.3C6.6,90,6.6,89.7,6.3,89.5z"/>
	</g>
</g>
<g id="EiH7f6.tif_00000025410160558448933360000005818554604709057942_">
	<g>
		<path class="st2" d="M35.2,166.6c0.3,0.9,0.6,1.6,0.7,2.2c0.2,0.9,0.7,1.1,1.5,1.1c0.7,0,1.4,0.1,1.9,0.7c0.5,0.4,1.1,0.5,1.6-0.1
			c0.5-0.7,0-1.3-0.5-1.5c-1.5-0.6-2.5-1.9-3.4-3.1c-0.1-0.1-0.2-0.3-0.3-0.3c-1.7,0-1.5-1.3-1.8-2.4c-0.7-2.8-2.8-4.8-5-6.4
			c-3.1-2.4-6-4.7-8.5-7.8c-2.8-3.5-5.2-7.2-7.2-11.1c-1.9-3.8-2.7-7.9-3.2-12.1c-0.4-3.7-1-7.3-0.5-11c0.3-2.3,0.2-4.6-0.5-6.9
			c-1.5-5.1-2.5-10.2-2.9-15.6c-0.3-4.4,0-8.8,0.2-13.2c0.1-2.7,0.9-5.5,1.5-8.2c0.9-4.2,2.3-8.4,4.1-12.3c1.5-3.3,3.1-6.5,5-9.6
			c2.8-4.3,5.8-8.4,9.3-12.2c4.2-4.5,8.9-8.5,13.9-12c3.4-2.3,6.8-4.5,10.5-6.3c3.8-2,7.8-3.6,11.9-5c3.1-1.1,6.3-1.9,9.4-2.8
			c3.7-1,7.6-1.5,11.5-2c6.3-0.9,12.7-0.7,19-0.5c3.9,0.1,7.8,0.8,11.7,1.5c3.8,0.8,7.6,1.7,11.3,2.7c2.5,0.7,4.9,1.6,7.2,2.6
			c3,1.3,6.1,2.6,9,4.2c3.3,1.8,6.5,3.7,9.5,5.9c4.6,3.3,9,6.9,12.9,11.1c4.5,4.8,8.5,9.9,11.6,15.6c2.4,4.4,4.5,9,5.9,14
			c0.7,2.3,1.4,4.6,1.9,7c0.9,4.4,1.4,8.8,1.4,13.3c0.1,5.8-0.7,11.5-1.6,17.2c-0.3,1.8-0.4,3.6-0.3,5.3c0.2,3.9,0.1,7.8-0.6,11.7
			c-0.4,2.5-0.9,5.3-2.3,7.3c-1.6,2.2-1.9,4.7-2.9,6.9c-0.7,1.5-1.8,2.7-2.3,4.3c-0.5,1.4-1,2.8-1.3,4.3c-0.6,2.8-2,5-3.8,7.1
			c-1.2,1.4-2.4,3-3,4.8c-0.3,1.1,0,2.2-0.7,3.3c-1.7,2.5-1.9,5.6-3.3,8.3c-0.7,1.2-1.2,2.5-1.7,3.8c-0.7,1.5-1.3,3-1.7,4.6
			c-0.4,1.2-1.1,2.5-1.9,3.5c-0.6,0.7-1,1.5-1.3,2.3c-0.4,1.1-0.7,2.1-2,2.5c-0.8,0.3-1,1.6-1.2,2.5c-0.6,2.2-1.1,4.4-1.4,6.7
			c-0.3,1.9-1.1,3.6-2.3,5c-2.4,2.7-4.2,5.8-6.6,8.5c-1.8,2.1-3.4,4.3-5,6.4c-1.6,2-3.7,3-5.5,4.6c-2.3,2-4,4.6-6.2,6.7
			c-1.7,1.7-1.9,3.5-1.9,5.7c0,2-0.5,3.8-1.8,5.5c-0.8,1-1.3,2.2-2,3.3c-1.4,2-3.1,3.7-5.4,4.7c-0.6,0.2-1,0.8-1.2,1.5
			c-0.1,0.3-0.2,0.7-0.3,1c-0.3,0.8-1.1,1-1.6,1.6c-0.9,1-1.3,0-1.9-0.2c-1.9-0.8-2.5-0.6-4.5,1.6c-0.6,0.6-1,1-1.9,0.6
			c-0.6-0.2-1.2,0.2-1.7,0.7c-0.6,0.6-1.2,1.1-2.2,2c0-1,0-1.6,0-2.3c0-0.3,0.1-0.7-0.4-0.7c-0.4-0.1-0.7,0.1-0.8,0.5
			c-0.2,0.7-0.1,1.8-1,1.7c-0.6-0.1-0.1-1.3-0.3-1.9c0-0.1-0.1-0.3-0.1-0.4c-1,0.8-2.8,0.8-3.9-0.1c-0.7-0.5-1.2-1.2-1.9,0
			c-0.5,0.8-1,0.3-1.5-0.3c-0.4-0.5-0.2-1.2-0.7-1.6c-1.6,1.4-1.7,1.4-3.2-0.5c-1.5-2-3.6-3.2-5.6-4.6c-2.7-1.9-4-4.6-5.2-7.5
			c-1.1-2.7-1.6-5.7-2.2-8.6c-0.3-1.3-1.3-2-2.3-2.7c-2.5-1.7-4.5-3.8-5.8-6.6c-0.7-1.5-2.4-1.9-3.8-2.5c-2.2-1-4.2-2.2-5.8-4
			c-0.5-0.6-1.2-0.8-1.9-0.7c-0.8,0.1-0.8,1-0.8,1.6c-0.4,5.9-1.4,11.7-3.2,17.3c-1.1,3.5-2.7,6.8-5.7,9.3c-1.5,1.2-5,0.9-6.5-0.7
			c-2.3-2.6-3.8-5.7-4.8-8.9c-1.5-4.5-2.4-9.2-2.8-13.9c-0.3-3.4-0.7-6.9-0.6-10.3c0.2-5.6,0.5-11.1,1.7-16.6
			c1-4.5,2.2-8.7,4.4-12.8c0.3-0.5,0.6-0.8,0.9-1.2c0.5-0.7,0.6-1.5-0.2-1.8C34.8,169.9,35,168.4,35.2,166.6z M90.3,162.4
			c-1.1-0.9-2.2-1.2-3.4-1.4c-0.5-0.1-1.3-0.3-0.6-1.1c0.6-0.7,3-1.1,3.8-0.6c1.1,0.7,2.2,1.3,3.4,1.8c4,1.8,7.8,1.7,11.4-1
			c1.1-0.8,2.5-1.3,3.3-2.6c0.1-0.1,0.5-0.2,0.7-0.1c0.8,0.4,1.9,0.7,2.1,1.5c0.1,0.8-0.9,1-1.7,1.2c-0.4,0.2-0.9,0.3-1.2,0.5
			c-0.8,0.5-0.9,1-0.1,1.6c0.6,0.6,1.5,0.6,2.2,0.4c0.7-0.2,1.3-0.1,1.9,0.1c1.9,0.6,3.7,1.3,4.9,2.9c0.3,0.4,0.5,0.4,0.9,0.3
			c0.5-0.1,0.6-0.6,0.5-0.8c-0.3-0.8,0-1.6-0.4-2.4c-1.1-2-1.6-4.3-2.9-6.2c-0.4-0.7-0.2-1.2,0.4-1.7c0.6-0.5,1-0.6,1.7-0.1
			c1.7,1.2,3,2.8,4.3,4.4c2.3,2.6,4.5,5.1,7.3,7.2c0.6,0.5,1.1,1,0.6,1.9c-0.6,1.2-1.3,2.5-1.7,3.8c-0.8,2.1-2.3,4.2-1.3,6.6
			c0.9,2.2,1.4,4.5,1.9,6.8c0.3,1.5,1,3.2,0.4,4.5c-0.8,1.6-0.4,2.8,0.5,4c1,1.4,2.1,2.8,2.4,4.6c0.2,1,0.6,1.6,1.5,1.5
			c0.8-0.1,1.7-0.4,2-1.5c0.6-2.3,1.1-4.6,1.5-6.9c0.1-0.6,0.4-1.6,1.2-0.3c0.5,0.8,1.3,0.7,1.7,0c0.6-0.9,1-1.9,1-3.2
			c0-1.7,0.4-3.3,0.3-5c0-0.2-0.1-0.6,0.3-0.6c0.4,0,0.5,0.2,0.5,0.6c0,0.3,0,0.5,0,0.8c0.1,0.6,0.2,1.2,0.9,1.2
			c0.7,0,0.9-0.5,1.1-1c0.3-1.1,0.1-2.2,0.1-3.4c0.2-3.5,0.9-6.9,1.5-10.3c0.4-2.3,1.2-4.6,1.9-6.9c1.4-4.2,1.2-8.6,1.8-13
			c0.2-1.7-0.4-2.6-2.1-3c-1.4-0.4-2.9-0.5-4.3-0.6c-0.3,0-0.7,0.1-0.8-0.3c-0.1-0.4,0.2-0.6,0.5-0.6c1.8-0.1,2.6-1.6,3.8-2.6
			c1.2-1,0.5-2.6-1.1-2.9c-0.7-0.1-1.5,0-2.3,0c0.1-0.7,0.5-1,0.8-1c1-0.1,1.5-1,2.2-1.5c0.9-0.7,0.7-1.6-0.2-2.2
			c-0.9-0.6-1.9-0.9-3-0.8c-1.5,0.1-2.9,0.4-4.4,0.3c-1,0-2.1,0.4-2-1.3c0-0.6-0.8-1-1.4-1.2c-1.2-0.4-2.4-0.9-3.6-1.1
			c-3.8-0.4-7.7-0.6-11.5-0.7c-1.6,0-3.1-0.1-4.7-0.4c-0.7-0.1-1.4-0.3-2.1-0.9c-1.7-1.6-2.1-3.7-3.3-5.5c-1.2-2-0.4-3.3,0.7-4.9
			c1.2-1.8,2.5-3.4,4.7-4.2c0.8-0.3,1.5,0,2.2-0.4c1.8-1.1,4.1-1.2,5.8-2.4c1.4-0.9,2.8-0.8,4.2-0.8c1.8,0,3.7,0,5.5,0
			c0.7,0,1.3,0.2,1.9,0.4c2.4,1.1,3.9,3,5,5.4c0.5,1,0.6,2.2,1.2,3c0.9,1.2,1,2.1,0.7,3.5c-0.3,1-0.1,1.9,1.3,2.2
			c1.3,0.3,2.4-0.1,3.6-0.1c1.9,0,2.3-0.3,2.1-2.1c-0.4-2.8-1.2-5.6-1.9-8.4c-0.3-1.1-0.5-2.1-2-1.8c-0.2,0-0.5,0-0.6-0.3
			c-0.5-1.2-1.4-2.1-2-3.2c-1.6-3-3.9-5.3-6.5-7.3c-1.1-0.8-2.2-0.9-3.2-0.3c-2.3,1.3-4.8,2.5-7,4.1c-2.8,2-6,3.4-9.2,4.6
			c-1.8,0.7-3.6,1.1-5.3,2.1c-0.8,0.5-2.2,1.1-2.7,0.8c-1.1-0.7-2.1-0.7-3.2-0.7c-0.6,0-1-0.3-1.2-0.7c-0.2-0.5,0.2-0.9,0.7-1.2
			c2.3-1.7,4.6-3.2,6.7-5.2c2.5-2.4,5.1-4.7,7-7.6c0.4-0.6,0.6-1.3,0-1.9c-0.6-0.6-1.2-0.4-1.7,0c-0.2,0.1-0.5,0.2-0.6,0.4
			c-0.9,1.1-1.8,1-2.9,0.3c-0.7-0.4-1.2-0.2-1.9,0.2c-1.5,0.7-2.6,1.9-3.7,3c-4.7,4.3-13.4,4.7-18.6,0.1c-1.3-1.2-2.2-2.6-3.2-4
			c-0.6-0.8-1.4-1.1-2.1-1c-1.9,0.4-3.8,0.1-5.8,0.2c-1.2,0-2.1,0.5-2.5,1.6c-0.4,1,0.1,1.9,0.8,2.6c0.9,0.9,1.9,1.8,2.8,2.7
			c3.2,3.3,6.8,6.1,10.6,8.7c1.1,0.8,1.2,1.3,0.6,2.4c-0.8,1.4-1.9,1.1-2.9,0.9c-3.1-0.7-6.3-1.2-9.3-2.2c-4.9-1.5-9.3-3.9-13.5-6.6
			c-2.5-1.6-2.7-1.6-4.9,0.5c-0.8,0.8-1.7,1.6-2.7,2.1c-2.8,1.2-3.9,3.8-5.6,5.9c-0.2,0.2-0.1,0.8-0.6,0.7c-0.5-0.1-0.3-0.6-0.3-0.9
			c0-0.3,0-0.5,0-0.8c0.1-0.7,0-1.4-0.9-1.5c-0.8-0.1-1.2,0.3-1.7,0.9c-1.6,2.3-2.4,4.8-2.8,7.5c-0.3,1.8-0.6,3.8,0.4,5.5
			c1.4,2.5,4.2,3,6.5,2.7c0.9-0.1,1.8-0.9,1.4-2.1c-0.3-1.1,0.2-1.9,0.8-2.6c0.7-1,1.5-1.9,1.8-3.1c0.4-1.8,1.1-3.4,2.5-4.5
			c1.1-0.9,2.1-2,3.9-2.2c2.2-0.2,4.4-0.2,6.6-0.8c1.3-0.4,2.3,0.1,3.2,0.8c1,0.8,2.3,1.3,3.5,1.6c2.1,0.7,4.2,1.2,6.5,1.5
			c2.1,0.2,3.7,2.1,4.9,3.9c0.8,1.2,0.5,1.9-0.9,2.5c-0.4,0.2-1,0.1-0.6,0.9c1,1.8,0.9,2.6-0.4,4.1c-1.9,2.2-4.5,3.3-7.2,4
			c-1.9,0.5-3.8,0.5-5.7,1c-2.6,0.7-5.3,0.7-7.9,0.3c-1.7-0.2-4.4,0.9-5.1,2.4c-0.4,0.9-1,1.2-1.9,1.4c-3,0.7-6.1,1-8.9,2.4
			c-0.8,0.4-1.2,0.8-1,1.7c0.3,1,1,0.9,1.7,0.7c2.5-0.7,4.9-0.5,7.4-0.5c0.3,0,0.4,0.2,0.5,0.5c-1.2,0-2.3,0.4-3.4,0.6
			c-2.4,0.4-4.8,1.1-6.9,2.5c-1,0.6-0.8,1.1,0.2,1.6c1.3,0.6,2.5,1,3.9,0.9c0.4,0,1.1,0.1,1.1,0.6c0,0.5-0.6,0.5-1.1,0.5
			c-0.4,0-0.8,0-1.2,0c-1.6,0.1-2.4,0.8-2.3,2.4c0.2,3.2,1.5,6.2,1.9,9.4c0.4,2.7,2.3,5.3,1.2,8.2c-0.1,0.1,0.1,0.4,0.2,0.6
			c1.9,5.5,3.6,11.1,4.3,17c0.3,1.9,0.7,3.9,2.2,5.3c0.5,0.5,1,1.3,1.9,1c1-0.3,1.1,0.1,1.1,0.8c0,0.7,0.1,1.2,1,1.1
			c0.9,0,1.1-0.6,1.2-1.3c0.3-1.8,0.8-3.6,1.4-5.3c0.2,0.1,0.3,0.2,0.3,0.3c0.4,3.4,1.6,6.6,2,10c0.2,1.3,0.9,2.5,1,3.9
			c0.1,0.6,0.6,1.1,1.3,1.1c0.9,0.1,1-0.9,1-1.3c0-1.7-0.1-3.3-0.4-4.9c-0.4-2.1-1.1-4.2-1-6.4c0.1-4.1,1.4-7.9,3-11.6
			c1.1-2.6,0.8-4.2-1.4-6c-1.6-1.3-1.8-2.6-0.6-4.2c0.3-0.4,0.8-0.8,1.2-1.2c2.6-2.6,5.2-5.1,7.1-8.2c0.8-1.4,1.6-2.9,2.9-4
			c0.6-0.5,1.1-1.4,1.9-1c0.9,0.5,0.5,1.5,0.5,2.4c0,0.1-0.1,0.3-0.2,0.4c-0.8,2-1.2,4-1.7,6.1c-0.1,0.5-0.3,1.1,0.2,1.5
			c0.6,0.5,1.2,0.1,1.7-0.2c1.4-0.7,2.6-1.5,4.1-2.2C87,163.1,88.8,163.4,90.3,162.4z M175.9,122.4c0.1,0.8,0,1.5-0.1,2.2
			c-0.5,2.9-1.5,5.8-1,8.8c0.1,0.3-0.1,0.7,0.5,0.8c0.4,0,0.6,0,0.8-0.5c0.4-1.3,0.9-2.6,1.4-3.8c0.8-2.1,1.5-4.2,2.3-6.2
			c0.9-2.3,1.6-4.6,1.5-7.2c-0.1-2.8-0.1-5.6,0-8.4c0.1-4-0.6-7.8-1.8-11.5c-1.8-5.7-3.5-11.4-5.6-16.9c-0.7-1.9-1.3-3.8-2-5.6
			c-0.9-2.2-2.4-4-4-5.6c-1-1-1.6-2.4-2.8-3.3c-2.5-1.8-4.4-4.2-6.9-6.1c-2-1.6-4.1-2.8-6.7-2.9c-0.5,0-1-0.2-1.4-0.5
			c-2.6-2.1-5.7-3.5-8.8-4.7c-1.4-0.6-2.8-0.8-4.2-1.5c-2.9-1.5-5.9-2.9-8.9-4.2c-1.3-0.6-2.7-1.1-4.4-1c0.6,0.8,1,1.4,1.5,1.8
			c2.9,2.2,6.1,4,8.7,6.7c1.7,1.8,3.9,3.1,5.8,4.7c1.9,1.5,3.6,3.3,5.5,4.8c1.7,1.3,3,2.8,4.5,4.2c1.9,1.8,3.5,4.1,5.1,6.1
			c2,2.5,3.3,5.3,4.8,8c2.2,3.9,4.7,7.7,5.6,12.2c0.1,0.4,0.4,0.8-0.1,1.2c-0.8-1.3-1.8-2.6-2.4-4c-1.2-2.5-1.9-5.2-3.5-7.7
			c-1.5-2.4-3.1-4.7-4.8-6.9c-2.4-3-5-6-7.9-8.7c-1.4-1.3-2.9-2.5-4.2-3.8c-1.6-1.7-3.4-3.3-5.4-4.7c-1.4-0.9-2.9-1.6-4.3-2.5
			c-4.4-2.7-8.4-6-13.4-7.7c-0.5-0.2-0.8-0.6-1.3,0c-0.5,0.6-0.6,1-0.1,1.6c0.6,0.8,1.2,1.5,2,2.1c0.7,0.6,1.8,1,1.9,2.5
			c-2.7-0.8-5.1-1.8-7.8-2c0,0.6,0.4,0.9,0.7,1.2c2,1.9,4.3,3.5,6.6,4.8c2.7,1.6,5.6,2.8,7.9,4.9c1.9,1.7,3.5,3.8,5.2,5.7
			c0.2,0.2,0.4,0.4,0.1,0.6c-0.3,0.2-0.5,0.1-0.8-0.2c-0.9-1.1-2-2-3.2-2.8c-3.3-2.3-7.1-3.7-10.7-5.5c-0.4-0.2-0.8-0.4-1.3-0.5
			c-0.7-0.1-1.4,0.2-1.4,0.8c0,0.9-0.3,1.9,0.3,2.9c0.7,1.2,2.1,1.4,2.9,2.6c1.6,2.3,4.1,3.6,6.5,4.9c1.5,0.9,3.1,1.7,4.4,3.1
			c-0.5,0.3-0.9,0.3-1.2,0.2c-1.2-0.6-2.6-0.8-3.8-1.3c-2.8-0.9-5.6-1.4-8.3,0.1c-1,0.5-1.7,1.2-1.8,2.4c-0.2,2-0.4,4.1,2.5,4.5
			c0.1,0,0.1,0.1,0.2,0.2c2.6,1.8,5.6,3,8.4,4.4c0.6,0.3,1.5-0.4,1.6,0.4c0.2,1.3,1.3,1.3,2.1,1.6c2.4,0.9,4.2,2.5,6.1,4.2
			c1.2,1.1,1.8,2.6,2.9,3.6c3.1,2.7,5,6.2,6.9,9.7c1.3,2.5,2.5,5.1,3.8,7.6c0.6,1.1,1.2,2.2,2,3.2c-0.3-3.2-1.2-6.2-1.4-9.4
			c1,0.4,1.2,1.5,1.8,2.2c2.7,3.2,4.8,6.9,6.5,10.7c0.9,1.8,1.7,3.6,3.7,4.9c-1.8-12.5-5.8-23.9-14.1-33.5c0.5,0,0.9,0,1.2,0.3
			c1.7,1.7,3.4,3.4,5,5.1c2.1,2.3,3.5,5.1,4.9,7.9c1.2,2.4,2.5,4.8,3.5,7.3c0.4,1,0.9,2.1,1.1,3.1c0.4,1.7,1.5,3,2.3,4.5
			c0.2,0.3,0.5,0.4,0.8,0.3c0.3-0.1,0.3-0.4,0.3-0.6c0-1.7,1-3.2,0.6-4.9c-0.1-0.3,0.1-0.6,0.5-0.8c0.2,3,0.7,5.9,1.1,8.8
			c0.5,4.3,0.4,8.5,0.1,12.7c0,0.5-0.1,0.9,0.4,1c0.4,0.1,0.5-0.3,0.7-0.7c0.7-1.5,1.2-3,1.7-4.6c0.5-1.9,1.6-3.6,2-5.5
			C175.2,123.6,175.5,123.1,175.9,122.4z M72.3,80.3c0.2-1.1,0.9-1.5,1.4-2c0.4-0.5,0.4-0.9,0.2-1.5c-0.2-0.6-0.6-0.5-1-0.6
			c-0.7-0.1-1.5-0.2-2.1,0.1c-1.9,1-4.1,0.6-6.1,1.1c-0.3,0.1-0.6,0-0.8-0.3c-0.2-0.3-0.1-0.6,0.1-0.6c1.1-0.1,1.4-1.2,2.2-1.7
			c1.9-0.9,3.4-2.4,4.9-3.8c0.4-0.3,0.8-0.9,0.9-1.5c0.3-1.4,0.4-2.9,1.6-4c0.4-0.4,0.3-1.1,0-1.6c-0.4-0.5-0.9,0-1.2,0.2
			c-1.4,0.7-2.9,1.4-4.2,2.3c-3.2,2.2-6.9,3.5-10.2,5.7c-0.3,0.2-0.7,0.2-0.8,0c-0.3-0.3,0.1-0.5,0.3-0.7c0.7-0.6,1.2-1.4,2-1.9
			c1-0.6,2.1-1,3-1.7c2.9-2.1,5.8-4.1,8.6-6.3c1.5-1.2,3.7-2,4-4.4c0.1-1,0.6-2,0.8-3c0.1-0.7,0.6-1.2,1.1-1.3c2-0.5,3.6-1.9,5.2-3
			c0.6-0.4,2-0.7,1.6-1.7c-0.2-0.5-1.6,0-2.4,0.2c-0.2,0-0.5,0.2-0.7,0.4c-1.3,0.9-3.1,0.6-4.4,1.9c-0.2,0.2-0.8,0.1-1.2,0.1
			c-0.5,0-1,0-1.5,0.3c-1.7,0.7-3.5,1.3-5.2,1.7c-1.6,0.4-3.3,0.7-5.2,0.8c0.2-0.4,0.3-0.6,0.4-0.7c1.6-0.9,2.4-2.6,4-3.5
			c2-1.2,3.8-2.9,5.6-4.3c0.1-0.1,0.4-0.3,0.4-0.4c0-0.3-0.3-0.3-0.5-0.4c-1.2-0.2-2.3,0.3-3.4,0.5c-2.5,0.6-4.8,1.9-7.1,3
			c-1.7,0.8-4.2,1.1-4.5,3.7c0,0.1-0.2,0.2-0.3,0.3c-3.5,1.9-6.6,4.6-9.6,7.1c-4,3.4-8.4,6.5-11.8,10.8c-1.7,2.1-3.1,4.4-4.7,6.6
			c-1.2,1.6-2.1,3.5-3.1,5.2c-1.3,2.2-2.7,4.3-4.1,6.4c-1,1.5-1.7,3.1-3,4.7c0.3-1.3,0.6-2.4,1-3.4c1-2.8,2-5.6,3.4-8.2
			c0.8-1.5,1.2-3.1,2.2-4.5c0.5-0.7,1.2-1.5,1.1-2.6c-0.1-0.3,0.2-0.8-0.3-0.9c-0.4-0.1-0.5,0.3-0.6,0.5c-1.9,2.4-3.7,4.8-5.6,7.2
			c-1.8,2.3-3.6,4.5-5.3,6.9c-1.1,1.5-2,3.2-2.5,5.1c-0.6,2.5-1,5-1.6,7.5c-0.5,2.1-1,4.3-0.3,6.4c0.5,1.5,0.2,2.8,0,4.3
			c-0.4,2.5-0.8,5-1.5,7.5c-0.5,1.9-0.6,3.8,0,5.7c0.2,0.5,0.5,1,0.6,1.6c0.4,2.1,1.5,4.1,2.2,6.1c0.5,1.3,1.3,2.7,1.7,4.1
			c0.5,1.4,1.3,2.5,2.2,3.6c0.3,0.4,0.6,0.3,1,0.2c0.5-0.2,0.2-0.6,0-0.9c-0.8-1.6-1.1-3.3-1.6-5c-0.2-0.8-0.9-1.5-0.5-2.3
			c0.7,0.1,0.9,0.4,1.1,1c0.7,1.9,1.8,3.6,3,5.2c0.4,0.5,0.7,0.4,0.8-0.2c0.2-2.3,0.1-4.8-1-6.7c-1-1.8-1.3-3.6-1.2-5.3
			c0.3-2.8-0.1-5.4-0.7-8c-1.7-7.2-1.3-14.1,1.4-21.1c0.3,1.8-0.1,3.3-0.2,5c-0.2,4.4,0.2,8.8,1.2,13.1c0.3,1.5,0.8,2.9,1.3,4.3
			c0.1,0.4,0.4,1.1,1,1c0.6-0.1,0.3-0.7,0.4-1.2c0.2-0.9-0.4-1.8,0.4-2.7c0.3,0.8,0.6,1.6,0.8,2.4c0.1,0.4,0.4,0.6,0.8,0.5
			c0.4-0.1,0.4-0.4,0.3-0.7c-0.1-2.9,0.8-5.5,1.5-8.3c0.2-1-0.1-2,0.3-3c0.8-1.8,1.2-3.7,1.5-5.6c0.7-3.7,1-7.6,2.5-11.2
			c0.8-1.9,1.6-3.9,2.9-5.5c0.6-0.7,0.5-1.8,1.3-2.3c1.3-0.7,1.9-2.1,3-3c0.9-0.8,1.4-2.1,2.9-2.6c-1.6,2.2-3.3,4-4.4,6.2
			c-1.8,3.5-3.4,7.1-4.9,10.8c-0.9,2.1-1.5,4.4-1.4,6.7c0.1,1.3,0.2,2.5-0.1,3.8c-0.5,2.6-0.8,5.2-0.8,7.8c0,1.2-0.3,2.5,0.1,3.7
			c0.1,0.4,0.1,1,0.7,1c0.5,0,0.5-0.5,0.6-0.9c0.4-1,0.8-2.1,1.2-3.1c0.2-0.4,0.4-0.8,0.9-0.7c0.3,0.1,0.3,0.4,0.2,0.6
			c-0.8,2.1,0.2,4.2,0.1,6.3c0,1.5,0,3.2,0.6,4.9c1.8-2.7,1.6-5.7,2.4-8.4c0.8-2.7,1-5.5,3.2-7.7c1.6-1.7,3.4-3.2,5.1-4.8
			c4-3.5,8.6-6.2,12.6-9.6c2.2-1.8,4.5-3.6,7.3-4.8c1.8-0.7,3.7-1.6,5.4-2.8c2-1.4,4.5-1.8,6.5-3.3c0.3-0.2,1-0.1,0.9-0.8
			c-0.1-0.7-0.7-0.7-1.2-0.9C76,79.7,74.3,79.7,72.3,80.3z M114.4,201.3c-2.1,2-4.5,2.6-6.8,2.5c-4.7-0.1-9.4,0.5-14.1,0.5
			c-2.5,0-5.1,0.1-7.6,0.1c-1.1,0-2.1-0.3-3.2-0.7c-2-0.8-3.4-2.4-5.2-3.4c-1.1-0.6-2-0.5-2.6,0.5c-0.8,1.6-1.6,3.3-1.4,5.2
			c0.6,4.4,0.6,8.8,1,13.3c0.4,4.1,1.2,8.1,1.7,12.2c0.1,0.7,0.3,1.4,0.6,2c0.3,0.6,0.7,1,1.4,0.2c0.6-0.7,1.1-1.4,1.1-2.4
			c0-0.9,0.4-1.6,1.4-0.9c0.8,0.5,1.5,0.3,2.3,0.1c1.6-0.5,1.7-2,2.3-3.1c1-1.8,1.8-3.7,4.1-4.2c1.2-0.2,1.7-1,2.3-1.9
			c1-1.4,0.5-3.2,1.2-4.6c0.8-1.8,0.5-2.2-1.1-3.3c-1.8-1.1-3.9-1.2-5.6-2.2c-1-0.6-2.3-1-3-2.7c5.3,2.2,10.6,1.4,15.8,1.8
			c2.7,0.2,5.4,0,8.1-0.3c2.1-0.2,4.1-0.8,6.1-1.7c1.2-0.5,2.4-1,3.7-1.5c-1.6,2.1-3,4.1-5.3,5.6c-1.6,1-3.3,1.4-5,2.1
			c-1.2,0.5-1.4,1.3-1.2,2.3c0.2,1.1,1.1,1.6,2.2,1.8c1,0.2,1.8,0.6,1.8,1.9c0,0.8,0.6,1.8,1.5,2.1c1.3,0.5,2.1,1.3,2.5,2.5
			c0.3,0.8,0.8,1.1,1.6,1c2.2-0.2,3.4,0.8,4.3,2.7c0.5,0.9,1,2,2.1,2.5c0.4,0.2,0.8,0.4,1-0.1c0.5-0.9,1.3-1.7,1.2-2.9
			c-0.3-3.3,0.6-6.5,0.4-9.8c-0.2-2.4,0.2-4.8-0.1-7.1c-0.3-2.9-0.4-5.8-0.2-8.6c0.1-1.6,0.1-2.8-1.4-3.8c-0.8-0.5-1.8-0.8-2.7-1.2
			c-0.8-0.3-1,0.5-1.5,0.8c-0.4,0.3-0.8,0.4-0.9-0.2c-0.4-1.5-1.5-1.4-2.5-1c-2.1,0.9-4.3,1.2-6.5,1.3c-3.5,0-6.8,1-10.3,0.7
			c-0.1,0-0.3,0-0.5,0c-4.3,0.3-8.6,0.8-12.9-0.5c-1-0.3-2.3-0.7-3.5-0.2c2.8,3.4,3.6,4,7.8,3.7c1.5-0.1,2.9-0.4,4.4-0.3
			c3.1,0.3,6.2,0.5,9.3,0.3C106.5,202.5,110.4,202.9,114.4,201.3z M77.7,66.6c-0.4-0.5-0.2-1.6-1.2-1.4c-0.9,0.2-1.1,1.1-1.2,1.9
			c0,0.9,0,1.7,0,2.6c0,1.5,0.7,2.9,2,3.5c1.7,0.8,2.2,2,2.3,3.7c0.2,3.2,3.2,5.8,5.6,5.8c2.8,0,5,1.4,7.3,2.8
			c1.6,1,3.3,1.8,5.4,1.3c2-0.4,3.5-1.3,4.9-2.8c0.4-0.5,0.8-1.5,1.7-1.3c2.1,0.6,3.6-1,5.4-1.4c1.2-0.3,2.4-1.5,2.8-2.8
			c0.4-1.1,0.6-2.2,0.4-3.4c-0.2-1.1,0.2-1.9,1.2-2.5c0.7-0.4,1.5-1.2,1.7-1.9c0.4-2.1,1.1-4.2,0.1-6.3c-0.8-1.6-1.4-3.4-2.2-5
			c-0.2-0.3-0.6-1.4-1.1-0.2c-0.6,1.5-1,3.1-1.3,4.7c-0.2,1.2,0,2.5-0.5,3.7c-1.5-0.7-1.2-2-1.2-3.2c0-0.6,0-1.3-0.6-1.4
			c-0.7-0.1-0.8,0.6-1,1.1c-1.6,2.9-1.1,6.3-2,9.4c-0.8,2.7-4.8,7.3-8.3,6.9c-1.8-0.2-3.6,0-5.4-0.3c-2.7-0.5-4.2-2.3-5.3-4.5
			c-1.3-2.5-1.3-5.3-1.3-8.1c0-1.5-0.4-3-0.8-4.4c-0.1-0.3-0.2-0.7-0.6-0.7c-0.5,0-0.6,0.3-0.6,0.7c-0.2,1.5-1.2,2.7-1,4.3
			c0.1,0.7-0.3,1.4-1,2.1c-0.2-1-0.6-1.7-0.4-2.5c0.2-1.1-0.9-1.7-1.5-2.1c-0.6-0.5-1.1,0.6-1.5,1.1C78.2,66.3,78.2,66.6,77.7,66.6z
			 M35.4,202.7c-0.5-1-0.4-1.8-0.5-2.4c-0.8-3.4-1.1-6.9-1.3-10.5c0-0.5,0.1-1.3-0.5-1.4c-0.7-0.1-1.1,0.6-1.2,1.2
			c-0.5,2.4-1.3,4.7-1.3,7.1c-0.3,7.6,0.1,15.2,2.4,22.6c0.9,2.8,2.1,5.4,2.9,8.2c0.6,2.4,2,4.1,3.8,5.6c2.1,1.7,4.7,1.9,6.2,0.3
			c1.2-1.3,1.8-3,2.4-4.6c0.8-2.2,1.3-4.5,1.5-6.8c0.1-1.1,0.2-2.3-0.7-3.6c-0.4,2.4-0.8,4.4-1.8,6.3c-0.6,1.2-1.4,2.5-1.6,3.8
			c-0.2,1.1-0.6,1.9-1.5,2.1c-0.8,0.2-1.4-0.6-1.9-1.3c-0.2-0.3-0.5-0.4-0.7-0.7c-0.8-1.7-1.1-3.5-1.6-5.2c-0.9-3.3-1.3-6.7-2-10
			c-0.9-5-0.5-10-0.6-14.9c-0.1-3.8,0.8-7.7,0.8-11.6c0-0.3,0.4-0.7-0.2-0.9c-0.5-0.1-0.6,0.4-0.7,0.7c-0.9,2.8-1.7,5.6-1.7,8.5
			C35.6,197.5,35.2,199.9,35.4,202.7z M111.6,176.8c0,0.2,0,0.3,0,0.5c-1.3-0.1-2.7-0.1-4-0.5c-2.1-0.6-4.4-1.1-6.5-1
			c-3.3,0.2-6.7-0.1-9.7,1.7c-0.2,0.1-0.5,0.1-0.8,0.1c-2.5-0.2-4.8,0.5-7.1,1.2c-0.4,0.1-0.8,0.2-0.8,0.7c0,0.5,0.3,0.8,0.7,0.8
			c1.8,0,3.4,0.7,5.2,0.7c5.5-0.1,11,0.1,16.5-0.3c2.5-0.2,4.8-0.9,7.3-1c0.5,0,1.1-0.4,1.3-0.9c0.4-1.3,1.3-0.9,2.3-0.9
			c1.1,0,1.7,0.2,2.3,1.2c0.9,1.4,2,2.6,3,3.8c0.3,0.3,0.9,0.5,0.8-0.1c-0.2-1.7-0.5-3.8-1.9-4.7c-1.1-0.8-1.6-1.8-2.3-2.9
			c-0.6-0.9-1.5-1.9-2.5-1.9c-4.5-0.1-8.7-1.8-13.2-2.3c-4.7-0.5-9,0.1-13.4,1.7c-2,0.8-4.1,1.5-6.4,1.4c-2.2,0-4,2.2-3.6,4.5
			c0.8-0.4,1.6-0.9,2.4-1.1c2.8-0.5,5.6-1,8.4-1.5c4-0.8,8.1-1,12.2-1C105.4,174.8,108.3,176.5,111.6,176.8z M97.7,242.6
			c0.9,0.8,1.8,1.4,2.9,1.1c1.1-0.3,1.4,0.1,1.7,1c0.4,1.3,1.2,1.6,2.1,0.8c1.3-1.1,2.7-2.3,2.5-4.3c0-0.3-0.3-0.8,0.3-1
			c0.1,0,0.3,0,0.4,0.1c0.4,0.4-0.1,0.7-0.3,1c-0.4,0.8,0,1.4,0.4,1.9c0.4,0.5,0.9,0.1,1.5-0.1c1.9-0.9,3.9-1.3,5.6-2.7
			c1-0.9,1.9-1.7,2.6-2.9c0.2-0.4,0.1-0.6-0.1-1c-0.9-1.4-1.8-1.3-2.9,0.3c-0.3,0.4-0.4,1.2-1.1,1c-0.6-0.2-0.6-0.8-0.7-1.3
			c-0.1-0.6-0.1-1.5-1-1.4c-0.8,0.1-1.4,0.6-1.4,1.5c0,0.7-0.1,1.3-1,1.7c0.2-0.9,0-1.6,0.3-2.4c0.2-0.6,0.5-1.7-0.4-2
			c-0.8-0.3-1.5,0.3-1.9,1c-0.6,1-1.2,2-1.3,3.2c-0.1,0.9-0.4,1.5-1.6,0.8c-0.9-0.5-1.5-0.9-1.9-1.8c-0.3-0.7-0.9-1-1.5-1.1
			c-0.6,0-1.1,0.3-1.1,1c-0.1,0.6-0.6,0.5-0.9,0.5c-0.4,0-0.7-0.1-0.9-0.6c-0.1-0.5-0.3-1.2-1-1.3c-2-0.3-2-1.9-2.4-3.3
			c-0.2-0.8-0.1-2.3-1-2.2c-0.9,0.1-1.1,1.5-1.1,2.5c0,1.7-0.3,3.4,0.2,5.1c0.1,0.4-0.1,0.8-0.4,0.9c-0.4,0.1-0.4-0.3-0.6-0.6
			c-0.6-1-1.4-1.7-2.3-2.4c-0.3-0.2-0.7-0.5-1.1-0.2c-1.1,0.8-1.9,4.4-1.1,5.4c0.5,0.6,0.8,1.9,2,1.4c1.2-0.4-0.1-1.3,0.3-2
			c0.1,0,0.2,0.1,0.3,0.1c1.5,1.2,2.3,3.6,5,2.9c0.1,0,0.2,0.1,0.2,0.2c0.6,0.5,0.8,1.6,1.8,1.2c1.1-0.4,0.2-1.5,0.6-2.1
			C97.5,242.8,97.6,242.8,97.7,242.6z M90.3,69.4c-0.4-1-0.8-2-1.2-3.1c-0.2-0.5-0.6-0.6-1.1-0.6c-0.5,0-0.9,0.2-1,0.7
			c-0.2,0.9-0.5,1.8-0.6,2.8c-0.3,3.8,2.1,6,5.2,7.8c1.8,1,3.8,1.6,5.8,0.9c4.6-1.6,6.6-4.2,7-9.1c0.1-0.6-0.1-1.2-0.8-1.3
			c-0.7-0.1-0.9,0.4-1.1,1c-0.4,0.8,0,2-0.9,2.6c-0.6-2.6-1.9-3.4-4.1-2.4c-0.7,0.3-1.5,0.7-2.1,1.1c-0.4,0.2-0.7,0.5-1.1,0.1
			c-0.4-0.3-0.3-0.7-0.1-1.1c0.3-0.6,0.7-1.2,1.1-1.8c0.2-0.3,0.8-0.5,0.4-1c-0.3-0.3-0.7-0.4-1.1-0.3c-1.3,0.4-2.6,0.7-3.2,2.2
			C91.2,68.5,91.1,69.2,90.3,69.4z M141.3,197.8c-0.2-0.3-0.3-0.4-0.4-0.5c-0.2-0.6,0-1.5-1-1.6c-1.3-0.1-0.8,1.1-1.1,1.6
			c-0.1,0.2-0.1,0.5-0.1,0.7c-0.5,2.7-1.1,5.3-2.1,7.7c-0.4,0.9-0.8,1.5-1.7,0.5c-0.7-0.7-1.1-0.2-1.4,0.3c-2.1,3.7-4.9,7-6.7,10.8
			c-0.2,0.5-0.5,0.8,0,1.2c0.4,0.3,0.9,0.4,1.3,0c0.4-0.5,1-0.8,1.4-1.3c0.7-0.8,1-2.4,2.7-1.6c0.4,0.2,0.7-0.3,0.9-0.7
			c0.8-1.1,1.1-2.3,1.7-3.5c0.7-1.4,1.2-3.1,2.6-3.7c1.3-0.6,2.2-1.4,2.9-2.5c1.4-2.4,3.1-4.6,5-6.6c1.6-1.6,2.6-3.4,3-5.5
			c0.5-2.7,0.9-5.4,1.4-8.1c0.1-0.7,0-1.3-0.6-1.3c-0.5-0.1-0.6,0.6-0.8,1.1c-1.2,2.9-1.8,6-3.5,8.7c-0.6-0.3-1.1-2.2-1.7-0.5
			C142.5,194.7,141.6,196,141.3,197.8z M15.5,79.3c0.4,0,0.5-0.3,0.6-0.4c0.7-0.5,0.8-1.3,1.3-1.9c2.7-3.4,5.3-6.9,7.5-10.5
			c1.5-2.4,3.1-4.7,5-6.6c3.2-3.2,6.8-5.9,10.5-8.5c3.3-2.4,6.2-5.2,8.4-8.7c0.2-0.3,0.6-0.5,0.4-0.9c-0.3-0.4-0.8-0.3-1.1-0.1
			c-0.9,0.5-1.8,0.8-2.5,1.5c-3.4,3.2-7.2,5.7-10.7,8.6c-2.7,2.2-5.4,4.4-8,6.7c-2.9,2.6-4.7,6.1-6.5,9.5c-1.7,3.1-3.2,6.3-4.8,9.5
			C15.3,78.1,14.8,78.7,15.5,79.3z M164.2,138.9c-1.1,0.5-1.6,1.3-1.7,2.6c0,1.2-0.2,2.5-0.5,3.7c-0.5,2.1-1.1,4.2-1.5,6.4
			c-0.4,1.8-1,3.4-1.8,4.9c-0.8,1.5-1.9,2.8-3.7,3.5c-1.2,0.5-1.7,1.6-1.2,2.8c0.9,2.2,0.3,4.3,0,6.5c-0.1,1.2-0.6,2-1.3,2.6
			c-1,0.8-1.1,1.7-1.1,2.8c-0.1,1.2,0.2,2.5,1.4,2.9c1.2,0.4,2.3-0.7,2.8-1.4c1.3-2.1,2.6-4.3,2.8-7c0.3-3.7,1.4-7.3,2.4-10.8
			c0.9-3.1,2.1-6.2,2.8-9.4c0.5-2.4,0-4.7,0.5-7.1C164.2,140.9,164.8,139.9,164.2,138.9z M35.2,144.5c0.6,0.7,0.6,1.4,0.8,2
			c0.5,1.7,1.2,3.3,1.9,5c0.2,0.5,0.6,0.5,1,0.4c0.5-0.1,0.4-0.5,0.4-0.9c0.1-0.9-0.2-1.8-0.6-2.6c-0.6-1.1-0.8-2.2-0.2-3.4
			c0.4-0.8,0.5-1.7,0.4-2.7c-0.3-1.7-0.3-3.4,0.2-5c0.6-1.8,0.1-3.3-0.9-4.7c-0.5-0.7-0.9-1.4-1.3-2.1c-0.7-1.1-1.6-2.2-3.1-2.1
			c-0.8,0-1.8-0.5-2.4,0.3c-1.2,1.4-2.7,2.7-3,4.7c-0.3,1.9,0.3,3.8,0.3,5.7c0,0.6,0.4,0.8,0.9,0.9c0.5,0,1-0.1,1-0.7
			c0-0.8,0.4-1.4,0.7-2c0.6-1.3,0.6-2.9,1.5-4.1c0.5-0.6,1-1.2,1.8-0.4c0.6,0.6,1,3.8,0.3,4.3c-1.3,1-1.4,2.5-1.8,3.8
			c-0.5,2-0.6,4,0.2,5.9c0.2,0.4,0.4,0.6,0.7,0.7c0.5,0.1,0.5-0.4,0.6-0.7C34.9,146.2,35.1,145.5,35.2,144.5z M58.1,204.1
			c-1.5-1.3-2.2-3-3.1-4.6c-1.1-2-2.1-4.2-2.7-6.4c-0.2-0.7-0.5-1.5-1.5-1.1c-0.8,0.3-0.5,1.1-0.4,1.7c0.5,2.3,1,4.5,1.1,6.8
			c0,1.1,0.6,1.9,1.4,2.7c0.8,0.8,1.8,1.1,2.7,1.8c1.7,1.3,2.9,2.9,4.3,4.5c2.1,2.3,5.3,3,7.3,5.5c0.4,0.5,0.7,0.1,0.8-0.4
			c0.2-1.4-0.1-2.5-1.2-3.5c-1.6-1.4-2.7-3.1-3.1-5.3c-0.2-1.4-0.8-2.7-1.2-4c-0.2-0.7-0.7-0.7-1.3-0.7c-0.8-0.1-0.8,0.5-0.9,0.9
			c-0.1,0.4-0.2,0.7-0.3,1c-0.6,0-0.6-1.1-1.4-0.7C57.9,202.6,58.5,203.4,58.1,204.1z M44.8,216.4c0.6-0.5,1-0.7,1.3-1.3
			c1.3-2.6,1.7-5.4,2-8.2c0.2-2.2,0.8-4.5,0.3-6.8c-0.8-4-1.7-7.9-2.7-11.8c-0.4-1.8-0.7-3.6-1.4-5.3c-0.4-0.9-1.2-0.8-1.9-0.8
			c-0.9,0.1-0.8,0.9-0.9,1.4c-0.1,0.6-0.1,1.2,0.1,1.8c0.6,1.3,0.9,2.8,1.2,4.2c1.1,4.3,1.8,8.6,1.9,13
			C44.9,207,44.8,211.5,44.8,216.4z M164.7,131.2c0.2-0.8-0.4-1.4-1-2c-1.5-1.3-2.5-3-4.2-4.1c-1-0.6-2.1-0.2-2.3,0.9
			c-0.5,2.3-0.9,4.6-1.2,6.9c-0.1,0.7-0.2,1.5,0.1,2.1c0.7,1.2,0.4,2.3,0.2,3.5c-0.3,1.9-1.2,3.6-1.3,5.5c0,0.4-0.2,1,0.5,1.1
			c0.6,0.1,1.1,0,1.3-0.7c0.1-0.2,0.2-0.5,0.3-0.7c0.7-1.6,1.4-3.2,2.9-4.4c0.8-0.7,1.2-1.6,0.8-2.8c-0.4-1.5-1.2-2.8-2.1-4.1
			c-0.4-0.5-0.6-1,0-1.6c0.5-0.6,1-0.5,1.6-0.3c0.9,0.3,1.5,1,2.1,1.7c0.5,0.5,0.7,1.2,1.7,0.9C164.9,132.8,164.6,132.1,164.7,131.2
			z M62.6,124.6c-0.4,1.5,0.5,2.8,1.2,4.2c0.5,0.8,1.6,1.4,2.1,1c0.9-0.6-0.2-1.2-0.6-1.8c0,0-0.1-0.1-0.1-0.1
			c-1.9-2.9-2.1-5,0.8-7.7c1.4-1.3,4.6-1,6.3,0.6c1.9,1.8,1.3,6-1.2,6.7c-1.1,0.3-2.7,0.7-3.7-0.5c-1.4-1.5-1.4-2.7-0.5-4.5
			c0.5-0.9,1.4-1.1,2.3-1.1c0.9,0,1.7,0.5,2.1,1.3c0.5,1.2,0,2-1,2.7c-0.8,0.5-1.2,0-1.7-0.5c-0.2-0.2-0.2-0.6,0-0.8
			c0.1-0.1,0.5,0,0.6,0.1c0.4,0.4,0.9,0.7,1.3,0.3c0.3-0.4,0.4-1.3-0.1-1.5c-0.7-0.3-0.8-1.7-1.9-1.2c-1.4,0.6-1.8,3.3-0.7,4.3
			c1.2,1.1,2.3,0.8,3.5,0.1c1.1-0.6,1.7-2.6,1.2-3.6c-0.8-1.9-2.9-3.5-5.9-1.9c-1.3,0.7-2.1,4.1-1.3,5.7c1.7,3.7,6.4,3.2,8.3,0.6
			c1.6-2.2,1.6-4.3,0.3-6.6c-0.9-1.5-3.8-2.9-5.7-2.6C64.8,118.1,62.3,120.9,62.6,124.6z M124.8,122.4c0.4,0.5,0.9,0.8,0.5,1.3
			c-0.5,0.6-1.3,0.5-2,0.5c-0.5,0-0.8-0.3-0.9-0.8c-0.2-1.5,0.5-2.7,1.9-3c1.1-0.2,2.7,0.9,3,2c0.3,1.3-0.5,3.4-1.7,3.9
			c-1.5,0.8-3.4,0.4-4.4-0.8c-2.3-2.8-0.5-6.2,1.6-6.9c1.9-0.6,3.9-0.5,5.4,1.3c1.3,1.6,2,3.3,1,5.4c-0.3,0.7-0.9,1.2-1.1,1.9
			c-0.1,0.4-0.8,0.8-0.2,1.1c0.5,0.3,1,0.1,1.4-0.5c0.9-1.1,1.4-2.4,1.7-3.7c0.7-3-1.8-6.3-5.3-7.1c-2.2-0.5-3.9,0-5.4,1.6
			c-1.7,1.8-1.8,4.2-1,6.1c0.8,1.7,2,3.6,5,3.1c3.5-0.6,5.4-3.5,3.6-6.7c-0.9-1.6-2.8-2.4-4.5-1.9c-1.6,0.5-2.4,1.8-2.2,3.9
			c0.1,1.2,0.6,2.2,1.6,2.5c1.2,0.3,2.5,0.3,3.3-1.2c0.8-1.4,0.5-2.8-1.1-3.3c-0.8-0.2-1.4,0.2-1.7,0.9c-0.3,0.6,0.1,1.4,0.6,1.5
			C124.7,123.9,124.6,123,124.8,122.4z M142.3,40.4c1.2,0.9,2.4,1.7,3.6,2.5c4,2.8,8.6,4.7,12.5,7.6c0.6,0.5,1.2,1.2,2.2,1.2
			c0.3,0,0.5,0.1,0.7-0.2c0.1-0.2,0.1-0.5,0-0.7c-1.2-2.1-2.7-3.9-4.9-5.1c-2.5-1.3-5-2.6-7.5-4C146.9,40.5,144.6,40,142.3,40.4z
			 M123.5,115.8c0.8,0.4,1.6,0.4,2.3,0.4c2-0.2,3.4,0.9,4.3,2.3c1.5,2.2,2.8,4.6,1.2,7.3c-0.1,0.2-0.1,0.6-0.2,0.9
			c-0.1,0.3-0.3,0.6,0.1,0.8c0.4,0.1,0.9,0.2,1.1-0.2c0.7-1.3,1.5-2.5,1.3-4.1c-0.3-2.4-1.3-4.6-3-6.4
			C129.1,114.9,125.7,114.4,123.5,115.8z M59.9,124.6c0.1,0.6,0.5,1.6,0.4,2.5c0,1,0.6,1.5,1.1,2.2c0.3,0.4,0.7,0.4,1.1,0.2
			c0.4-0.2,0.3-0.7,0.2-1.1c-0.1-0.3-0.2-0.7-0.4-1c-1.3-2.4-1.2-4.8,0.2-7.1c0.5-0.8,1-1.8,2.1-2.2c0.2-0.1,0.3-0.3,0.2-0.5
			c0-0.3-0.3-0.3-0.5-0.3c-1.2-0.1-2.1,0.3-2.8,1.2C60.5,120.4,60,122.3,59.9,124.6z M120.9,128.3c-4.6-4-3.7-7.9,0-11.9
			c-2.7-0.2-4.6,2.5-4.5,6.6C116.5,125.9,118.3,128.9,120.9,128.3z M113.6,122c0,0.8-0.1,1.3,0,1.8c0.5,1.4,0.4,3.1,2,3.9
			c0.3,0.1,0.7,0.5,1,0.2c0.4-0.4,0-0.8-0.1-1.1c-1.2-2.2-1.5-4.4-0.5-6.7c0.1-0.3,0.1-0.6,0-0.9c-0.1-0.4,0.3-1-0.3-1.2
			c-0.6-0.2-1.1,0.2-1.4,0.8C113.7,119.9,113.4,121.1,113.6,122z M76.9,123.5c0.4-1.9-0.2-3.4-1.6-4.7c-0.3-0.3-0.8-0.7-1.2-0.4
			c-0.4,0.4,0,0.8,0.3,1.3c1.5,2.2,2.1,4.4,0.5,6.9c-0.5,0.7-1.1,1.2-1.6,1.9c-0.2,0.3-0.4,0.5-0.3,0.8c0.2,0.4,0.6,0.2,0.9,0
			c0.3-0.1,0.6-0.2,0.9-0.5C76.3,127.4,77.3,125.8,76.9,123.5z M79.7,123.6c0.2-0.9-0.2-2-0.4-3c-0.1-0.9-0.9-1.4-1.6-1.1
			c-0.9,0.3-0.3,0.9,0.1,1.4c0.1,0.1,0.1,0.4,0.1,0.6c0.6,2.2,0.2,4.2-0.9,6.2c-0.2,0.3-0.8,0.9-0.1,1.3c0.5,0.3,1.1-0.2,1.4-0.6
			C79.4,127,79.8,125.4,79.7,123.6z M132.4,116.3c0,0.9,0.7,1.5,1.1,2.3c0.9,1.9,1.5,4,1.6,6.1c0,0.3-0.1,0.7,0.3,0.8
			c0.4,0.1,0.6-0.4,0.8-0.6c0.1-0.2,0.1-0.5,0.1-0.7c0.1-2.2-0.4-4.2-1-6.2C134.8,116.5,134,115.7,132.4,116.3z M59.9,119.8
			c-2.1,1.1-3.6,4.7-2.8,6.6c0.3,0.7,1.1,1.4,1.7,1.3c0.8-0.1,0.3-1.1,0.4-1.7C59.4,124,58.7,121.9,59.9,119.8z M70.8,212.4
			c-0.6-0.1-0.8,0.2-1,0.7c-0.3,1.2,0.6,4,1.6,4.7c0.3,0.2,0.6,0.5,1.1,0.3c0.5-0.3,0.6-0.8,0.4-1.2c-0.3-0.5-0.1-1-0.2-1.5
			C72.2,214.3,72.2,212.9,70.8,212.4z M151.5,184.9c0.9-0.2,1.3-0.5,1.8-1.1c1-1,0.6-2.5,1.5-3.5c0.2-0.2,0-0.9-0.3-1.1
			c-0.5-0.3-0.5,0.3-0.7,0.5c-0.2,0.2-0.3,0.4-0.6,0.4c-1.2,0.2-1.4,1-1.4,2C151.9,183,151.8,183.9,151.5,184.9z M82.7,124.5
			c0-0.7,0.1-1.5-0.9-1.6c-1.1-0.1-0.8,0.7-0.9,1.3c-0.1,0.4-0.3,0.9-0.2,1.3c0,0.7-1,1.8,0,2.1c0.9,0.3,1.4-0.9,1.8-1.7
			C82.7,125.5,82.8,125,82.7,124.5z M112.7,124.8c0-0.4,0-0.7,0-1c0-0.5,0.2-1.3-0.6-1.4c-0.6,0-1.3,0.4-1.5,1.1
			c-0.2,0.5,0,1.1,0.4,1.6c0.5,0.5,0.5,1.6,1.4,1.4C113.5,126.2,112.3,125.3,112.7,124.8z M56.1,126.2c0.1-0.7-0.2-1.1-1-1.1
			c-0.8,0.1-1.1,0.5-1.2,1.3c0,0.8,0.3,1.1,1.1,1.1C55.9,127.5,56.2,127,56.1,126.2z M138.4,122c-0.6,0.1-0.7,0.7-0.8,1.1
			c-0.2,0.8,0.3,1.2,1.1,1.3c0.6,0.1,0.7-0.3,0.8-0.7C139.5,123,139.1,122.4,138.4,122z"/>
		<path class="st2" d="M111.9,153.4c-0.5,0-0.8-0.4-1.1-0.7c-1.6-1.2-2.5-1-4,0.3c-1.7,1.5-3.3,3.3-5.8,3.7
			c-1.3,0.2-2.7,0.3-4.1,0.2c-2.8-0.2-5.1-1.3-7.4-3c-2.1-1.6-2.8-1.4-4.7,0.4c-0.2,0.2-0.4,0.6-0.7,0.4c-0.3-0.1-0.4-0.5-0.3-0.8
			c0-1.9,0.8-3.6,1.6-5.2c1.3-2.4,2.5-4.8,3.3-7.4c0.3-1,0.6-1.9-0.4-2.6c-0.9-0.7-1.6-0.1-2.4,0.4c-0.9,0.6-1.6,1.3-2.3,2.2
			c-0.6,0.8-1.8,1.3-2.7,0.8c-1-0.6-1-1.8-0.3-2.8c0.8-1.1,1.6-2.1,1-3.7c-0.1-0.4,0.2-0.9,0.5-1.2c1.9-1.9,3.6-4,5.1-6.3
			c2.3-3.3,4.2-6.8,5.4-10.7c0.4-1.2,1.6-1.9,2.8-2.2c3.6-0.8,5.7,0.5,7.4,3.7c2.2,3.9,4.4,7.8,7.1,11.5c1.7,2.3,3.6,4.3,5.6,6.3
			c1.1,1.2,0.7,2.5,0.5,3.8c-0.1,0.4-0.7,0.5-1.3,0.4c-1.7-0.3-3-1.4-4.3-2.3c-0.6-0.4-1.3-0.8-1.9-1.3c-0.6-0.4-1.2-0.4-1.6,0.1
			c-0.5,0.5-0.8,1-0.4,1.8c1.1,2.3,2.2,4.7,3.2,7.1c0.9,2.1,1.6,4.2,2.3,6.3C112.1,152.9,112.1,153.2,111.9,153.4z"/>
		<path class="st2" d="M144.4,86c1.6,0.9,2.6,1.9,3.4,3.1C146.4,88.5,145.3,87.7,144.4,86z"/>
		<path class="st2" d="M55.2,64.9c-4.1,3.7-8.8,6.5-12.3,10.9C44.6,72,50.5,65.5,55.2,64.9z"/>
		<path class="st2" d="M57.1,68.4c-0.2,0.7-0.8,1.2-1.5,1.2c-1,0.1-0.2-1.4-1.1-1.5c0.4-0.6,0.9-1.5,1.6-1.5
			C56.7,66.7,56.8,67.8,57.1,68.4z"/>
	</g>
</g>
<g id="JvRPGm.tif">
	<g>
		<path class="st3" d="M109.6,175.6c0.6,0.1,1.2,0.1,1.8,0.1c0.4,0,0.6,0.3,0.8,0.5c0.1,0.1,0.1,0.2,0,0.4c-0.2,0.3-0.3,0.6-0.5,0.9
			c-0.2,0.4-0.7,0.7-1.1,0.8c-0.3,0.1-0.6,0.3-0.9,0.3c-0.3,0-0.7,0-1,0c-0.2,0-0.4-0.1-0.6,0.2c0,0.1-0.1,0-0.2,0
			c-0.2,0-0.4,0-0.7,0c-0.1,0-0.2,0-0.2,0c-0.3,0.3-0.7,0.2-1,0.2c-0.3,0-0.6,0-0.9,0c-0.1,0-0.3-0.1-0.4,0.2c0,0.1-0.2,0-0.2,0
			c-0.7,0-1.4,0-2.2,0c-0.9,0-1.7,0.1-2.5,0.2c-0.1,0-0.3,0-0.4,0c-2.4,0-4.8,0-7.2,0c-0.2,0-0.4,0-0.5,0.2
			c-0.1,0.1-0.2,0.1-0.2,0.1c-0.9,0-1.8,0.1-2.7-0.2c-0.2-0.1-0.4,0-0.6,0c-0.5,0.1-0.9,0.2-1.4,0.1c-0.3-0.1-0.5-0.1-0.8-0.1
			c-0.3,0-0.7,0-1-0.2c-0.3-0.2-0.7-0.1-1.1-0.1c-0.2,0-0.3,0-0.4-0.1c-0.1-0.1-0.2-0.1-0.4-0.1c-0.4,0-0.9,0-1.3,0
			c-0.4,0-0.7-0.2-1-0.5c-0.2-0.2-0.1-0.6,0.1-0.7c0.4-0.2,0.8-0.4,1.2-0.5c0.4-0.1,0.8-0.2,1.2-0.3c0.8-0.2,1.5-0.4,2.3-0.4
			c1-0.1,1.9-0.2,2.9-0.2c0,0,0.1,0,0.1,0c0.2-0.3,0.5-0.2,0.8-0.2c0.1,0,0.3,0,0.4-0.2c0.2-0.2,0.5-0.2,0.8-0.3
			c0.1,0,0.3,0,0.4-0.2c0-0.1,0.1,0,0.2,0c0.1,0,0.2,0,0.3,0c0.5-0.3,1-0.3,1.5-0.3c0.5-0.1,1-0.1,1.6-0.1c0.1,0,0.3,0,0.4-0.1
			c0.1-0.1,0.2-0.1,0.3-0.1c0.5,0,1,0,1.5,0c0.1,0,0.3,0,0.3-0.1c0.1-0.1,0.2-0.1,0.3-0.1c1,0,2,0,2.9,0c0.1,0,0.1,0,0.2,0
			c0.8,0.4,1.7,0.4,2.6,0.4c0.2,0,0.3,0,0.5,0c0.1,0,0.2,0,0.2,0c0.2,0.3,0.5,0.2,0.8,0.2c0.2,0,0.3,0,0.5,0.2
			c0.3,0.2,0.6,0.4,1,0.3c0.5,0,1,0,1.5,0c0.1,0,0.2,0,0.2,0.1c0.2,0.3,0.4,0.2,0.7,0.2c0.3,0,0.7,0,1,0c0.1,0,0.2,0.1,0.3-0.1
			C109.9,175.7,109.7,175.7,109.6,175.6z"/>
	</g>
</g>
<g id="YCm0qx.tif">
	<g>
		<path class="st4" d="M48,220.1c-0.1,0.1-0.1,0.2-0.1,0.3c0,0.3-0.1,0.6-0.1,0.9c0,0.7-0.2,1.4-0.2,2.1c0,0.5-0.2,0.9-0.3,1.3
			c-0.1,0.4-0.2,0.8-0.2,1.2c0,0.5-0.1,0.9-0.4,1.3c-0.2,0.3-0.1,0.5-0.1,0.8c0,0.2,0,0.4-0.3,0.4c-0.1,0-0.2,0.1-0.2,0.3
			c0,0.4-0.3,0.8-0.5,1.1c-0.2,0.2-0.2,0.4-0.2,0.6c0.1,0.7-0.3,1.1-0.7,1.5c-0.3,0.3-0.6,0.7-0.9,1c-0.4,0.4-0.8,0.9-1.5,0.9
			c-0.6,0-1.1,0.1-1.7,0c-0.5-0.1-0.9-0.2-1.2-0.5c-0.9-0.5-1.7-1.2-2.5-1.9c-0.3-0.3-0.7-0.6-1.1-0.9c-0.2-0.2-0.4-0.4-0.5-0.7
			c-0.4-0.9-0.8-1.9-1.2-2.8c-0.1-0.3-0.2-0.7-0.3-1.1c-0.1-0.4-0.3-0.7-0.4-1.1c-0.1-0.4-0.2-0.7-0.4-1.1c0-0.1-0.1-0.2-0.2-0.3
			c-0.3-0.5-0.6-0.9-0.6-1.4c-0.1-0.5-0.2-1-0.4-1.5c-0.3-0.6-0.3-1.2-0.5-1.8c-0.1-0.5-0.1-0.9-0.4-1.3c-0.1-0.1,0-0.4,0-0.5
			c0-0.1,0-0.2-0.1-0.3c-0.3,0-0.4-0.3-0.4-0.5c0-0.8-0.3-1.6-0.4-2.4c-0.1-1.2-0.4-2.3-0.4-3.4c0-0.3-0.1-0.6-0.1-1
			c-0.2-1.4-0.4-2.8-0.5-4.2c-0.1-1,0-2-0.1-3c-0.1-0.8,0.1-1.6,0-2.5c-0.1-1.2,0-2.3,0.1-3.5c0.1-0.6,0.1-1.1,0.3-1.7
			c0.1-0.5,0.2-0.9,0.1-1.4c0-0.6,0.2-1.2,0.3-1.8c0.2-0.7,0.3-1.4,0.6-2.1c0.1-0.4,0.3-0.7,0.5-1c0.2-0.3,0.6-0.2,0.7,0.1
			c0.2,0.4,0.2,0.8,0.2,1.2c0,1.5,0.2,2.9,0.3,4.4c0.4,0.5,0,1.1,0.4,1.6c0.2,0.3,0.1,0.7,0.1,1.1c0,0.3,0,0.5,0.2,0.8
			c0,0,0,0.1,0,0.2c-0.1,0.7,0.2,1.3,0.2,1.9c0,0.2,0,0.3,0,0.5c0,0.2,0,0.3,0.1,0.4c0.1,0.1,0.1,0.2,0.1,0.3c0,0.5,0.2,1,0.2,1.6
			c0,0.1,0,0.2,0.1,0.2c0.1,0,0.1-0.1,0.1-0.2c0-0.6,0-1.3,0.1-1.9c0.1-0.8-0.1-1.7-0.1-2.5c0-0.2,0-0.4,0.1-0.6
			c0.2-0.3,0.2-0.7,0.2-1c0-1,0-2.1,0-3.1c0-0.3,0.1-0.6,0.3-0.9c0.2-0.3,0.3-0.6,0.3-0.9c0-0.5,0-0.9,0.2-1.4
			c0.2-0.6,0.2-1.2,0.4-1.8c0.3-0.7,0.4-1.5,0.8-2.1c0-0.1,0.1-0.2,0.1-0.2c0.1-0.2,0.3-0.1,0.5-0.1c0.2,0,0.1,0.2,0.1,0.3
			c0,1,0,2.1,0,3.1c0,0.5-0.1,1.1-0.2,1.6c-0.1,0.3,0,0.7-0.1,1c-0.2,1-0.2,2-0.4,3.1c-0.1,0.8-0.2,1.6-0.2,2.3c0,0.1,0,0.1,0,0.1
			c-0.4,0-0.2,0.3-0.2,0.5c0,0.5,0.1,1.1,0.1,1.6c0,0.4,0.2,0.8,0.2,1.2c0,0.4,0,0.8,0,1.1c0,2.9,0,5.9,0,8.8c0,0.2,0,0.3,0.1,0.4
			c0.1,0.1,0.1,0.2,0.1,0.3c0,0.3,0,0.7,0,1c0,0.1,0,0.3,0.2,0.4c0.1,0,0.1,0.1,0.1,0.2c0,0.3,0,0.6,0.2,0.9c0.2,0.3,0.1,0.6,0.1,1
			c0,0.2,0,0.5,0.1,0.7c0.1,0.1,0.1,0.3,0.1,0.4c0,0.4,0,0.9,0,1.3c0,0.2,0,0.4,0.2,0.6c0,0,0.1,0.1,0.1,0.1c0,0.5,0.3,0.9,0.2,1.4
			c-0.1,0.5,0.2,0.8,0.4,1.2c0,0.1,0.1,0.1,0.1,0.2c-0.1,0.5,0.3,0.9,0.2,1.3c0,0.1,0,0.2,0,0.3c0.2,0.4,0.1,0.9,0.3,1.2
			c0.3,0.6,0.4,1.2,0.4,1.9c0,0.1,0,0.1,0.1,0.1c0.3,0.1,0.2,0.3,0.2,0.5c-0.1,0.5,0.2,0.8,0.4,1.2c0.2,0.3,0.5,0.6,0.5,1.1
			c0,0,0,0,0,0.1c0.6,0.6,0.9,1.5,1.8,1.8c0.2,0.1,0.2,0.2,0.3,0.3c0.1,0.1,0.2,0.1,0.3,0c0.1-0.2,0.3-0.4,0.6-0.5
			c0.2-0.1,0.3-0.2,0.3-0.4c0-0.1,0.1-0.2,0.2-0.2c0.3,0,0.3-0.2,0.3-0.4c0-0.5,0.1-1,0.2-1.4c0-0.2,0.1-0.3,0.2-0.4
			c0.1-0.2,0.3-0.4,0.3-0.7c0-0.2,0.2-0.4,0.3-0.5c0.5-0.6,0.8-1.3,1-2.1c0.1-0.4,0.2-0.7,0.4-1.1c0.4-0.9,0.6-1.8,0.9-2.8
			c0.2-0.5,0-1.1,0-1.6c0-0.2,0-0.3,0.2-0.3c0.5,0,0.5,0,0.5,0.4c0,0.3-0.1,0.7,0.3,0.9C48,219.6,48,219.9,48,220.1z"/>
		<path class="st4" d="M43.1,212.9c0-0.5,0-1.1,0-1.6c0-0.6,0-1.1,0.2-1.7c0-0.1,0-0.2,0-0.3c0-1.7,0.1-3.4,0-5.2
			c-0.1-1.5-0.2-3-0.2-4.5c0-0.1,0-0.1,0-0.2c-0.3-0.7-0.2-1.5-0.2-2.2c0-0.3,0-0.5-0.2-0.7c-0.1-0.1-0.1-0.2,0.1-0.3
			c0.2-0.1,0.2-0.3,0-0.4c-0.1-0.1-0.2-0.1-0.2-0.2c0.1-0.5-0.2-1-0.2-1.5c0-0.3-0.1-0.6-0.1-0.9c-0.1-0.5-0.3-1-0.3-1.6
			c0-0.2,0-0.3-0.1-0.5c-0.1-0.2-0.1-0.4-0.2-0.6c-0.3-0.5-0.2-1.1-0.4-1.7c-0.1-0.3-0.1-0.6-0.1-0.9c0-0.2,0-0.3-0.2-0.4
			c-0.1-0.1-0.1-0.4-0.2-0.5c-0.2-0.4-0.2-0.9-0.4-1.3c-0.2-0.5-0.2-0.9-0.4-1.4c-0.2-0.8-0.1-1.5,0.2-2.2c0.1-0.3,0.4-0.4,0.7-0.5
			c1-0.1,1.7,0.7,1.9,1.4c0.2,0.5,0.3,1,0.4,1.5c0.1,0.4,0.3,0.8,0.4,1.2c0.2,0.5,0.1,1,0.2,1.6c0.1,0.4,0.2,0.7,0.2,1.1
			c0,0.2,0.2,0.3,0.3,0.5c0.1,0.4,0.2,0.8,0.4,1.1c0.1,0.2,0.1,0.3-0.1,0.4c-0.2,0.1-0.1,0.2,0,0.4c0.3,0.4,0.5,0.8,0.4,1.2
			c-0.1,0.5,0.2,1,0.2,1.5c-0.1,0.5,0.2,0.9,0.4,1.3c0.1,0.3,0.3,0.6,0.3,0.9c0,0.6,0.3,1,0.4,1.6c0,0,0.1,0.1,0.1,0.1
			c0,0.4,0.3,0.8,0.2,1.3c-0.1,0.6,0.2,1.2,0.2,1.9c0,0.8,0.1,1.6-0.1,2.4c-0.1,0.5,0,1-0.1,1.4c0,0.7-0.3,1.3-0.2,2
			c-0.4,0.6-0.2,1.4-0.2,2.1c0,0.1,0.1,0.3-0.2,0.4c-0.1,0-0.1,0.1-0.1,0.2c0,0.9-0.2,1.8-0.5,2.6c-0.1,0.3-0.3,0.7-0.3,1
			c-0.1,0.4-0.2,0.8-0.4,1.1c-0.3,0.5-0.2,1.2-0.8,1.4c-0.1,0.1-0.2,0.2-0.3,0.4c-0.1,0.2-0.2,0.1-0.3,0c-0.1-0.2-0.2-0.3-0.2-0.6
			C43.1,214.5,43.1,213.7,43.1,212.9C43.1,212.9,43.1,212.9,43.1,212.9z"/>
	</g>
</g>
<g id="NW5sfO.tif">
	<g>
		<path class="st4" d="M94.4,68.3c0.2,0,0.5,0.2,0.5-0.2c0.2,0,0.3,0,0.5,0c0.1,0,0.3,0,0.3-0.2c0,0,0,0,0,0
			c0.4,0.1,0.6-0.3,0.9-0.3c0.6,0,1.3,0,1.9,0c0.3,0,0.5,0,0.7,0.2c0.2,0.3,0.3,0.4,0.4,0.7c0.1,0.5,0.2,0.9,0.2,1.4
			c0,0.2,0.1,0.4,0.3,0.4c0.2,0,0.3-0.2,0.4-0.4c0.1-0.3,0.2-0.7,0.4-1c0.1-0.2,0.1-0.3,0-0.4c-0.1-0.1-0.1-0.2-0.1-0.3
			c0-0.2,0-0.2,0.3-0.6c0.1-0.1,0.1-0.1,0.1-0.2c0.1-0.7,0.7-1,1.3-0.7c0.1,0,0.2,0.1,0.2,0.3c0.2,0.5,0.2,1,0.1,1.5
			c-0.1,0.5-0.1,0.9-0.1,1.4c0,0.2,0,0.3-0.1,0.4c-0.1,0.1-0.1,0.2-0.1,0.3c0,0.3-0.1,0.6-0.2,0.9c-0.2,0.6-0.6,1.1-0.9,1.6
			c-0.3,0.5-0.7,1-1.2,1.4c-0.2,0.2-0.5,0.4-0.7,0.6c-0.2,0.2-0.4,0.3-0.6,0.5c-0.2,0.1-0.4,0.2-0.3,0.5c0,0.1-0.1,0.1-0.2,0.1
			c-0.1-0.1-0.2-0.1-0.3,0c-0.2,0.2-0.5,0.2-0.7,0.4c0,0-0.1,0.1-0.2,0.1c-0.4,0-0.7,0.2-1,0.4c-0.1,0-0.2,0-0.3,0
			c-0.7,0-1.4,0-2.1,0.1c-0.5,0-1,0-1.5-0.2c-0.2-0.1-0.5-0.2-0.8-0.2c-0.3-0.1-0.6-0.2-0.8-0.3c-0.2-0.1-0.4-0.3-0.7-0.2
			c0,0-0.1,0-0.1-0.1c-0.3-0.3-0.7-0.4-1-0.7c-0.2-0.2-0.4-0.4-0.6-0.5c-0.2-0.1-0.4-0.3-0.5-0.5c-0.1-0.2-0.4-0.3-0.6-0.3
			c-0.4-0.1-0.6-0.4-0.8-0.8c-0.1-0.2-0.1-0.4-0.3-0.6c-0.1-0.1-0.1-0.4-0.4-0.4c-0.1,0,0-0.1,0-0.1c0.1-0.2,0-0.3-0.2-0.4
			c-0.1,0-0.1-0.1-0.1-0.2c0-0.1,0-0.2,0-0.3c-0.2-0.1-0.2-0.3-0.2-0.5c0-0.1,0-0.2-0.1-0.3c-0.3-0.2-0.2-0.5-0.2-0.8
			c0-0.3,0-0.6,0-0.8c0-0.4-0.1-0.9,0.2-1.3c0.1-0.2,0.1-0.5,0.1-0.8c0-0.1,0-0.2,0.1-0.2c0.2-0.1,0.2-0.3,0.2-0.5
			c0-0.2-0.1-0.4,0.1-0.5c0.1-0.1,0.2-0.2,0.1-0.3c-0.1-0.2,0-0.2,0.2-0.3c0.3-0.1,0.5-0.2,0.8-0.2c0.6,0,1,0.3,1.2,0.9
			c0.1,0.3,0.2,0.7,0.4,1c0.1,0.2,0.1,0.5,0.1,0.7c0,0.2,0,0.4,0.2,0.5c0,0,0.1,0.1,0.1,0.1c-0.1,0.3,0.2,0.4,0.2,0.6
			c0,0.1,0.3,0.1,0.4,0c0.2-0.3,0.3-0.7,0.5-1c0.1-0.2,0.1-0.5,0.3-0.7c0,0,0-0.1,0-0.1c-0.2-0.5,0.3-0.4,0.5-0.6c0,0,0.1,0,0.1-0.1
			c0.4-0.5,1-0.6,1.4-0.9c0.3-0.3,0.8-0.3,1.2-0.4c0.4-0.1,0.7,0.1,1,0.2c0.1,0,0.1,0.1,0.1,0.2c0,0.3,0.1,0.5-0.3,0.7
			c-0.1,0.1-0.2,0.2-0.3,0.4c-0.1,0.2-0.2,0.4-0.4,0.5c-0.3,0.2-0.4,0.6-0.5,0.8c0,0.1,0,0.1,0,0.2c0.1,0.1,0,0.2-0.1,0.2
			c-0.1,0-0.1,0-0.1,0.1c0,0.3,0,0.6,0,0.8c0,0.2,0.3,0.3,0.5,0.4c0.1,0.1,0.3,0,0.3-0.2c0,0,0.1-0.1,0.1-0.1
			c0.3,0.2,0.5-0.2,0.8-0.3C94.4,68.7,94.6,68.5,94.4,68.3z"/>
	</g>
</g>
<g id="p4hEmD.tif">
	<g>
		<path class="st5" d="M8.8,117.9c0.8-0.8,0.7-1.9,1-2.9c0.7-2.6,1.1-5.3,1.4-7.9c0.2-1.2-0.5-2.4-0.5-3.6c0-3,0.7-5.9,1.3-8.8
			c0.5-2.4,1-4.8,2.3-6.8c1.2-1.9,2.4-3.7,3.8-5.5c1.9-2.4,4-4.6,5.7-7.2c0.8-1.2,1.7-2.3,2.6-3.4c0.2-0.3,0.5-0.5,0.8-0.4
			c0.3,0.1,0.2,0.5,0.2,0.8c0.1,1-0.5,1.8-1,2.6c-1.9,3.5-3.7,7.1-5,10.9c-0.4,1.1-1,2.1-1,3.4c1.2-0.5,1.4-1.5,2-2.3
			c1.4-2.2,2.8-4.4,4.2-6.6c1.1-1.6,1.9-3.4,3-5c1.6-2.2,3.1-4.5,4.7-6.7c2.9-3.9,7-6.4,10.5-9.6c3.4-3.1,7.2-5.9,11-8.6
			c0.1-0.1,0.3-0.2,0.3-0.3c0.7-2.5,3.2-2.8,5-3.8c2.1-1.2,4.4-2.1,6.7-2.8c1.1-0.3,2.3-0.5,3.5-0.7c0.2,0,0.6-0.2,0.7,0.2
			c0.1,0.3-0.1,0.5-0.3,0.7c-1.9,1.3-3.6,3.1-5.5,4.2c-1.6,0.9-2.2,2.7-3.9,3.4c-0.3,0.1-0.5,0.4-0.3,0.8c0.2,0.3,0.5,0.1,0.8,0
			c3.7-0.1,6.9-1.9,10.4-2.6c2.2-0.4,4.3-1.3,6.4-2.2c0.6-0.3,1.3-0.3,1.9-0.5c0.3-0.1,0.7-0.2,0.8,0.2c0.1,0.3,0,0.7-0.3,0.8
			C79.6,49,78,51,75.6,51.6c-1.3,0.3-1.9,1.4-2.1,2.7c-0.3,2-0.8,3.8-2.7,5c-2.7,1.8-5.2,4-7.9,5.9c-1.3,0.9-2.7,1.9-4.3,2.6
			c-1.1,0.5-2,1.2-2.7,2.2c-0.1,0.2-0.3,0.4-0.1,0.6c0.2,0.2,0.4,0.1,0.6,0c2-1,4.1-1.8,6-3c2-1.2,4.1-2.3,6.1-3.5
			c0.6-0.3,1.1-0.7,1.8-1c1.2-0.5,1.8-0.1,1.3,1c-0.8,1.7-1.1,3.7-2,5.2c-1.2,1.9-3.1,3.2-5.1,4.3c-0.9,0.5-1.3,1.4-2.1,1.9
			c-0.2,0.1-0.2,0.3-0.1,0.5c0.1,0.3,0.4,0.2,0.6,0.2c2,0.1,3.9-0.4,5.8-1c0.3-0.1,0.6-0.2,0.9-0.3c0.9-0.1,1.7-0.1,2.3,0.7
			c0.6,0.9-0.1,1.4-0.6,2c-0.3,0.3-0.8,0.6-0.5,1.1c0.3,0.5,0.7,0,1.1,0c1.5-0.1,2.9,0.1,4.4,0.2c0.4,0,0.6,0.3,0.7,0.7
			c0.1,0.4-0.1,0.6-0.4,0.9c-1.1,0.9-2.5,1.4-3.8,1.9c-1.2,0.5-2.3,1.3-3.5,1.8c-2.2,1-4.3,2.3-6.6,3.2c-1.5,0.6-2.8,1.9-4.2,2.9
			c-3.9,2.9-7.7,6-11.7,8.7c-3.2,2.2-6.2,4.7-8.6,7.9c-0.9,1.2-1.8,2.6-1.7,4.3c0.1,1.7-1,3.2-1.3,4.9c-0.2,1.7-0.7,3.4-1.1,5.1
			c-0.1,0.3-0.1,0.8-0.6,0.8c-0.6,0-0.4-0.5-0.4-0.8c0-3.3-0.8-6.5-0.7-9.9c0-0.3,0-0.5-0.4-0.5c-0.3,0-0.4,0.2-0.5,0.4
			c-0.3,0.9-0.6,1.8-1,2.7c-0.2,0.5-0.4,1-1,0.9c-0.6-0.1-0.5-0.6-0.6-1c-0.2-1.3-0.1-2.7-0.1-4c0.1-2.6,0-5.3,0.8-7.8
			c0.4-1.1,0.3-2.2,0.1-3.3c-0.3-1.8,0.5-3.6,0.8-5.3c0.2-1,0.4-1.9,0.8-2.8c0.5-1,0.9-2,1.4-2.9c1-2.2,2.1-4.3,3.1-6.5
			c0.6-1.3,1.6-2.3,2.3-3.4c0.1-0.2,0.3-0.3,0.2-0.6c-0.8,0-1.1,0.7-1.4,1.1c-1.1,1.3-2.4,2.3-3.4,3.7c-1.8,2.6-2.9,5.4-4.1,8.3
			c-0.6,1.4-0.9,3-1.1,4.6c-0.3,3.1-1,6.2-1.9,9.2c-0.7,2.1-0.7,4.3-1.3,6.5c-0.5,2-0.9,4-1,6c0,0.3,0,0.6-0.5,0.7
			c-0.4,0-0.4-0.2-0.6-0.5c-0.4-0.5-0.3-1.2-0.6-1.7c-0.1-0.2-0.1-0.5-0.4-0.5c-0.3,0-0.3,0.3-0.3,0.6c0,0.7,0,1.4,0,2
			c0,0.4,0,0.8-0.4,0.9c-0.5,0.1-0.6-0.3-0.8-0.6c-0.4-0.5-0.5-1.2-0.7-1.8c-1-2.8-1.7-5.7-1.7-8.7c0-0.8-0.6-1.5-0.5-2.3
			c0.1-2.4,0-4.8,0.5-7.1c0.1-0.5,0-0.9-0.3-1.6c-0.7,1.6-1.2,3-1.5,4.5c-0.4,2-0.4,4-0.7,6c-0.3,2.1,0.3,4.2,0.5,6.3
			c0.4,3.3,1.7,6.5,1.3,9.9c-0.2,1.8-0.2,3.6,0.6,5.2c0.8,1.6,1.2,3.2,1.5,4.9c0.2,1,0,1.9,0,2.9c0,0.2-0.1,0.4-0.3,0.5
			c-0.3,0.1-0.5-0.1-0.7-0.3c-1.2-1.4-2-3-2.8-4.7c-0.1-0.2-0.2-0.5-0.3-0.8c-0.2-0.3-0.5-0.6-0.8-0.4c-0.3,0.1-0.1,0.5,0,0.8
			c0.5,2.1,1.2,4.2,1.8,6.3c0.1,0.3,0.5,0.7,0,1c-0.4,0.2-0.8,0-1.1-0.3c-0.8-0.9-1.5-1.9-1.9-3.1c-0.7-1.9-1.6-3.8-2.3-5.7
			c-0.8-2-1.7-3.9-2.1-6c-0.1-0.5-0.2-0.9-0.7-1.1C8.8,120.6,8.8,119.3,8.8,117.9z M42.8,72.1c2-0.9,3.2-2.8,5.1-3.8
			c1.4-0.8,2.5-2.2,3.9-3c0.4-0.2,0.6-0.5,0.4-0.9c-0.2-0.4-0.6-0.3-0.9-0.3c-0.4,0.1-0.8,0.4-1.1,0.6c-1.6,1.2-3.2,2.6-4.8,3.9
			C44.2,69.6,43.4,70.7,42.8,72.1z M53.8,65.7c-0.6,0.3-1.1,0.8-1,1.3c0.1,0.5-0.2,1.5,0.7,1.5c0.6,0,1.3-0.5,1.2-1.2
			C54.6,66.8,54.4,66.1,53.8,65.7z"/>
		<path class="st5" d="M131,67.1c0-1.1-1-1.5-1.4-2.2c-1.5-2.2-3.6-3.8-5.9-5.1c-4-2.2-8-4.4-11.4-7.5c-0.3-0.3-0.8-0.6-0.6-1.1
			c0.2-0.5,0.7-0.1,1,0c1.7,0.4,3.5,0.9,5.2,1.4c0.4,0.1,0.8,0.4,1.1-0.1c0.3-0.5-0.2-0.6-0.5-0.9c-0.9-0.8-1.7-1.6-2.6-2.4
			c-0.3-0.3-0.6-0.8-0.6-1.3c-0.1-0.9,0.6-1.5,1.4-1.2c1.6,0.6,3.1,1.4,4.6,2.2c3.4,1.6,6.2,4,9.3,5.9c0.6,0.4,1.3,0.4,1.9,0.7
			c1.9,1,3.6,2.4,5.2,3.8c2.2,2.1,4.4,4.2,6.7,6.3c3.3,3.1,6.3,6.6,9.1,10.2c1.8,2.3,3.5,4.7,5,7.2c1,1.7,1.5,3.6,2.2,5.4
			c0.5,1.3,1.3,2.5,2.4,3.6c0.1-1.6-0.5-3-1-4.2c-1.6-3.4-3.4-6.6-5.3-9.8c-1.1-1.9-2.1-3.9-3.4-5.7c-1.9-2.6-3.9-5-6.1-7.3
			c-3.2-3.3-6.7-6.2-10.2-9.2c-1.5-1.3-3.2-2.4-4.7-3.8c-2.9-2.8-6.4-4.8-9.6-7.2c-0.1-0.1-0.2-0.2-0.3-0.3
			c-0.3-0.4-0.9-0.7-0.6-1.2c0.3-0.5,0.8,0,1.2,0c1.9,0.3,3.6,1.3,5.3,2c1.3,0.6,2.6,1.2,3.8,1.8c1.2,0.6,2.6,0.8,3.7,1.7
			c0.2,0.2,0.4,0.3,0.6,0.3c1.5-0.2,2.5,0.9,3.9,1.1c1.1,0.2,2.1,0.9,3,1.5c1.4,0.8,3,1.5,4.3,2.6c0.9,0.8,2.1,0.8,3.2,0.9
			c2.9,0.5,5,2.5,7.1,4.3c1.8,1.6,3.7,3.1,5.2,5c3,3.6,6.5,6.9,7.7,11.8c0.7,2.9,2,5.7,2.9,8.5c0.6,1.7,1.2,3.4,1.6,5.2
			c0.6,2.2,1.6,4.3,2,6.6c0.7,3.3,1.6,6.6,1.4,10.1c-0.2,3.1-0.2,6.1,0,9.2c0.1,2.6-0.6,4.8-1.6,7.1c-0.3,0.7-0.6,1.3-0.8,2
			c-0.9,2.4-1.7,4.8-2.6,7.2c-0.1,0.3-0.3,0.6-0.5,0.9c-0.2,0.2-0.4,0.2-0.7,0.1c-0.2-0.1-0.3-0.3-0.4-0.6c-0.1-1.4-0.1-2.8,0.2-4.2
			c0.3-1.5,0.6-3.1,0.7-4.7c0-0.7,0.8-1.2,0.3-2.1c-0.9,0.7-0.8,1.9-1.1,2.8c-0.5,1.5-1.3,2.8-1.7,4.3c-0.4,1.6-1,3.1-1.7,4.5
			c-0.1,0.3-0.3,0.8-0.7,0.6c-0.4-0.2-0.3-0.6-0.3-0.9c0.4-4.1,0.5-8.2,0-12.3c-0.3-2.1-0.5-4.3-0.8-6.4c-0.1-0.7-0.3-1.3-0.9-2.1
			c0.2,1.8-0.3,3.3-0.5,4.8c-0.1,0.4,0.1,0.9-0.4,1c-0.5,0.1-0.8-0.3-1-0.7c-1-1.6-2-3.2-2.4-5.1c-0.3-1.4-1.1-2.5-1.6-3.8
			c-0.7-2.1-2-4-2.9-6c-1.3-2.8-2.7-5.6-4.9-7.8c-1.4-1.5-2.7-3-4.4-4.3c-0.2-0.2-0.5-0.5-0.7-0.2c-0.2,0.3,0,0.7,0.2,0.8
			c1.2,1.2,2,2.6,3,4c2,2.8,3.5,5.9,5,9c0.7,1.4,1.5,2.8,1.9,4.4c0.5,2.5,1.6,4.9,2,7.4c0.4,2,0.8,4,1.2,6c0.1,0.4,0.3,0.9-0.1,1.1
			c-0.5,0.3-0.7-0.3-0.9-0.6c-1.4-1.4-2.1-3.2-2.9-5c-1.4-2.9-3-5.6-4.8-8.2c-0.9-1.3-1.9-2.5-3.1-3.9c-0.1,1.5,0.3,2.7,0.5,3.9
			c0.3,1.6,0.7,3.2,1.1,4.8c0.1,0.3,0.2,0.7-0.1,0.8c-0.5,0.2-0.6-0.3-0.7-0.6c-1.8-3.6-3.7-7.2-5.5-10.8c-1.4-2.7-2.9-5.4-5-7.5
			c-1.6-1.6-2.8-3.6-4.4-5.3c-2-2-4.2-3.6-6.9-4.5c-0.2-0.1-0.5-0.1-0.5-0.2c-1-1.4-2.8-1.3-4-2.1c-1.3-0.9-2.7-1.5-4.1-2.1
			c-1.7-0.8-3.1-1.9-4.9-2.5c-0.6-0.2-0.9-0.9-0.8-1.6c0-0.4,0.1-0.7,0.2-1.1c0.2-1.5,0.3-2.9,2-3.5c1.3-0.5,2.6-1.2,4.1-0.8
			c1,0.2,2,0.1,3,0.4c1.3,0.3,2.6,1,3.9,1.2c0.5,0.1,0.8,0.1,1-0.3c0.2-0.4-0.3-0.6-0.5-0.8c-0.8-0.6-1.7-1.1-2.5-1.6
			c-2.1-1.1-4.2-2.4-6-4.1c-1-0.9-1.6-2.1-2.9-2.7c-1.1-0.5-1.4-3-0.8-4.1c0.3-0.6,0.8-0.7,1.3-0.5c0.7,0.2,1.5,0.4,2.1,0.9
			c1.2,0.9,2.6,1.3,3.9,1.8c1.1,0.4,2.1,1,3,1.6c1.5,1.2,3.5,1.8,4.8,3.3C130.4,67,130.6,67.2,131,67.1z"/>
		<path class="st5" d="M75.5,65.6c0.6-0.3,0.7-0.7,0.9-1.1c0.5-0.7,1.4-0.7,1.9,0c0.5,0.7,1,1.3,0.7,2.3c-0.1,0.3,0.2,0.8,0.4,1.3
			c0.8-0.5,0.9-1.3,0.9-2c0.1-1.5,1-2.9,1-4.4c0-0.3,0.3-0.5,0.6-0.5c0.4-0.1,0.5,0.2,0.6,0.5c0.5,0.8,0.5,1.8,0.7,2.7
			c0.4,1.9,0,3.8,0.3,5.7c0.5,3.5,1.7,6.7,5.1,8.5c1.5,0.8,3.2,0.8,4.8,0.9c1.3,0.1,2.7,0.4,4-0.2c2.9-1.4,5.3-3.2,6.3-6.6
			c0.8-2.8,0.8-5.8,1.8-8.6c0.1-0.4,0.3-0.7,0.4-1.1c0.2-0.5,0.4-1,1.1-0.9c0.8,0.2,0.7,0.9,0.6,1.3c-0.2,0.8,0.2,1.4,0.2,2.1
			c0,0.5,0.3,0.8,0.7,0.8c0.5,0,0.4-0.4,0.5-0.7c0.1-0.3,0.2-0.5,0.2-0.8c-0.2-2.2,0.9-4.1,1.2-6.2c0-0.5,0.2-0.9,0.8-0.9
			c0.5,0,0.7,0.4,0.8,0.8c0.6,2.2,1.8,4.1,2.4,6.3c0.7,2.1-0.3,5.6-2.3,7c-1.1,0.8-1.2,1.7-1.1,2.9c0.4,2.8-1.5,5.5-4.2,6
			c-0.3,0.1-0.5,0.3-0.8,0.4c-0.8,0.4-1.7,0.9-2.7,0.6c-0.6-0.2-1.1,0.1-1.5,0.5c-0.4,0.3-0.7,0.7-1.1,1.1
			c-2.8,3.1-7.2,3.4-10.3,1.2c-1.4-1-3-1.7-4.5-2.4c-0.6-0.3-1.3-0.6-2.1-0.5c-3,0.3-6.1-2.7-6.1-5.8c0-1.6-0.7-2.7-2.1-3.5
			c-1.4-0.8-2.3-2-2.2-3.8c0.1-0.9,0-1.9,0-2.8c0-0.8,0.2-1.4,1.1-1.5C75.4,64.1,75.3,65,75.5,65.6z"/>
		<path class="st5" d="M13,77.6c0-0.4,0.1-0.8,0.3-1.1c1.7-3.3,3.3-6.6,4.9-9.9c0.9-1.8,2.1-3.4,3.1-5.1c1.5-2.8,3.9-4.6,6.3-6.5
			c2.6-2.1,5.1-4.3,7.7-6.4c1.8-1.5,3.8-2.6,5.5-4.2c0.3-0.3,0.7-0.6,1-1c1.2-1.4,2.8-2.1,4.4-2.8c0.2-0.1,0.6-0.1,0.8,0.2
			c0.2,0.2-0.1,0.5-0.1,0.8c-0.5,1.4-1.5,2.4-2.4,3.3c-2,2-4,4-6.4,5.7c-3.7,2.6-7.5,5.3-10.5,8.7c-2.2,2.5-4.2,5.2-5.9,8.2
			c-1.3,2.2-3.1,4.1-4.4,6.2c-0.9,1.4-2.2,2.6-3,4.2c-0.2,0.3-0.4,0.7-0.9,0.5C13,78.2,13,77.9,13,77.6z"/>
		<path class="st5" d="M141.1,39.1c2.7,0.1,5.1,1.2,7.3,2.6c1.7,1.1,3.6,1.9,5.4,2.8c1.7,0.9,3.1,2.1,4.2,3.6c0.5,0.6,0.8,1.3,1,2
			c0.2,0.6-0.1,1-0.8,0.6c-0.4-0.2-0.7-0.4-1-0.6c-3.7-2.5-7.6-4.6-11.5-6.8c-1.8-1-3.6-2.2-5.4-3.3c-0.3-0.2-0.6-0.4-0.5-0.7
			C140.2,38.8,140.7,39.2,141.1,39.1z"/>
	</g>
</g>
<g id="p4hEmD.tif_00000178170905607760837780000005775804342659227029_">
	<g>
		<pattern  id="SVGID_1_" xlink:href="#VT_Halftone_5" patternTransform="matrix(1 0 0 1 -0.6723 0.2642)">
		</pattern>
		<path class="st6" d="M8.8,117.9c0.8-0.8,0.7-1.9,1-2.9c0.7-2.6,1.1-5.3,1.4-7.9c0.2-1.2-0.5-2.4-0.5-3.6c0-3,0.7-5.9,1.3-8.8
			c0.5-2.4,1-4.8,2.3-6.8c1.2-1.9,2.4-3.7,3.8-5.5c1.9-2.4,4-4.6,5.7-7.2c0.8-1.2,1.7-2.3,2.6-3.4c0.2-0.3,0.5-0.5,0.8-0.4
			c0.3,0.1,0.2,0.5,0.2,0.8c0.1,1-0.5,1.8-1,2.6c-1.9,3.5-3.7,7.1-5,10.9c-0.4,1.1-1,2.1-1,3.4c1.2-0.5,1.4-1.5,2-2.3
			c1.4-2.2,2.8-4.4,4.2-6.6c1.1-1.6,1.9-3.4,3-5c1.6-2.2,3.1-4.5,4.7-6.7c2.9-3.9,7-6.4,10.5-9.6c3.4-3.1,7.2-5.9,11-8.6
			c0.1-0.1,0.3-0.2,0.3-0.3c0.7-2.5,3.2-2.8,5-3.8c2.1-1.2,4.4-2.1,6.7-2.8c1.1-0.3,2.3-0.5,3.5-0.7c0.2,0,0.6-0.2,0.7,0.2
			c0.1,0.3-0.1,0.5-0.3,0.7c-1.9,1.3-3.6,3.1-5.5,4.2c-1.6,0.9-2.2,2.7-3.9,3.4c-0.3,0.1-0.5,0.4-0.3,0.8c0.2,0.3,0.5,0.1,0.8,0
			c3.7-0.1,6.9-1.9,10.4-2.6c2.2-0.4,4.3-1.3,6.4-2.2c0.6-0.3,1.3-0.3,1.9-0.5c0.3-0.1,0.7-0.2,0.8,0.2c0.1,0.3,0,0.7-0.3,0.8
			C79.6,49,78,51,75.6,51.6c-1.3,0.3-1.9,1.4-2.1,2.7c-0.3,2-0.8,3.8-2.7,5c-2.7,1.8-5.2,4-7.9,5.9c-1.3,0.9-2.7,1.9-4.3,2.6
			c-1.1,0.5-2,1.2-2.7,2.2c-0.1,0.2-0.3,0.4-0.1,0.6c0.2,0.2,0.4,0.1,0.6,0c2-1,4.1-1.8,6-3c2-1.2,4.1-2.3,6.1-3.5
			c0.6-0.3,1.1-0.7,1.8-1c1.2-0.5,1.8-0.1,1.3,1c-0.8,1.7-1.1,3.7-2,5.2c-1.2,1.9-3.1,3.2-5.1,4.3c-0.9,0.5-1.3,1.4-2.1,1.9
			c-0.2,0.1-0.2,0.3-0.1,0.5c0.1,0.3,0.4,0.2,0.6,0.2c2,0.1,3.9-0.4,5.8-1c0.3-0.1,0.6-0.2,0.9-0.3c0.9-0.1,1.7-0.1,2.3,0.7
			c0.6,0.9-0.1,1.4-0.6,2c-0.3,0.3-0.8,0.6-0.5,1.1c0.3,0.5,0.7,0,1.1,0c1.5-0.1,2.9,0.1,4.4,0.2c0.4,0,0.6,0.3,0.7,0.7
			c0.1,0.4-0.1,0.6-0.4,0.9c-1.1,0.9-2.5,1.4-3.8,1.9c-1.2,0.5-2.3,1.3-3.5,1.8c-2.2,1-4.3,2.3-6.6,3.2c-1.5,0.6-2.8,1.9-4.2,2.9
			c-3.9,2.9-7.7,6-11.7,8.7c-3.2,2.2-6.2,4.7-8.6,7.9c-0.9,1.2-1.8,2.6-1.7,4.3c0.1,1.7-1,3.2-1.3,4.9c-0.2,1.7-0.7,3.4-1.1,5.1
			c-0.1,0.3-0.1,0.8-0.6,0.8c-0.6,0-0.4-0.5-0.4-0.8c0-3.3-0.8-6.5-0.7-9.9c0-0.3,0-0.5-0.4-0.5c-0.3,0-0.4,0.2-0.5,0.4
			c-0.3,0.9-0.6,1.8-1,2.7c-0.2,0.5-0.4,1-1,0.9c-0.6-0.1-0.5-0.6-0.6-1c-0.2-1.3-0.1-2.7-0.1-4c0.1-2.6,0-5.3,0.8-7.8
			c0.4-1.1,0.3-2.2,0.1-3.3c-0.3-1.8,0.5-3.6,0.8-5.3c0.2-1,0.4-1.9,0.8-2.8c0.5-1,0.9-2,1.4-2.9c1-2.2,2.1-4.3,3.1-6.5
			c0.6-1.3,1.6-2.3,2.3-3.4c0.1-0.2,0.3-0.3,0.2-0.6c-0.8,0-1.1,0.7-1.4,1.1c-1.1,1.3-2.4,2.3-3.4,3.7c-1.8,2.6-2.9,5.4-4.1,8.3
			c-0.6,1.4-0.9,3-1.1,4.6c-0.3,3.1-1,6.2-1.9,9.2c-0.7,2.1-0.7,4.3-1.3,6.5c-0.5,2-0.9,4-1,6c0,0.3,0,0.6-0.5,0.7
			c-0.4,0-0.4-0.2-0.6-0.5c-0.4-0.5-0.3-1.2-0.6-1.7c-0.1-0.2-0.1-0.5-0.4-0.5c-0.3,0-0.3,0.3-0.3,0.6c0,0.7,0,1.4,0,2
			c0,0.4,0,0.8-0.4,0.9c-0.5,0.1-0.6-0.3-0.8-0.6c-0.4-0.5-0.5-1.2-0.7-1.8c-1-2.8-1.7-5.7-1.7-8.7c0-0.8-0.6-1.5-0.5-2.3
			c0.1-2.4,0-4.8,0.5-7.1c0.1-0.5,0-0.9-0.3-1.6c-0.7,1.6-1.2,3-1.5,4.5c-0.4,2-0.4,4-0.7,6c-0.3,2.1,0.3,4.2,0.5,6.3
			c0.4,3.3,1.7,6.5,1.3,9.9c-0.2,1.8-0.2,3.6,0.6,5.2c0.8,1.6,1.2,3.2,1.5,4.9c0.2,1,0,1.9,0,2.9c0,0.2-0.1,0.4-0.3,0.5
			c-0.3,0.1-0.5-0.1-0.7-0.3c-1.2-1.4-2-3-2.8-4.7c-0.1-0.2-0.2-0.5-0.3-0.8c-0.2-0.3-0.5-0.6-0.8-0.4c-0.3,0.1-0.1,0.5,0,0.8
			c0.5,2.1,1.2,4.2,1.8,6.3c0.1,0.3,0.5,0.7,0,1c-0.4,0.2-0.8,0-1.1-0.3c-0.8-0.9-1.5-1.9-1.9-3.1c-0.7-1.9-1.6-3.8-2.3-5.7
			c-0.8-2-1.7-3.9-2.1-6c-0.1-0.5-0.2-0.9-0.7-1.1C8.8,120.6,8.8,119.3,8.8,117.9z M42.8,72.1c2-0.9,3.2-2.8,5.1-3.8
			c1.4-0.8,2.5-2.2,3.9-3c0.4-0.2,0.6-0.5,0.4-0.9c-0.2-0.4-0.6-0.3-0.9-0.3c-0.4,0.1-0.8,0.4-1.1,0.6c-1.6,1.2-3.2,2.6-4.8,3.9
			C44.2,69.6,43.4,70.7,42.8,72.1z M53.8,65.7c-0.6,0.3-1.1,0.8-1,1.3c0.1,0.5-0.2,1.5,0.7,1.5c0.6,0,1.3-0.5,1.2-1.2
			C54.6,66.8,54.4,66.1,53.8,65.7z"/>
		
			<pattern  id="SVGID_00000100372122633546526030000004633812763856910518_" xlink:href="#VT_Halftone_5" patternTransform="matrix(1 0 0 1 -0.6723 0.2642)">
		</pattern>
		<path style="fill:url(#SVGID_00000100372122633546526030000004633812763856910518_);" d="M131,67.1c0-1.1-1-1.5-1.4-2.2
			c-1.5-2.2-3.6-3.8-5.9-5.1c-4-2.2-8-4.4-11.4-7.5c-0.3-0.3-0.8-0.6-0.6-1.1c0.2-0.5,0.7-0.1,1,0c1.7,0.4,3.5,0.9,5.2,1.4
			c0.4,0.1,0.8,0.4,1.1-0.1c0.3-0.5-0.2-0.6-0.5-0.9c-0.9-0.8-1.7-1.6-2.6-2.4c-0.3-0.3-0.6-0.8-0.6-1.3c-0.1-0.9,0.6-1.5,1.4-1.2
			c1.6,0.6,3.1,1.4,4.6,2.2c3.4,1.6,6.2,4,9.3,5.9c0.6,0.4,1.3,0.4,1.9,0.7c1.9,1,3.6,2.4,5.2,3.8c2.2,2.1,4.4,4.2,6.7,6.3
			c3.3,3.1,6.3,6.6,9.1,10.2c1.8,2.3,3.5,4.7,5,7.2c1,1.7,1.5,3.6,2.2,5.4c0.5,1.3,1.3,2.5,2.4,3.6c0.1-1.6-0.5-3-1-4.2
			c-1.6-3.4-3.4-6.6-5.3-9.8c-1.1-1.9-2.1-3.9-3.4-5.7c-1.9-2.6-3.9-5-6.1-7.3c-3.2-3.3-6.7-6.2-10.2-9.2c-1.5-1.3-3.2-2.4-4.7-3.8
			c-2.9-2.8-6.4-4.8-9.6-7.2c-0.1-0.1-0.2-0.2-0.3-0.3c-0.3-0.4-0.9-0.7-0.6-1.2c0.3-0.5,0.8,0,1.2,0c1.9,0.3,3.6,1.3,5.3,2
			c1.3,0.6,2.6,1.2,3.8,1.8c1.2,0.6,2.6,0.8,3.7,1.7c0.2,0.2,0.4,0.3,0.6,0.3c1.5-0.2,2.5,0.9,3.9,1.1c1.1,0.2,2.1,0.9,3,1.5
			c1.4,0.8,3,1.5,4.3,2.6c0.9,0.8,2.1,0.8,3.2,0.9c2.9,0.5,5,2.5,7.1,4.3c1.8,1.6,3.7,3.1,5.2,5c3,3.6,6.5,6.9,7.7,11.8
			c0.7,2.9,2,5.7,2.9,8.5c0.6,1.7,1.2,3.4,1.6,5.2c0.6,2.2,1.6,4.3,2,6.6c0.7,3.3,1.6,6.6,1.4,10.1c-0.2,3.1-0.2,6.1,0,9.2
			c0.1,2.6-0.6,4.8-1.6,7.1c-0.3,0.7-0.6,1.3-0.8,2c-0.9,2.4-1.7,4.8-2.6,7.2c-0.1,0.3-0.3,0.6-0.5,0.9c-0.2,0.2-0.4,0.2-0.7,0.1
			c-0.2-0.1-0.3-0.3-0.4-0.6c-0.1-1.4-0.1-2.8,0.2-4.2c0.3-1.5,0.6-3.1,0.7-4.7c0-0.7,0.8-1.2,0.3-2.1c-0.9,0.7-0.8,1.9-1.1,2.8
			c-0.5,1.5-1.3,2.8-1.7,4.3c-0.4,1.6-1,3.1-1.7,4.5c-0.1,0.3-0.3,0.8-0.7,0.6c-0.4-0.2-0.3-0.6-0.3-0.9c0.4-4.1,0.5-8.2,0-12.3
			c-0.3-2.1-0.5-4.3-0.8-6.4c-0.1-0.7-0.3-1.3-0.9-2.1c0.2,1.8-0.3,3.3-0.5,4.8c-0.1,0.4,0.1,0.9-0.4,1c-0.5,0.1-0.8-0.3-1-0.7
			c-1-1.6-2-3.2-2.4-5.1c-0.3-1.4-1.1-2.5-1.6-3.8c-0.7-2.1-2-4-2.9-6c-1.3-2.8-2.7-5.6-4.9-7.8c-1.4-1.5-2.7-3-4.4-4.3
			c-0.2-0.2-0.5-0.5-0.7-0.2c-0.2,0.3,0,0.7,0.2,0.8c1.2,1.2,2,2.6,3,4c2,2.8,3.5,5.9,5,9c0.7,1.4,1.5,2.8,1.9,4.4
			c0.5,2.5,1.6,4.9,2,7.4c0.4,2,0.8,4,1.2,6c0.1,0.4,0.3,0.9-0.1,1.1c-0.5,0.3-0.7-0.3-0.9-0.6c-1.4-1.4-2.1-3.2-2.9-5
			c-1.4-2.9-3-5.6-4.8-8.2c-0.9-1.3-1.9-2.5-3.1-3.9c-0.1,1.5,0.3,2.7,0.5,3.9c0.3,1.6,0.7,3.2,1.1,4.8c0.1,0.3,0.2,0.7-0.1,0.8
			c-0.5,0.2-0.6-0.3-0.7-0.6c-1.8-3.6-3.7-7.2-5.5-10.8c-1.4-2.7-2.9-5.4-5-7.5c-1.6-1.6-2.8-3.6-4.4-5.3c-2-2-4.2-3.6-6.9-4.5
			c-0.2-0.1-0.5-0.1-0.5-0.2c-1-1.4-2.8-1.3-4-2.1c-1.3-0.9-2.7-1.5-4.1-2.1c-1.7-0.8-3.1-1.9-4.9-2.5c-0.6-0.2-0.9-0.9-0.8-1.6
			c0-0.4,0.1-0.7,0.2-1.1c0.2-1.5,0.3-2.9,2-3.5c1.3-0.5,2.6-1.2,4.1-0.8c1,0.2,2,0.1,3,0.4c1.3,0.3,2.6,1,3.9,1.2
			c0.5,0.1,0.8,0.1,1-0.3c0.2-0.4-0.3-0.6-0.5-0.8c-0.8-0.6-1.7-1.1-2.5-1.6c-2.1-1.1-4.2-2.4-6-4.1c-1-0.9-1.6-2.1-2.9-2.7
			c-1.1-0.5-1.4-3-0.8-4.1c0.3-0.6,0.8-0.7,1.3-0.5c0.7,0.2,1.5,0.4,2.1,0.9c1.2,0.9,2.6,1.3,3.9,1.8c1.1,0.4,2.1,1,3,1.6
			c1.5,1.2,3.5,1.8,4.8,3.3C130.4,67,130.6,67.2,131,67.1z"/>
		
			<pattern  id="SVGID_00000163050460559161960450000000671560875234862498_" xlink:href="#VT_Halftone_5" patternTransform="matrix(1 0 0 1 -0.6723 0.2642)">
		</pattern>
		<path style="fill:url(#SVGID_00000163050460559161960450000000671560875234862498_);" d="M75.5,65.6c0.6-0.3,0.7-0.7,0.9-1.1
			c0.5-0.7,1.4-0.7,1.9,0c0.5,0.7,1,1.3,0.7,2.3c-0.1,0.3,0.2,0.8,0.4,1.3c0.8-0.5,0.9-1.3,0.9-2c0.1-1.5,1-2.9,1-4.4
			c0-0.3,0.3-0.5,0.6-0.5c0.4-0.1,0.5,0.2,0.6,0.5c0.5,0.8,0.5,1.8,0.7,2.7c0.4,1.9,0,3.8,0.3,5.7c0.5,3.5,1.7,6.7,5.1,8.5
			c1.5,0.8,3.2,0.8,4.8,0.9c1.3,0.1,2.7,0.4,4-0.2c2.9-1.4,5.3-3.2,6.3-6.6c0.8-2.8,0.8-5.8,1.8-8.6c0.1-0.4,0.3-0.7,0.4-1.1
			c0.2-0.5,0.4-1,1.1-0.9c0.8,0.2,0.7,0.9,0.6,1.3c-0.2,0.8,0.2,1.4,0.2,2.1c0,0.5,0.3,0.8,0.7,0.8c0.5,0,0.4-0.4,0.5-0.7
			c0.1-0.3,0.2-0.5,0.2-0.8c-0.2-2.2,0.9-4.1,1.2-6.2c0-0.5,0.2-0.9,0.8-0.9c0.5,0,0.7,0.4,0.8,0.8c0.6,2.2,1.8,4.1,2.4,6.3
			c0.7,2.1-0.3,5.6-2.3,7c-1.1,0.8-1.2,1.7-1.1,2.9c0.4,2.8-1.5,5.5-4.2,6c-0.3,0.1-0.5,0.3-0.8,0.4c-0.8,0.4-1.7,0.9-2.7,0.6
			c-0.6-0.2-1.1,0.1-1.5,0.5c-0.4,0.3-0.7,0.7-1.1,1.1c-2.8,3.1-7.2,3.4-10.3,1.2c-1.4-1-3-1.7-4.5-2.4c-0.6-0.3-1.3-0.6-2.1-0.5
			c-3,0.3-6.1-2.7-6.1-5.8c0-1.6-0.7-2.7-2.1-3.5c-1.4-0.8-2.3-2-2.2-3.8c0.1-0.9,0-1.9,0-2.8c0-0.8,0.2-1.4,1.1-1.5
			C75.4,64.1,75.3,65,75.5,65.6z"/>
		
			<pattern  id="SVGID_00000141438052967056056430000000898561481670557316_" xlink:href="#VT_Halftone_5" patternTransform="matrix(1 0 0 1 -0.6723 0.2642)">
		</pattern>
		<path style="fill:url(#SVGID_00000141438052967056056430000000898561481670557316_);" d="M13,77.6c0-0.4,0.1-0.8,0.3-1.1
			c1.7-3.3,3.3-6.6,4.9-9.9c0.9-1.8,2.1-3.4,3.1-5.1c1.5-2.8,3.9-4.6,6.3-6.5c2.6-2.1,5.1-4.3,7.7-6.4c1.8-1.5,3.8-2.6,5.5-4.2
			c0.3-0.3,0.7-0.6,1-1c1.2-1.4,2.8-2.1,4.4-2.8c0.2-0.1,0.6-0.1,0.8,0.2c0.2,0.2-0.1,0.5-0.1,0.8c-0.5,1.4-1.5,2.4-2.4,3.3
			c-2,2-4,4-6.4,5.7c-3.7,2.6-7.5,5.3-10.5,8.7c-2.2,2.5-4.2,5.2-5.9,8.2c-1.3,2.2-3.1,4.1-4.4,6.2c-0.9,1.4-2.2,2.6-3,4.2
			c-0.2,0.3-0.4,0.7-0.9,0.5C13,78.2,13,77.9,13,77.6z"/>
		
			<pattern  id="SVGID_00000040562940383979661460000012981581410023843490_" xlink:href="#VT_Halftone_5" patternTransform="matrix(1 0 0 1 -0.6723 0.2642)">
		</pattern>
		<path style="fill:url(#SVGID_00000040562940383979661460000012981581410023843490_);" d="M141.1,39.1c2.7,0.1,5.1,1.2,7.3,2.6
			c1.7,1.1,3.6,1.9,5.4,2.8c1.7,0.9,3.1,2.1,4.2,3.6c0.5,0.6,0.8,1.3,1,2c0.2,0.6-0.1,1-0.8,0.6c-0.4-0.2-0.7-0.4-1-0.6
			c-3.7-2.5-7.6-4.6-11.5-6.8c-1.8-1-3.6-2.2-5.4-3.3c-0.3-0.2-0.6-0.4-0.5-0.7C140.2,38.8,140.7,39.2,141.1,39.1z"/>
	</g>
</g>
<g id="EiH7f6.tif">
	<g>
		<path class="st11" d="M33.2,165.6c0.3,0.9,0.6,1.6,0.7,2.2c0.2,0.9,0.7,1.1,1.5,1.1c0.7,0,1.4,0.1,1.9,0.7
			c0.5,0.4,1.1,0.5,1.6-0.1c0.5-0.7,0-1.3-0.5-1.5c-1.5-0.6-2.5-1.9-3.4-3.1c-0.1-0.1-0.2-0.3-0.3-0.3c-1.7,0-1.5-1.3-1.8-2.4
			c-0.7-2.8-2.8-4.8-5-6.4c-3.1-2.4-6-4.7-8.5-7.8c-2.8-3.5-5.2-7.2-7.2-11.1c-1.9-3.8-2.7-7.9-3.2-12.1c-0.4-3.7-1-7.3-0.5-11
			c0.3-2.3,0.2-4.6-0.5-6.9c-1.5-5.1-2.5-10.2-2.9-15.6c-0.3-4.4,0-8.8,0.2-13.2c0.1-2.7,0.9-5.5,1.5-8.2c0.9-4.2,2.3-8.4,4.1-12.3
			c1.5-3.3,3.1-6.5,5-9.6c2.8-4.3,5.8-8.4,9.3-12.2c4.2-4.5,8.9-8.5,13.9-12c3.4-2.3,6.8-4.5,10.5-6.3c3.8-2,7.8-3.6,11.9-5
			c3.1-1.1,6.3-1.9,9.4-2.8c3.7-1,7.6-1.5,11.5-2c6.3-0.9,12.7-0.7,19-0.5c3.9,0.1,7.8,0.8,11.7,1.5c3.8,0.8,7.6,1.7,11.3,2.7
			c2.5,0.7,4.9,1.6,7.2,2.6c3,1.3,6.1,2.6,9,4.2c3.3,1.8,6.5,3.7,9.5,5.9c4.6,3.3,9,6.9,12.9,11.1c4.5,4.8,8.5,9.9,11.6,15.6
			c2.4,4.4,4.5,9,5.9,14c0.7,2.3,1.4,4.6,1.9,7c0.9,4.4,1.4,8.8,1.4,13.3c0.1,5.8-0.7,11.5-1.6,17.2c-0.3,1.8-0.4,3.6-0.3,5.3
			c0.2,3.9,0.1,7.8-0.6,11.7c-0.4,2.5-0.9,5.3-2.3,7.3c-1.6,2.2-1.9,4.7-2.9,6.9c-0.7,1.5-1.8,2.7-2.3,4.3c-0.5,1.4-1,2.8-1.3,4.3
			c-0.6,2.8-2,5-3.8,7.1c-1.2,1.4-2.4,3-3,4.8c-0.3,1.1,0,2.2-0.7,3.3c-1.7,2.5-1.9,5.6-3.3,8.3c-0.7,1.2-1.2,2.5-1.7,3.8
			c-0.7,1.5-1.3,3-1.7,4.6c-0.4,1.2-1.1,2.5-1.9,3.5c-0.6,0.7-1,1.5-1.3,2.3c-0.4,1.1-0.7,2.1-2,2.5c-0.8,0.3-1,1.6-1.2,2.5
			c-0.6,2.2-1.1,4.4-1.4,6.7c-0.3,1.9-1.1,3.6-2.3,5c-2.4,2.7-4.2,5.8-6.6,8.5c-1.8,2.1-3.4,4.3-5,6.4c-1.6,2-3.7,3-5.5,4.6
			c-2.3,2-4,4.6-6.2,6.7c-1.7,1.7-1.9,3.5-1.9,5.7c0,2-0.5,3.8-1.8,5.5c-0.8,1-1.3,2.2-2,3.3c-1.4,2-3.1,3.7-5.4,4.7
			c-0.6,0.2-1,0.8-1.2,1.5c-0.1,0.3-0.2,0.7-0.3,1c-0.3,0.8-1.1,1-1.6,1.6c-0.9,1-1.3,0-1.9-0.2c-1.9-0.8-2.5-0.6-4.5,1.6
			c-0.6,0.6-1,1-1.9,0.6c-0.6-0.2-1.2,0.2-1.7,0.7c-0.6,0.6-1.2,1.1-2.2,2c0-1,0-1.6,0-2.3c0-0.3,0.1-0.7-0.4-0.7
			c-0.4-0.1-0.7,0.1-0.8,0.5c-0.2,0.7-0.1,1.8-1,1.7c-0.6-0.1-0.1-1.3-0.3-1.9c0-0.1-0.1-0.3-0.1-0.4c-1,0.8-2.8,0.8-3.9-0.1
			c-0.7-0.5-1.2-1.2-1.9,0c-0.5,0.8-1,0.3-1.5-0.3c-0.4-0.5-0.2-1.2-0.7-1.6c-1.6,1.4-1.7,1.4-3.2-0.5c-1.5-2-3.6-3.2-5.6-4.6
			c-2.7-1.9-4-4.6-5.2-7.5c-1.1-2.7-1.6-5.7-2.2-8.6c-0.3-1.3-1.3-2-2.3-2.7c-2.5-1.7-4.5-3.8-5.8-6.6c-0.7-1.5-2.4-1.9-3.8-2.5
			c-2.2-1-4.2-2.2-5.8-4c-0.5-0.6-1.2-0.8-1.9-0.7c-0.8,0.1-0.8,1-0.8,1.6c-0.4,5.9-1.4,11.7-3.2,17.3c-1.1,3.5-2.7,6.8-5.7,9.3
			c-1.5,1.2-5,0.9-6.5-0.7c-2.3-2.6-3.8-5.7-4.8-8.9c-1.5-4.5-2.4-9.2-2.8-13.9c-0.3-3.4-0.7-6.9-0.6-10.3
			c0.2-5.6,0.5-11.1,1.7-16.6c1-4.5,2.2-8.7,4.4-12.8c0.3-0.5,0.6-0.8,0.9-1.2c0.5-0.7,0.6-1.5-0.2-1.8
			C32.8,168.9,33,167.4,33.2,165.6z M88.3,161.4c-1.1-0.9-2.2-1.2-3.4-1.4c-0.5-0.1-1.3-0.3-0.6-1.1c0.6-0.7,3-1.1,3.8-0.6
			c1.1,0.7,2.2,1.3,3.4,1.8c4,1.8,7.8,1.7,11.4-1c1.1-0.8,2.5-1.3,3.3-2.6c0.1-0.1,0.5-0.2,0.7-0.1c0.8,0.4,1.9,0.7,2.1,1.5
			c0.1,0.8-0.9,1-1.7,1.2c-0.4,0.2-0.9,0.3-1.2,0.5c-0.8,0.5-0.9,1-0.1,1.6c0.6,0.6,1.5,0.6,2.2,0.4c0.7-0.2,1.3-0.1,1.9,0.1
			c1.9,0.6,3.7,1.3,4.9,2.9c0.3,0.4,0.5,0.4,0.9,0.3c0.5-0.1,0.6-0.6,0.5-0.8c-0.3-0.8,0-1.6-0.4-2.4c-1.1-2-1.6-4.3-2.9-6.2
			c-0.4-0.7-0.2-1.2,0.4-1.7c0.6-0.5,1-0.6,1.7-0.1c1.7,1.2,3,2.8,4.3,4.4c2.3,2.6,4.5,5.1,7.3,7.2c0.6,0.5,1.1,1,0.6,1.9
			c-0.6,1.2-1.3,2.5-1.7,3.8c-0.8,2.1-2.3,4.2-1.3,6.6c0.9,2.2,1.4,4.5,1.9,6.8c0.3,1.5,1,3.2,0.4,4.5c-0.8,1.6-0.4,2.8,0.5,4
			c1,1.4,2.1,2.8,2.4,4.6c0.2,1,0.6,1.6,1.5,1.5c0.8-0.1,1.7-0.4,2-1.5c0.6-2.3,1.1-4.6,1.5-6.9c0.1-0.6,0.4-1.6,1.2-0.3
			c0.5,0.8,1.3,0.7,1.7,0c0.6-0.9,1-1.9,1-3.2c0-1.7,0.4-3.3,0.3-5c0-0.2-0.1-0.6,0.3-0.6c0.4,0,0.5,0.2,0.5,0.6c0,0.3,0,0.5,0,0.8
			c0.1,0.6,0.2,1.2,0.9,1.2c0.7,0,0.9-0.5,1.1-1c0.3-1.1,0.1-2.2,0.1-3.4c0.2-3.5,0.9-6.9,1.5-10.3c0.4-2.3,1.2-4.6,1.9-6.9
			c1.4-4.2,1.2-8.6,1.8-13c0.2-1.7-0.4-2.6-2.1-3c-1.4-0.4-2.9-0.5-4.3-0.6c-0.3,0-0.7,0.1-0.8-0.3c-0.1-0.4,0.2-0.6,0.5-0.6
			c1.8-0.1,2.6-1.6,3.8-2.6c1.2-1,0.5-2.6-1.1-2.9c-0.7-0.1-1.5,0-2.3,0c0.1-0.7,0.5-1,0.8-1c1-0.1,1.5-1,2.2-1.5
			c0.9-0.7,0.7-1.6-0.2-2.2c-0.9-0.6-1.9-0.9-3-0.8c-1.5,0.1-2.9,0.4-4.4,0.3c-1,0-2.1,0.4-2-1.3c0-0.6-0.8-1-1.4-1.2
			c-1.2-0.4-2.4-0.9-3.6-1.1c-3.8-0.4-7.7-0.6-11.5-0.7c-1.6,0-3.1-0.1-4.7-0.4c-0.7-0.1-1.4-0.3-2.1-0.9c-1.7-1.6-2.1-3.7-3.3-5.5
			c-1.2-2-0.4-3.3,0.7-4.9c1.2-1.8,2.5-3.4,4.7-4.2c0.8-0.3,1.5,0,2.2-0.4c1.8-1.1,4.1-1.2,5.8-2.4c1.4-0.9,2.8-0.8,4.2-0.8
			c1.8,0,3.7,0,5.5,0c0.7,0,1.3,0.2,1.9,0.4c2.4,1.1,3.9,3,5,5.4c0.5,1,0.6,2.2,1.2,3c0.9,1.2,1,2.1,0.7,3.5c-0.3,1-0.1,1.9,1.3,2.2
			c1.3,0.3,2.4-0.1,3.6-0.1c1.9,0,2.3-0.3,2.1-2.1c-0.4-2.8-1.2-5.6-1.9-8.4c-0.3-1.1-0.5-2.1-2-1.8c-0.2,0-0.5,0-0.6-0.3
			c-0.5-1.2-1.4-2.1-2-3.2c-1.6-3-3.9-5.3-6.5-7.3c-1.1-0.8-2.2-0.9-3.2-0.3c-2.3,1.3-4.8,2.5-7,4.1c-2.8,2-6,3.4-9.2,4.6
			c-1.8,0.7-3.6,1.1-5.3,2.1c-0.8,0.5-2.2,1.1-2.7,0.8c-1.1-0.7-2.1-0.7-3.2-0.7c-0.6,0-1-0.3-1.2-0.7c-0.2-0.5,0.2-0.9,0.7-1.2
			c2.3-1.7,4.6-3.2,6.7-5.2c2.5-2.4,5.1-4.7,7-7.6c0.4-0.6,0.6-1.3,0-1.9c-0.6-0.6-1.2-0.4-1.7,0c-0.2,0.1-0.5,0.2-0.6,0.4
			c-0.9,1.1-1.8,1-2.9,0.3c-0.7-0.4-1.2-0.2-1.9,0.2c-1.5,0.7-2.6,1.9-3.7,3c-4.7,4.3-13.4,4.7-18.6,0.1c-1.3-1.2-2.2-2.6-3.2-4
			c-0.6-0.8-1.4-1.1-2.1-1c-1.9,0.4-3.8,0.1-5.8,0.2c-1.2,0-2.1,0.5-2.5,1.6c-0.4,1,0.1,1.9,0.8,2.6c0.9,0.9,1.9,1.8,2.8,2.7
			c3.2,3.3,6.8,6.1,10.6,8.7c1.1,0.8,1.2,1.3,0.6,2.4c-0.8,1.4-1.9,1.1-2.9,0.9c-3.1-0.7-6.3-1.2-9.3-2.2c-4.9-1.5-9.3-3.9-13.5-6.6
			c-2.5-1.6-2.7-1.6-4.9,0.5c-0.8,0.8-1.7,1.6-2.7,2.1c-2.8,1.2-3.9,3.8-5.6,5.9c-0.2,0.2-0.1,0.8-0.6,0.7c-0.5-0.1-0.3-0.6-0.3-0.9
			c0-0.3,0-0.5,0-0.8c0.1-0.7,0-1.4-0.9-1.5c-0.8-0.1-1.2,0.3-1.7,0.9c-1.6,2.3-2.4,4.8-2.8,7.5c-0.3,1.8-0.6,3.8,0.4,5.5
			c1.4,2.5,4.2,3,6.5,2.7c0.9-0.1,1.8-0.9,1.4-2.1c-0.3-1.1,0.2-1.9,0.8-2.6c0.7-1,1.5-1.9,1.8-3.1c0.4-1.8,1.1-3.4,2.5-4.5
			c1.1-0.9,2.1-2,3.9-2.2c2.2-0.2,4.4-0.2,6.6-0.8c1.3-0.4,2.3,0.1,3.2,0.8c1,0.8,2.3,1.3,3.5,1.6c2.1,0.7,4.2,1.2,6.5,1.5
			c2.1,0.2,3.7,2.1,4.9,3.9c0.8,1.2,0.5,1.9-0.9,2.5c-0.4,0.2-1,0.1-0.6,0.9c1,1.8,0.9,2.6-0.4,4.1c-1.9,2.2-4.5,3.3-7.2,4
			c-1.9,0.5-3.8,0.5-5.7,1c-2.6,0.7-5.3,0.7-7.9,0.3c-1.7-0.2-4.4,0.9-5.1,2.4c-0.4,0.9-1,1.2-1.9,1.4c-3,0.7-6.1,1-8.9,2.4
			c-0.8,0.4-1.2,0.8-1,1.7c0.3,1,1,0.9,1.7,0.7c2.5-0.7,4.9-0.5,7.4-0.5c0.3,0,0.4,0.2,0.5,0.5c-1.2,0-2.3,0.4-3.4,0.6
			c-2.4,0.4-4.8,1.1-6.9,2.5c-1,0.6-0.8,1.1,0.2,1.6c1.3,0.6,2.5,1,3.9,0.9c0.4,0,1.1,0.1,1.1,0.6c0,0.5-0.6,0.5-1.1,0.5
			c-0.4,0-0.8,0-1.2,0c-1.6,0.1-2.4,0.8-2.3,2.4c0.2,3.2,1.5,6.2,1.9,9.4c0.4,2.7,2.3,5.3,1.2,8.2c-0.1,0.1,0.1,0.4,0.2,0.6
			c1.9,5.5,3.6,11.1,4.3,17c0.3,1.9,0.7,3.9,2.2,5.3c0.5,0.5,1,1.3,1.9,1c1-0.3,1.1,0.1,1.1,0.8c0,0.7,0.1,1.2,1,1.1
			c0.9,0,1.1-0.6,1.2-1.3c0.3-1.8,0.8-3.6,1.4-5.3c0.2,0.1,0.3,0.2,0.3,0.3c0.4,3.4,1.6,6.6,2,10c0.2,1.3,0.9,2.5,1,3.9
			c0.1,0.6,0.6,1.1,1.3,1.1c0.9,0.1,1-0.9,1-1.3c0-1.7-0.1-3.3-0.4-4.9c-0.4-2.1-1.1-4.2-1-6.4c0.1-4.1,1.4-7.9,3-11.6
			c1.1-2.6,0.8-4.2-1.4-6c-1.6-1.3-1.8-2.6-0.6-4.2c0.3-0.4,0.8-0.8,1.2-1.2c2.6-2.6,5.2-5.1,7.1-8.2c0.8-1.4,1.6-2.9,2.9-4
			c0.6-0.5,1.1-1.4,1.9-1c0.9,0.5,0.5,1.5,0.5,2.4c0,0.1-0.1,0.3-0.2,0.4c-0.8,2-1.2,4-1.7,6.1c-0.1,0.5-0.3,1.1,0.2,1.5
			c0.6,0.5,1.2,0.1,1.7-0.2c1.4-0.7,2.6-1.5,4.1-2.2C85,162.1,86.8,162.4,88.3,161.4z M173.9,121.4c0.1,0.8,0,1.5-0.1,2.2
			c-0.5,2.9-1.5,5.8-1,8.8c0.1,0.3-0.1,0.7,0.5,0.8c0.4,0,0.6,0,0.8-0.5c0.4-1.3,0.9-2.6,1.4-3.8c0.8-2.1,1.5-4.2,2.3-6.2
			c0.9-2.3,1.6-4.6,1.5-7.2c-0.1-2.8-0.1-5.6,0-8.4c0.1-4-0.6-7.8-1.8-11.5c-1.8-5.7-3.5-11.4-5.6-16.9c-0.7-1.9-1.3-3.8-2-5.6
			c-0.9-2.2-2.4-4-4-5.6c-1-1-1.6-2.4-2.8-3.3c-2.5-1.8-4.4-4.2-6.9-6.1c-2-1.6-4.1-2.8-6.7-2.9c-0.5,0-1-0.2-1.4-0.5
			c-2.6-2.1-5.7-3.5-8.8-4.7c-1.4-0.6-2.8-0.8-4.2-1.5c-2.9-1.5-5.9-2.9-8.9-4.2c-1.3-0.6-2.7-1.1-4.4-1c0.6,0.8,1,1.4,1.5,1.8
			c2.9,2.2,6.1,4,8.7,6.7c1.7,1.8,3.9,3.1,5.8,4.7c1.9,1.5,3.6,3.3,5.5,4.8c1.7,1.3,3,2.8,4.5,4.2c1.9,1.8,3.5,4.1,5.1,6.1
			c2,2.5,3.3,5.3,4.8,8c2.2,3.9,4.7,7.7,5.6,12.2c0.1,0.4,0.4,0.8-0.1,1.2c-0.8-1.3-1.8-2.6-2.4-4c-1.2-2.5-1.9-5.2-3.5-7.7
			c-1.5-2.4-3.1-4.7-4.8-6.9c-2.4-3-5-6-7.9-8.7c-1.4-1.3-2.9-2.5-4.2-3.8c-1.6-1.7-3.4-3.3-5.4-4.7c-1.4-0.9-2.9-1.6-4.3-2.5
			c-4.4-2.7-8.4-6-13.4-7.7c-0.5-0.2-0.8-0.6-1.3,0c-0.5,0.6-0.6,1-0.1,1.6c0.6,0.8,1.2,1.5,2,2.1c0.7,0.6,1.8,1,1.9,2.5
			c-2.7-0.8-5.1-1.8-7.8-2c0,0.6,0.4,0.9,0.7,1.2c2,1.9,4.3,3.5,6.6,4.8c2.7,1.6,5.6,2.8,7.9,4.9c1.9,1.7,3.5,3.8,5.2,5.7
			c0.2,0.2,0.4,0.4,0.1,0.6c-0.3,0.2-0.5,0.1-0.8-0.2c-0.9-1.1-2-2-3.2-2.8c-3.3-2.3-7.1-3.7-10.7-5.5c-0.4-0.2-0.8-0.4-1.3-0.5
			c-0.7-0.1-1.4,0.2-1.4,0.8c0,0.9-0.3,1.9,0.3,2.9c0.7,1.2,2.1,1.4,2.9,2.6c1.6,2.3,4.1,3.6,6.5,4.9c1.5,0.9,3.1,1.7,4.4,3.1
			c-0.5,0.3-0.9,0.3-1.2,0.2c-1.2-0.6-2.6-0.8-3.8-1.3c-2.8-0.9-5.6-1.4-8.3,0.1c-1,0.5-1.7,1.2-1.8,2.4c-0.2,2-0.4,4.1,2.5,4.5
			c0.1,0,0.1,0.1,0.2,0.2c2.6,1.8,5.6,3,8.4,4.4c0.6,0.3,1.5-0.4,1.6,0.4c0.2,1.3,1.3,1.3,2.1,1.6c2.4,0.9,4.2,2.5,6.1,4.2
			c1.2,1.1,1.8,2.6,2.9,3.6c3.1,2.7,5,6.2,6.9,9.7c1.3,2.5,2.5,5.1,3.8,7.6c0.6,1.1,1.2,2.2,2,3.2c-0.3-3.2-1.2-6.2-1.4-9.4
			c1,0.4,1.2,1.5,1.8,2.2c2.7,3.2,4.8,6.9,6.5,10.7c0.9,1.8,1.7,3.6,3.7,4.9c-1.8-12.5-5.8-23.9-14.1-33.5c0.5,0,0.9,0,1.2,0.3
			c1.7,1.7,3.4,3.4,5,5.1c2.1,2.3,3.5,5.1,4.9,7.9c1.2,2.4,2.5,4.8,3.5,7.3c0.4,1,0.9,2.1,1.1,3.1c0.4,1.7,1.5,3,2.3,4.5
			c0.2,0.3,0.5,0.4,0.8,0.3c0.3-0.1,0.3-0.4,0.3-0.6c0-1.7,1-3.2,0.6-4.9c-0.1-0.3,0.1-0.6,0.5-0.8c0.2,3,0.7,5.9,1.1,8.8
			c0.5,4.3,0.4,8.5,0.1,12.7c0,0.5-0.1,0.9,0.4,1c0.4,0.1,0.5-0.3,0.7-0.7c0.7-1.5,1.2-3,1.7-4.6c0.5-1.9,1.6-3.6,2-5.5
			C173.2,122.6,173.5,122.1,173.9,121.4z M70.3,79.3c0.2-1.1,0.9-1.5,1.4-2c0.4-0.5,0.4-0.9,0.2-1.5c-0.2-0.6-0.6-0.5-1-0.6
			c-0.7-0.1-1.5-0.2-2.1,0.1c-1.9,1-4.1,0.6-6.1,1.1c-0.3,0.1-0.6,0-0.8-0.3c-0.2-0.3-0.1-0.6,0.1-0.6c1.1-0.1,1.4-1.2,2.2-1.7
			c1.9-0.9,3.4-2.4,4.9-3.8c0.4-0.3,0.8-0.9,0.9-1.5c0.3-1.4,0.4-2.9,1.6-4c0.4-0.4,0.3-1.1,0-1.6c-0.4-0.5-0.9,0-1.2,0.2
			c-1.4,0.7-2.9,1.4-4.2,2.3c-3.2,2.2-6.9,3.5-10.2,5.7c-0.3,0.2-0.7,0.2-0.8,0c-0.3-0.3,0.1-0.5,0.3-0.7c0.7-0.6,1.2-1.4,2-1.9
			c1-0.6,2.1-1,3-1.7c2.9-2.1,5.8-4.1,8.6-6.3c1.5-1.2,3.7-2,4-4.4c0.1-1,0.6-2,0.8-3c0.1-0.7,0.6-1.2,1.1-1.3c2-0.5,3.6-1.9,5.2-3
			c0.6-0.4,2-0.7,1.6-1.7c-0.2-0.5-1.6,0-2.4,0.2c-0.2,0-0.5,0.2-0.7,0.4c-1.3,0.9-3.1,0.6-4.4,1.9c-0.2,0.2-0.8,0.1-1.2,0.1
			c-0.5,0-1,0-1.5,0.3c-1.7,0.7-3.5,1.3-5.2,1.7c-1.6,0.4-3.3,0.7-5.2,0.8c0.2-0.4,0.3-0.6,0.4-0.7c1.6-0.9,2.4-2.6,4-3.5
			c2-1.2,3.8-2.9,5.6-4.3c0.1-0.1,0.4-0.3,0.4-0.4c0-0.3-0.3-0.3-0.5-0.4c-1.2-0.2-2.3,0.3-3.4,0.5c-2.5,0.6-4.8,1.9-7.1,3
			c-1.7,0.8-4.2,1.1-4.5,3.7c0,0.1-0.2,0.2-0.3,0.3c-3.5,1.9-6.6,4.6-9.6,7.1c-4,3.4-8.4,6.5-11.8,10.8c-1.7,2.1-3.1,4.4-4.7,6.6
			c-1.2,1.6-2.1,3.5-3.1,5.2c-1.3,2.2-2.7,4.3-4.1,6.4c-1,1.5-1.7,3.1-3,4.7c0.3-1.3,0.6-2.4,1-3.4c1-2.8,2-5.6,3.4-8.2
			c0.8-1.5,1.2-3.1,2.2-4.5c0.5-0.7,1.2-1.5,1.1-2.6c-0.1-0.3,0.2-0.8-0.3-0.9c-0.4-0.1-0.5,0.3-0.6,0.5c-1.9,2.4-3.7,4.8-5.6,7.2
			c-1.8,2.3-3.6,4.5-5.3,6.9c-1.1,1.5-2,3.2-2.5,5.1c-0.6,2.5-1,5-1.6,7.5c-0.5,2.1-1,4.3-0.3,6.4c0.5,1.5,0.2,2.8,0,4.3
			c-0.4,2.5-0.8,5-1.5,7.5c-0.5,1.9-0.6,3.8,0,5.7c0.2,0.5,0.5,1,0.6,1.6c0.4,2.1,1.5,4.1,2.2,6.1c0.5,1.3,1.3,2.7,1.7,4.1
			c0.5,1.4,1.3,2.5,2.2,3.6c0.3,0.4,0.6,0.3,1,0.2c0.5-0.2,0.2-0.6,0-0.9c-0.8-1.6-1.1-3.3-1.6-5c-0.2-0.8-0.9-1.5-0.5-2.3
			c0.7,0.1,0.9,0.4,1.1,1c0.7,1.9,1.8,3.6,3,5.2c0.4,0.5,0.7,0.4,0.8-0.2c0.2-2.3,0.1-4.8-1-6.7c-1-1.8-1.3-3.6-1.2-5.3
			c0.3-2.8-0.1-5.4-0.7-8c-1.7-7.2-1.3-14.1,1.4-21.1c0.3,1.8-0.1,3.3-0.2,5c-0.2,4.4,0.2,8.8,1.2,13.1c0.3,1.5,0.8,2.9,1.3,4.3
			c0.1,0.4,0.4,1.1,1,1c0.6-0.1,0.3-0.7,0.4-1.2c0.2-0.9-0.4-1.8,0.4-2.7c0.3,0.8,0.6,1.6,0.8,2.4c0.1,0.4,0.4,0.6,0.8,0.5
			c0.4-0.1,0.4-0.4,0.3-0.7c-0.1-2.9,0.8-5.5,1.5-8.3c0.2-1-0.1-2,0.3-3c0.8-1.8,1.2-3.7,1.5-5.6c0.7-3.7,1-7.6,2.5-11.2
			c0.8-1.9,1.6-3.9,2.9-5.5c0.6-0.7,0.5-1.8,1.3-2.3c1.3-0.7,1.9-2.1,3-3c0.9-0.8,1.4-2.1,2.9-2.6c-1.6,2.2-3.3,4-4.4,6.2
			c-1.8,3.5-3.4,7.1-4.9,10.8c-0.9,2.1-1.5,4.4-1.4,6.7c0.1,1.3,0.2,2.5-0.1,3.8c-0.5,2.6-0.8,5.2-0.8,7.8c0,1.2-0.3,2.5,0.1,3.7
			c0.1,0.4,0.1,1,0.7,1c0.5,0,0.5-0.5,0.6-0.9c0.4-1,0.8-2.1,1.2-3.1c0.2-0.4,0.4-0.8,0.9-0.7c0.3,0.1,0.3,0.4,0.2,0.6
			c-0.8,2.1,0.2,4.2,0.1,6.3c0,1.5,0,3.2,0.6,4.9c1.8-2.7,1.6-5.7,2.4-8.4c0.8-2.7,1-5.5,3.2-7.7c1.6-1.7,3.4-3.2,5.1-4.8
			c4-3.5,8.6-6.2,12.6-9.6c2.2-1.8,4.5-3.6,7.3-4.8c1.8-0.7,3.7-1.6,5.4-2.8c2-1.4,4.5-1.8,6.5-3.3c0.3-0.2,1-0.1,0.9-0.8
			c-0.1-0.7-0.7-0.7-1.2-0.9C74,78.7,72.3,78.7,70.3,79.3z M112.4,200.3c-2.1,2-4.5,2.6-6.8,2.5c-4.7-0.1-9.4,0.5-14.1,0.5
			c-2.5,0-5.1,0.1-7.6,0.1c-1.1,0-2.1-0.3-3.2-0.7c-2-0.8-3.4-2.4-5.2-3.4c-1.1-0.6-2-0.5-2.6,0.5c-0.8,1.6-1.6,3.3-1.4,5.2
			c0.6,4.4,0.6,8.8,1,13.3c0.4,4.1,1.2,8.1,1.7,12.2c0.1,0.7,0.3,1.4,0.6,2c0.3,0.6,0.7,1,1.4,0.2c0.6-0.7,1.1-1.4,1.1-2.4
			c0-0.9,0.4-1.6,1.4-0.9c0.8,0.5,1.5,0.3,2.3,0.1c1.6-0.5,1.7-2,2.3-3.1c1-1.8,1.8-3.7,4.1-4.2c1.2-0.2,1.7-1,2.3-1.9
			c1-1.4,0.5-3.2,1.2-4.6c0.8-1.8,0.5-2.2-1.1-3.3c-1.8-1.1-3.9-1.2-5.6-2.2c-1-0.6-2.3-1-3-2.7c5.3,2.2,10.6,1.4,15.8,1.8
			c2.7,0.2,5.4,0,8.1-0.3c2.1-0.2,4.1-0.8,6.1-1.7c1.2-0.5,2.4-1,3.7-1.5c-1.6,2.1-3,4.1-5.3,5.6c-1.6,1-3.3,1.4-5,2.1
			c-1.2,0.5-1.4,1.3-1.2,2.3c0.2,1.1,1.1,1.6,2.2,1.8c1,0.2,1.8,0.6,1.8,1.9c0,0.8,0.6,1.8,1.5,2.1c1.3,0.5,2.1,1.3,2.5,2.5
			c0.3,0.8,0.8,1.1,1.6,1c2.2-0.2,3.4,0.8,4.3,2.7c0.5,0.9,1,2,2.1,2.5c0.4,0.2,0.8,0.4,1-0.1c0.5-0.9,1.3-1.7,1.2-2.9
			c-0.3-3.3,0.6-6.5,0.4-9.8c-0.2-2.4,0.2-4.8-0.1-7.1c-0.3-2.9-0.4-5.8-0.2-8.6c0.1-1.6,0.1-2.8-1.4-3.8c-0.8-0.5-1.8-0.8-2.7-1.2
			c-0.8-0.3-1,0.5-1.5,0.8c-0.4,0.3-0.8,0.4-0.9-0.2c-0.4-1.5-1.5-1.4-2.5-1c-2.1,0.9-4.3,1.2-6.5,1.3c-3.5,0-6.8,1-10.3,0.7
			c-0.1,0-0.3,0-0.5,0c-4.3,0.3-8.6,0.8-12.9-0.5c-1-0.3-2.3-0.7-3.5-0.2c2.8,3.4,3.6,4,7.8,3.7c1.5-0.1,2.9-0.4,4.4-0.3
			c3.1,0.3,6.2,0.5,9.3,0.3C104.5,201.5,108.4,201.9,112.4,200.3z M75.7,65.6c-0.4-0.5-0.2-1.6-1.2-1.4c-0.9,0.2-1.1,1.1-1.2,1.9
			c0,0.9,0,1.7,0,2.6c0,1.5,0.7,2.9,2,3.5c1.7,0.8,2.2,2,2.3,3.7c0.2,3.2,3.2,5.8,5.6,5.8c2.8,0,5,1.4,7.3,2.8
			c1.6,1,3.3,1.8,5.4,1.3c2-0.4,3.5-1.3,4.9-2.8c0.4-0.5,0.8-1.5,1.7-1.3c2.1,0.6,3.6-1,5.4-1.4c1.2-0.3,2.4-1.5,2.8-2.8
			c0.4-1.1,0.6-2.2,0.4-3.4c-0.2-1.1,0.2-1.9,1.2-2.5c0.7-0.4,1.5-1.2,1.7-1.9c0.4-2.1,1.1-4.2,0.1-6.3c-0.8-1.6-1.4-3.4-2.2-5
			c-0.2-0.3-0.6-1.4-1.1-0.2c-0.6,1.5-1,3.1-1.3,4.7c-0.2,1.2,0,2.5-0.5,3.7c-1.5-0.7-1.2-2-1.2-3.2c0-0.6,0-1.3-0.6-1.4
			c-0.7-0.1-0.8,0.6-1,1.1c-1.6,2.9-1.1,6.3-2,9.4c-0.8,2.7-4.8,7.3-8.3,6.9c-1.8-0.2-3.6,0-5.4-0.3c-2.7-0.5-4.2-2.3-5.3-4.5
			c-1.3-2.5-1.3-5.3-1.3-8.1c0-1.5-0.4-3-0.8-4.4c-0.1-0.3-0.2-0.7-0.6-0.7c-0.5,0-0.6,0.3-0.6,0.7c-0.2,1.5-1.2,2.7-1,4.3
			c0.1,0.7-0.3,1.4-1,2.1c-0.2-1-0.6-1.7-0.4-2.5c0.2-1.1-0.9-1.7-1.5-2.1c-0.6-0.5-1.1,0.6-1.5,1.1C76.2,65.3,76.2,65.6,75.7,65.6z
			 M33.4,201.7c-0.5-1-0.4-1.8-0.5-2.4c-0.8-3.4-1.1-6.9-1.3-10.5c0-0.5,0.1-1.3-0.5-1.4c-0.7-0.1-1.1,0.6-1.2,1.2
			c-0.5,2.4-1.3,4.7-1.3,7.1c-0.3,7.6,0.1,15.2,2.4,22.6c0.9,2.8,2.1,5.4,2.9,8.2c0.6,2.4,2,4.1,3.8,5.6c2.1,1.7,4.7,1.9,6.2,0.3
			c1.2-1.3,1.8-3,2.4-4.6c0.8-2.2,1.3-4.5,1.5-6.8c0.1-1.1,0.2-2.3-0.7-3.6c-0.4,2.4-0.8,4.4-1.8,6.3c-0.6,1.2-1.4,2.5-1.6,3.8
			c-0.2,1.1-0.6,1.9-1.5,2.1c-0.8,0.2-1.4-0.6-1.9-1.3c-0.2-0.3-0.5-0.4-0.7-0.7c-0.8-1.7-1.1-3.5-1.6-5.2c-0.9-3.3-1.3-6.7-2-10
			c-0.9-5-0.5-10-0.6-14.9c-0.1-3.8,0.8-7.7,0.8-11.6c0-0.3,0.4-0.7-0.2-0.9c-0.5-0.1-0.6,0.4-0.7,0.7c-0.9,2.8-1.7,5.6-1.7,8.5
			C33.6,196.5,33.2,198.9,33.4,201.7z M109.6,175.8c0,0.2,0,0.3,0,0.5c-1.3-0.1-2.7-0.1-4-0.5c-2.1-0.6-4.4-1.1-6.5-1
			c-3.3,0.2-6.7-0.1-9.7,1.7c-0.2,0.1-0.5,0.1-0.8,0.1c-2.5-0.2-4.8,0.5-7.1,1.2c-0.4,0.1-0.8,0.2-0.8,0.7c0,0.5,0.3,0.8,0.7,0.8
			c1.8,0,3.4,0.7,5.2,0.7c5.5-0.1,11,0.1,16.5-0.3c2.5-0.2,4.8-0.9,7.3-1c0.5,0,1.1-0.4,1.3-0.9c0.4-1.3,1.3-0.9,2.3-0.9
			c1.1,0,1.7,0.2,2.3,1.2c0.9,1.4,2,2.6,3,3.8c0.3,0.3,0.9,0.5,0.8-0.1c-0.2-1.7-0.5-3.8-1.9-4.7c-1.1-0.8-1.6-1.8-2.3-2.9
			c-0.6-0.9-1.5-1.9-2.5-1.9c-4.5-0.1-8.7-1.8-13.2-2.3c-4.7-0.5-9,0.1-13.4,1.7c-2,0.8-4.1,1.5-6.4,1.4c-2.2,0-4,2.2-3.6,4.5
			c0.8-0.4,1.6-0.9,2.4-1.1c2.8-0.5,5.6-1,8.4-1.5c4-0.8,8.1-1,12.2-1C103.4,173.8,106.3,175.5,109.6,175.8z M95.7,241.6
			c0.9,0.8,1.8,1.4,2.9,1.1c1.1-0.3,1.4,0.1,1.7,1c0.4,1.3,1.2,1.6,2.1,0.8c1.3-1.1,2.7-2.3,2.5-4.3c0-0.3-0.3-0.8,0.3-1
			c0.1,0,0.3,0,0.4,0.1c0.4,0.4-0.1,0.7-0.3,1c-0.4,0.8,0,1.4,0.4,1.9c0.4,0.5,0.9,0.1,1.5-0.1c1.9-0.9,3.9-1.3,5.6-2.7
			c1-0.9,1.9-1.7,2.6-2.9c0.2-0.4,0.1-0.6-0.1-1c-0.9-1.4-1.8-1.3-2.9,0.3c-0.3,0.4-0.4,1.2-1.1,1c-0.6-0.2-0.6-0.8-0.7-1.3
			c-0.1-0.6-0.1-1.5-1-1.4c-0.8,0.1-1.4,0.6-1.4,1.5c0,0.7-0.1,1.3-1,1.7c0.2-0.9,0-1.6,0.3-2.4c0.2-0.6,0.5-1.7-0.4-2
			c-0.8-0.3-1.5,0.3-1.9,1c-0.6,1-1.2,2-1.3,3.2c-0.1,0.9-0.4,1.5-1.6,0.8c-0.9-0.5-1.5-0.9-1.9-1.8c-0.3-0.7-0.9-1-1.5-1.1
			c-0.6,0-1.1,0.3-1.1,1c-0.1,0.6-0.6,0.5-0.9,0.5c-0.4,0-0.7-0.1-0.9-0.6c-0.1-0.5-0.3-1.2-1-1.3c-2-0.3-2-1.9-2.4-3.3
			c-0.2-0.8-0.1-2.3-1-2.2c-0.9,0.1-1.1,1.5-1.1,2.5c0,1.7-0.3,3.4,0.2,5.1c0.1,0.4-0.1,0.8-0.4,0.9c-0.4,0.1-0.4-0.3-0.6-0.6
			c-0.6-1-1.4-1.7-2.3-2.4c-0.3-0.2-0.7-0.5-1.1-0.2c-1.1,0.8-1.9,4.4-1.1,5.4c0.5,0.6,0.8,1.9,2,1.4c1.2-0.4-0.1-1.3,0.3-2
			c0.1,0,0.2,0.1,0.3,0.1c1.5,1.2,2.3,3.6,5,2.9c0.1,0,0.2,0.1,0.2,0.2c0.6,0.5,0.8,1.6,1.8,1.2c1.1-0.4,0.2-1.5,0.6-2.1
			C95.5,241.8,95.6,241.8,95.7,241.6z M88.3,68.4c-0.4-1-0.8-2-1.2-3.1c-0.2-0.5-0.6-0.6-1.1-0.6c-0.5,0-0.9,0.2-1,0.7
			c-0.2,0.9-0.5,1.8-0.6,2.8c-0.3,3.8,2.1,6,5.2,7.8c1.8,1,3.8,1.6,5.8,0.9c4.6-1.6,6.6-4.2,7-9.1c0.1-0.6-0.1-1.2-0.8-1.3
			c-0.7-0.1-0.9,0.4-1.1,1c-0.4,0.8,0,2-0.9,2.6c-0.6-2.6-1.9-3.4-4.1-2.4c-0.7,0.3-1.5,0.7-2.1,1.1c-0.4,0.2-0.7,0.5-1.1,0.1
			c-0.4-0.3-0.3-0.7-0.1-1.1c0.3-0.6,0.7-1.2,1.1-1.8c0.2-0.3,0.8-0.5,0.4-1c-0.3-0.3-0.7-0.4-1.1-0.3c-1.3,0.4-2.6,0.7-3.2,2.2
			C89.2,67.5,89.1,68.2,88.3,68.4z M139.3,196.8c-0.2-0.3-0.3-0.4-0.4-0.5c-0.2-0.6,0-1.5-1-1.6c-1.3-0.1-0.8,1.1-1.1,1.6
			c-0.1,0.2-0.1,0.5-0.1,0.7c-0.5,2.7-1.1,5.3-2.1,7.7c-0.4,0.9-0.8,1.5-1.7,0.5c-0.7-0.7-1.1-0.2-1.4,0.3c-2.1,3.7-4.9,7-6.7,10.8
			c-0.2,0.5-0.5,0.8,0,1.2c0.4,0.3,0.9,0.4,1.3,0c0.4-0.5,1-0.8,1.4-1.3c0.7-0.8,1-2.4,2.7-1.6c0.4,0.2,0.7-0.3,0.9-0.7
			c0.8-1.1,1.1-2.3,1.7-3.5c0.7-1.4,1.2-3.1,2.6-3.7c1.3-0.6,2.2-1.4,2.9-2.5c1.4-2.4,3.1-4.6,5-6.6c1.6-1.6,2.6-3.4,3-5.5
			c0.5-2.7,0.9-5.4,1.4-8.1c0.1-0.7,0-1.3-0.6-1.3c-0.5-0.1-0.6,0.6-0.8,1.1c-1.2,2.9-1.8,6-3.5,8.7c-0.6-0.3-1.1-2.2-1.7-0.5
			C140.5,193.7,139.6,195,139.3,196.8z M13.5,78.3c0.4,0,0.5-0.3,0.6-0.4c0.7-0.5,0.8-1.3,1.3-1.9c2.7-3.4,5.3-6.9,7.5-10.5
			c1.5-2.4,3.1-4.7,5-6.6c3.2-3.2,6.8-5.9,10.5-8.5c3.3-2.4,6.2-5.2,8.4-8.7c0.2-0.3,0.6-0.5,0.4-0.9c-0.3-0.4-0.8-0.3-1.1-0.1
			c-0.9,0.5-1.8,0.8-2.5,1.5c-3.4,3.2-7.2,5.7-10.7,8.6c-2.7,2.2-5.4,4.4-8,6.7c-2.9,2.6-4.7,6.1-6.5,9.5c-1.7,3.1-3.2,6.3-4.8,9.5
			C13.3,77.1,12.8,77.7,13.5,78.3z M162.2,137.9c-1.1,0.5-1.6,1.3-1.7,2.6c0,1.2-0.2,2.5-0.5,3.7c-0.5,2.1-1.1,4.2-1.5,6.4
			c-0.4,1.8-1,3.4-1.8,4.9c-0.8,1.5-1.9,2.8-3.7,3.5c-1.2,0.5-1.7,1.6-1.2,2.8c0.9,2.2,0.3,4.3,0,6.5c-0.1,1.2-0.6,2-1.3,2.6
			c-1,0.8-1.1,1.7-1.1,2.8c-0.1,1.2,0.2,2.5,1.4,2.9c1.2,0.4,2.3-0.7,2.8-1.4c1.3-2.1,2.6-4.3,2.8-7c0.3-3.7,1.4-7.3,2.4-10.8
			c0.9-3.1,2.1-6.2,2.8-9.4c0.5-2.4,0-4.7,0.5-7.1C162.2,139.9,162.8,138.9,162.2,137.9z M33.2,143.5c0.6,0.7,0.6,1.4,0.8,2
			c0.5,1.7,1.2,3.3,1.9,5c0.2,0.5,0.6,0.5,1,0.4c0.5-0.1,0.4-0.5,0.4-0.9c0.1-0.9-0.2-1.8-0.6-2.6c-0.6-1.1-0.8-2.2-0.2-3.4
			c0.4-0.8,0.5-1.7,0.4-2.7c-0.3-1.7-0.3-3.4,0.2-5c0.6-1.8,0.1-3.3-0.9-4.7c-0.5-0.7-0.9-1.4-1.3-2.1c-0.7-1.1-1.6-2.2-3.1-2.1
			c-0.8,0-1.8-0.5-2.4,0.3c-1.2,1.4-2.7,2.7-3,4.7c-0.3,1.9,0.3,3.8,0.3,5.7c0,0.6,0.4,0.8,0.9,0.9c0.5,0,1-0.1,1-0.7
			c0-0.8,0.4-1.4,0.7-2c0.6-1.3,0.6-2.9,1.5-4.1c0.5-0.6,1-1.2,1.8-0.4c0.6,0.6,1,3.8,0.3,4.3c-1.3,1-1.4,2.5-1.8,3.8
			c-0.5,2-0.6,4,0.2,5.9c0.2,0.4,0.4,0.6,0.7,0.7c0.5,0.1,0.5-0.4,0.6-0.7C32.9,145.2,33.1,144.5,33.2,143.5z M56.1,203.1
			c-1.5-1.3-2.2-3-3.1-4.6c-1.1-2-2.1-4.2-2.7-6.4c-0.2-0.7-0.5-1.5-1.5-1.1c-0.8,0.3-0.5,1.1-0.4,1.7c0.5,2.3,1,4.5,1.1,6.8
			c0,1.1,0.6,1.9,1.4,2.7c0.8,0.8,1.8,1.1,2.7,1.8c1.7,1.3,2.9,2.9,4.3,4.5c2.1,2.3,5.3,3,7.3,5.5c0.4,0.5,0.7,0.1,0.8-0.4
			c0.2-1.4-0.1-2.5-1.2-3.5c-1.6-1.4-2.7-3.1-3.1-5.3c-0.2-1.4-0.8-2.7-1.2-4c-0.2-0.7-0.7-0.7-1.3-0.7c-0.8-0.1-0.8,0.5-0.9,0.9
			c-0.1,0.4-0.2,0.7-0.3,1c-0.6,0-0.6-1.1-1.4-0.7C55.9,201.6,56.5,202.4,56.1,203.1z M42.8,215.4c0.6-0.5,1-0.7,1.3-1.3
			c1.3-2.6,1.7-5.4,2-8.2c0.2-2.2,0.8-4.5,0.3-6.8c-0.8-4-1.7-7.9-2.7-11.8c-0.4-1.8-0.7-3.6-1.4-5.3c-0.4-0.9-1.2-0.8-1.9-0.8
			c-0.9,0.1-0.8,0.9-0.9,1.4c-0.1,0.6-0.1,1.2,0.1,1.8c0.6,1.3,0.9,2.8,1.2,4.2c1.1,4.3,1.8,8.6,1.9,13
			C42.9,206,42.8,210.5,42.8,215.4z M162.7,130.2c0.2-0.8-0.4-1.4-1-2c-1.5-1.3-2.5-3-4.2-4.1c-1-0.6-2.1-0.2-2.3,0.9
			c-0.5,2.3-0.9,4.6-1.2,6.9c-0.1,0.7-0.2,1.5,0.1,2.1c0.7,1.2,0.4,2.3,0.2,3.5c-0.3,1.9-1.2,3.6-1.3,5.5c0,0.4-0.2,1,0.5,1.1
			c0.6,0.1,1.1,0,1.3-0.7c0.1-0.2,0.2-0.5,0.3-0.7c0.7-1.6,1.4-3.2,2.9-4.4c0.8-0.7,1.2-1.6,0.8-2.8c-0.4-1.5-1.2-2.8-2.1-4.1
			c-0.4-0.5-0.6-1,0-1.6c0.5-0.6,1-0.5,1.6-0.3c0.9,0.3,1.5,1,2.1,1.7c0.5,0.5,0.7,1.2,1.7,0.9C162.9,131.8,162.6,131.1,162.7,130.2
			z M60.6,123.6c-0.4,1.5,0.5,2.8,1.2,4.2c0.5,0.8,1.6,1.4,2.1,1c0.9-0.6-0.2-1.2-0.6-1.8c0,0-0.1-0.1-0.1-0.1
			c-1.9-2.9-2.1-5,0.8-7.7c1.4-1.3,4.6-1,6.3,0.6c1.9,1.8,1.3,6-1.2,6.7c-1.1,0.3-2.7,0.7-3.7-0.5c-1.4-1.5-1.4-2.7-0.5-4.5
			c0.5-0.9,1.4-1.1,2.3-1.1c0.9,0,1.7,0.5,2.1,1.3c0.5,1.2,0,2-1,2.7c-0.8,0.5-1.2,0-1.7-0.5c-0.2-0.2-0.2-0.6,0-0.8
			c0.1-0.1,0.5,0,0.6,0.1c0.4,0.4,0.9,0.7,1.3,0.3c0.3-0.4,0.4-1.3-0.1-1.5c-0.7-0.3-0.8-1.7-1.9-1.2c-1.4,0.6-1.8,3.3-0.7,4.3
			c1.2,1.1,2.3,0.8,3.5,0.1c1.1-0.6,1.7-2.6,1.2-3.6c-0.8-1.9-2.9-3.5-5.9-1.9c-1.3,0.7-2.1,4.1-1.3,5.7c1.7,3.7,6.4,3.2,8.3,0.6
			c1.6-2.2,1.6-4.3,0.3-6.6c-0.9-1.5-3.8-2.9-5.7-2.6C62.8,117.1,60.3,119.9,60.6,123.6z M122.8,121.4c0.4,0.5,0.9,0.8,0.5,1.3
			c-0.5,0.6-1.3,0.5-2,0.5c-0.5,0-0.8-0.3-0.9-0.8c-0.2-1.5,0.5-2.7,1.9-3c1.1-0.2,2.7,0.9,3,2c0.3,1.3-0.5,3.4-1.7,3.9
			c-1.5,0.8-3.4,0.4-4.4-0.8c-2.3-2.8-0.5-6.2,1.6-6.9c1.9-0.6,3.9-0.5,5.4,1.3c1.3,1.6,2,3.3,1,5.4c-0.3,0.7-0.9,1.2-1.1,1.9
			c-0.1,0.4-0.8,0.8-0.2,1.1c0.5,0.3,1,0.1,1.4-0.5c0.9-1.1,1.4-2.4,1.7-3.7c0.7-3-1.8-6.3-5.3-7.1c-2.2-0.5-3.9,0-5.4,1.6
			c-1.7,1.8-1.8,4.2-1,6.1c0.8,1.7,2,3.6,5,3.1c3.5-0.6,5.4-3.5,3.6-6.7c-0.9-1.6-2.8-2.4-4.5-1.9c-1.6,0.5-2.4,1.8-2.2,3.9
			c0.1,1.2,0.6,2.2,1.6,2.5c1.2,0.3,2.5,0.3,3.3-1.2c0.8-1.4,0.5-2.8-1.1-3.3c-0.8-0.2-1.4,0.2-1.7,0.9c-0.3,0.6,0.1,1.4,0.6,1.5
			C122.7,122.9,122.6,122,122.8,121.4z M140.3,39.4c1.2,0.9,2.4,1.7,3.6,2.5c4,2.8,8.6,4.7,12.5,7.6c0.6,0.5,1.2,1.2,2.2,1.2
			c0.3,0,0.5,0.1,0.7-0.2c0.1-0.2,0.1-0.5,0-0.7c-1.2-2.1-2.7-3.9-4.9-5.1c-2.5-1.3-5-2.6-7.5-4C144.9,39.5,142.6,39,140.3,39.4z
			 M121.5,114.8c0.8,0.4,1.6,0.4,2.3,0.4c2-0.2,3.4,0.9,4.3,2.3c1.5,2.2,2.8,4.6,1.2,7.3c-0.1,0.2-0.1,0.6-0.2,0.9
			c-0.1,0.3-0.3,0.6,0.1,0.8c0.4,0.1,0.9,0.2,1.1-0.2c0.7-1.3,1.5-2.5,1.3-4.1c-0.3-2.4-1.3-4.6-3-6.4
			C127.1,113.9,123.7,113.4,121.5,114.8z M57.9,123.6c0.1,0.6,0.5,1.6,0.4,2.5c0,1,0.6,1.5,1.1,2.2c0.3,0.4,0.7,0.4,1.1,0.2
			c0.4-0.2,0.3-0.7,0.2-1.1c-0.1-0.3-0.2-0.7-0.4-1c-1.3-2.4-1.2-4.8,0.2-7.1c0.5-0.8,1-1.8,2.1-2.2c0.2-0.1,0.3-0.3,0.2-0.5
			c0-0.3-0.3-0.3-0.5-0.3c-1.2-0.1-2.1,0.3-2.8,1.2C58.5,119.4,58,121.3,57.9,123.6z M118.9,127.3c-4.6-4-3.7-7.9,0-11.9
			c-2.7-0.2-4.6,2.5-4.5,6.6C114.5,124.9,116.3,127.9,118.9,127.3z M111.6,121c0,0.8-0.1,1.3,0,1.8c0.5,1.4,0.4,3.1,2,3.9
			c0.3,0.1,0.7,0.5,1,0.2c0.4-0.4,0-0.8-0.1-1.1c-1.2-2.2-1.5-4.4-0.5-6.7c0.1-0.3,0.1-0.6,0-0.9c-0.1-0.4,0.3-1-0.3-1.2
			c-0.6-0.2-1.1,0.2-1.4,0.8C111.7,118.9,111.4,120.1,111.6,121z M74.9,122.5c0.4-1.9-0.2-3.4-1.6-4.7c-0.3-0.3-0.8-0.7-1.2-0.4
			c-0.4,0.4,0,0.8,0.3,1.3c1.5,2.2,2.1,4.4,0.5,6.9c-0.5,0.7-1.1,1.2-1.6,1.9c-0.2,0.3-0.4,0.5-0.3,0.8c0.2,0.4,0.6,0.2,0.9,0
			c0.3-0.1,0.6-0.2,0.9-0.5C74.3,126.4,75.3,124.8,74.9,122.5z M77.7,122.6c0.2-0.9-0.2-2-0.4-3c-0.1-0.9-0.9-1.4-1.6-1.1
			c-0.9,0.3-0.3,0.9,0.1,1.4c0.1,0.1,0.1,0.4,0.1,0.6c0.6,2.2,0.2,4.2-0.9,6.2c-0.2,0.3-0.8,0.9-0.1,1.3c0.5,0.3,1.1-0.2,1.4-0.6
			C77.4,126,77.8,124.4,77.7,122.6z M130.4,115.3c0,0.9,0.7,1.5,1.1,2.3c0.9,1.9,1.5,4,1.6,6.1c0,0.3-0.1,0.7,0.3,0.8
			c0.4,0.1,0.6-0.4,0.8-0.6c0.1-0.2,0.1-0.5,0.1-0.7c0.1-2.2-0.4-4.2-1-6.2C132.8,115.5,132,114.7,130.4,115.3z M57.9,118.8
			c-2.1,1.1-3.6,4.7-2.8,6.6c0.3,0.7,1.1,1.4,1.7,1.3c0.8-0.1,0.3-1.1,0.4-1.7C57.4,123,56.7,120.9,57.9,118.8z M68.8,211.4
			c-0.6-0.1-0.8,0.2-1,0.7c-0.3,1.2,0.6,4,1.6,4.7c0.3,0.2,0.6,0.5,1.1,0.3c0.5-0.3,0.6-0.8,0.4-1.2c-0.3-0.5-0.1-1-0.2-1.5
			C70.2,213.3,70.2,211.9,68.8,211.4z M149.5,183.9c0.9-0.2,1.3-0.5,1.8-1.1c1-1,0.6-2.5,1.5-3.5c0.2-0.2,0-0.9-0.3-1.1
			c-0.5-0.3-0.5,0.3-0.7,0.5c-0.2,0.2-0.3,0.4-0.6,0.4c-1.2,0.2-1.4,1-1.4,2C149.9,182,149.8,182.9,149.5,183.9z M80.7,123.5
			c0-0.7,0.1-1.5-0.9-1.6c-1.1-0.1-0.8,0.7-0.9,1.3c-0.1,0.4-0.3,0.9-0.2,1.3c0,0.7-1,1.8,0,2.1c0.9,0.3,1.4-0.9,1.8-1.7
			C80.7,124.5,80.8,124,80.7,123.5z M110.7,123.8c0-0.4,0-0.7,0-1c0-0.5,0.2-1.3-0.6-1.4c-0.6,0-1.3,0.4-1.5,1.1
			c-0.2,0.5,0,1.1,0.4,1.6c0.5,0.5,0.5,1.6,1.4,1.4C111.5,125.2,110.3,124.3,110.7,123.8z M54.1,125.2c0.1-0.7-0.2-1.1-1-1.1
			c-0.8,0.1-1.1,0.5-1.2,1.3c0,0.8,0.3,1.1,1.1,1.1C53.9,126.5,54.2,126,54.1,125.2z M136.4,121c-0.6,0.1-0.7,0.7-0.8,1.1
			c-0.2,0.8,0.3,1.2,1.1,1.3c0.6,0.1,0.7-0.3,0.8-0.7C137.5,122,137.1,121.4,136.4,121z"/>
		<path class="st11" d="M109.9,152.4c-0.5,0-0.8-0.4-1.1-0.7c-1.6-1.2-2.5-1-4,0.3c-1.7,1.5-3.3,3.3-5.8,3.7
			c-1.3,0.2-2.7,0.3-4.1,0.2c-2.8-0.2-5.1-1.3-7.4-3c-2.1-1.6-2.8-1.4-4.7,0.4c-0.2,0.2-0.4,0.6-0.7,0.4c-0.3-0.1-0.4-0.5-0.3-0.8
			c0-1.9,0.8-3.6,1.6-5.2c1.3-2.4,2.5-4.8,3.3-7.4c0.3-1,0.6-1.9-0.4-2.6c-0.9-0.7-1.6-0.1-2.4,0.4c-0.9,0.6-1.6,1.3-2.3,2.2
			c-0.6,0.8-1.8,1.3-2.7,0.8c-1-0.6-1-1.8-0.3-2.8c0.8-1.1,1.6-2.1,1-3.7c-0.1-0.4,0.2-0.9,0.5-1.2c1.9-1.9,3.6-4,5.1-6.3
			c2.3-3.3,4.2-6.8,5.4-10.7c0.4-1.2,1.6-1.9,2.8-2.2c3.6-0.8,5.7,0.5,7.4,3.7c2.2,3.9,4.4,7.8,7.1,11.5c1.7,2.3,3.6,4.3,5.6,6.3
			c1.1,1.2,0.7,2.5,0.5,3.8c-0.1,0.4-0.7,0.5-1.3,0.4c-1.7-0.3-3-1.4-4.3-2.3c-0.6-0.4-1.3-0.8-1.9-1.3c-0.6-0.4-1.2-0.4-1.6,0.1
			c-0.5,0.5-0.8,1-0.4,1.8c1.1,2.3,2.2,4.7,3.2,7.1c0.9,2.1,1.6,4.2,2.3,6.3C110.1,151.9,110.1,152.2,109.9,152.4z"/>
		<path class="st11" d="M142.4,85c1.6,0.9,2.6,1.9,3.4,3.1C144.4,87.5,143.3,86.7,142.4,85z"/>
		<path class="st11" d="M53.2,63.9c-4.1,3.7-8.8,6.5-12.3,10.9C42.6,71,48.5,64.5,53.2,63.9z"/>
		<path class="st11" d="M55.1,67.4c-0.2,0.7-0.8,1.2-1.5,1.2c-1,0.1-0.2-1.4-1.1-1.5c0.4-0.6,0.9-1.5,1.6-1.5
			C54.7,65.7,54.8,66.8,55.1,67.4z"/>
	</g>
</g>
</svg>
