<?xml version="1.0" encoding="utf-8"?>
<!-- Generator: Adobe Illustrator 27.6.1, SVG Export Plug-In . SVG Version: 6.00 Build 0)  -->
<svg version="1.1" xmlns="http://www.w3.org/2000/svg" xmlns:xlink="http://www.w3.org/1999/xlink" x="0px" y="0px"
	 viewBox="0 0 2000 2000" style="enable-background:new 0 0 2000 2000;" xml:space="preserve">
<style type="text/css">
	.st0{fill:#FFCD61;}
	.st1{fill:#FEC87C;}
</style>
<g id="_x2014_ÎÓÈ_x5F_2">
</g>
<g id="_x2014_ÎÓÈ_x5F_4">
	<polygon class="st0" points="723.3,578.6 723.2,577.1 723.1,575.9 722.8,575.6 582.9,592 583,593.5 583.1,595 	"/>
	<polygon class="st0" points="823,637.1 823.8,635.8 823.8,635.8 823.8,635.8 822.3,635.5 822.8,633.4 723.9,572.9 722.4,575.4 
		722.7,575.6 723,575.9 	"/>
	<polygon class="st0" points="823.8,635.8 823.8,635.8 823.8,635.8 	"/>
	<polygon class="st0" points="822.3,635.5 823.8,635.8 823.8,635.8 825.3,636.1 842.1,563 840.7,562.7 839.2,562.4 822.8,633.4 	"/>
	<polygon class="st0" points="1145.1,265.2 1059.1,271 1056.8,273.7 1055.7,272.7 1055.7,272.7 1055.8,274.2 1147.8,268 
		1147.7,266.5 1146.4,267.3 	"/>
	<polygon class="st0" points="1112.1,206.4 1112.1,206.4 1113.2,207.3 1111.8,208.9 1145.1,265.2 1146.4,267.3 1147.7,266.5 
		1149,265.7 1113.3,205.6 1112.1,206.4 1112.1,206.4 	"/>
	<polygon class="st0" points="1055.7,272.7 1056.8,273.7 1059.1,271 1111.8,208.9 1113.2,207.3 1112.1,206.4 1112.1,206.4 
		1110.9,205.4 1054.5,271.7 1055.7,272.7 	"/>
	<polygon class="st0" points="1035.6,947.3 1035.7,946.7 1011.6,962.4 1013.3,964.9 1037.9,948.9 1037,947.6 	"/>
	<polygon class="st0" points="1054.5,886.8 1052.8,885.9 1053.5,884.6 1052.1,884.2 1035.7,946.7 1035.6,947.3 1037,947.6 
		1038.5,948 	"/>
	<polygon class="st0" points="1054.5,886.8 1144.4,932.5 1145.8,929.8 1054.2,883.3 1053.5,884.6 1052.8,885.9 	"/>
	<polygon class="st0" points="1537.8,824.8 1537.8,824.8 1537.8,824.8 1537.8,824.8 1537.2,823.5 1434.3,872.8 1434.9,874.2 
		1435.6,875.5 1537.9,826.4 1537.3,826.2 	"/>
	<polygon class="st0" points="1614.7,853.7 1614.7,853.7 1614.7,853.7 1614.7,853.7 1615.2,852.3 1538.4,823.4 1537.8,824.8 
		1537.8,824.8 1537.3,826.2 1537.9,826.4 1613.8,855 1613.5,854.7 	"/>
	<polygon class="st0" points="1640.4,884.6 1640.4,884.6 1641.5,883.6 1615.8,852.8 1614.7,853.7 1614.7,853.7 1613.5,854.7 
		1613.8,855 1639.2,885.5 1639.1,885.4 	"/>
	<polygon class="st0" points="1672.3,932.9 1672.3,932.9 1673.6,932.1 1641.6,883.8 1640.4,884.6 1640.4,884.6 1639.1,885.4 
		1639.2,885.5 1670.7,933.2 1670.9,932.5 	"/>
	<polygon class="st0" points="1672.3,932.9 1670.9,932.5 1670.7,933.2 1665.1,958.3 1666.1,958.2 1666.3,959.7 1666.3,959.7 
		1666.3,959.7 1666.3,959.7 1667.8,960 1673.8,933.2 1672.3,932.9 	"/>
	<polygon class="st0" points="1666.1,958.2 1665.1,958.3 1624.9,962.5 1625,964 1625.2,965.4 1666.5,961.2 1666.3,959.7 
		1666.3,959.7 	"/>
	<polygon class="st0" points="709.9,1484 709.9,1484 708.8,1483.1 709.7,1481.9 670.9,1451.8 670,1453 669.1,1454.2 709,1485.2 
		709.9,1484 709.9,1484 	"/>
	<polygon class="st0" points="777.8,1400.4 776.7,1399.5 709.7,1481.9 708.8,1483.1 709.9,1484 709.9,1484 711.1,1484.9 
		778.3,1402.3 777.2,1401.8 	"/>
	<polygon class="st0" points="891.9,1448.2 892.5,1446.8 778.4,1399.1 777.8,1400.4 777.2,1401.8 778.3,1402.3 890.6,1449.3 
		890.5,1448.4 	"/>
	<polygon class="st0" points="893.4,1448 891.9,1448.2 890.5,1448.4 890.6,1449.3 911.5,1603.4 913,1603.2 914.5,1603 	"/>
	<polygon class="st0" points="1615.5,213.5 1616.7,214.5 1681.7,148 1680.6,147 1679.6,145.9 1613.5,213.5 1614.6,214.6 
		1614.6,214.6 	"/>
	<polygon class="st0" points="1670.7,263.3 1670.7,263.3 1670.5,261.8 1671.2,261.8 1616.7,214.5 1615.5,213.5 1614.6,214.6 
		1614.6,214.6 1613.6,215.7 1669.7,264.4 1670.7,263.3 1670.7,263.3 	"/>
	<polygon class="st0" points="1746.5,256.4 1746.3,254.9 1671.2,261.8 1670.5,261.8 1670.7,263.3 1670.7,263.3 1670.8,264.8 
		1745.2,258 1745,256.6 	"/>
	<polygon class="st0" points="1746.5,256.4 1745,256.6 1745.2,258 1762,368.9 1765,368.4 1747.9,256.2 	"/>
	<polygon class="st0" points="1089.6,1813.2 1090.6,1812.1 1089.1,1811.9 1089.2,1811.5 1040.2,1871 1042.5,1872.9 1090.8,1814.3 	
		"/>
	<polygon class="st0" points="1132,1852.3 1132,1852.3 1132,1852.3 1132,1852.3 1133.1,1851.2 1092.2,1811.5 1092.1,1812.3 
		1090.6,1812.1 1089.6,1813.2 1090.8,1814.3 1130.7,1853 1130.6,1852.6 	"/>
	<polygon class="st0" points="1132,1852.3 1132,1852.3 1130.6,1852.6 1130.7,1853 1156.3,1961.3 1159.2,1960.7 1133.5,1851.9 	"/>
	<polygon class="st0" points="1090.6,1812.1 1092.1,1812.3 1092.2,1811.5 1100.7,1730.7 1099.2,1730.5 1097.7,1730.4 1089.2,1811.5 
		1089.1,1811.9 	"/>
	<polygon class="st0" points="31.8,314.1 32,312.6 0,306.5 0,309.6 31.5,315.6 	"/>
	<polygon class="st0" points="1934.4,295.6 1934.1,297 2000,309.6 2000,306.5 1934.7,294.1 	"/>
	<polygon class="st0" points="36.6,315.1 0,370.5 0,376 39.1,316.7 	"/>
	<polygon class="st0" points="1994.4,381.7 1994.4,381.7 1995.9,381.9 1995.8,382.3 2000,376 2000,370.5 1993.1,380.9 	"/>
	<polygon class="st0" points="1994.4,381.7 1994.4,381.7 1992.9,381.5 1982.1,461.4 1983.7,461.8 1983.4,463.3 1983.4,463.3 
		1983.4,463.3 1983.4,463.3 1984.9,463.5 1995.8,382.3 1995.9,381.9 	"/>
	<polygon class="st0" points="1983.7,461.8 1982.1,461.4 1930.8,448.9 1930.1,451.8 1983,464.8 1983.4,463.3 1983.4,463.3 	"/>
	<polygon class="st0" points="82.5,1629.6 83.7,1631.3 123.8,1620.8 123.3,1620.4 124.2,1619.2 124.2,1619.2 124.2,1619.2 
		124.2,1619.2 123.8,1617.7 80.9,1628.9 81.3,1630.4 81.3,1630.4 	"/>
	<polygon class="st0" points="132.7,1705.4 83.7,1631.3 82.5,1629.6 81.3,1630.4 81.3,1630.4 80,1631.2 131,1708.3 131.4,1708 	"/>
	<polygon class="st0" points="131.8,1708.9 132.7,1706 135.3,1706.9 164.3,1649.9 163,1649.2 162.1,1650.4 161.1,1649.6 
		132.7,1705.4 131.4,1708 130.9,1708.9 133.6,1710.3 133.9,1709.6 	"/>
	<polygon class="st0" points="135.3,1706.9 132.7,1706 131.8,1708.9 133.9,1709.6 210.4,1734.5 210.9,1733.1 211.3,1731.7 	"/>
	<polygon class="st0" points="123.3,1620.4 123.8,1620.8 161.1,1649.6 162.1,1650.4 163,1649.2 163.9,1648 125.1,1618 124.2,1619.2 
		124.2,1619.2 	"/>
</g>
<g id="_x2014_ÎÓÈ_x5F_3">
	<path class="st1" d="M789.6,505.2c-0.3,2.3-0.3,4.6-0.1,6.9c0.3,2.5,0.8,5.1,1.7,7.5c0.8,2.2,1.8,4.2,3,6.2
		c1.1,1.7,2.4,3.3,3.8,4.8c1.2,1.3,2.6,2.5,4.1,3.6l0.6,0.4c0.1,0.1,0.3,0.2,0.4,0.3l1,0.7c0.2,0.1,0.4,0.3,0.7,0.4l0.3,0.2
		c0.3,0.2,0.6,0.3,0.9,0.5l2,1l1.2,0.5c0.2,0.1,0.4,0.2,0.6,0.2c2,0.7,4.1,1.2,6.2,1.6l1.3,0.2l1.3,0.1c0.1,0,0.2,0,0.4,0l1.4,0
		l1.5,0c0.3,0,0.5,0,0.8-0.1l1.8-0.2c0.1,0,0.2,0,0.3,0v0c0.1,0,0.2,0,0.3,0c0.2,0,0.4-0.1,0.8-0.1l0.2,0c0.2,0,0.3-0.1,0.5-0.1
		l1.1-0.2c0.1,0,0.2-0.1,0.4-0.1l0.8-0.2c0.4-0.1,0.8-0.2,1.2-0.4l0.8-0.3c0.2-0.1,0.4-0.1,0.5-0.2l2.2-0.9c1.6-0.8,3-1.6,4.4-2.5
		c1.8-1.2,3.5-2.6,5-4.2c1.8-1.9,3.5-4.1,4.9-6.6c1-1.9,1.8-3.8,2.5-5.9l0.3-1c0-0.2,0.1-0.3,0.1-0.5l0.2-0.8l0.4-2
		c0-0.3,0.1-0.6,0.1-0.9l0.1-0.5c0.2-1.7,0.2-3.4,0.2-4.9c0-0.1,0-0.3,0-0.4l-0.1-1.2c0-0.1,0-0.2,0-0.4l-0.2-1.2
		c0-0.2-0.1-0.4-0.1-0.6l-0.1-0.3c-0.5-2.5-1.1-4.4-1.6-5.5l-0.3-0.8c-0.1-0.2-0.1-0.3-0.2-0.4l-1.1-2.3c0-0.1-0.1-0.1-0.1-0.2
		l-0.5-0.9c-0.1-0.2-0.2-0.4-0.4-0.6l-0.4-0.7c-0.1-0.1-0.2-0.3-0.3-0.4c-1-1.6-1.8-2.5-2.4-3.1l-0.2-0.2c-0.4-0.4-0.7-0.7-0.9-0.8
		c0,0,0,0-0.1-0.1c0,0-0.1-0.1-0.2-0.1l-0.5-0.5l-2.6-2.3c-1.1-0.8-2.6-1.9-4.8-3.1c-2.2-1.1-4-1.7-5.3-2.2l-0.4-0.1
		c-0.5-0.1-0.9-0.3-1.3-0.3l-0.7-0.2c-0.2,0-0.4-0.1-0.5-0.1c-1.4-0.2-1.4-0.2-1.6-0.1l0,0c-0.1,0-0.2,0-0.2-0.1
		c-0.4-0.1-1-0.3-1.7-0.4c-0.3,0-0.6-0.1-0.9-0.1c-0.3,0-0.6-0.1-1-0.1c-0.2,0-0.6,0-1.1,0l-1,0l-1.3,0.1c-0.3,0-0.7,0.1-1,0.1
		l-2.1,0.3c-0.1,0-0.2,0-0.4,0.1l-0.2,0c-1.6,0.3-3.3,0.9-5,1.5c-0.2,0.1-0.4,0.2-0.6,0.3l-0.8,0.4l-2.5,1.3
		c-0.2,0.1-0.4,0.2-0.6,0.3l-0.3,0.2c-0.4,0.3-0.9,0.5-1.3,0.9c-1.1,0.7-2.1,1.6-3.3,2.6l-1.6,1.6l-1.6,1.8c-2.3,2.8-4,6-5.2,9.5
		C790.3,501,789.8,503.1,789.6,505.2z M791.3,505.1c0.4-2.9,1.2-5.8,2.4-8.4c0.9-1.9,1.9-3.7,3.2-5.4c1.1-1.4,2.1-2.4,2.9-3.3
		l0.9-0.9c0.1-0.1,0.1-0.1,0.2-0.2l0.7-0.6c0.1-0.1,0.3-0.2,0.4-0.3l0.9-0.7c0.2-0.1,0.3-0.2,0.5-0.3l0.3-0.2
		c0.1-0.1,0.2-0.1,0.3-0.2c0.1-0.1,0.3-0.2,0.4-0.3l0.6-0.4c0.7-0.5,1.6-1,2.5-1.5l0.8-0.4c0.2-0.1,0.3-0.2,0.4-0.3c0,0,0,0,0.1,0
		c0.1-0.1,0.4-0.2,0.7-0.3l0.2-0.1c0.4-0.2,0.9-0.4,1.5-0.6l1.6-0.5c0.2,0,0.3-0.1,0.5-0.1l0.9-0.2c0.2-0.1,0.5-0.1,0.7-0.1l2.3-0.3
		c0.1,0,0.2,0,0.4,0l0.6,0c0.3,0,0.6,0,0.9-0.1l1.3,0c1.5,0,2.6,0.1,3.4,0.1c1,0.1,1.4,0.1,1.5-0.1c0.2,0.1,0.6,0.1,1.1,0.3
		c0.1,0,0.3,0.1,0.4,0.1l2.2,0.7c0.2,0.1,0.4,0.1,0.6,0.2c1.3,0.5,2.6,1,3.9,1.7c0.2,0.1,0.4,0.2,0.6,0.3l0.5,0.3
		c0.1,0.1,0.2,0.1,0.3,0.2l0.8,0.5c0.2,0.1,0.3,0.2,0.5,0.3l0.8,0.5c0.3,0.2,0.5,0.4,0.8,0.6l0.4,0.3c0.1,0.1,0.2,0.2,0.4,0.3
		l0.7,0.6c0.1,0.1,0.2,0.2,0.4,0.3l0.5,0.4c0.3,0.3,0.5,0.5,0.7,0.7l0.7,0.8c0.1,0.2,0.3,0.3,0.4,0.5l0.2,0.3
		c2.4,2.6,4.3,5.6,5.7,8.9c1.3,3.3,2.1,6.7,2.2,10.3c0,2-0.1,4-0.5,6l-0.1,0.7c0,0.1-0.1,0.3-0.1,0.4l-0.6,2.3l-0.4,1.2
		c-0.1,0.3-0.2,0.6-0.3,0.8l-0.2,0.5c-0.1,0.2-0.1,0.4-0.2,0.6l-0.9,1.9c-0.2,0.4-0.4,0.7-0.5,1l-0.4,0.7c0,0.1-0.1,0.1-0.1,0.2
		l-0.8,1.2l-0.7,0.9c-0.1,0.1-0.2,0.2-0.3,0.3l-0.3,0.4c-0.2,0.2-0.3,0.4-0.4,0.5c0,0-0.1,0.1-0.1,0.1l0,0c0,0-0.1,0.1-0.1,0.1
		c0,0-0.1,0.1-0.2,0.2l-1.2,1.2c-0.2,0.2-0.3,0.3-0.5,0.5l-0.7,0.7c-0.1,0.1-0.2,0.2-0.4,0.4l-0.3,0.3c-0.4,0.3-0.7,0.6-1.2,1
		l-0.1,0.1c-0.2,0.2-0.5,0.4-0.8,0.6l-0.5,0.4c-0.2,0.1-0.3,0.2-0.5,0.3c-1.7,1.1-3.5,2.1-5.5,2.8c-0.4,0.2-0.8,0.3-1.2,0.4
		c-0.2,0.1-0.4,0.1-0.6,0.2c-0.2,0.1-0.4,0.1-0.6,0.2l-2,0.5c-0.1,0-0.3,0.1-0.4,0.1l-1.3,0.2c-0.7,0.1-1.4,0.2-2.1,0.2
		c-1.7,0.1-3.5,0.1-5.2-0.1c-2-0.2-3.9-0.6-5.8-1.2c-2.1-0.7-4.1-1.6-6.1-2.7c-2-1.2-4-2.7-5.9-4.6c-0.2-0.2-0.3-0.3-0.5-0.5
		l-0.4-0.4c-0.1-0.1-0.1-0.2-0.2-0.2l-0.7-0.8c-0.1-0.1-0.2-0.2-0.3-0.4l-0.6-0.8c-0.1-0.1-0.2-0.2-0.2-0.3l-0.4-0.6
		c-0.2-0.2-0.3-0.5-0.5-0.7l-0.5-0.8c-0.1-0.2-0.2-0.3-0.3-0.5l-0.4-0.7c0-0.1-0.1-0.2-0.1-0.3l-0.5-1c-0.1-0.2-0.2-0.4-0.2-0.5
		l-0.2-0.5c-0.1-0.2-0.2-0.4-0.3-0.7l-0.3-0.8l-0.4-1.1c-0.1-0.2-0.1-0.3-0.2-0.5l-0.2-0.8c-0.6-2-0.9-4.1-1-6.2
		C791,508.8,791.1,506.9,791.3,505.1z"/>
	<path class="st1" d="M801.2,1877.3l-0.2-2c0-0.2,0-0.4-0.1-0.6l-0.2-2c-0.1-0.4-0.1-0.7-0.2-1l-0.1-0.5c-0.8-4.1-1.8-7.2-2.6-9.1
		l-0.5-1.3c-0.1-0.3-0.2-0.5-0.3-0.7l-1.9-3.7c-0.1-0.1-0.1-0.2-0.2-0.4l-0.8-1.4c-0.2-0.3-0.4-0.6-0.6-1l-0.7-1.2
		c-0.1-0.2-0.3-0.4-0.4-0.6c-1.7-2.6-3-4.1-3.9-5l-0.3-0.3c-0.7-0.7-1.1-1.2-1.5-1.3c0,0-0.1-0.1-0.1-0.1c-0.1-0.1-0.1-0.1-0.2-0.2
		l-0.8-0.8l-4.3-3.7c-1.8-1.4-4.3-3.2-7.9-5.1c-3.6-1.9-6.6-2.9-8.7-3.6l-0.7-0.2c-0.8-0.2-1.5-0.4-2.2-0.6l-1.2-0.3
		c-0.3-0.1-0.6-0.1-0.8-0.2c-2.3-0.4-2.4-0.3-2.6-0.2l-0.1,0.1c-0.1,0-0.2-0.1-0.4-0.1c-0.7-0.2-1.7-0.5-2.8-0.6
		c-0.5-0.1-1-0.2-1.6-0.2c-0.5,0-1.1-0.1-1.6-0.1c-0.4,0-1,0-1.8,0l-1.7,0l-2.2,0.2c-0.5,0-1.1,0.1-1.7,0.2l-3.4,0.5
		c-0.2,0-0.4,0.1-0.6,0.1l-0.3,0.1c-2.7,0.6-5.5,1.4-8.2,2.5c-0.3,0.1-0.7,0.3-1,0.4l-1.4,0.6l-4.1,2.2c-0.3,0.2-0.6,0.4-0.9,0.6
		l-0.5,0.3c-0.7,0.4-1.4,0.9-2.1,1.4c-1.7,1.2-3.5,2.6-5.4,4.3l-2.7,2.6l-2.6,3c-3.7,4.6-6.6,9.9-8.6,15.7
		c-1.1,3.2-1.9,6.6-2.3,10.1c-0.5,3.7-0.5,7.5-0.2,11.3c0.4,4.2,1.4,8.3,2.8,12.3c1.3,3.6,3,7,5,10.2c1.8,2.8,3.9,5.5,6.2,7.9
		c2,2.1,4.3,4.1,6.7,5.9l0.9,0.7c0.2,0.2,0.5,0.3,0.7,0.5l1.7,1.1c0.4,0.2,0.7,0.4,1.1,0.6l0.6,0.3c0.5,0.3,1,0.6,1.5,0.8l3.3,1.6
		l2.1,0.8c0.3,0.1,0.6,0.3,1,0.4c3.3,1.2,6.7,2,10.3,2.6l2.1,0.3l2.2,0.2c0.2,0,0.4,0,0.6,0l2.4,0.1l2.5-0.1c0.5,0,0.9-0.1,1.3-0.1
		l2.9-0.3c0.2,0,0.4,0,0.5,0v0c0.2,0,0.4,0,0.5,0c0.3,0,0.7-0.1,1.4-0.2l0.3-0.1c0.2,0,0.5-0.1,0.8-0.1l1.8-0.4
		c0.2,0,0.4-0.1,0.6-0.1l1.3-0.3c0.6-0.2,1.3-0.3,2-0.6l1.3-0.4c0.3-0.1,0.6-0.2,0.9-0.3l3.6-1.5c2.6-1.2,5-2.6,7.2-4.1
		c2.9-2,5.7-4.3,8.2-7c3-3.1,5.7-6.8,8-10.9c1.7-3.1,3-6.3,4-9.7l0.4-1.6c0.1-0.3,0.2-0.5,0.2-0.8l0.3-1.3l0.6-3.2
		c0.1-0.5,0.1-1,0.2-1.4l0.1-0.8c0.3-2.8,0.4-5.6,0.3-8.1C801.2,1877.8,801.2,1877.6,801.2,1877.3z M797.6,1889l-0.2,1.1
		c0,0.2-0.1,0.4-0.1,0.7l-1,3.9l-0.7,2.1c-0.1,0.5-0.3,0.9-0.5,1.3l-0.3,0.8c-0.1,0.3-0.2,0.6-0.4,0.9l-1.5,3.1
		c-0.3,0.6-0.6,1.1-0.9,1.6l-0.7,1.1c-0.1,0.1-0.1,0.2-0.2,0.3l-1.2,1.9l-1.1,1.6c-0.1,0.2-0.3,0.4-0.4,0.6l-0.6,0.7
		c-0.3,0.4-0.6,0.7-0.7,0.8c-0.1,0.1-0.1,0.1-0.1,0.1l0,0c-0.1,0-0.1,0.1-0.2,0.2c-0.1,0.1-0.2,0.2-0.3,0.4l-1.9,2.1
		c-0.3,0.3-0.6,0.6-0.9,0.9l-1.2,1.1c-0.2,0.2-0.4,0.4-0.6,0.6l-0.5,0.4c-0.6,0.5-1.2,1-1.9,1.6l-0.2,0.2c-0.4,0.3-0.8,0.6-1.3,0.9
		l-0.8,0.6c-0.3,0.2-0.5,0.4-0.9,0.6c-2.9,1.9-5.8,3.4-9.1,4.6c-0.6,0.3-1.3,0.5-2,0.7c-0.3,0.1-0.6,0.2-0.9,0.3
		c-0.3,0.1-0.7,0.2-1,0.3l-3.3,0.8c-0.2,0.1-0.4,0.1-0.7,0.1l-2.2,0.4c-1.1,0.2-2.3,0.3-3.5,0.4c-2.9,0.2-5.8,0.2-8.6-0.1
		c-3.3-0.3-6.5-1-9.6-2c-3.5-1.1-6.8-2.6-10-4.5c-3.4-2-6.6-4.5-9.7-7.5c-0.3-0.3-0.5-0.5-0.8-0.8l-0.6-0.7
		c-0.1-0.1-0.2-0.3-0.4-0.4l-1.2-1.4c-0.2-0.2-0.3-0.4-0.5-0.6l-1-1.3c-0.1-0.2-0.3-0.4-0.4-0.5l-0.6-0.9c-0.3-0.4-0.5-0.8-0.8-1.2
		l-0.9-1.3c-0.2-0.3-0.3-0.6-0.5-0.9l-0.7-1.2c-0.1-0.1-0.1-0.3-0.2-0.4l-0.8-1.6c-0.1-0.3-0.3-0.6-0.4-0.9l-0.3-0.8
		c-0.2-0.4-0.3-0.7-0.5-1.1l-0.5-1.4l-0.6-1.8c-0.1-0.3-0.2-0.6-0.3-0.8l-0.4-1.3c-0.9-3.3-1.5-6.7-1.6-10.1c-0.2-3,0-6,0.4-9
		c0.6-4.8,2-9.5,4-13.8c1.5-3.2,3.2-6.1,5.3-8.9c1.7-2.3,3.4-4,4.7-5.4l1.5-1.4c0.1-0.1,0.2-0.2,0.3-0.3l1.2-1
		c0.2-0.2,0.4-0.4,0.6-0.5l1.4-1.1c0.3-0.2,0.5-0.4,0.8-0.6l0.4-0.3c0.1-0.1,0.3-0.2,0.4-0.3c0.2-0.2,0.4-0.3,0.6-0.4l1-0.7
		c1.2-0.8,2.6-1.6,4-2.4l1.3-0.7c0.3-0.2,0.5-0.3,0.7-0.5c0,0,0.1,0,0.1-0.1c0.2-0.1,0.6-0.3,1.2-0.5l0.4-0.2
		c0.6-0.3,1.4-0.6,2.5-0.9l2.7-0.8c0.3-0.1,0.6-0.2,0.9-0.2l1.6-0.4c0.4-0.1,0.8-0.2,1.2-0.2l3.8-0.6c0.2,0,0.4-0.1,0.6-0.1l0.9-0.1
		c0.5,0,1-0.1,1.4-0.1l2.1-0.1c2.5,0,4.3,0.1,5.6,0.2c1.6,0.1,2.2,0.2,2.5-0.1c0.4,0.1,1,0.2,1.7,0.4c0.2,0,0.4,0.1,0.7,0.2l3.7,1.1
		c0.3,0.1,0.6,0.2,1,0.3c2.1,0.8,4.4,1.7,6.4,2.7c0.3,0.2,0.6,0.3,0.9,0.5l0.9,0.5c0.2,0.1,0.3,0.2,0.5,0.2l1.3,0.8
		c0.3,0.2,0.6,0.3,0.8,0.5l1.3,0.9c0.4,0.3,0.9,0.6,1.4,1l0.7,0.5c0.2,0.1,0.4,0.3,0.6,0.5l1.2,1c0.2,0.2,0.4,0.3,0.6,0.5l0.7,0.7
		c0.5,0.4,0.8,0.8,1.1,1.1l1.1,1.2c0.2,0.3,0.5,0.5,0.7,0.8l0.4,0.5c4,4.3,7.1,9.2,9.3,14.7c2.2,5.4,3.4,11.1,3.5,17
		C798.4,1882.4,798.2,1885.7,797.6,1889z"/>
	<path class="st1" d="M286,744.6c-1.6,1.3-3.1,2.8-4.4,4.4c-1.1,1.5-2.1,3.1-2.9,4.8c-0.7,1.5-1.3,3.1-1.7,4.7
		c-0.4,1.4-0.6,2.9-0.7,4.3l0,0.6c0,0.1,0,0.3,0,0.4l0,1c0,0.2,0,0.4,0,0.6l0,0.3c0,0.3,0,0.6,0.1,0.8l0.2,1.8l0.2,1.1
		c0,0.2,0.1,0.3,0.1,0.5c0.4,1.7,0.9,3.3,1.6,5l0.4,0.9l0.5,1c0,0.1,0.1,0.2,0.1,0.3l0.6,1l0.7,1c0.1,0.2,0.3,0.4,0.4,0.5l0.9,1.1
		c0.1,0.1,0.1,0.1,0.2,0.2l0,0c0,0.1,0.1,0.1,0.1,0.2c0.1,0.1,0.2,0.3,0.5,0.5l0.1,0.1c0.1,0.1,0.2,0.2,0.3,0.3l0.6,0.6
		c0.1,0.1,0.1,0.1,0.2,0.2l0.5,0.4c0.2,0.2,0.5,0.4,0.8,0.7l0.5,0.4c0.1,0.1,0.2,0.2,0.4,0.3l1.6,1.1c1.2,0.8,2.4,1.4,3.6,1.9
		c1.6,0.7,3.3,1.3,5.1,1.6c2.1,0.4,4.3,0.6,6.7,0.5c1.7-0.1,3.4-0.4,5.1-0.8l0.8-0.2c0.1,0,0.3-0.1,0.4-0.1l0.6-0.2l1.5-0.6
		c0.2-0.1,0.4-0.2,0.7-0.3l0.3-0.2c1.3-0.6,2.4-1.3,3.5-2c0.1-0.1,0.2-0.1,0.3-0.2l0.8-0.6c0.1-0.1,0.2-0.1,0.2-0.2l0.8-0.6
		c0.1-0.1,0.3-0.2,0.4-0.3l0.2-0.2c1.5-1.4,2.5-2.6,3.1-3.5l0.4-0.6c0.1-0.1,0.1-0.2,0.2-0.3l1.1-1.8c0-0.1,0.1-0.1,0.1-0.2l0.4-0.7
		c0.1-0.2,0.2-0.3,0.2-0.5l0.3-0.6c0.1-0.1,0.1-0.2,0.2-0.3c0.6-1.4,0.9-2.3,1.1-3l0.1-0.2c0.1-0.5,0.2-0.8,0.1-1c0,0,0,0,0-0.1
		c0,0,0-0.1,0-0.2l0.1-0.5l0.4-2.8c0.1-1.1,0.2-2.6,0.1-4.6c-0.2-2-0.5-3.5-0.8-4.6l-0.1-0.3c-0.1-0.4-0.2-0.8-0.3-1.1l-0.2-0.5
		c-0.1-0.1-0.1-0.3-0.1-0.4c-0.4-1-0.5-1.1-0.6-1.1l0,0c0-0.1,0-0.1,0-0.2c-0.1-0.3-0.2-0.8-0.5-1.4c-0.1-0.2-0.2-0.5-0.3-0.7
		c-0.1-0.2-0.2-0.5-0.4-0.7c-0.1-0.2-0.2-0.4-0.5-0.8l-0.5-0.7l-0.6-0.9c-0.2-0.2-0.3-0.4-0.5-0.7l-1.1-1.3
		c-0.1-0.1-0.1-0.1-0.2-0.2l-0.1-0.1c-0.9-1-2-1.9-3.2-2.8c-0.1-0.1-0.3-0.2-0.4-0.3l-0.6-0.4l-2-1.2c-0.2-0.1-0.3-0.2-0.5-0.2
		l-0.2-0.1c-0.4-0.2-0.8-0.4-1.2-0.5c-0.9-0.4-2-0.8-3.2-1.1l-1.8-0.4l-1.9-0.3c-2.9-0.4-5.9-0.2-8.8,0.5c-1.6,0.4-3.3,1-4.8,1.7
		C289,742.5,287.4,743.5,286,744.6z M298.4,741c1.7-0.2,3.4-0.3,5.1-0.1c1.4,0.1,2.6,0.4,3.5,0.6l1,0.3c0.1,0,0.1,0,0.2,0.1l0.7,0.2
		c0.1,0,0.3,0.1,0.4,0.1l0.8,0.3c0.2,0.1,0.3,0.1,0.4,0.2l0.2,0.1c0.1,0,0.2,0.1,0.2,0.1c0.1,0,0.2,0.1,0.4,0.2l0.5,0.3
		c0.7,0.3,1.3,0.7,2.1,1.1l0.6,0.3c0.1,0.1,0.3,0.1,0.4,0.1c0,0,0,0,0.1,0c0.1,0.1,0.3,0.2,0.5,0.3l0.2,0.1c0.3,0.2,0.6,0.4,1,0.8
		l1,0.9c0.1,0.1,0.2,0.2,0.3,0.3l0.6,0.6c0.1,0.1,0.3,0.3,0.4,0.4l1.2,1.4c0.1,0.1,0.1,0.2,0.2,0.2l0.3,0.4c0.1,0.2,0.3,0.4,0.4,0.6
		l0.6,0.9c0.7,1.1,1.1,1.8,1.4,2.4c0.3,0.7,0.5,1,0.7,1c0.1,0.2,0.2,0.5,0.3,0.8c0,0.1,0.1,0.2,0.1,0.3l0.5,1.8
		c0,0.2,0.1,0.3,0.1,0.5c0.2,1.1,0.4,2.3,0.5,3.4c0,0.2,0,0.4,0,0.5l0,0.5c0,0.1,0,0.2,0,0.3l0,0.7c0,0.2,0,0.3,0,0.5l0,0.8
		c0,0.3,0,0.5,0,0.8l0,0.4c0,0.1,0,0.2,0,0.4l-0.1,0.8c0,0.1,0,0.2-0.1,0.4l-0.1,0.5c-0.1,0.3-0.1,0.6-0.2,0.8l-0.2,0.8
		c-0.1,0.2-0.1,0.3-0.2,0.5l-0.1,0.3c-0.8,2.8-2,5.4-3.7,7.7c-1.7,2.3-3.7,4.3-6.2,5.9c-1.3,0.9-2.8,1.6-4.3,2.3l-0.5,0.2
		c-0.1,0-0.2,0.1-0.3,0.1l-1.9,0.6l-1,0.3c-0.2,0.1-0.5,0.1-0.7,0.1l-0.4,0.1c-0.2,0-0.3,0.1-0.5,0.1l-1.7,0.2
		c-0.3,0-0.6,0.1-0.9,0.1l-0.6,0c-0.1,0-0.1,0-0.1,0l-1.1,0l-0.9-0.1c-0.1,0-0.2,0-0.3,0l-0.4-0.1c-0.3,0-0.4-0.1-0.5-0.1
		c0,0-0.1,0-0.1,0v0c0,0-0.1,0-0.1,0c0,0-0.1,0-0.2,0l-1.4-0.3c-0.2,0-0.4-0.1-0.6-0.1l-0.8-0.2c-0.1,0-0.3-0.1-0.4-0.1l-0.3-0.1
		c-0.4-0.1-0.7-0.2-1.2-0.4l-0.1,0c-0.2-0.1-0.5-0.2-0.7-0.3l-0.5-0.2c-0.2-0.1-0.3-0.1-0.5-0.2c-1.5-0.7-2.9-1.6-4.3-2.6
		c-0.3-0.2-0.5-0.4-0.8-0.7c-0.1-0.1-0.2-0.2-0.4-0.3c-0.1-0.1-0.3-0.2-0.4-0.3l-1.2-1.2c-0.1-0.1-0.2-0.2-0.2-0.3l-0.7-0.8
		c-0.4-0.4-0.7-0.9-1.1-1.4c-0.8-1.1-1.6-2.4-2.2-3.6c-0.7-1.5-1.3-3-1.7-4.5c-0.4-1.7-0.7-3.5-0.7-5.4c-0.1-1.9,0.1-3.9,0.6-6
		c0-0.2,0.1-0.4,0.1-0.5l0.1-0.5c0-0.1,0-0.2,0.1-0.3l0.3-0.8c0-0.1,0.1-0.2,0.1-0.4l0.3-0.8c0-0.1,0.1-0.2,0.1-0.3l0.2-0.5
		c0.1-0.2,0.2-0.4,0.3-0.6l0.3-0.7c0.1-0.1,0.2-0.3,0.2-0.4l0.3-0.6c0-0.1,0.1-0.1,0.1-0.2l0.5-0.8c0.1-0.1,0.2-0.3,0.3-0.4l0.2-0.3
		c0.1-0.2,0.2-0.3,0.3-0.5l0.4-0.6l0.6-0.7c0.1-0.1,0.2-0.2,0.3-0.3l0.5-0.5c1.2-1.3,2.4-2.4,3.8-3.3c1.2-0.8,2.5-1.6,3.8-2.2
		C293.7,742,296,741.3,298.4,741z"/>
	<path class="st1" d="M1503.2,159.4c0.9,2.6,2.1,5,3.6,7.3c1.3,2,2.8,3.9,4.5,5.7c1.5,1.5,3.1,2.9,4.8,4.2l0.7,0.5
		c0.2,0.1,0.3,0.2,0.5,0.4l1.2,0.8c0.3,0.2,0.5,0.3,0.8,0.5l0.4,0.2c0.4,0.2,0.7,0.4,1.1,0.6l2.4,1.1l1.5,0.6
		c0.2,0.1,0.5,0.2,0.7,0.3c2.4,0.9,4.8,1.5,7.4,1.8l1.5,0.2l1.6,0.1c0.1,0,0.3,0,0.4,0l1.7,0l1.8,0c0.3,0,0.6,0,0.9-0.1l2.1-0.2
		c0.2,0,0.3,0,0.4,0v0c0.1,0,0.3,0,0.4,0c0.2,0,0.5-0.1,1-0.2l0.2,0c0.2,0,0.4-0.1,0.6-0.1l1.3-0.3c0.1,0,0.3-0.1,0.4-0.1l0.9-0.2
		c0.4-0.1,0.9-0.2,1.4-0.4l0.9-0.3c0.2-0.1,0.4-0.2,0.6-0.2l2.6-1.1c1.9-0.9,3.6-1.9,5.2-2.9c2.1-1.4,4.1-3.1,5.9-5
		c2.2-2.2,4.1-4.9,5.7-7.8c1.2-2.2,2.2-4.5,2.9-6.9l0.3-1.1c0.1-0.2,0.1-0.4,0.1-0.6l0.2-1l0.4-2.3c0.1-0.3,0.1-0.7,0.1-1l0.1-0.5
		c0.2-2,0.3-4,0.2-5.8c0-0.2,0-0.3,0-0.5l-0.1-1.4c0-0.1,0-0.3,0-0.4l-0.2-1.4c0-0.3-0.1-0.5-0.1-0.7l-0.1-0.4
		c-0.5-3-1.3-5.1-1.8-6.5l-0.4-1c-0.1-0.2-0.2-0.4-0.2-0.5l-1.3-2.7c0-0.1-0.1-0.2-0.1-0.3l-0.6-1c-0.1-0.2-0.3-0.5-0.4-0.7
		l-0.5-0.8c-0.1-0.2-0.2-0.3-0.3-0.5c-1.2-1.8-2.2-2.9-2.8-3.6l-0.2-0.2c-0.5-0.5-0.8-0.9-1.1-0.9c0,0,0,0-0.1-0.1
		c0,0-0.1-0.1-0.2-0.2l-0.6-0.6l-3.1-2.7c-1.3-1-3.1-2.3-5.6-3.6c-2.6-1.3-4.7-2.1-6.3-2.5l-0.5-0.1c-0.6-0.2-1.1-0.3-1.6-0.4
		l-0.8-0.2c-0.2,0-0.4-0.1-0.6-0.1c-1.6-0.3-1.7-0.2-1.9-0.1l0,0c-0.1,0-0.2-0.1-0.3-0.1c-0.5-0.1-1.2-0.3-2-0.5
		c-0.4-0.1-0.7-0.1-1.1-0.2c-0.4,0-0.8-0.1-1.2-0.1c-0.3,0-0.7,0-1.3,0l-1.2,0l-1.6,0.1c-0.4,0-0.8,0.1-1.2,0.1l-2.5,0.4
		c-0.1,0-0.3,0.1-0.4,0.1l-0.2,0c-1.9,0.4-3.9,1-5.9,1.8c-0.2,0.1-0.5,0.2-0.7,0.3l-1,0.4l-3,1.5c-0.2,0.1-0.5,0.3-0.7,0.4l-0.3,0.2
		c-0.5,0.3-1,0.6-1.5,1c-1.2,0.8-2.5,1.9-3.9,3.1l-1.9,1.9l-1.9,2.1c-2.7,3.3-4.8,7.1-6.2,11.2c-0.8,2.3-1.3,4.8-1.6,7.2
		c-0.3,2.7-0.4,5.4-0.1,8.1C1501.6,153.5,1502.2,156.5,1503.2,159.4z M1503.5,142.4c0.5-3.5,1.4-6.8,2.9-9.9
		c1.1-2.3,2.3-4.4,3.8-6.4c1.3-1.7,2.4-2.9,3.4-3.9l1.1-1c0.1-0.1,0.1-0.1,0.2-0.2l0.8-0.7c0.2-0.1,0.3-0.3,0.5-0.4l1-0.8
		c0.2-0.1,0.4-0.3,0.6-0.4l0.3-0.2c0.1-0.1,0.2-0.1,0.3-0.2c0.2-0.1,0.3-0.2,0.5-0.3l0.7-0.5c0.9-0.6,1.8-1.2,2.9-1.7l0.9-0.5
		c0.2-0.1,0.4-0.2,0.5-0.4c0,0,0.1,0,0.1-0.1c0.2-0.1,0.4-0.2,0.8-0.4l0.3-0.1c0.5-0.2,1-0.4,1.8-0.7l1.9-0.6
		c0.2-0.1,0.4-0.1,0.6-0.2l1.1-0.3c0.3-0.1,0.6-0.1,0.8-0.2l2.7-0.4c0.1,0,0.3,0,0.4,0l0.7-0.1c0.4,0,0.7-0.1,1-0.1l1.5,0
		c1.8,0,3.1,0.1,4,0.2c1.1,0.1,1.6,0.2,1.8-0.1c0.3,0.1,0.7,0.2,1.2,0.3c0.2,0,0.3,0.1,0.5,0.1l2.6,0.8c0.2,0.1,0.5,0.1,0.7,0.2
		c1.5,0.5,3.1,1.2,4.6,1.9c0.2,0.1,0.5,0.2,0.7,0.4l0.6,0.3c0.1,0.1,0.2,0.1,0.3,0.2l0.9,0.5c0.2,0.1,0.4,0.2,0.6,0.4l0.9,0.6
		c0.3,0.2,0.6,0.4,1,0.7l0.5,0.4c0.1,0.1,0.3,0.2,0.4,0.3l0.8,0.7c0.1,0.1,0.3,0.2,0.4,0.4l0.5,0.5c0.3,0.3,0.6,0.6,0.8,0.8l0.8,0.9
		c0.2,0.2,0.3,0.4,0.5,0.6l0.3,0.4c2.9,3.1,5.1,6.6,6.7,10.5c1.6,3.8,2.4,7.9,2.5,12.2c0.1,2.3-0.1,4.7-0.5,7l-0.1,0.8
		c0,0.2-0.1,0.3-0.1,0.5l-0.7,2.8l-0.5,1.5c-0.1,0.3-0.2,0.7-0.4,1l-0.2,0.5c-0.1,0.2-0.2,0.4-0.3,0.7l-1.1,2.2
		c-0.2,0.4-0.4,0.8-0.6,1.2l-0.5,0.8c0,0.1-0.1,0.1-0.1,0.2l-0.9,1.4l-0.8,1.1c-0.1,0.1-0.2,0.3-0.3,0.4l-0.4,0.5
		c-0.2,0.3-0.4,0.5-0.5,0.6c0,0.1-0.1,0.1-0.1,0.1l0,0c0,0-0.1,0.1-0.1,0.1c-0.1,0.1-0.1,0.1-0.2,0.3l-1.4,1.5
		c-0.2,0.2-0.4,0.4-0.6,0.6l-0.8,0.8c-0.1,0.1-0.3,0.3-0.5,0.4l-0.4,0.3c-0.4,0.4-0.9,0.7-1.4,1.1l-0.1,0.1
		c-0.3,0.2-0.6,0.4-0.9,0.7l-0.6,0.4c-0.2,0.1-0.4,0.3-0.6,0.4c-2,1.3-4.2,2.4-6.5,3.3c-0.5,0.2-0.9,0.3-1.5,0.5
		c-0.2,0.1-0.4,0.1-0.7,0.2c-0.2,0.1-0.5,0.1-0.7,0.2l-2.4,0.6c-0.2,0-0.3,0.1-0.5,0.1l-1.6,0.3c-0.8,0.1-1.6,0.2-2.5,0.3
		c-2.1,0.1-4.1,0.1-6.2-0.1c-2.3-0.2-4.6-0.7-6.8-1.4c-2.5-0.8-4.9-1.9-7.2-3.2c-2.4-1.4-4.7-3.2-6.9-5.4c-0.2-0.2-0.4-0.4-0.5-0.6
		l-0.5-0.5c-0.1-0.1-0.2-0.2-0.3-0.3l-0.8-1c-0.1-0.1-0.2-0.3-0.3-0.4l-0.7-1c-0.1-0.1-0.2-0.3-0.3-0.4l-0.5-0.7
		c-0.2-0.3-0.4-0.6-0.6-0.9l-0.6-1c-0.1-0.2-0.2-0.4-0.3-0.6l-0.5-0.9c-0.1-0.1-0.1-0.2-0.2-0.3l-0.6-1.2c-0.1-0.2-0.2-0.4-0.3-0.6
		l-0.2-0.5c-0.1-0.3-0.2-0.5-0.3-0.8l-0.4-1l-0.4-1.3c-0.1-0.2-0.1-0.4-0.2-0.6l-0.3-1c-0.7-2.4-1-4.8-1.2-7.3
		C1503.1,146.7,1503.2,144.5,1503.5,142.4z"/>
	<path class="st1" d="M1804,852.6l-0.3,0c-0.7-0.1-1.2-0.2-1.4,0c0,0-0.1,0-0.1,0c-0.1,0-0.1,0-0.2,0l-0.8-0.1l-4-0.1
		c-1.6,0-3.8,0.1-6.6,0.7c-2.8,0.6-4.9,1.3-6.4,1.9l-0.5,0.2c-0.6,0.2-1,0.4-1.4,0.7l-0.7,0.4c-0.2,0.1-0.4,0.2-0.5,0.3
		c-1.4,0.8-1.5,0.9-1.5,1.1l0,0.1c-0.1,0-0.2,0.1-0.3,0.1c-0.5,0.2-1.1,0.5-1.8,0.9c-0.3,0.2-0.6,0.4-1,0.6
		c-0.3,0.2-0.6,0.4-0.9,0.7c-0.2,0.1-0.5,0.4-1,0.8l-0.9,0.8l-1.1,1.1c-0.3,0.3-0.6,0.6-0.9,0.9l-1.6,1.8c-0.1,0.1-0.2,0.2-0.3,0.3
		l-0.1,0.2c-1.2,1.5-2.4,3.2-3.4,5.1c-0.1,0.2-0.3,0.5-0.4,0.7l-0.5,0.9l-1.3,3c-0.1,0.2-0.2,0.5-0.3,0.7l-0.1,0.4
		c-0.2,0.6-0.4,1.1-0.6,1.7c-0.4,1.4-0.8,3-1,4.8l-0.3,2.6l-0.1,2.8c0,4.2,0.8,8.4,2.3,12.5c0.8,2.3,1.9,4.5,3.2,6.6
		c1.4,2.3,3.1,4.4,4.9,6.3c2.1,2.1,4.5,4,7,5.5c2.3,1.4,4.8,2.5,7.3,3.4c2.3,0.8,4.6,1.3,6.9,1.6c2.1,0.3,4.2,0.3,6.3,0.2l0.8,0
		c0.2,0,0.4,0,0.6,0l1.4-0.1c0.3,0,0.6-0.1,0.9-0.1l0.4-0.1c0.4-0.1,0.8-0.1,1.2-0.2l2.5-0.6l1.5-0.5c0.2-0.1,0.5-0.1,0.7-0.2
		c2.4-0.8,4.6-1.9,6.8-3.2l1.3-0.8l1.3-0.9c0.1-0.1,0.2-0.2,0.3-0.2l1.3-1l1.4-1.2c0.2-0.2,0.5-0.4,0.7-0.6l1.5-1.4
		c0.1-0.1,0.2-0.2,0.3-0.3l0,0c0.1-0.1,0.2-0.2,0.3-0.2c0.1-0.1,0.4-0.4,0.7-0.7l0.2-0.2c0.1-0.1,0.2-0.3,0.4-0.5l0.8-1
		c0.1-0.1,0.2-0.2,0.3-0.4l0.5-0.8c0.3-0.4,0.5-0.8,0.8-1.2l0.5-0.8c0.1-0.2,0.2-0.4,0.3-0.6l1.3-2.4c0.9-1.8,1.6-3.6,2.1-5.5
		c0.7-2.4,1.2-4.9,1.4-7.5c0.3-3.1,0.1-6.3-0.5-9.5c-0.4-2.4-1.2-4.8-2.1-7.1l-0.5-1.1c-0.1-0.2-0.2-0.4-0.2-0.5l-0.4-0.9l-1.1-2.1
		c-0.2-0.3-0.4-0.6-0.5-0.9l-0.3-0.5c-1.1-1.7-2.3-3.2-3.5-4.6c-0.1-0.1-0.2-0.3-0.3-0.4l-1-1c-0.1-0.1-0.2-0.2-0.3-0.3l-1-1
		c-0.2-0.2-0.4-0.3-0.6-0.5l-0.3-0.2c-2.3-1.9-4.2-3.1-5.5-3.9l-0.9-0.5c-0.2-0.1-0.3-0.2-0.5-0.2l-2.7-1.2c-0.1,0-0.2-0.1-0.3-0.1
		l-1.1-0.4c-0.2-0.1-0.5-0.2-0.8-0.3l-0.9-0.3c-0.2-0.1-0.4-0.1-0.5-0.2C1806.3,853,1804.9,852.8,1804,852.6z M1814.4,858.3
		c3.6,2,6.8,4.6,9.5,7.8c1.5,1.8,2.8,3.7,3.9,5.7l0.4,0.7c0.1,0.1,0.1,0.3,0.2,0.4l1.2,2.6l0.5,1.4c0.1,0.3,0.2,0.6,0.3,1l0.2,0.6
		c0.1,0.2,0.1,0.5,0.2,0.7l0.6,2.4c0.1,0.5,0.2,0.9,0.2,1.3l0.1,0.9c0,0.1,0,0.1,0,0.2l0.2,1.6l0.1,1.4c0,0.2,0,0.3,0,0.5l0,0.6
		c0,0.4,0,0.6,0,0.8c0,0.1,0,0.1,0,0.1h0c0,0,0,0.1,0,0.2c0,0.1,0,0.2,0,0.3l-0.1,2c0,0.3-0.1,0.6-0.1,0.9l-0.2,1.1
		c0,0.2-0.1,0.4-0.1,0.6l-0.1,0.5c-0.1,0.5-0.2,1.1-0.4,1.7l0,0.2c-0.1,0.3-0.2,0.7-0.3,1.1l-0.2,0.7c-0.1,0.2-0.1,0.5-0.2,0.7
		c-0.7,2.3-1.7,4.5-3,6.6c-0.2,0.4-0.5,0.9-0.8,1.3c-0.1,0.2-0.2,0.4-0.4,0.6c-0.1,0.2-0.3,0.4-0.4,0.6l-1.5,1.9
		c-0.1,0.1-0.2,0.3-0.3,0.4l-1,1.2c-0.6,0.6-1.1,1.2-1.8,1.8c-1.5,1.4-3.1,2.7-4.8,3.8c-1.9,1.3-4,2.3-6.1,3.2
		c-2.4,0.9-4.9,1.6-7.5,2c-2.7,0.4-5.6,0.5-8.7,0.2c-0.3,0-0.5-0.1-0.8-0.1l-0.7-0.1c-0.1,0-0.3,0-0.4-0.1l-1.2-0.2
		c-0.2,0-0.3-0.1-0.5-0.1l-1.2-0.3c-0.2,0-0.3-0.1-0.5-0.1l-0.8-0.2c-0.3-0.1-0.6-0.2-1-0.3l-1.1-0.4c-0.2-0.1-0.4-0.2-0.6-0.3
		l-0.9-0.4c-0.1,0-0.2-0.1-0.3-0.1l-1.2-0.5c-0.2-0.1-0.4-0.2-0.6-0.3l-0.5-0.3c-0.2-0.1-0.5-0.2-0.7-0.4l-0.9-0.5l-1.2-0.7
		c-0.2-0.1-0.4-0.2-0.5-0.3l-0.8-0.6c-2-1.4-3.8-3.1-5.4-4.8c-1.4-1.6-2.7-3.3-3.8-5.1c-1.8-2.9-3.1-6.1-3.9-9.4
		c-0.6-2.4-1-4.8-1-7.3c-0.1-2,0.1-3.7,0.2-5.1l0.2-1.4c0-0.1,0-0.2,0-0.3l0.2-1.1c0-0.2,0.1-0.4,0.1-0.6l0.3-1.2
		c0.1-0.2,0.1-0.4,0.2-0.7l0.1-0.4c0-0.1,0.1-0.2,0.1-0.3c0-0.2,0.1-0.4,0.2-0.5l0.3-0.8c0.3-1,0.7-2,1.1-3.1l0.4-1
		c0.1-0.2,0.2-0.4,0.1-0.6c0,0,0-0.1,0-0.1c0.1-0.2,0.2-0.4,0.4-0.8l0.1-0.3c0.2-0.4,0.5-0.9,1-1.6l1.1-1.6c0.1-0.2,0.2-0.3,0.4-0.5
		l0.7-0.9c0.2-0.2,0.4-0.4,0.5-0.6l1.8-2c0.1-0.1,0.2-0.2,0.3-0.3l0.5-0.5c0.3-0.2,0.5-0.5,0.7-0.7l1.1-1c1.4-1.1,2.4-1.9,3.2-2.4
		c0.9-0.6,1.3-0.9,1.3-1.2c0.3-0.1,0.6-0.3,1.1-0.5c0.1-0.1,0.3-0.1,0.4-0.2l2.5-1c0.2-0.1,0.4-0.2,0.7-0.3c1.5-0.5,3.2-1,4.7-1.4
		c0.2-0.1,0.5-0.1,0.7-0.1l0.7-0.1c0.1,0,0.2,0,0.4-0.1l1-0.2c0.2,0,0.5-0.1,0.7-0.1l1.1-0.1c0.4,0,0.8-0.1,1.2-0.1l0.6,0
		c0.2,0,0.3,0,0.5,0l1.1,0c0.2,0,0.3,0,0.6,0l0.7,0.1c0.4,0,0.8,0.1,1.1,0.1l1.2,0.2c0.2,0,0.5,0.1,0.7,0.1l0.4,0.1
		C1806.8,854.9,1810.7,856.3,1814.4,858.3z"/>
	<path class="st1" d="M1714.3,1521.3c-0.2-0.1-0.3-0.2-0.4-0.2l-2.3-1.1c-0.1,0-0.2-0.1-0.2-0.1l-0.9-0.4c-0.2-0.1-0.4-0.2-0.6-0.2
		l-0.8-0.3c-0.2-0.1-0.3-0.1-0.5-0.1c-1.8-0.6-3-0.8-3.8-0.9l-0.2,0c-0.6-0.1-1-0.1-1.2,0c0,0,0,0-0.1,0c-0.1,0-0.1,0-0.2,0
		l-0.7-0.1l-3.5-0.1c-1.4,0-3.2,0.1-5.6,0.6c-2.4,0.5-4.2,1.1-5.5,1.7l-0.4,0.2c-0.5,0.2-0.9,0.4-1.2,0.6l-0.6,0.3
		c-0.2,0.1-0.3,0.2-0.5,0.2c-1.2,0.7-1.3,0.7-1.3,0.9l0,0c-0.1,0-0.1,0.1-0.2,0.1c-0.4,0.2-1,0.4-1.6,0.8c-0.3,0.2-0.5,0.3-0.8,0.5
		c-0.3,0.2-0.5,0.4-0.8,0.6c-0.2,0.1-0.5,0.3-0.9,0.7l-0.8,0.7l-1,0.9c-0.2,0.2-0.5,0.5-0.7,0.8l-1.4,1.6c-0.1,0.1-0.2,0.2-0.2,0.3
		l-0.1,0.1c-1.1,1.3-2,2.8-2.9,4.3c-0.1,0.2-0.2,0.4-0.3,0.6l-0.4,0.8l-1.1,2.6c-0.1,0.2-0.2,0.4-0.2,0.6l-0.1,0.3
		c-0.2,0.5-0.3,1-0.5,1.5c-0.4,1.2-0.7,2.6-0.9,4.1l-0.3,2.3l-0.1,2.4c0,3.6,0.6,7.2,1.9,10.7c0.7,2,1.7,3.8,2.8,5.6
		c1.2,1.9,2.6,3.8,4.2,5.4c1.8,1.8,3.8,3.4,6,4.8c2,1.2,4.1,2.2,6.2,2.9c1.9,0.6,3.9,1.1,6,1.4c1.8,0.2,3.6,0.3,5.4,0.2l0.7,0
		c0.2,0,0.4,0,0.5,0l1.2-0.1c0.3,0,0.5-0.1,0.8-0.1l0.4-0.1c0.3,0,0.7-0.1,1-0.2l2.2-0.5l1.3-0.4c0.2-0.1,0.4-0.1,0.6-0.2
		c2-0.7,3.9-1.6,5.8-2.7l1.1-0.7l1.1-0.8c0.1-0.1,0.2-0.1,0.3-0.2l1.1-0.9l1.2-1c0.2-0.2,0.4-0.4,0.6-0.5l1.3-1.2
		c0.1-0.1,0.2-0.2,0.2-0.2l0,0c0.1-0.1,0.2-0.1,0.2-0.2c0.1-0.1,0.3-0.3,0.6-0.6l0.1-0.2c0.1-0.1,0.2-0.2,0.3-0.4l0.7-0.9
		c0.1-0.1,0.2-0.2,0.2-0.3l0.5-0.6c0.2-0.3,0.5-0.7,0.7-1l0.4-0.7c0.1-0.2,0.2-0.3,0.3-0.5l1.1-2.1c0.8-1.6,1.4-3.1,1.8-4.7
		c0.6-2.1,1-4.2,1.2-6.4c0.2-2.6,0.1-5.4-0.4-8.2c-0.4-2.1-1-4.1-1.8-6.1l-0.4-0.9c-0.1-0.2-0.1-0.3-0.2-0.5l-0.4-0.8l-0.9-1.8
		c-0.1-0.3-0.3-0.5-0.5-0.8l-0.2-0.4c-0.9-1.5-1.9-2.8-3-3.9c-0.1-0.1-0.2-0.2-0.3-0.3l-0.8-0.9c-0.1-0.1-0.2-0.2-0.3-0.2l-0.9-0.8
		c-0.2-0.1-0.3-0.3-0.5-0.4l-0.2-0.2c-1.9-1.7-3.6-2.7-4.7-3.3L1714.3,1521.3z M1721.8,1529.6c1.3,1.5,2.4,3.2,3.4,4.9l0.3,0.6
		c0.1,0.1,0.1,0.2,0.2,0.4l1,2.2l0.5,1.2c0.1,0.3,0.2,0.6,0.3,0.8l0.1,0.5c0.1,0.2,0.1,0.4,0.2,0.6l0.5,2.1c0.1,0.4,0.2,0.8,0.2,1.1
		l0.1,0.8c0,0.1,0,0.1,0,0.2l0.1,1.4l0.1,1.2c0,0.2,0,0.3,0,0.4l0,0.6c0,0.3,0,0.5,0,0.7c0,0.1,0,0.1,0,0.1h0c0,0,0,0.1,0,0.1
		c0,0.1,0,0.2,0,0.3l-0.1,1.7c0,0.2,0,0.5-0.1,0.8l-0.1,1c0,0.2,0,0.3-0.1,0.5l-0.1,0.4c-0.1,0.5-0.2,0.9-0.3,1.5l0,0.2
		c-0.1,0.3-0.1,0.6-0.2,0.9l-0.2,0.6c-0.1,0.2-0.1,0.4-0.2,0.6c-0.6,2-1.5,3.8-2.5,5.7c-0.2,0.4-0.4,0.7-0.7,1.1
		c-0.1,0.2-0.2,0.3-0.3,0.5c-0.1,0.2-0.2,0.3-0.4,0.5l-1.2,1.7c-0.1,0.1-0.2,0.2-0.3,0.3l-0.9,1c-0.5,0.5-1,1-1.5,1.5
		c-1.3,1.2-2.7,2.3-4.1,3.2c-1.7,1.1-3.4,2-5.3,2.7c-2.1,0.8-4.2,1.4-6.4,1.7c-2.3,0.4-4.8,0.4-7.4,0.1c-0.2,0-0.4-0.1-0.7-0.1
		l-0.6-0.1c-0.1,0-0.2,0-0.3,0l-1.1-0.2c-0.1,0-0.3-0.1-0.5-0.1l-1-0.2c-0.1,0-0.3-0.1-0.4-0.1l-0.7-0.2c-0.3-0.1-0.6-0.2-0.8-0.3
		l-0.9-0.3c-0.2-0.1-0.4-0.1-0.6-0.2l-0.8-0.3c-0.1,0-0.2-0.1-0.3-0.1l-1-0.5c-0.2-0.1-0.3-0.2-0.5-0.3l-0.4-0.2
		c-0.2-0.1-0.4-0.2-0.6-0.3l-0.8-0.4l-1-0.6c-0.2-0.1-0.3-0.2-0.5-0.3l-0.7-0.5c-1.7-1.2-3.3-2.6-4.6-4.2c-1.2-1.3-2.3-2.8-3.2-4.4
		c-1.5-2.5-2.7-5.2-3.4-8c-0.5-2.1-0.8-4.1-0.9-6.2c-0.1-1.8,0.1-3.2,0.2-4.4l0.2-1.2c0-0.1,0-0.2,0-0.2l0.2-0.9
		c0-0.2,0.1-0.3,0.1-0.5l0.2-1.1c0-0.2,0.1-0.4,0.1-0.6l0.1-0.3c0-0.1,0.1-0.2,0.1-0.3c0-0.2,0.1-0.3,0.1-0.5l0.2-0.7
		c0.3-0.8,0.6-1.7,1-2.7l0.3-0.8c0.1-0.2,0.1-0.3,0.1-0.5c0,0,0,0,0-0.1c0.1-0.1,0.2-0.4,0.3-0.7l0.1-0.2c0.2-0.4,0.4-0.8,0.8-1.4
		l1-1.4c0.1-0.1,0.2-0.3,0.3-0.4l0.6-0.8c0.1-0.2,0.3-0.4,0.5-0.6l1.6-1.7c0.1-0.1,0.2-0.2,0.3-0.3l0.4-0.4c0.2-0.2,0.4-0.4,0.6-0.6
		l1-0.8c1.2-1,2.1-1.6,2.7-2c0.8-0.5,1.1-0.8,1.1-1c0.2-0.1,0.5-0.3,1-0.5c0.1-0.1,0.2-0.1,0.4-0.2l2.1-0.9c0.2-0.1,0.4-0.1,0.6-0.2
		c1.3-0.5,2.7-0.9,4.1-1.2c0.2,0,0.4-0.1,0.6-0.1l0.6-0.1c0.1,0,0.2,0,0.3-0.1l0.9-0.1c0.2,0,0.4-0.1,0.6-0.1l0.9-0.1
		c0.3,0,0.6-0.1,1-0.1l0.5,0c0.1,0,0.3,0,0.4,0l0.9,0c0.2,0,0.3,0,0.5,0l0.6,0c0.4,0,0.7,0.1,1,0.1l1,0.2c0.2,0,0.4,0.1,0.6,0.1
		l0.4,0.1c3.5,0.5,6.9,1.6,10,3.4C1716.7,1524.6,1719.4,1526.9,1721.8,1529.6z"/>
	<path class="st1" d="M625.8,1079l-0.9,0.7l-2.8,2.3c-0.2,0.2-0.4,0.4-0.6,0.6l-0.3,0.3c-0.5,0.4-1,0.9-1.4,1.4
		c-1.1,1.2-2.3,2.5-3.4,4.1l-1.6,2.4l-1.5,2.7c-2.2,4.1-3.5,8.5-4.2,13.3c-0.3,2.6-0.4,5.3-0.2,8c0.2,2.9,0.8,5.8,1.6,8.6
		c1,3.1,2.3,6.1,4,9c1.5,2.5,3.3,4.9,5.4,7c1.8,1.9,3.8,3.6,5.9,5.1c1.9,1.3,3.9,2.5,6,3.4l0.8,0.4c0.2,0.1,0.4,0.2,0.6,0.3l1.4,0.6
		c0.3,0.1,0.6,0.2,0.9,0.3l0.5,0.2c0.4,0.2,0.8,0.3,1.3,0.4l2.7,0.7l1.7,0.3c0.3,0.1,0.5,0.1,0.8,0.1c2.7,0.4,5.4,0.5,8.2,0.4
		l1.6-0.1l1.7-0.2c0.2,0,0.3,0,0.4-0.1l1.8-0.3l1.9-0.4c0.3-0.1,0.7-0.2,0.9-0.3l2.2-0.6c0.2-0.1,0.3-0.1,0.4-0.1l0,0
		c0.1,0,0.3-0.1,0.4-0.1c0.2-0.1,0.5-0.2,1-0.4l0.2-0.1c0.2-0.1,0.4-0.1,0.6-0.2l1.3-0.6c0.1-0.1,0.3-0.1,0.4-0.2l0.9-0.5
		c0.4-0.2,0.9-0.5,1.4-0.8l0.9-0.5c0.2-0.1,0.4-0.3,0.6-0.4l2.5-1.7c1.8-1.3,3.4-2.7,4.9-4.2c1.9-2,3.7-4.2,5.2-6.6
		c1.8-2.8,3.3-6,4.4-9.5c0.8-2.6,1.3-5.3,1.6-8l0.1-1.3c0-0.2,0-0.4,0-0.6l0-1.1l0-2.6c0-0.4,0-0.8-0.1-1.1l0-0.6
		c-0.2-2.2-0.5-4.3-1-6.2c0-0.2-0.1-0.4-0.1-0.5l-0.4-1.5c0-0.1-0.1-0.3-0.1-0.4l-0.5-1.4c-0.1-0.3-0.2-0.5-0.3-0.8l-0.2-0.4
		c-1.2-3-2.5-5.2-3.3-6.6l-0.6-0.9c-0.1-0.2-0.2-0.3-0.3-0.5l-2-2.6c-0.1-0.1-0.1-0.2-0.2-0.3l-0.8-1c-0.2-0.2-0.4-0.4-0.6-0.6
		l-0.7-0.8c-0.1-0.1-0.3-0.3-0.4-0.4c-1.7-1.7-2.9-2.6-3.7-3.2l-0.2-0.2c-0.6-0.4-1.1-0.7-1.4-0.7c0,0-0.1,0-0.1-0.1
		c-0.1,0-0.1-0.1-0.2-0.1l-0.7-0.5l-3.8-2.2c-1.6-0.8-3.7-1.8-6.8-2.7c-3-0.9-5.4-1.2-7.2-1.4l-0.6,0c-0.7-0.1-1.2-0.1-1.7-0.1
		l-0.9,0c-0.2,0-0.5,0-0.7,0c-1.8,0.1-1.9,0.1-2,0.3l0,0.1c-0.1,0-0.2,0-0.3,0c-0.5,0-1.3-0.1-2.3-0.1c-0.4,0-0.8,0-1.2,0.1
		c-0.4,0-0.8,0.1-1.3,0.2c-0.3,0-0.7,0.1-1.4,0.3l-1.3,0.3l-1.6,0.5c-0.4,0.1-0.8,0.3-1.3,0.4l-2.5,0.9c-0.1,0.1-0.3,0.1-0.4,0.2
		l-0.2,0.1c-2,0.8-3.9,1.9-5.9,3.2C626.3,1078.6,626.1,1078.8,625.8,1079z M626.8,1080.5c0.2-0.1,0.4-0.3,0.8-0.6l0.3-0.2
		c0.4-0.3,1-0.7,1.7-1.1l1.9-1c0.2-0.1,0.4-0.2,0.6-0.3l1.1-0.5c0.3-0.1,0.6-0.2,0.9-0.4l2.8-1c0.1-0.1,0.3-0.1,0.5-0.1l0.7-0.2
		c0.4-0.1,0.7-0.2,1.1-0.3l1.6-0.4c1.9-0.4,3.3-0.6,4.3-0.7c1.2-0.1,1.7-0.2,1.9-0.5c0.3,0,0.8,0,1.4,0.1c0.2,0,0.3,0,0.5,0l3,0.3
		c0.3,0,0.5,0.1,0.8,0.1c1.7,0.2,3.6,0.6,5.3,1.1c0.3,0.1,0.5,0.2,0.8,0.2l0.8,0.2c0.1,0,0.3,0.1,0.4,0.1l1.1,0.4
		c0.2,0.1,0.5,0.2,0.7,0.3l1.1,0.4c0.4,0.1,0.8,0.3,1.2,0.5l0.6,0.3c0.2,0.1,0.3,0.2,0.5,0.3l1,0.6c0.2,0.1,0.3,0.2,0.6,0.3l0.7,0.4
		c0.4,0.3,0.8,0.5,1,0.7l1.1,0.8c0.2,0.2,0.4,0.3,0.6,0.5l0.4,0.3c3.7,2.7,6.8,6,9.3,9.7c2.5,3.7,4.3,7.9,5.3,12.4
		c0.6,2.5,0.9,5,0.9,7.6l0,0.8c0,0.2,0,0.4,0,0.5l-0.2,3.1l-0.2,1.7c0,0.4-0.1,0.7-0.2,1.1l-0.1,0.6c0,0.3-0.1,0.5-0.1,0.8l-0.7,2.6
		c-0.1,0.5-0.3,0.9-0.4,1.4l-0.3,1c0,0.1-0.1,0.2-0.1,0.2l-0.7,1.6l-0.6,1.4c-0.1,0.2-0.2,0.3-0.2,0.5l-0.3,0.6
		c-0.2,0.4-0.3,0.6-0.4,0.7c0,0.1-0.1,0.1-0.1,0.1l0,0c0,0-0.1,0.1-0.1,0.1c0,0.1-0.1,0.2-0.2,0.3l-1.2,1.9
		c-0.2,0.2-0.3,0.5-0.5,0.8l-0.7,1c-0.1,0.2-0.3,0.4-0.4,0.5l-0.3,0.4c-0.4,0.5-0.8,1-1.2,1.5l-0.1,0.2c-0.3,0.3-0.5,0.6-0.8,0.9
		l-0.5,0.6c-0.2,0.2-0.4,0.4-0.6,0.6c-1.9,1.9-3.9,3.5-6.2,4.9c-0.4,0.3-0.9,0.6-1.4,0.9c-0.2,0.1-0.4,0.2-0.6,0.4
		c-0.2,0.1-0.5,0.2-0.7,0.4l-2.4,1.1c-0.2,0.1-0.3,0.1-0.5,0.2l-1.6,0.6c-0.8,0.3-1.7,0.6-2.6,0.8c-2.2,0.6-4.4,1-6.6,1.2
		c-2.5,0.2-5.1,0.2-7.6-0.1c-2.8-0.3-5.6-0.9-8.3-1.9c-2.9-1-5.7-2.4-8.5-4.3c-0.2-0.2-0.5-0.3-0.7-0.5l-0.6-0.4
		c-0.1-0.1-0.2-0.2-0.3-0.2l-1.1-0.9c-0.2-0.1-0.3-0.2-0.5-0.4l-1-0.9c-0.1-0.1-0.3-0.2-0.4-0.4l-0.6-0.6c-0.3-0.3-0.5-0.5-0.8-0.8
		l-0.9-0.9c-0.2-0.2-0.3-0.4-0.5-0.6l-0.7-0.8c-0.1-0.1-0.2-0.2-0.2-0.3l-0.9-1.1c-0.1-0.2-0.3-0.4-0.4-0.6l-0.4-0.5
		c-0.2-0.2-0.4-0.5-0.5-0.8l-0.6-1l-0.8-1.3c-0.1-0.2-0.2-0.4-0.3-0.6l-0.5-1c-1.2-2.4-2.1-4.9-2.8-7.5c-0.6-2.2-0.9-4.5-1.1-6.9
		c-0.2-3.8,0.1-7.5,0.9-11.1c0.6-2.7,1.5-5.1,2.7-7.6c1-2,2-3.6,2.8-4.8l0.9-1.3c0.1-0.1,0.1-0.2,0.2-0.2l0.7-0.9
		c0.1-0.2,0.3-0.3,0.4-0.5l0.9-1.1c0.2-0.2,0.3-0.4,0.5-0.5l0.3-0.3c0.1-0.1,0.2-0.2,0.3-0.3c0.1-0.2,0.3-0.3,0.4-0.4l0.7-0.7
		c0.8-0.8,1.7-1.6,2.7-2.5l0.9-0.7C626.4,1080.9,626.6,1080.7,626.8,1080.5C626.7,1080.5,626.7,1080.5,626.8,1080.5z"/>
	<path class="st1" d="M1257,1128.5l-0.1,0.1c-1.1,0.5-2.2,1.1-3.3,1.8c-0.1,0.1-0.3,0.2-0.4,0.3l-0.5,0.4l-1.6,1.3
		c-0.1,0.1-0.2,0.2-0.3,0.3l-0.2,0.2c-0.3,0.2-0.5,0.5-0.8,0.8c-0.6,0.6-1.3,1.4-1.9,2.3l-0.9,1.3l-0.8,1.5c-1.2,2.3-2,4.7-2.3,7.3
		c-0.2,1.5-0.2,2.9-0.1,4.4c0.1,1.6,0.4,3.2,0.9,4.8c0.5,1.7,1.3,3.4,2.2,5c0.8,1.4,1.8,2.7,3,3.8c1,1,2.1,2,3.3,2.8
		c1,0.7,2.1,1.4,3.3,1.9l0.5,0.2c0.1,0.1,0.2,0.1,0.3,0.1l0.8,0.3c0.2,0.1,0.3,0.1,0.5,0.2l0.3,0.1c0.2,0.1,0.5,0.2,0.7,0.2l1.5,0.4
		l0.9,0.2c0.1,0,0.3,0.1,0.4,0.1c1.5,0.2,3,0.3,4.5,0.2l0.9-0.1l0.9-0.1c0.1,0,0.2,0,0.2,0l1-0.2l1.1-0.2c0.2,0,0.4-0.1,0.5-0.1
		l1.2-0.4c0.1,0,0.2,0,0.2-0.1l0,0c0.1,0,0.1,0,0.2-0.1c0.1,0,0.3-0.1,0.6-0.2l0.1-0.1c0.1,0,0.2-0.1,0.3-0.1l0.7-0.3
		c0.1,0,0.2-0.1,0.2-0.1l0.5-0.3c0.2-0.1,0.5-0.3,0.8-0.4l0.5-0.3c0.1-0.1,0.2-0.1,0.4-0.2l1.4-0.9c1-0.7,1.9-1.5,2.7-2.3
		c1.1-1.1,2-2.3,2.9-3.6c1-1.6,1.8-3.3,2.4-5.3c0.4-1.4,0.7-2.9,0.9-4.4l0.1-0.7c0-0.1,0-0.2,0-0.4l0-0.6l0-1.4c0-0.2,0-0.4,0-0.6
		l0-0.3c-0.1-1.2-0.3-2.4-0.6-3.4c0-0.1,0-0.2-0.1-0.3l-0.2-0.8c0-0.1-0.1-0.2-0.1-0.2l-0.3-0.8c-0.1-0.1-0.1-0.3-0.2-0.4l-0.1-0.2
		c-0.7-1.7-1.4-2.9-1.9-3.6l-0.3-0.5c-0.1-0.1-0.1-0.2-0.2-0.3l-1.1-1.4c0,0-0.1-0.1-0.1-0.1l-0.5-0.5c-0.1-0.1-0.2-0.2-0.3-0.4
		l-0.4-0.4c-0.1-0.1-0.2-0.2-0.2-0.2c-0.9-0.9-1.6-1.4-2.1-1.8l-0.1-0.1c-0.3-0.2-0.6-0.4-0.7-0.4c0,0,0,0,0,0c0,0-0.1,0-0.1-0.1
		l-0.4-0.3l-2.1-1.2c-0.9-0.4-2.1-1-3.7-1.5c-1.7-0.5-3-0.7-4-0.8l-0.3,0c-0.4,0-0.7-0.1-1-0.1l-0.5,0c-0.1,0-0.3,0-0.4,0
		c-1,0-1,0.1-1.1,0.2l0,0c-0.1,0-0.1,0-0.2,0c-0.3,0-0.7-0.1-1.2,0c-0.2,0-0.4,0-0.7,0c-0.2,0-0.5,0.1-0.7,0.1
		c-0.2,0-0.4,0.1-0.8,0.1l-0.7,0.2l-0.9,0.2c-0.2,0.1-0.5,0.1-0.7,0.2l-1.4,0.5C1257.2,1128.4,1257.1,1128.5,1257,1128.5z
		 M1257.8,1129.2l1.5-0.6c0.1,0,0.2-0.1,0.2-0.1l0.4-0.1c0.2-0.1,0.4-0.1,0.6-0.2l0.9-0.2c1.1-0.2,1.8-0.3,2.4-0.4
		c0.7-0.1,1-0.1,1-0.3c0.2,0,0.4,0,0.8,0c0.1,0,0.2,0,0.3,0l1.6,0.1c0.1,0,0.3,0,0.4,0.1c1,0.1,2,0.3,2.9,0.6c0.1,0,0.3,0.1,0.4,0.1
		l0.4,0.1c0.1,0,0.1,0,0.2,0.1l0.6,0.2c0.1,0,0.3,0.1,0.4,0.1l0.6,0.2c0.2,0.1,0.4,0.2,0.7,0.3l0.3,0.2c0.1,0,0.2,0.1,0.3,0.1
		l0.6,0.3c0.1,0.1,0.2,0.1,0.3,0.2l0.4,0.2c0.2,0.1,0.4,0.3,0.6,0.4l0.6,0.4c0.1,0.1,0.2,0.2,0.4,0.3l0.2,0.2c2,1.5,3.8,3.3,5.2,5.4
		c1.4,2.1,2.4,4.4,2.9,6.9c0.3,1.4,0.5,2.8,0.5,4.2l0,0.5c0,0.1,0,0.2,0,0.3l-0.1,1.7l-0.1,0.9c0,0.2-0.1,0.4-0.1,0.6l-0.1,0.3
		c0,0.1-0.1,0.3-0.1,0.4l-0.4,1.4c-0.1,0.3-0.2,0.5-0.2,0.8l-0.2,0.5c0,0,0,0.1,0,0.1l-0.4,0.9l-0.3,0.7c0,0.1-0.1,0.2-0.1,0.3
		l-0.2,0.3c-0.1,0.2-0.2,0.3-0.2,0.4c0,0,0,0.1,0,0.1l0,0c0,0,0,0-0.1,0.1c0,0-0.1,0.1-0.1,0.2l-0.6,1c-0.1,0.1-0.2,0.3-0.3,0.4
		l-0.4,0.6c-0.1,0.1-0.1,0.2-0.2,0.3l-0.2,0.2c-0.2,0.3-0.4,0.5-0.7,0.8l-0.1,0.1c-0.1,0.2-0.3,0.3-0.5,0.5l-0.3,0.3
		c-0.1,0.1-0.2,0.2-0.3,0.3c-1,1-2.2,1.9-3.5,2.7c-0.2,0.2-0.5,0.3-0.8,0.5c-0.1,0.1-0.2,0.1-0.4,0.2c-0.1,0.1-0.3,0.1-0.4,0.2
		l-1.3,0.6c-0.1,0-0.2,0.1-0.3,0.1l-0.9,0.3c-0.5,0.2-0.9,0.3-1.4,0.5c-1.2,0.3-2.4,0.6-3.6,0.7c-1.4,0.1-2.8,0.1-4.2,0
		c-1.5-0.2-3.1-0.5-4.6-1c-1.6-0.5-3.2-1.3-4.7-2.4c-0.1-0.1-0.3-0.2-0.4-0.3l-0.3-0.2c-0.1,0-0.1-0.1-0.2-0.1l-0.6-0.5
		c-0.1-0.1-0.2-0.1-0.3-0.2l-0.5-0.5c-0.1-0.1-0.1-0.1-0.2-0.2l-0.3-0.3c-0.1-0.1-0.3-0.3-0.4-0.4l-0.5-0.5
		c-0.1-0.1-0.2-0.2-0.3-0.3l-0.4-0.4c0-0.1-0.1-0.1-0.1-0.2l-0.5-0.6c-0.1-0.1-0.2-0.2-0.2-0.3l-0.2-0.3c-0.1-0.1-0.2-0.3-0.3-0.4
		l-0.3-0.5l-0.4-0.7c-0.1-0.1-0.1-0.2-0.2-0.3l-0.3-0.5c-0.7-1.3-1.2-2.7-1.5-4.1c-0.3-1.2-0.5-2.5-0.6-3.8c-0.1-2.1,0-4.2,0.5-6.1
		c0.3-1.5,0.8-2.8,1.5-4.2c0.5-1.1,1.1-2,1.5-2.7l0.5-0.7c0,0,0.1-0.1,0.1-0.1l0.4-0.5c0.1-0.1,0.1-0.2,0.2-0.3l0.5-0.6
		c0.1-0.1,0.2-0.2,0.3-0.3l0.2-0.2c0.1-0.1,0.1-0.1,0.1-0.2c0.1-0.1,0.2-0.2,0.2-0.2l0.4-0.4c0.4-0.4,0.9-0.9,1.5-1.4l0.5-0.4
		c0.1-0.1,0.2-0.2,0.2-0.3c0,0,0,0,0,0c0.1-0.1,0.2-0.2,0.4-0.3l0.2-0.1c0.2-0.2,0.5-0.4,1-0.6l1.1-0.6c0.1-0.1,0.2-0.1,0.3-0.2
		l0.6-0.3C1257.5,1129.3,1257.7,1129.2,1257.8,1129.2z"/>
	<path class="st1" d="M942.2,563.6c0.1-3.8-1.4-7.4-4-10.2c-2.7-2.7-6.2-4.3-10-4.3c-3.8-0.1-7.4,1.4-10.2,4
		c-5.5,5.4-5.7,14.7-0.3,20.2c2.7,2.7,6.2,4.3,10,4.3l0.2,0c3.7,0,7.3-1.4,10-4C940.6,571,942.2,567.4,942.2,563.6z M927.9,574.8
		c-0.1,0-0.1,0-0.2,0c-3.1,0-5.9-1.3-8-3.5c-2.1-2.2-3.3-5.1-3.2-8.1c0-3.1,1.3-5.9,3.5-8c2.1-2.1,5-3.2,8-3.2l0.2,0
		c3.1,0,5.9,1.3,8,3.5c2.1,2.2,3.3,5.1,3.2,8.1c0,3.1-1.3,5.9-3.5,8C933.8,573.7,930.9,574.8,927.9,574.8z"/>
	<path class="st1" d="M1746.5,1901.5c-4.5-0.1-8.8,1.6-12.1,4.8c-6.6,6.4-6.7,17.5-0.4,24c3.2,3.3,7.4,5.1,11.9,5.2l0.3,0
		c4.4,0,8.6-1.7,11.8-4.8c3.3-3.2,5.1-7.4,5.2-11.9c0.1-4.5-1.6-8.8-4.8-12.1C1755.3,1903.4,1751,1901.6,1746.5,1901.5z
		 M1755.7,1928.3c-2.5,2.4-6,3.8-9.5,3.8c-0.1,0-0.1,0-0.2,0c-3.6-0.1-7-1.5-9.5-4.1c-2.5-2.6-3.9-6-3.8-9.7c0.1-3.6,1.5-7,4.1-9.5
		c2.5-2.5,5.9-3.8,9.4-3.8l0.2,0c3.6,0.1,7,1.5,9.5,4.1c2.5,2.6,3.9,6,3.8,9.7C1759.8,1922.4,1758.3,1925.7,1755.7,1928.3z"/>
	<polygon class="st1" points="591,220.8 596.2,226 597.4,218.9 603.9,215.4 597.5,212 596.2,204.7 590.9,209.9 583.7,208.8 
		587,215.3 583.7,221.9 	"/>
	<polygon class="st1" points="1540.2,811.4 1534.1,818.2 1524.8,817.6 1529.5,825.6 1525.9,834.2 1534.9,832.1 1542,838.2 
		1542.9,828.9 1550.9,824.2 1542.5,820.4 	"/>
	<polygon class="st1" points="122,820.2 134.5,826.5 128.8,813.5 138.4,803.7 125,805.5 117.9,792.9 115.3,806.8 101.4,809.1 
		113.8,815.6 111.6,829.8 	"/>
	<polygon class="st1" points="489,568.7 480,572.4 473.5,564.9 474,574.6 465.1,578.3 474.4,581.1 475.3,590.5 480.3,582.7 
		490,584.6 483.9,577 	"/>
	<polygon class="st1" points="1192,235.7 1197,227.8 1206.7,229.7 1200.6,222.2 1205.7,213.9 1196.7,217.5 1190.2,210 1190.7,219.7 
		1181.8,223.5 1191.1,226.3 	"/>
	<polygon class="st1" points="1828.6,719.1 1844.9,703.9 1864.7,713.8 1855.7,693.3 1870.9,677.8 1849.7,680.7 1838.5,660.9 
		1834.4,682.8 1812.4,686.4 1832.1,696.6 	"/>
	<polygon class="st1" points="1195.2,1337.2 1166.9,1330.9 1163.4,1302.3 1149.2,1327.3 1120.3,1321.8 1139.3,1343.6 1125.5,1368.7 
		1152.5,1358 1171.8,1378.3 1169,1350.7 	"/>
	<polygon class="st1" points="1306.5,305.1 1277.6,299.6 1296.6,321.5 1282.8,346.6 1309.8,335.9 1329.1,356.1 1326.3,328.6 
		1352.5,315.1 1324.2,308.8 1320.7,280.1 	"/>
	<polygon class="st1" points="172.1,1866.9 169.6,1847.2 159.9,1864.4 140,1860.6 153,1875.7 143.6,1893 162.1,1885.6 175.4,1899.5 
		173.5,1880.6 191.5,1871.3 	"/>
	<polygon class="st1" points="1590.7,1380 1588.5,1362.1 1579.6,1377.7 1561.6,1374.3 1573.4,1387.9 1564.8,1403.6 1581.7,1396.9 
		1593.8,1409.6 1592,1392.4 1608.4,1383.9 	"/>
	<polygon class="st1" points="994.7,1485 993.7,1476.6 989.5,1483.9 981,1482.3 986.6,1488.7 982.5,1496.1 990.5,1493 996.2,1499 
		995.3,1490.8 1003.1,1486.9 	"/>
	<polygon class="st1" points="636.2,1557.8 634.9,1547.7 629.9,1556.5 619.7,1554.6 626.4,1562.3 621.5,1571.2 631.1,1567.4 
		637.9,1574.6 636.9,1564.8 646.2,1560.1 	"/>
	<polygon class="st1" points="1870.8,1841.4 1868.5,1823.5 1859.7,1839.1 1841.6,1835.6 1853.5,1849.3 1844.9,1865 1861.7,1858.3 
		1873.8,1871 1872.1,1853.8 1888.4,1845.3 	"/>
	<polygon class="st1" points="1051.1,1864.3 1048.5,1843.8 1038.4,1861.6 1017.7,1857.7 1031.3,1873.3 1021.4,1891.4 1040.7,1883.7 
		1054.6,1898.2 1052.6,1878.5 1071.3,1868.8 	"/>
	<polygon class="st1" points="1484.1,376.4 1499.6,367.1 1513.6,378.2 1509.8,360.5 1524.4,350.7 1507.1,349.5 1501.6,332 
		1494.7,348.7 1476.7,347.8 1490.6,359.2 	"/>
	<polygon class="st1" points="1894.9,134.9 1912.3,128.9 1923.9,142.4 1923,124.9 1940,117.2 1922.3,112.3 1921,94 1911.2,109.4 
		1893.1,104.9 1904.4,119.4 	"/>
	<polygon class="st1" points="1662.2,172.1 1680.9,162.4 1700.5,171.3 1696.9,150.5 1711.6,134.7 1690.3,131.5 1680.2,112.8 
		1670.8,132 1649.7,135.9 1665.1,150.8 	"/>
	<polygon class="st1" points="896.3,707.2 887.1,718.9 901.9,719.6 910.1,732 915.4,718.5 929.7,714.1 918.4,704.9 918.7,690 
		906.2,698 892.4,692.9 	"/>
	<polygon class="st1" points="1514.3,1175.8 1504.9,1195 1483.8,1198.9 1499.2,1213.8 1496.3,1235.1 1515,1225.5 1534.6,1234.3 
		1531,1213.6 1545.7,1197.7 1524.4,1194.5 	"/>
	<polygon class="st1" points="168.3,1642.1 161.7,1630.1 155.7,1642.4 142.1,1645 152,1654.6 150.2,1668.3 162.2,1662.1 
		174.8,1667.8 172.6,1654.4 182,1644.2 	"/>
	<polygon class="st1" points="505.1,403.7 505,416.7 515.6,409.2 527.9,413.4 524.3,401.2 531.8,390.6 519.1,390.3 511.3,379.8 
		507,392.1 494.7,396 	"/>
	<polygon class="st1" points="1070.2,1340.3 1077.6,1329.6 1090.6,1329.4 1083.1,1319.1 1086.6,1306.6 1074.5,1310.7 1063.6,1303.4 
		1063.7,1316.4 1053.5,1324.2 1065.9,1328 	"/>
	<polygon class="st1" points="1221.2,1638.9 1224.6,1626.4 1212.6,1630.5 1201.7,1623.2 1201.8,1636.2 1191.6,1644 1203.9,1647.9 
		1208.2,1660.1 1215.7,1649.5 1228.7,1649.2 	"/>
	<polygon class="st1" points="584.9,1299.8 576,1302.8 568.1,1297.4 568.1,1307 560.6,1312.7 569.7,1315.5 572.9,1324.6 
		578.3,1316.7 587.9,1316.5 582.4,1309 	"/>
	<polygon class="st1" points="323.6,1212 320.5,1201.2 313.4,1209.8 302.4,1209.3 308.3,1218.6 304.4,1229 315.1,1226.1 
		323.8,1233.2 324.5,1222.3 333.7,1216 	"/>
	<polygon class="st1" points="136.6,1389.8 141.5,1393.8 141.9,1387.6 147.1,1384.1 141.4,1381.8 139.6,1375.8 135.6,1380.6 
		129.4,1380.3 132.8,1385.5 130.5,1391.4 	"/>
	<polygon class="st1" points="1654.4,67.2 1659.9,64.3 1665.5,67.1 1664.5,60.9 1668.9,56.4 1662.8,55.4 1659.8,50 1657,55.4 
		1650.8,56.6 1655.2,61.1 	"/>
	<polygon class="st1" points="1948,511.4 1944,519.4 1934.9,521.1 1941.4,527.6 1940.1,536.6 1948.2,532.4 1956.4,536.4 
		1954.9,527.4 1961.3,520.8 1952.5,519.4 	"/>
	<polygon class="st1" points="574.5,1123.9 579.1,1128.1 579.9,1121.9 585.3,1118.8 579.8,1116.2 578.4,1110 574.2,1114.5 
		567.9,1113.9 570.9,1119.4 568.4,1125.1 	"/>
	<polygon class="st1" points="267.1,118.8 273.1,117.2 278,121.2 278.4,115.1 283.6,111.5 277.9,109.3 276.1,103.2 272.1,108 
		265.9,107.7 269.3,113 	"/>
	<polygon class="st1" points="195.7,25.3 209.6,21.6 220.8,30.7 221.8,16.6 233.8,8.5 220.6,3.2 219.7,0 207.7,0 207.3,0.4 199.3,0 
		193.2,0 200.8,11.8 	"/>
	<polygon class="st1" points="193.2,2000 199.3,2000 193,1999.7 	"/>
	<polygon class="st1" points="207.7,2000 219.7,2000 216.6,1989.3 	"/>
	<polygon class="st1" points="232.9,232.4 233.3,249.8 247.2,239.3 263.9,244.4 258.6,228.2 268.2,213.7 251.2,213.9 240.3,200.1 
		235.1,216.7 218.8,222.4 	"/>
	<polygon class="st1" points="1666.6,753 1671.5,756.9 1671.9,750.8 1677.1,747.3 1671.4,745 1669.7,738.9 1665.6,743.8 
		1659.4,743.5 1662.8,748.7 1660.6,754.6 	"/>
	<polygon class="st1" points="1685.1,1890.5 1681.1,1895.4 1674.9,1895.1 1678.3,1900.3 1676.1,1906.2 1682.1,1904.6 1687,1908.5 
		1687.4,1902.4 1692.6,1898.9 1686.9,1896.6 	"/>
	<polygon class="st1" points="1480.7,1871.5 1476.7,1876.3 1470.5,1876 1473.9,1881.2 1471.6,1887.1 1477.7,1885.5 1482.6,1889.4 
		1483,1883.3 1488.2,1879.8 1482.5,1877.5 	"/>
	<polygon class="st1" points="1278.7,25.6 1284.8,24 1289.6,28 1290.1,21.9 1295.2,18.3 1289.5,16.1 1287.8,10 1283.8,14.8 
		1277.6,14.5 1280.9,19.8 	"/>
	<polygon class="st1" points="1239.2,1094 1233,1093.7 1236.3,1099 1234.1,1104.8 1240.2,1103.2 1245,1107.2 1245.5,1101.1 
		1250.7,1097.5 1244.9,1095.3 1243.2,1089.2 	"/>
	<polygon class="st1" points="1326.6,1206.1 1330.8,1212.8 1333.9,1205.7 1341.5,1203.8 1335.7,1198.6 1336.4,1190.9 1329.6,1194.8 
		1322.4,1191.8 1324.1,1199.4 1319,1205.3 	"/>
	<polygon class="st1" points="1051.5,890.7 1057.4,895.4 1057.9,888.1 1064.2,883.8 1057.3,881.1 1055.2,873.8 1050.4,879.6 
		1042.9,879.2 1046.9,885.5 1044.3,892.6 	"/>
	<polygon class="st1" points="1075.7,719.2 1080.9,715.7 1075.2,713.4 1073.5,707.3 1069.4,712.2 1063.2,711.9 1066.6,717.1 
		1064.4,723 1070.4,721.4 1075.3,725.3 	"/>
	<polygon class="st1" points="748.6,1337.1 753.7,1340.7 753.8,1334.6 758.9,1330.8 753,1328.7 751.1,1322.8 747.3,1327.8 
		741.1,1327.8 744.7,1332.9 742.7,1338.8 	"/>
	<polygon class="st1" points="212.4,1720.4 207.1,1727.5 198.2,1727.4 203.3,1734.7 200.5,1743.2 208.9,1740.7 216.1,1745.8 
		216.3,1737.1 223.5,1731.8 215.1,1728.8 	"/>
	<polygon class="st1" points="62,1546 54.6,1553.5 44.3,1551.9 48.8,1561.1 44.3,1570.6 54.5,1569 62.1,1576.3 63.8,1565.9 
		73.1,1561.1 63.8,1556.4 	"/>
	<polygon class="st1" points="982.1,1881.6 978.4,1886.6 972.1,1886.6 975.7,1891.7 973.7,1897.6 979.6,1895.9 984.7,1899.5 
		984.8,1893.3 989.9,1889.6 984,1887.5 	"/>
	<polygon class="st1" points="450,1912.3 442,1913.9 435.9,1908.4 435,1916.5 427.8,1920.5 435.1,1924 436.9,1932 442.4,1926.1 
		450.6,1926.9 446.7,1919.7 	"/>
	<polygon class="st1" points="813,1633.2 820.5,1622.6 807.7,1622.3 800,1611.8 795.7,1624.1 783.4,1628 793.7,1635.7 793.6,1648.7 
		804.2,1641.2 816.6,1645.4 	"/>
	<polygon class="st1" points="1247.6,1923.7 1239.9,1913.1 1235.6,1925.4 1223.3,1929.3 1233.6,1937.1 1233.5,1950.1 1244.1,1942.6 
		1256.5,1946.7 1252.9,1934.5 1260.4,1923.9 	"/>
	<polygon class="st1" points="920.7,190.8 927.5,204.2 934.7,191.3 949.7,189.1 939.5,178 942.2,163.3 928.6,169.6 915.3,162.5 
		917.2,177.4 906.2,187.8 	"/>
	<polygon class="st1" points="110.9,146.1 115.6,155.5 120.7,146.5 131.1,144.9 124,137.2 125.8,127 116.4,131.4 107.1,126.4 
		108.5,136.8 100.8,144 	"/>
	<polygon class="st1" points="735.2,159.8 738.3,165.8 741.6,160 748.3,159 743.7,154 744.9,147.3 738.8,150.2 732.8,147 
		733.6,153.7 728.7,158.4 	"/>
	<path class="st1" d="M763.5,349.8c19.5-12.7,30.7-33.3,32-54.9c-4.1,11.5-11.9,21.8-22.9,29c-27.3,17.8-64.1,10.1-82.4-17.1
		c-18.2-27.2-10.9-63.7,16.3-81.4c5.1-3.3,10.6-5.8,16.2-7.4c-13.7-0.1-27.5,3.7-39.7,11.7c-33.2,21.7-42.1,66.1-19.9,99.3
		C685.3,362.2,730.3,371.5,763.5,349.8z"/>
	<path class="st1" d="M1423.4,1514.4c13.8,4.8,26.1,14,34.8,27.2c21.4,32.4,12.5,76.6-19.8,98.6c-32.4,22-76,13.5-97.4-18.9
		c-4-6.1-7-12.6-8.9-19.3c0,16.3,4.6,32.8,14.2,47.4c26.1,39.5,79.3,49.9,118.8,23.1c39.5-26.8,50.3-80.6,24.2-120.2
		C1473.9,1529,1449.2,1515.9,1423.4,1514.4z"/>
	<path class="st1" d="M162.9,1274.4c22.6-27.1,19.3-67.5-7.3-90.3c-15.6-13.4-35.9-17.7-54.5-13.5c10.8,0.6,21.4,4.7,30.3,12.2
		c21.8,18.7,24.5,51.9,6,74.1c-18.5,22.2-51.3,25.1-73.1,6.4c-4.1-3.5-7.5-7.5-10.3-11.9c3.3,11.6,10,22.4,19.8,30.8
		C100.4,1305,140.3,1301.5,162.9,1274.4z"/>
	<polygon class="st1" points="244.8,966.5 262.1,959.5 255.1,975.1 268.7,960.2 272.6,1004.4 276.1,962 288.1,975.3 281.6,960 
		297.3,967.2 286.4,954.5 323.9,949.8 287.9,945.7 301,931.6 284,939.4 292.4,919.8 277.8,935.6 272.5,890.9 267.7,936 253.7,921.6 
		261.6,939.2 244.1,931.8 259.1,945.5 225.6,950.1 258,954.3 	"/>
	<polygon class="st1" points="372.4,1579.9 396.3,1590.9 379.6,1571.6 436.8,1564.4 382,1558.2 401.9,1536.8 376.1,1548.5 
		388.9,1518.8 366.6,1542.8 358.5,1474.8 351.2,1543.5 329.9,1521.5 341.9,1548.3 315.3,1537.1 338.1,1557.9 287.2,1564.9 
		336.5,1571.3 316.4,1589.8 342.8,1579.2 332,1602.9 352.8,1580.3 358.7,1647.5 364.1,1583 382.2,1603.3 	"/>
	<polygon class="st1" points="1347.5,1034.6 1327.8,1026.3 1344.7,1041.7 1306.9,1047 1343.5,1051.7 1328.6,1065.4 1348.2,1057.5 
		1340.2,1075.1 1355.6,1058.4 1360,1108.2 1363.9,1060.4 1377.4,1075.4 1370.1,1058.1 1387.9,1066.2 1375.5,1051.9 1417.9,1046.6 
		1377.2,1042 1392,1026.1 1372.8,1034.8 1382.4,1012.7 1365.8,1030.6 1359.8,980.1 1354.4,1031.1 1338.6,1014.7 	"/>
	<polygon class="st1" points="401.9,237.2 385.6,252.2 407.1,243.6 398.3,262.9 415.3,244.5 420.1,299.3 424.4,246.7 439.3,263.2 
		431.2,244.2 450.7,253.2 437.1,237.4 483.7,231.6 439.1,226.5 455.3,209.1 434.2,218.6 444.7,194.4 426.5,214 419.9,158.5 
		414,214.5 396.6,196.6 406.4,218.4 384.7,209.3 403.3,226.3 361.8,232 	"/>
	<polygon class="st1" points="1148.7,549 1144.1,466.1 1139.7,547.3 1116.8,513.6 1133.7,550.2 1099.5,529.1 1131.8,557.1 
		1065.6,561.5 1130.1,565.9 1096.2,588.9 1132.8,572 1111.7,606.2 1139.6,574 1144.1,657 1148.6,575.7 1171.5,609.5 1154.6,572.9 
		1188.8,594 1156.4,566 1221.8,561.5 1158.1,557.2 1192.1,534.2 1155.5,551.1 1176.6,516.9 	"/>
	<polygon class="st1" points="1690.4,1785.4 1747.7,1781.6 1691.8,1777.8 1721.7,1757.6 1689.6,1772.4 1708,1742.3 1683.6,1770.6 
		1679.6,1697.8 1675.6,1769.1 1655.6,1739.5 1670.4,1771.6 1640.4,1753.1 1668.7,1777.6 1610.7,1781.6 1667.3,1785.4 1637.5,1805.6 
		1669.6,1790.7 1651.1,1820.8 1675.6,1792.5 1679.6,1865.3 1683.5,1794 1703.6,1823.7 1688.7,1791.5 1718.8,1810 	"/>
	<polygon class="st1" points="945.9,1747.9 921.3,1759.2 935.4,1736.2 916.7,1757.8 913.7,1702.1 910.6,1756.7 895.3,1734 
		906.7,1758.6 883.6,1744.4 905.3,1763.2 860.9,1766.2 904.2,1769.1 881.4,1784.6 906,1773.2 891.9,1796.2 910.6,1774.6 
		913.7,1830.3 916.7,1775.8 932,1798.4 920.7,1773.9 943.7,1788 921.9,1769.2 965.8,1766.2 923,1763.3 	"/>
	<polygon class="st1" points="951.6,469.3 932.3,467.3 948,479.5 932.3,491.7 951.2,489.8 949.6,509 961.8,493.6 974,509 
		971.6,490.7 991.3,491.7 975.4,479.5 991.3,467.3 971.9,469.3 974,450 961.8,465.4 949.6,450 	"/>
	<polygon class="st1" points="1960.2,644.7 1953.6,644 1959,648.2 1953.6,652.4 1960.1,651.7 1959.5,658.3 1963.7,653 1967.9,658.3 
		1967.1,652 1973.8,652.4 1968.4,648.2 1973.8,644 1967.2,644.7 1967.9,638.1 1963.7,643.4 1959.5,638.1 	"/>
	<polygon class="st1" points="1104.9,209.7 1101,219.1 1109.7,213.5 1112.9,223.3 1115.2,213.5 1124.3,217.9 1118.9,209.3 
		1128.5,206.1 1118.7,203.7 1123.1,194.7 1114.5,200.2 1111.2,190.5 1108.9,200 1099.9,195.8 1105.2,204.4 1095.6,207.7 	"/>
	<polygon class="st1" points="1882.9,1079.4 1885,1060 1872.8,1075.4 1860.5,1060 1862.6,1079.4 1843.2,1077.3 1858.9,1089.5 
		1843.2,1101.8 1862.2,1099.8 1860.5,1119.1 1872.8,1103.6 1885,1119.1 1882.6,1100.8 1902.3,1101.8 1886.4,1089.5 1902.3,1077.3 	
		"/>
	<polygon class="st1" points="1288.3,134.5 1296.6,140.9 1288.3,147.3 1298.3,146.3 1297.4,156.4 1303.8,148.3 1310.2,156.4 
		1309,146.8 1319.3,147.3 1311,140.9 1319.3,134.5 1309.1,135.6 1310.2,125.4 1303.8,133.6 1297.4,125.4 1298.5,135.6 	"/>
	<polygon class="st1" points="1622.2,958.6 1612.1,957.5 1620.3,964 1612.1,970.4 1622,969.3 1621.1,979.4 1627.6,971.3 1634,979.4 
		1632.7,969.8 1643,970.4 1634.7,964 1643,957.5 1632.9,958.6 1634,948.5 1627.6,956.6 1621.1,948.5 	"/>
	<polygon class="st1" points="1781.7,231.1 1771.5,230 1779.7,236.4 1771.5,242.8 1781.4,241.8 1780.6,251.9 1787,243.8 
		1793.4,251.9 1792.1,242.3 1802.5,242.8 1794.1,236.4 1802.5,230 1792.3,231.1 1793.4,220.9 1787,229 1780.6,220.9 	"/>
	<polygon class="st1" points="412.5,66.2 411.4,79.8 420,68.9 428.6,79.8 426.9,66.9 440.8,67.6 429.6,59 440.8,50.3 427.1,51.8 
		428.6,38.1 420,49 411.4,38.1 412.8,51.8 399.2,50.3 410.2,59 399.2,67.6 	"/>
	<polygon class="st1" points="1767.2,615.9 1769.8,619.3 1769.3,615.3 1773.6,615.5 1770.1,612.9 1773.6,610.2 1769.4,610.6 
		1769.8,606.4 1767.2,609.8 1764.5,606.4 1765,610.6 1760.8,610.2 1764.2,612.9 1760.8,615.5 1764.9,615.1 1764.5,619.3 	"/>
	<polygon class="st1" points="1155.1,755.4 1155.9,764.8 1162.9,758.2 1171.8,769.4 1170,756.1 1179.4,755.4 1172.8,747.9 
		1184.4,739 1170.2,740.5 1170.4,729.8 1162.9,737.7 1154,726.4 1155.4,740.5 1144.5,740 1152.8,747.9 1141.4,756.8 	"/>
	<polygon class="st1" points="828.7,116.5 825.3,122 831.9,121.2 832.3,131.1 836.7,122.9 842.3,126.3 841.6,119.5 851.7,119.2 
		843.2,114.3 847.7,108.4 840.3,109.7 839.9,99.8 835,108.3 829.1,103.5 830.5,111.3 820.5,111.7 	"/>
	<polygon class="st1" points="1838.7,1964.1 1839.2,1956.7 1833.7,1961.9 1828,1953.8 1828.5,1963.6 1821,1962.9 1826.4,1968.6 
		1818.2,1974.4 1827.8,1973.9 1828,1980.4 1833.1,1976.1 1838.8,1984.1 1838,1974.8 1844.6,1974.7 1840.3,1969.3 1848.5,1963.5 	"/>
	<polygon class="st1" points="1971.7,912.6 1963.8,912.5 1970.1,916.6 1964.8,922.2 1972.5,920.4 1972.4,928.3 1976.2,922 
		1982.1,927.2 1980.2,919.5 1988.2,919.6 1981.7,915.4 1987.2,909.9 1979.5,911.7 1979.6,903.8 1975.4,910.4 1969.9,904.9 	"/>
	<polygon class="st1" points="644.3,1873.9 656.9,1860.8 639.4,1865.1 638.9,1847.2 629.7,1863.1 616.6,1850.4 620.8,1867.4 
		603,1868.4 618.6,1877.5 606.1,1890.7 622.5,1886.1 624.1,1904.2 633.3,1888.2 646.4,1901.1 642,1883.6 660,1883.1 	"/>
	<polygon class="st1" points="964.1,10 975,6.9 976.1,19 982.2,8.3 991,16.9 988,5.3 1000,4.9 991.6,0 970.4,0 972.4,1.2 	"/>
	<polygon class="st1" points="997.9,1990 986.3,1992.9 985.9,1981 979.8,1991.6 971.1,1983.1 973.9,1994.4 962,1995.1 970.4,2000 
		991.6,2000 989.6,1998.8 	"/>
	<polygon class="st1" points="1769.4,1386 1770.6,1374.7 1763.5,1383.7 1756.4,1374.7 1757.5,1386 1746.3,1384.8 1755.4,1391.9 
		1746.3,1399 1757.3,1397.9 1756.4,1409.1 1763.5,1400.1 1770.6,1409.1 1769.2,1398.4 1780.7,1399 1771.4,1391.9 1780.7,1384.8 	"/>
	<polygon class="st1" points="1331.2,1806.2 1332.4,1794.9 1325.3,1803.9 1318.2,1794.9 1319.3,1806.2 1308.1,1805 1317.2,1812.1 
		1308.1,1819.2 1319.1,1818.1 1318.2,1829.3 1325.3,1820.3 1332.4,1829.3 1331,1818.6 1342.5,1819.2 1333.2,1812.1 1342.5,1805 	"/>
	<polygon class="st1" points="1038.6,1527.1 1037.5,1540 1045.7,1529.7 1053.9,1540 1052.2,1527.8 1065.5,1528.5 1054.8,1520.3 
		1065.5,1512.1 1052.5,1513.5 1053.9,1500.5 1045.7,1510.8 1037.5,1500.5 1038.9,1513.5 1025.9,1512.1 1036.4,1520.3 1025.9,1528.5 
			"/>
	<polygon class="st1" points="924.1,1594.2 930.2,1577 916,1588.1 908.2,1571.9 906.3,1590.2 889,1583.9 899.8,1597.8 883.8,1605.9 
		902,1608 895.8,1625.2 909,1614.3 917.9,1630.3 919.7,1611.8 937.1,1618.3 925.9,1604.1 942.2,1596.2 	"/>
	<polygon class="st1" points="462.4,854.1 464.5,834.7 452.3,850.1 440.1,834.7 442.1,854.1 422.8,852 438.5,864.2 422.8,876.4 
		441.7,874.5 440.1,893.8 452.3,878.3 464.5,893.8 462.1,875.4 481.8,876.4 465.9,864.2 481.8,852 	"/>
	<polygon class="st1" points="580.5,301.7 581.8,289.7 574.3,299.3 566.7,289.7 568,301.7 556,300.5 565.7,308 556,315.6 
		567.7,314.4 566.7,326.3 574.3,316.7 581.8,326.3 580.3,315 592.5,315.6 582.7,308 592.5,300.5 	"/>
	<polygon class="st1" points="161.9,317.4 161.3,324.5 165.8,318.8 170.2,324.5 169.3,317.7 176.6,318.1 170.8,313.6 176.6,309.1 
		169.5,309.9 170.2,302.8 165.8,308.5 161.3,302.8 162,309.9 154.9,309.1 160.7,313.6 154.9,318.1 	"/>
	<polygon class="st1" points="250.4,552.9 251.4,544.3 246,551.1 240.6,544.3 241.5,552.9 233,551.9 239.9,557.3 233,562.7 
		241.3,561.8 240.6,570.3 246,563.5 251.4,570.3 250.3,562.3 259,562.7 252,557.3 259,551.9 	"/>
	<polygon class="st1" points="706.9,1490 710.8,1501.6 713.2,1490.4 724.5,1495.2 717.8,1484.7 729.7,1481 717.9,1478.1 
		723.3,1467.3 712.9,1473.7 709.1,1462.1 706.2,1473.8 695.4,1468.4 701.9,1478.9 690.2,1482.7 701.6,1485.5 696.5,1496.4 	"/>
	<polygon class="st1" points="293.8,1142.1 297.6,1153.6 300.1,1142.5 311.4,1147.3 304.7,1136.8 316.6,1133 304.8,1130.1 
		310.2,1119.3 299.8,1125.7 296,1114.1 293,1125.8 282.2,1120.5 288.8,1130.9 277,1134.7 288.5,1137.6 283.4,1148.4 	"/>
	<polygon class="st1" points="787.5,1003.7 773,1013.2 789.1,1011.1 786.6,1026.1 798.6,1013.9 807.8,1025.8 807.7,1011.1 
		824.3,1012.4 811.9,1003.4 826.4,993.9 809.4,995.7 812.8,981 800.9,993.1 791.6,981.3 791.7,995.6 775.1,994.6 	"/>
	<polygon class="st1" points="1424.1,872.1 1411.6,879.4 1426.3,880.2 1422.1,894.3 1432.2,885 1440.1,897.5 1440.8,882.5 1455,887 
		1445.4,876 1458.2,869 1443.5,868.2 1447.7,854.1 1436.7,863.6 1429.7,850.9 1429,865.7 1414.8,861.4 	"/>
	<polygon class="st1" points="735.3,828.6 741.5,822 732.6,824.4 732.4,815.1 727.8,822.8 721,816.8 723.4,825.7 714.2,825.9 
		721.8,830.1 715.9,837.3 724.9,834.7 725,844.1 729.7,836.2 736.3,842.4 734,833.5 743.2,833.3 	"/>
	<polygon class="st1" points="1481.2,444.1 1475.4,451.2 1484.4,448.7 1484.5,458 1489.2,450.2 1495.8,456.4 1493.5,447.5 
		1502.7,447.2 1494.8,442.6 1501,435.9 1492,438.4 1491.8,429.1 1487.3,436.7 1480.5,430.7 1482.9,439.6 1473.7,439.9 	"/>
	<ellipse transform="matrix(0.3808 -0.9247 0.9247 0.3808 3.4185 764.7161)" class="st1" cx="572.7" cy="379.8" rx="8.2" ry="8.2"/>
	
		<ellipse transform="matrix(0.7071 -0.7071 0.7071 0.7071 -39.0209 426.0219)" class="st1" cx="494.7" cy="260.1" rx="8.2" ry="8.2"/>
	<path class="st1" d="M142.6,547c4.5,0,8.2-3.7,8.2-8.2s-3.7-8.2-8.2-8.2c-4.5,0-8.2,3.7-8.2,8.2S138,547,142.6,547z"/>
	<circle class="st1" cx="24.6" cy="426.3" r="14.1"/>
	<circle class="st1" cx="301.3" cy="841.7" r="12.1"/>
	<path class="st1" d="M138.6,1068.5c4.7,0,8.5-3.8,8.5-8.5c0-4.7-3.8-8.5-8.5-8.5c-4.7,0-8.5,3.8-8.5,8.5
		C130,1064.7,133.9,1068.5,138.6,1068.5z"/>
	<path class="st1" d="M891.9,1456.8c4.7,0,8.5-3.8,8.5-8.5s-3.8-8.5-8.5-8.5c-4.7,0-8.5,3.8-8.5,8.5S887.2,1456.8,891.9,1456.8z"/>
	<circle class="st1" cx="690.2" cy="1186.8" r="15"/>
	<circle class="st1" cx="907" cy="1400.4" r="6"/>
	<path class="st1" d="M1292.5,1753.1c-3.3,0-6,2.7-6,6c0,3.3,2.7,6,6,6s6-2.7,6-6C1298.5,1755.8,1295.8,1753.1,1292.5,1753.1z"/>
	<path class="st1" d="M1001,1548.1c0,3.3,2.7,6,6,6c3.3,0,6-2.7,6-6s-2.7-6-6-6C1003.7,1542,1001,1544.7,1001,1548.1z"/>
	
		<ellipse transform="matrix(9.837391e-02 -0.9951 0.9951 9.837391e-02 -1107.8174 1967.3887)" class="st1" cx="531.8" cy="1595.1" rx="8.5" ry="8.5"/>
	<circle class="st1" cx="670" cy="1453" r="6"/>
	<path class="st1" d="M773.6,1400.4c0,2.4,1.9,4.3,4.3,4.3c2.4,0,4.3-1.9,4.3-4.3c0-2.4-1.9-4.3-4.3-4.3
		C775.5,1396.2,773.6,1398.1,773.6,1400.4z"/>
	<path class="st1" d="M580.9,1067c-2.4,0-4.3,1.9-4.3,4.3s1.9,4.3,4.3,4.3c2.4,0,4.3-1.9,4.3-4.3S583.3,1067,580.9,1067z"/>
	<path class="st1" d="M344.7,1154.1c-2.4,0-4.3,1.9-4.3,4.3c0,2.4,1.9,4.3,4.3,4.3s4.3-1.9,4.3-4.3
		C349,1156,347.1,1154.1,344.7,1154.1z"/>
	<path class="st1" d="M607.4,479.5c0-3.2-2.6-5.8-5.8-5.8c-3.2,0-5.8,2.6-5.8,5.8s2.6,5.8,5.8,5.8
		C604.8,485.2,607.4,482.7,607.4,479.5z"/>
	<path class="st1" d="M1469.3,191.2c3.2,0,5.8-2.6,5.8-5.8c0-3.2-2.6-5.8-5.8-5.8s-5.8,2.6-5.8,5.8
		C1463.5,188.6,1466.1,191.2,1469.3,191.2z"/>
	<path class="st1" d="M333.7,726.4c2.4,0,4.3-1.9,4.3-4.3s-1.9-4.3-4.3-4.3s-4.3,1.9-4.3,4.3S331.4,726.4,333.7,726.4z"/>
	<path class="st1" d="M1032.8,1289.9c0,2.4,1.9,4.3,4.3,4.3c2.4,0,4.3-1.9,4.3-4.3c0-2.4-1.9-4.3-4.3-4.3
		C1034.7,1285.6,1032.8,1287.5,1032.8,1289.9z"/>
	<path class="st1" d="M609.7,1320.3c0,2.4,1.9,4.3,4.3,4.3c2.4,0,4.3-1.9,4.3-4.3c0-2.4-1.9-4.3-4.3-4.3
		C611.6,1316,609.7,1317.9,609.7,1320.3z"/>
	<path class="st1" d="M724.4,1217.7c0,2.4,1.9,4.3,4.3,4.3s4.3-1.9,4.3-4.3s-1.9-4.3-4.3-4.3S724.4,1215.4,724.4,1217.7z"/>
	<circle class="st1" cx="124.2" cy="1619.2" r="6.7"/>
	<path class="st1" d="M828.1,633.8c0-2.9-2.2-5.2-4.9-5.2c-2.7,0-4.9,2.3-4.9,5.2s2.2,5.2,4.9,5.2
		C825.9,639,828.1,636.7,828.1,633.8z"/>
	<path class="st1" d="M513.3,855.7c-4.7,0-8.5,3.8-8.5,8.5c0,4.7,3.8,8.5,8.5,8.5c4.7,0,8.5-3.8,8.5-8.5
		C521.8,859.5,518,855.7,513.3,855.7z"/>
	<circle class="st1" cx="452.3" cy="1322.8" r="6.8"/>
	<path class="st1" d="M309.1,1381.4c-6.8,0-12.3,5.5-12.3,12.3c0,6.8,5.5,12.3,12.3,12.3c6.8,0,12.3-5.5,12.3-12.3
		C321.4,1387,315.9,1381.4,309.1,1381.4z"/>
	<path class="st1" d="M131.8,1699.8c-4.2,0-7.7,3.4-7.7,7.7s3.4,7.7,7.7,7.7c4.2,0,7.7-3.4,7.7-7.7S136.1,1699.8,131.8,1699.8z"/>
	<path class="st1" d="M1303.8,1320.3c-2.4,0-4.3,1.9-4.3,4.3c0,2.4,1.9,4.3,4.3,4.3s4.3-1.9,4.3-4.3
		C1308.1,1322.2,1306.2,1320.3,1303.8,1320.3z"/>
	<path class="st1" d="M1683.9,1166.9c0-4.9-4-9-9-9s-9,4-9,9c0,4.9,4,9,9,9S1683.9,1171.8,1683.9,1166.9z"/>
	<circle class="st1" cx="1558.4" cy="1000" r="6.3"/>
	<circle class="st1" cx="1670.7" cy="1280.5" r="4.3"/>
	<path class="st1" d="M1924.8,1119.1c0-2.4-1.9-4.3-4.3-4.3c-2.4,0-4.3,1.9-4.3,4.3c0,2.4,1.9,4.3,4.3,4.3
		C1922.9,1123.3,1924.8,1121.4,1924.8,1119.1z"/>
	<circle class="st1" cx="1114.8" cy="1432.4" r="4.3"/>
	<circle class="st1" cx="498.3" cy="939.4" r="4.3"/>
	<path class="st1" d="M670,1699c-2.4,0-4.3,1.9-4.3,4.3c0,2.4,1.9,4.3,4.3,4.3c2.4,0,4.3-1.9,4.3-4.3
		C674.3,1700.9,672.4,1699,670,1699z"/>
	<path class="st1" d="M676,1581.9c-2.4,0-4.3,1.9-4.3,4.3s1.9,4.3,4.3,4.3c2.4,0,4.3-1.9,4.3-4.3S678.4,1581.9,676,1581.9z"/>
	<path class="st1" d="M325.7,1486.1c2.4,0,4.3-1.9,4.3-4.3c0-2.4-1.9-4.3-4.3-4.3c-2.4,0-4.3,1.9-4.3,4.3
		C321.4,1484.2,323.3,1486.1,325.7,1486.1z"/>
	<path class="st1" d="M1061.7,1080.2c0,3.5,2.8,6.3,6.3,6.3s6.3-2.8,6.3-6.3c0-3.5-2.8-6.3-6.3-6.3S1061.7,1076.7,1061.7,1080.2z"/>
	<path class="st1" d="M828.5,874.2c0,3.5,2.8,6.3,6.3,6.3c3.5,0,6.3-2.8,6.3-6.3c0-3.5-2.8-6.3-6.3-6.3
		C831.4,867.8,828.5,870.7,828.5,874.2z"/>
	<path class="st1" d="M1127.8,1272c0,2.4,1.9,4.3,4.3,4.3c2.4,0,4.3-1.9,4.3-4.3c0-2.4-1.9-4.3-4.3-4.3
		C1129.7,1267.7,1127.8,1269.6,1127.8,1272z"/>
	<path class="st1" d="M1780.7,1158.3c-2.4,0-4.3,1.9-4.3,4.3c0,2.4,1.9,4.3,4.3,4.3c2.4,0,4.3-1.9,4.3-4.3
		C1784.9,1160.2,1783,1158.3,1780.7,1158.3z"/>
	<circle class="st1" cx="1524.8" cy="1036.7" r="4.3"/>
	<path class="st1" d="M1362.2,679.3c2.4,0,4.3-1.9,4.3-4.3c0-2.4-1.9-4.3-4.3-4.3c-2.4,0-4.3,1.9-4.3,4.3
		C1358,677.4,1359.9,679.3,1362.2,679.3z"/>
	<path class="st1" d="M1253.3,873c2.4,0,4.3-1.9,4.3-4.3c0-2.4-1.9-4.3-4.3-4.3c-2.4,0-4.3,1.9-4.3,4.3
		C1249,871.1,1251,873,1253.3,873z"/>
	<path class="st1" d="M527.6,1414c0,2.4,1.9,4.3,4.3,4.3c2.4,0,4.3-1.9,4.3-4.3c0-2.4-1.9-4.3-4.3-4.3
		C529.5,1409.7,527.6,1411.6,527.6,1414z"/>
	<path class="st1" d="M1330.2,1464.2c-2.4,0-4.3,1.9-4.3,4.3s1.9,4.3,4.3,4.3c2.4,0,4.3-1.9,4.3-4.3S1332.6,1464.2,1330.2,1464.2z"
		/>
	<path class="st1" d="M1395,292.1c2.5,0,4.5-2,4.5-4.5c0-2.5-2-4.5-4.5-4.5s-4.5,2-4.5,4.5C1390.4,290.1,1392.5,292.1,1395,292.1z"
		/>
	<path class="st1" d="M1547.2,356.1c0-2.4-1.9-4.3-4.3-4.3c-2.4,0-4.3,1.9-4.3,4.3c0,2.4,1.9,4.3,4.3,4.3
		C1545.3,360.4,1547.2,358.5,1547.2,356.1z"/>
	<path class="st1" d="M1315,177c0,2.4,1.9,4.3,4.3,4.3c2.4,0,4.3-1.9,4.3-4.3s-1.9-4.3-4.3-4.3C1317,172.8,1315,174.7,1315,177z"/>
	<path class="st1" d="M1434.9,465.5c2.4,0,4.3-1.9,4.3-4.3s-1.9-4.3-4.3-4.3c-2.4,0-4.3,1.9-4.3,4.3S1432.6,465.5,1434.9,465.5z"/>
	<path class="st1" d="M1872.9,413.5c0,3.6,2.9,6.5,6.5,6.5c3.6,0,6.5-2.9,6.5-6.5c0-3.6-2.9-6.5-6.5-6.5
		C1875.8,407,1872.9,409.9,1872.9,413.5z"/>
	<path class="st1" d="M1283.9,752.2c0,2.4,1.9,4.3,4.3,4.3c2.4,0,4.3-1.9,4.3-4.3c0-2.4-1.9-4.3-4.3-4.3
		C1285.8,747.9,1283.9,749.8,1283.9,752.2z"/>
	<circle class="st1" cx="861.5" cy="985.1" r="6.8"/>
	<path class="st1" d="M233,1272c-2.4,0-4.3,1.9-4.3,4.3c0,2.4,1.9,4.3,4.3,4.3s4.3-1.9,4.3-4.3C237.3,1273.9,235.4,1272,233,1272z"
		/>
	<path class="st1" d="M276.4,1414c-3.3,0-5.9,2.6-5.9,5.9c0,3.3,2.6,5.9,5.9,5.9c3.3,0,5.9-2.7,5.9-5.9
		C282.3,1416.7,279.7,1414,276.4,1414z"/>
	<path class="st1" d="M1444.5,764.7c2.4,0,4.3-1.9,4.3-4.3c0-2.4-1.9-4.3-4.3-4.3c-2.4,0-4.3,1.9-4.3,4.3
		C1440.2,762.8,1442.1,764.7,1444.5,764.7z"/>
	
		<ellipse transform="matrix(0.1803 -0.9836 0.9836 0.1803 255.5024 1265.5721)" class="st1" cx="887.1" cy="479.5" rx="6.6" ry="6.6"/>
	<path class="st1" d="M844,562.7c0-2-1.5-3.6-3.4-3.6c-1.9,0-3.4,1.6-3.4,3.6c0,2,1.5,3.6,3.4,3.6C842.5,566.3,844,564.7,844,562.7z
		"/>
	<path class="st1" d="M556,426.3c2.4,0,4.3-1.9,4.3-4.3c0-2.4-1.9-4.3-4.3-4.3c-2.4,0-4.3,1.9-4.3,4.3
		C551.7,424.4,553.6,426.3,556,426.3z"/>
	<path class="st1" d="M448,598c0,2.4,1.9,4.3,4.3,4.3c2.4,0,4.3-1.9,4.3-4.3c0-2.4-1.9-4.3-4.3-4.3C449.9,593.7,448,595.6,448,598z"
		/>
	<path class="st1" d="M1413.5,32.2c2.4,0,4.3-1.9,4.3-4.3c0-2.4-1.9-4.3-4.3-4.3c-2.4,0-4.3,1.9-4.3,4.3
		C1409.3,30.3,1411.2,32.2,1413.5,32.2z"/>
	<path class="st1" d="M1761.6,768.1c3.1,0,5.6-2.5,5.6-5.6c0-3.1-2.5-5.6-5.6-5.6c-3.1,0-5.6,2.5-5.6,5.6
		C1756,765.6,1758.5,768.1,1761.6,768.1z"/>
	<path class="st1" d="M1713.8,94.2c3.1,0,5.6-2.5,5.6-5.6c0-3.1-2.5-5.6-5.6-5.6s-5.6,2.5-5.6,5.6
		C1708.3,91.7,1710.8,94.2,1713.8,94.2z"/>
	<path class="st1" d="M1776.4,28.3c5.1,0,9.3-4.2,9.3-9.3c0-5.1-4.2-9.3-9.3-9.3s-9.3,4.2-9.3,9.3
		C1767.1,24.1,1771.3,28.3,1776.4,28.3z"/>
	<path class="st1" d="M1167.1,415.8c2.4,0,4.3-1.9,4.3-4.3s-1.9-4.3-4.3-4.3c-2.4,0-4.3,1.9-4.3,4.3S1164.8,415.8,1167.1,415.8z"/>
	<path class="st1" d="M1194.3,23.3c2.4,0,4.3-1.9,4.3-4.3s-1.9-4.3-4.3-4.3s-4.3,1.9-4.3,4.3S1191.9,23.3,1194.3,23.3z"/>
	<path class="st1" d="M1058.6,671.1c2.4,0,4.3-1.9,4.3-4.3s-1.9-4.3-4.3-4.3c-2.4,0-4.3,1.9-4.3,4.3S1056.2,671.1,1058.6,671.1z"/>
	<path class="st1" d="M773,974.1c-2.4,0-4.3,1.9-4.3,4.3s1.9,4.3,4.3,4.3c2.4,0,4.3-1.9,4.3-4.3S775.4,974.1,773,974.1z"/>
	<path class="st1" d="M456.6,309.7c0,2.4,1.9,4.3,4.3,4.3s4.3-1.9,4.3-4.3c0-2.4-1.9-4.3-4.3-4.3S456.6,307.3,456.6,309.7z"/>
	<path class="st1" d="M778.3,84.1c2.4,0,4.3-1.9,4.3-4.3c0-2.4-1.9-4.3-4.3-4.3c-2.4,0-4.3,1.9-4.3,4.3
		C774,82.1,775.9,84.1,778.3,84.1z"/>
	<circle class="st1" cx="1784.9" cy="736.3" r="4.3"/>
	<circle class="st1" cx="1924.8" cy="657" r="4.3"/>
	<path class="st1" d="M1752.2,1493.4c0-3.8-3.1-6.9-6.9-6.9c-3.8,0-6.9,3.1-6.9,6.9c0,3.8,3.1,6.9,6.9,6.9
		C1749.1,1500.3,1752.2,1497.2,1752.2,1493.4z"/>
	
		<ellipse transform="matrix(8.248068e-02 -0.9966 0.9966 8.248068e-02 -1752.9171 1707.4497)" class="st1" cx="50.8" cy="1805.7" rx="9.3" ry="9.3"/>
	<path class="st1" d="M583.4,1897.3c-2.4,0-4.3,1.9-4.3,4.3s1.9,4.3,4.3,4.3c2.4,0,4.3-1.9,4.3-4.3S585.8,1897.3,583.4,1897.3z"/>
	<path class="st1" d="M637.2,897.4c2.4,0,4.3-1.9,4.3-4.3s-1.9-4.3-4.3-4.3s-4.3,1.9-4.3,4.3S634.8,897.4,637.2,897.4z"/>
	<path class="st1" d="M1739.9,415.2c2.4,0,4.3-1.9,4.3-4.3c0-2.4-1.9-4.3-4.3-4.3c-2.4,0-4.3,1.9-4.3,4.3
		C1735.7,413.3,1737.6,415.2,1739.9,415.2z"/>
	<path class="st1" d="M217.7,129.7c2.4,0,4.3-1.9,4.3-4.3c0-2.4-1.9-4.3-4.3-4.3c-2.4,0-4.3,1.9-4.3,4.3
		C213.4,127.8,215.3,129.7,217.7,129.7z"/>
	<circle class="st1" cx="250.5" cy="32.2" r="7"/>
	<path class="st1" d="M52.1,270.4c5.7-0.7,9.7-5.9,9-11.5c-0.7-5.7-5.9-9.7-11.5-9c-5.7,0.7-9.7,5.9-9,11.5
		C41.3,267.1,46.5,271.1,52.1,270.4z"/>
	
		<ellipse transform="matrix(0.3827 -0.9239 0.9239 0.3827 -432.0363 2855.2432)" class="st1" cx="1920.6" cy="1750.9" rx="7.4" ry="7.4"/>
	<circle class="st1" cx="1532.3" cy="1767.9" r="4.3"/>
	<path class="st1" d="M1413.5,1858.7c-3.7,0-6.7,3-6.7,6.7c0,3.7,3,6.7,6.7,6.7c3.7,0,6.7-3,6.7-6.7
		C1420.2,1861.6,1417.2,1858.7,1413.5,1858.7z"/>
	<circle class="st1" cx="1940.2" cy="1324.6" r="4.3"/>
	<path class="st1" d="M978.8,1319.9c4.9,0,8.9-4,8.9-8.9c0-4.9-4-8.9-8.9-8.9s-8.9,4-8.9,8.9
		C969.9,1315.9,973.9,1319.9,978.8,1319.9z"/>
	<circle class="st1" cx="1451.8" cy="1840.8" r="11.5"/>
	<circle class="st1" cx="1157.7" cy="1961" r="7"/>
	<path class="st1" d="M1893.1,862.3c2.4,0,4.3-1.9,4.3-4.3c0-2.4-1.9-4.3-4.3-4.3s-4.3,1.9-4.3,4.3
		C1888.8,860.3,1890.8,862.3,1893.1,862.3z"/>
	<circle class="st1" cx="1843.2" cy="985.1" r="10"/>
	<path class="st1" d="M1292.5,1353.4c-3.9,0-7.1,3.2-7.1,7.1s3.2,7.1,7.1,7.1c3.9,0,7.1-3.2,7.1-7.1S1296.4,1353.4,1292.5,1353.4z"
		/>
	<path class="st1" d="M1797.9,1399.1c-5.5,0-10,4.5-10,10c0,5.5,4.5,10,10,10c5.5,0,10-4.5,10-10
		C1807.8,1403.6,1803.4,1399.1,1797.9,1399.1z"/>
	<circle class="st1" cx="755.7" cy="1808" r="10"/>
	
		<ellipse transform="matrix(0.385 -0.9229 0.9229 0.385 -705.1558 1725.5809)" class="st1" cx="942.2" cy="1391.9" rx="10" ry="10"/>
	<path class="st1" d="M1012.4,967.9c2.4,0,4.3-1.9,4.3-4.3s-1.9-4.3-4.3-4.3s-4.3,1.9-4.3,4.3S1010.1,967.9,1012.4,967.9z"/>
	<path class="st1" d="M1645.6,1647.8c2.4,0,4.3-1.9,4.3-4.3c0-2.4-1.9-4.3-4.3-4.3c-2.4,0-4.3,1.9-4.3,4.3
		C1641.4,1645.9,1643.3,1647.8,1645.6,1647.8z"/>
	<path class="st1" d="M883.8,1956.7c-2.4,0-4.3,1.9-4.3,4.3c0,2.4,1.9,4.3,4.3,4.3c2.4,0,4.3-1.9,4.3-4.3
		C888.1,1958.6,886.2,1956.7,883.8,1956.7z"/>
	<path class="st1" d="M90.9,1883.5c-2.4,0-4.3,1.9-4.3,4.3c0,2.4,1.9,4.3,4.3,4.3s4.3-1.9,4.3-4.3
		C95.2,1885.4,93.3,1883.5,90.9,1883.5z"/>
	<path class="st1" d="M427.8,1534.1c0,2.4,1.9,4.3,4.3,4.3s4.3-1.9,4.3-4.3c0-2.4-1.9-4.3-4.3-4.3S427.8,1531.8,427.8,1534.1z"/>
	<path class="st1" d="M255.1,1093.9c-2.4,0-4.3,1.9-4.3,4.3s1.9,4.3,4.3,4.3s4.3-1.9,4.3-4.3S257.5,1093.9,255.1,1093.9z"/>
	<path class="st1" d="M527.6,1741.6c-2.4,0-4.3,1.9-4.3,4.3s1.9,4.3,4.3,4.3s4.3-1.9,4.3-4.3S529.9,1741.6,527.6,1741.6z"/>
	<path class="st1" d="M1665.8,932.9c0,3.6,2.9,6.5,6.5,6.5s6.5-2.9,6.5-6.5c0-3.6-2.9-6.5-6.5-6.5S1665.8,929.3,1665.8,932.9z"/>
	<circle class="st1" cx="1145.1" cy="931.1" r="10.1"/>
	<path class="st1" d="M844.5,189.7c0,2.4,1.9,4.3,4.3,4.3c2.4,0,4.3-1.9,4.3-4.3s-1.9-4.3-4.3-4.3
		C846.4,185.4,844.5,187.3,844.5,189.7z"/>
	<path class="st1" d="M609.7,752.2c0-3.3-2.7-6-6-6c-3.3,0-6,2.7-6,6c0,3.3,2.7,6,6,6C607,758.2,609.7,755.5,609.7,752.2z"/>
	<path class="st1" d="M1148.3,279.9c7.4-0.4,13.1-6.6,12.7-14c-0.4-7.4-6.6-13.1-14-12.7c-7.4,0.4-13.1,6.6-12.7,14
		C1134.6,274.5,1140.9,280.2,1148.3,279.9z"/>
	<circle class="st1" cx="1956.9" cy="274.1" r="4.3"/>
	<path class="st1" d="M1877,125.4c0-2.4-1.9-4.3-4.3-4.3c-2.4,0-4.3,1.9-4.3,4.3c0,2.4,1.9,4.3,4.3,4.3
		C1875.1,129.7,1877,127.8,1877,125.4z"/>
	<path class="st1" d="M1711.6,288.8c-2.4,0-4.3,1.9-4.3,4.3c0,2.4,1.9,4.3,4.3,4.3c2.4,0,4.3-1.9,4.3-4.3
		C1715.8,290.7,1713.9,288.8,1711.6,288.8z"/>
	<path class="st1" d="M1030.4,242.5c2.4,0,4.3-1.9,4.3-4.3s-1.9-4.3-4.3-4.3c-2.4,0-4.3,1.9-4.3,4.3S1028,242.5,1030.4,242.5z"/>
	<path class="st1" d="M1058.6,282.1c5.2,0,9.4-4.2,9.4-9.4c0-5.2-4.2-9.4-9.4-9.4s-9.4,4.2-9.4,9.4
		C1049.2,277.9,1053.4,282.1,1058.6,282.1z"/>
	<path class="st1" d="M1633.1,1548.8c-5.8,0-10.5,4.7-10.5,10.5s4.7,10.5,10.5,10.5c5.8,0,10.5-4.7,10.5-10.5
		S1638.9,1548.8,1633.1,1548.8z"/>
	
		<ellipse transform="matrix(0.9871 -0.1602 0.1602 0.9871 -182.6772 328.747)" class="st1" cx="1947.7" cy="1297.4" rx="7.6" ry="7.6"/>
	<path class="st1" d="M747,520c0-2.4-1.9-4.3-4.3-4.3s-4.3,1.9-4.3,4.3c0,2.4,1.9,4.3,4.3,4.3S747,522.4,747,520z"/>
	<circle class="st1" cx="376.2" cy="732" r="6.7"/>
	<path class="st1" d="M1763.5,374.1c3,0,5.4-2.4,5.4-5.4s-2.4-5.4-5.4-5.4c-3,0-5.4,2.4-5.4,5.4S1760.5,374.1,1763.5,374.1z"/>
	<circle class="st1" cx="891.3" cy="214.6" r="10.4"/>
	<circle class="st1" cx="620.1" cy="58.6" r="10.4"/>
	
		<ellipse transform="matrix(0.7071 -0.7071 0.7071 0.7071 -130.7529 1391.7908)" class="st1" cx="1614.7" cy="853.7" rx="10.4" ry="10.4"/>
	<circle class="st1" cx="69.9" cy="673.5" r="9"/>
	<polygon class="st1" points="1939.3,452.4 1949,442.6 1935.5,444.5 1928.5,431.8 1925.8,445.8 1911.9,448 1924.3,454.5 
		1922.1,468.8 1932.5,459.1 1945.1,465.4 	"/>
	<polygon class="st1" points="33.2,318.6 32.5,327.1 37.8,320.3 43.2,327.1 42.1,319.1 50.8,319.5 43.8,314.1 50.8,308.7 
		42.3,309.7 43.2,301.1 37.8,307.9 32.5,301.1 33.4,309.7 24.8,308.7 31.8,314.1 24.8,319.5 	"/>
	
		<ellipse transform="matrix(0.9732 -0.2298 0.2298 0.9732 -16.1585 452.3412)" class="st1" cx="1934.4" cy="295.6" rx="8.2" ry="8.2"/>
	<path class="st1" d="M1994.4,386c2.4,0,4.3-1.9,4.3-4.3c0-2.4-1.9-4.3-4.3-4.3s-4.3,1.9-4.3,4.3C1990.1,384.1,1992,386,1994.4,386z
		"/>
	<path class="st1" d="M1983.4,468.7c3,0,5.4-2.4,5.4-5.4c0-3-2.4-5.4-5.4-5.4c-3,0-5.4,2.4-5.4,5.4
		C1977.9,466.3,1980.4,468.7,1983.4,468.7z"/>
	<path class="st1" d="M90.9,466.4c3,0,5.4-2.4,5.4-5.4c0-3-2.4-5.4-5.4-5.4c-3,0-5.4,2.4-5.4,5.4C85.5,464,87.9,466.4,90.9,466.4z"
		/>
	<path class="st1" d="M246,999c-3,0-5.4,2.4-5.4,5.4c0,3,2.4,5.4,5.4,5.4s5.4-2.4,5.4-5.4C251.4,1001.4,249,999,246,999z"/>
	<path class="st1" d="M1348.5,618.9c0-3.3-2.7-6.1-6.1-6.1s-6.1,2.7-6.1,6.1c0,3.3,2.7,6.1,6.1,6.1S1348.5,622.2,1348.5,618.9z"/>
	<path class="st1" d="M44.7,967.9c0-3.3-2.7-6.1-6.1-6.1c-3.3,0-6.1,2.7-6.1,6.1c0,3.3,2.7,6.1,6.1,6.1
		C42,973.9,44.7,971.2,44.7,967.9z"/>
	<circle class="st1" cx="1292.5" cy="461" r="6.1"/>
	<circle class="st1" cx="1232.7" cy="38.1" r="10.9"/>
	<path class="st1" d="M1490.4,693.7c-3.5,0-6.4,2.9-6.4,6.4s2.9,6.4,6.4,6.4s6.4-2.9,6.4-6.4S1493.9,693.7,1490.4,693.7z"/>
	<path class="st1" d="M578,1983.2c-3,0-5.5,2.4-5.5,5.5c0,3,2.4,5.5,5.5,5.5c3,0,5.5-2.4,5.5-5.5
		C583.4,1985.6,581,1983.2,578,1983.2z"/>
	<path class="st1" d="M1012.4,1692.4c-3,0-5.5,2.4-5.5,5.5c0,3,2.4,5.5,5.5,5.5c3,0,5.5-2.4,5.5-5.5
		C1017.9,1694.8,1015.5,1692.4,1012.4,1692.4z"/>
	<path class="st1" d="M1796.1,274.1c0,3.5,2.9,6.4,6.4,6.4s6.4-2.9,6.4-6.4s-2.9-6.4-6.4-6.4S1796.1,270.6,1796.1,274.1z"/>
	<path class="st1" d="M1948.1,161.5c4.5,0,8.1-3.6,8.1-8.1c0-4.5-3.6-8.1-8.1-8.1c-4.5,0-8.1,3.6-8.1,8.1
		C1940,157.9,1943.6,161.5,1948.1,161.5z"/>
	<path class="st1" d="M50.8,479.5c0,3.5,2.9,6.4,6.4,6.4s6.4-2.9,6.4-6.4s-2.9-6.4-6.4-6.4S50.8,476,50.8,479.5z"/>
	<path class="st1" d="M1705.8,1182.2c0,3.5,2.9,6.4,6.4,6.4s6.4-2.9,6.4-6.4s-2.9-6.4-6.4-6.4S1705.8,1178.7,1705.8,1182.2z"/>
	<path class="st1" d="M1521.1,1440.6c-3.5,0-6.4,2.9-6.4,6.4s2.9,6.4,6.4,6.4s6.4-2.9,6.4-6.4S1524.6,1440.6,1521.1,1440.6z"/>
	<path class="st1" d="M1141.4,1163.6c3.5,0,6.4-2.9,6.4-6.4s-2.9-6.4-6.4-6.4s-6.4,2.9-6.4,6.4S1137.8,1163.6,1141.4,1163.6z"/>
	<path class="st1" d="M1241.8,1610c3.5,0,6.4-2.9,6.4-6.4s-2.9-6.4-6.4-6.4s-6.4,2.9-6.4,6.4S1238.3,1610,1241.8,1610z"/>
	<path class="st1" d="M1043.4,947.6c0-3.5-2.9-6.4-6.4-6.4s-6.4,2.9-6.4,6.4s2.9,6.4,6.4,6.4S1043.4,951.2,1043.4,947.6z"/>
	<path class="st1" d="M1090.6,1805.7c-3.5,0-6.4,2.9-6.4,6.4s2.9,6.4,6.4,6.4s6.4-2.9,6.4-6.4S1094.2,1805.7,1090.6,1805.7z"/>
	<circle class="st1" cx="664" cy="1823.5" r="9.5"/>
	<circle class="st1" cx="422.8" cy="1781.6" r="13.6"/>
	<path class="st1" d="M1727.9,1735.9c0,3.3,2.7,6,6,6c3.3,0,6-2.7,6-6s-2.7-6-6-6C1730.6,1729.9,1727.9,1732.6,1727.9,1735.9z"/>
	<path class="st1" d="M1132,1847.2c-2.5,0-4.5,2-4.5,4.5c0,2.5,2,4.5,4.5,4.5s4.5-2,4.5-4.5
		C1136.6,1849.2,1134.5,1847.2,1132,1847.2z"/>
	<path class="st1" d="M988.8,1777.1c-2.5,0-4.5,2-4.5,4.5c0,2.5,2,4.5,4.5,4.5c2.5,0,4.5-2,4.5-4.5
		C993.3,1779.1,991.3,1777.1,988.8,1777.1z"/>
	<path class="st1" d="M215.7,1880.5c-4,0-7.3,3.3-7.3,7.3s3.3,7.3,7.3,7.3s7.3-3.3,7.3-7.3S219.8,1880.5,215.7,1880.5z"/>
	<path class="st1" d="M1076.8,1641.7c-2.5,0-4.5,2-4.5,4.5c0,2.5,2,4.5,4.5,4.5c2.5,0,4.5-2,4.5-4.5
		C1081.3,1643.7,1079.3,1641.7,1076.8,1641.7z"/>
	<path class="st1" d="M709.9,1798c0,3.6,2.9,6.5,6.5,6.5c3.6,0,6.5-2.9,6.5-6.5c0-3.6-2.9-6.5-6.5-6.5
		C712.8,1791.5,709.9,1794.4,709.9,1798z"/>
	<path class="st1" d="M552,1625.8c-2.5,0-4.5,2-4.5,4.5s2,4.5,4.5,4.5c2.5,0,4.5-2,4.5-4.5S554.5,1625.8,552,1625.8z"/>
	<circle class="st1" cx="267" cy="1965.3" r="4.5"/>
	<circle class="st1" cx="348.3" cy="1777.1" r="3.9"/>
	<path class="st1" d="M228.7,1530.3c-2.1,0-3.9,1.7-3.9,3.9s1.7,3.9,3.9,3.9c2.1,0,3.9-1.7,3.9-3.9S230.9,1530.3,228.7,1530.3z"/>
	<path class="st1" d="M95.2,1363.8c-2.1,0-3.9,1.7-3.9,3.9c0,2.1,1.7,3.9,3.9,3.9c2.1,0,3.9-1.7,3.9-3.9
		C99,1365.5,97.3,1363.8,95.2,1363.8z"/>
	<circle class="st1" cx="274.8" cy="824.8" r="3.9"/>
	<path class="st1" d="M850.2,1036.7c0,2.5,2,4.5,4.5,4.5s4.5-2,4.5-4.5c0-2.5-2-4.5-4.5-4.5S850.2,1034.2,850.2,1036.7z"/>
	<path class="st1" d="M502.8,890.9c-2.5,0-4.5,2-4.5,4.5c0,2.5,2,4.5,4.5,4.5c2.5,0,4.5-2,4.5-4.5
		C507.4,892.9,505.3,890.9,502.8,890.9z"/>
	<path class="st1" d="M287.2,535.1c2.5,0,4.5-2,4.5-4.5s-2-4.5-4.5-4.5c-2.5,0-4.5,2-4.5,4.5S284.7,535.1,287.2,535.1z"/>
	<path class="st1" d="M758.9,837.9c1.8,0,3.2-1.4,3.2-3.2c0-1.8-1.4-3.2-3.2-3.2s-3.2,1.4-3.2,3.2
		C755.7,836.4,757.1,837.9,758.9,837.9z"/>
	<path class="st1" d="M648.5,728.5c1.8,0,3.2-1.4,3.2-3.2c0-1.8-1.4-3.2-3.2-3.2c-1.8,0-3.2,1.4-3.2,3.2
		C645.3,727.1,646.7,728.5,648.5,728.5z"/>
	<path class="st1" d="M439.6,1033.6c0-1.8-1.4-3.2-3.2-3.2c-1.8,0-3.2,1.4-3.2,3.2s1.4,3.2,3.2,3.2
		C438.2,1036.8,439.6,1035.4,439.6,1033.6z"/>
	<path class="st1" d="M1270.6,331c1.9,0,3.4-1.5,3.4-3.4c0-1.9-1.5-3.4-3.4-3.4c-1.9,0-3.4,1.5-3.4,3.4
		C1267.1,329.4,1268.7,331,1270.6,331z"/>
	<path class="st1" d="M888.1,272.7c0,1.8,1.4,3.2,3.2,3.2c1.8,0,3.2-1.4,3.2-3.2c0-1.8-1.4-3.2-3.2-3.2
		C889.6,269.5,888.1,270.9,888.1,272.7z"/>
	<path class="st1" d="M623.2,95.2c0-1.8-1.4-3.2-3.2-3.2c-1.8,0-3.2,1.4-3.2,3.2c0,1.8,1.4,3.2,3.2,3.2
		C621.8,98.4,623.2,97,623.2,95.2z"/>
	<path class="st1" d="M975.3,1154.1c0-1.8-1.4-3.2-3.2-3.2c-1.8,0-3.2,1.4-3.2,3.2s1.4,3.2,3.2,3.2
		C973.9,1157.3,975.3,1155.8,975.3,1154.1z"/>
	<path class="st1" d="M1041.3,1657.7c1.8,0,3.2-1.4,3.2-3.2s-1.4-3.2-3.2-3.2c-1.8,0-3.2,1.4-3.2,3.2S1039.5,1657.7,1041.3,1657.7z"
		/>
	<path class="st1" d="M1502.7,1353.4c0-1.8-1.4-3.2-3.2-3.2c-1.8,0-3.2,1.4-3.2,3.2c0,1.8,1.4,3.2,3.2,3.2
		C1501.3,1356.6,1502.7,1355.2,1502.7,1353.4z"/>
	<path class="st1" d="M1438.8,1966.6c-1.8,0-3.2,1.4-3.2,3.2c0,1.8,1.4,3.2,3.2,3.2c1.8,0,3.2-1.4,3.2-3.2
		C1442,1968.1,1440.6,1966.6,1438.8,1966.6z"/>
	<path class="st1" d="M1476.8,1253.3c0,1.8,1.4,3.2,3.2,3.2c1.8,0,3.2-1.4,3.2-3.2c0-1.8-1.4-3.2-3.2-3.2
		C1478.2,1250.1,1476.8,1251.6,1476.8,1253.3z"/>
	<circle class="st1" cx="1262.6" cy="1400.4" r="3.2"/>
	<path class="st1" d="M81.3,1627.2c-1.8,0-3.2,1.4-3.2,3.2s1.4,3.2,3.2,3.2c1.8,0,3.2-1.4,3.2-3.2S83.1,1627.2,81.3,1627.2z"/>
	<path class="st1" d="M1629.8,355.1c1.8,0,3.2-1.4,3.2-3.2c0-1.8-1.4-3.2-3.2-3.2c-1.8,0-3.2,1.4-3.2,3.2
		C1626.6,353.7,1628,355.1,1629.8,355.1z"/>
	<path class="st1" d="M1277.6,197.1c1.8,0,3.2-1.4,3.2-3.2c0-1.8-1.4-3.2-3.2-3.2c-1.8,0-3.2,1.4-3.2,3.2
		C1274.4,195.7,1275.8,197.1,1277.6,197.1z"/>
	<path class="st1" d="M1003.1,448.9c1.8,0,3.2-1.4,3.2-3.2c0-1.8-1.4-3.2-3.2-3.2s-3.2,1.4-3.2,3.2
		C999.9,447.5,1001.3,448.9,1003.1,448.9z"/>
	<path class="st1" d="M1115.3,281.2c0-1.8-1.4-3.2-3.2-3.2c-1.8,0-3.2,1.4-3.2,3.2c0,1.8,1.4,3.2,3.2,3.2
		C1113.8,284.4,1115.3,283,1115.3,281.2z"/>
	<path class="st1" d="M1673.9,263.3c0-1.8-1.4-3.2-3.2-3.2c-1.8,0-3.2,1.4-3.2,3.2c0,1.8,1.4,3.2,3.2,3.2
		C1672.4,266.5,1673.9,265.1,1673.9,263.3z"/>
	<path class="st1" d="M317.6,450c1.8,0,3.2-1.4,3.2-3.2c0-1.8-1.4-3.2-3.2-3.2c-1.8,0-3.2,1.4-3.2,3.2
		C314.5,448.5,315.9,450,317.6,450z"/>
	<path class="st1" d="M343.1,169c1.8,0,3.2-1.4,3.2-3.2c0-1.8-1.4-3.2-3.2-3.2c-1.8,0-3.2,1.4-3.2,3.2
		C339.9,167.6,341.3,169,343.1,169z"/>
	<circle class="st1" cx="225.1" cy="55.5" r="3.2"/>
	<path class="st1" d="M73.1,75.4c1.8,0,3.2-1.4,3.2-3.2c0-1.8-1.4-3.2-3.2-3.2c-1.8,0-3.2,1.4-3.2,3.2C69.9,74,71.3,75.4,73.1,75.4z
		"/>
	<path class="st1" d="M1964.5,849.5c0-1.8-1.4-3.2-3.2-3.2c-1.8,0-3.2,1.4-3.2,3.2s1.4,3.2,3.2,3.2
		C1963.1,852.7,1964.5,851.2,1964.5,849.5z"/>
	<path class="st1" d="M1213.3,1133.9c0-1.8-1.4-3.2-3.2-3.2s-3.2,1.4-3.2,3.2s1.4,3.2,3.2,3.2S1213.3,1135.6,1213.3,1133.9z"/>
	<path class="st1" d="M1955.3,1727.4c-1.8,0-3.2,1.4-3.2,3.2c0,1.8,1.4,3.2,3.2,3.2c1.8,0,3.2-1.4,3.2-3.2
		C1958.5,1728.8,1957.1,1727.4,1955.3,1727.4z"/>
	<path class="st1" d="M1696.2,1458.4c-1.8,0-3.2,1.4-3.2,3.2s1.4,3.2,3.2,3.2c1.8,0,3.2-1.4,3.2-3.2S1698,1458.4,1696.2,1458.4z"/>
	<path class="st1" d="M1564.8,1186.8c0-1.8-1.4-3.2-3.2-3.2c-1.8,0-3.2,1.4-3.2,3.2c0,1.8,1.4,3.2,3.2,3.2
		C1563.3,1190,1564.8,1188.5,1564.8,1186.8z"/>
	<path class="st1" d="M1411.6,1006.7c1.8,0,3.2-1.4,3.2-3.2c0-1.8-1.4-3.2-3.2-3.2c-1.8,0-3.2,1.4-3.2,3.2
		C1408.4,1005.3,1409.9,1006.7,1411.6,1006.7z"/>
	
		<ellipse transform="matrix(0.9732 -0.2298 0.2298 0.9732 -400.0587 435.0688)" class="st1" cx="1668.3" cy="1935.5" rx="8.8" ry="8.8"/>
	<path class="st1" d="M221.6,974.4c-2.2,0-4,1.8-4,4c0,2.2,1.8,4,4,4c2.2,0,4-1.8,4-4C225.6,976.1,223.8,974.4,221.6,974.4z"/>
	<path class="st1" d="M123.7,738.9c0-2.2-1.8-4-4-4c-2.2,0-4,1.8-4,4c0,2.2,1.8,4,4,4C121.9,742.9,123.7,741.1,123.7,738.9z"/>
	<path class="st1" d="M741.1,876.7c2.2,0,4-1.8,4-4c0-2.2-1.8-4-4-4c-2.2,0-4,1.8-4,4C737.1,874.9,738.9,876.7,741.1,876.7z"/>
	<circle class="st1" cx="1666.3" cy="959.7" r="4"/>
	<circle class="st1" cx="1746.5" cy="256.4" r="4"/>
	<path class="st1" d="M1469.3,228.9c2.2,0,4-1.8,4-4s-1.8-4-4-4c-2.2,0-4,1.8-4,4S1467.1,228.9,1469.3,228.9z"/>
	<circle class="st1" cx="1640.4" cy="884.6" r="4"/>
	<path class="st1" d="M1763.5,971.2c9.5,0,17.2-7.7,17.2-17.2s-7.7-17.2-17.2-17.2s-17.2,7.7-17.2,17.2S1754,971.2,1763.5,971.2z"/>
	<path class="st1" d="M1470.5,1228.3c3.5,0,6.3-2.8,6.3-6.3s-2.8-6.3-6.3-6.3c-3.5,0-6.3,2.8-6.3,6.3S1467,1228.3,1470.5,1228.3z"/>
	<path class="st1" d="M593.5,593.5c0-6.8-4.7-12.2-10.5-12.2c-5.8,0-10.5,5.5-10.5,12.2s4.7,12.2,10.5,12.2
		C588.8,605.7,593.5,600.2,593.5,593.5z"/>
	<path class="st1" d="M1869.6,1509.2c0-2.5-2-4.5-4.5-4.5c-2.5,0-4.5,2-4.5,4.5s2,4.5,4.5,4.5
		C1867.5,1513.7,1869.6,1511.7,1869.6,1509.2z"/>
	<path class="st1" d="M1860.5,1750.9c0-2.5-2-4.5-4.5-4.5s-4.5,2-4.5,4.5s2,4.5,4.5,4.5S1860.5,1753.4,1860.5,1750.9z"/>
	<circle class="st1" cx="1968.2" cy="1905.8" r="4.5"/>
	
		<ellipse transform="matrix(0.9732 -0.2298 0.2298 0.9732 -355.2952 502.6145)" class="st1" cx="1980.7" cy="1777.1" rx="12.5" ry="12.5"/>
	<circle class="st1" cx="1956.3" cy="1493.4" r="7.5"/>
	<path class="st1" d="M1099.2,1720.5c-5.5,0-10,4.5-10,10c0,5.5,4.5,10,10,10c5.5,0,10-4.5,10-10
		C1109.2,1725,1104.7,1720.5,1099.2,1720.5z"/>
	<path class="st1" d="M1981.4,1447c0,8.1,6.5,14.6,14.6,14.6c1.4,0,2.7-0.2,4-0.6v-28.1c-1.3-0.4-2.6-0.6-4-0.6
		C1987.9,1432.4,1981.4,1438.9,1981.4,1447z"/>
	<path class="st1" d="M10.6,1447c0-6.7-4.5-12.3-10.6-14v28.1C6.1,1459.3,10.6,1453.7,10.6,1447z"/>
	
		<ellipse transform="matrix(0.9871 -0.1598 0.1598 0.9871 -296.0343 155.7621)" class="st1" cx="820.5" cy="1918.5" rx="7.7" ry="7.7"/>
	<path class="st1" d="M355.7,424.1c3.5,0,6.3-2.8,6.3-6.3c0-3.5-2.8-6.3-6.3-6.3c-3.5,0-6.3,2.8-6.3,6.3
		C349.4,421.3,352.2,424.1,355.7,424.1z"/>
	<path class="st1" d="M99.1,189.7c3.5,0,6.3-2.8,6.3-6.3c0-3.5-2.8-6.3-6.3-6.3c-3.5,0-6.3,2.8-6.3,6.3
		C92.8,186.8,95.6,189.7,99.1,189.7z"/>
	<path class="st1" d="M1228.4,84.1c2.4,0,4.3-1.9,4.3-4.3c0-2.4-1.9-4.3-4.3-4.3s-4.3,1.9-4.3,4.3
		C1224.1,82.1,1226.1,84.1,1228.4,84.1z"/>
	<path class="st1" d="M1037,59.8c2.4,0,4.3-1.9,4.3-4.3c0-2.4-1.9-4.3-4.3-4.3c-2.4,0-4.3,1.9-4.3,4.3
		C1032.8,57.9,1034.7,59.8,1037,59.8z"/>
	<path class="st1" d="M753.1,52.2c2.6-2.6,2.6-6.8,0-9.4c-2.6-2.6-6.8-2.6-9.4,0c-2.6,2.6-2.6,6.8,0,9.4
		C746.2,54.8,750.5,54.8,753.1,52.2z"/>
	<path class="st1" d="M351.4,858c2.4,0,4.3-1.9,4.3-4.3c0-2.4-1.9-4.3-4.3-4.3c-2.4,0-4.3,1.9-4.3,4.3
		C347.2,856.1,349.1,858,351.4,858z"/>
	<path class="st1" d="M58.7,783.3c-3.7,0-6.7,3-6.7,6.7c0,3.7,3,6.7,6.7,6.7c3.7,0,6.7-3,6.7-6.7C65.4,786.3,62.4,783.3,58.7,783.3z
		"/>
	<circle class="st1" cx="355.7" cy="1201.2" r="4.3"/>
	<path class="st1" d="M411.5,772.9c0,2.4,1.9,4.3,4.3,4.3c2.4,0,4.3-1.9,4.3-4.3c0-2.4-1.9-4.3-4.3-4.3
		C413.4,768.7,411.5,770.6,411.5,772.9z"/>
	<circle class="st1" cx="1037" cy="666.8" r="6.6"/>
	<circle class="st1" cx="723.1" cy="577.7" r="9.9"/>
	<path class="st1" d="M1533.6,388c0,3.7,3,6.6,6.6,6.6c3.7,0,6.6-3,6.6-6.6c0-3.7-3-6.6-6.6-6.6
		C1536.6,381.4,1533.6,384.4,1533.6,388z"/>
	<path class="st1" d="M1872.8,72.2c3.7,0,6.6-3,6.6-6.6c0-3.7-3-6.6-6.6-6.6s-6.6,3-6.6,6.6C1866.1,69.3,1869.1,72.2,1872.8,72.2z"
		/>
	<path class="st1" d="M380.5,1730.5c-3.3,0-6,2.7-6,6c0,3.3,2.7,6,6,6c3.3,0,6-2.7,6-6C386.5,1733.2,383.8,1730.5,380.5,1730.5z"/>
	<path class="st1" d="M204.2,1514.2c-3.3,0-6,2.7-6,6c0,3.3,2.7,6,6,6c3.3,0,6-2.7,6-6C210.2,1516.9,207.5,1514.2,204.2,1514.2z"/>
	<path class="st1" d="M400.2,1952.2c-4.9,0-8.8,4-8.8,8.8s4,8.8,8.8,8.8c4.9,0,8.8-4,8.8-8.8S405.1,1952.2,400.2,1952.2z"/>
	<path class="st1" d="M1037,760.4c0,4.5,3.7,8.2,8.2,8.2c4.5,0,8.2-3.7,8.2-8.2c0-4.5-3.7-8.2-8.2-8.2
		C1040.7,752.2,1037,755.9,1037,760.4z"/>
	<path class="st1" d="M1841.6,557.3c4.5,0,8.2-3.7,8.2-8.2s-3.7-8.2-8.2-8.2c-4.5,0-8.2,3.7-8.2,8.2S1837.1,557.3,1841.6,557.3z"/>
	<path class="st1" d="M1614.7,222.8c4.5,0,8.2-3.7,8.2-8.2c0-4.5-3.7-8.2-8.2-8.2c-4.5,0-8.2,3.7-8.2,8.2
		C1606.4,219.1,1610.1,222.8,1614.7,222.8z"/>
	<circle class="st1" cx="820.5" cy="1138.4" r="64.5"/>
	<g>
		
			<ellipse transform="matrix(0.9732 -0.2298 0.2298 0.9732 -84.1626 387.4355)" class="st1" cx="1621.7" cy="555.1" rx="69.8" ry="69.8"/>
		<g>
			<path class="st1" d="M1736.8,493.6c-3-0.9-12.7,4.2-19,7.2c-9.4,4.4-18.7,9.5-27.8,14.9l2.9,5.1
				C1693.8,520.3,1735.9,497.1,1736.8,493.6z"/>
			<path class="st1" d="M1713.3,473.6c-2.9-0.5-10.1,5.4-15,9c-7.2,5.2-14.2,11.1-20.8,17.2l3.9,4.4
				C1682,503.6,1713.4,476.9,1713.3,473.6z"/>
			<path class="st1" d="M1681,462c-6.2,8.3-12.1,17.2-17.5,26.2l5,3.2c0.5-0.8,26.8-41.1,25.9-44.7
				C1691.3,447.3,1685.2,456.4,1681,462z"/>
			<path class="st1" d="M1645,480l5.5,2.1c0.3-0.8,15.4-39.1,13.8-42c-2.8,0.9-6.4,9.6-9,15C1651.3,463.1,1647.9,471.5,1645,480z"/>
			<path class="st1" d="M1627.2,476.4l5.9,0.5c0.1-1,4.3-48.9,1.9-51.6c-2.4,2-3.6,12.9-4.7,19.8
				C1628.8,455.4,1627.8,465.9,1627.2,476.4z"/>
			<path class="st1" d="M1607,477.9l5.8-0.7c-0.1-0.8-4.7-41.7-7.6-43.5c-2,2.1-1.2,11.5-0.9,17.4
				C1604.7,459.9,1605.6,469,1607,477.9z"/>
			<path class="st1" d="M1572.5,434.2c-1.2,2.9,2.9,13.1,5.2,19.7c3.4,9.8,7.5,19.6,11.9,29.2l5.4-2.4
				C1594.6,479.8,1575.9,435.5,1572.5,434.2z"/>
			<path class="st1" d="M1557.5,471.4c4.5,7.7,9.5,15.2,15,22.4l4.8-3.4c-0.5-0.7-23.8-34.6-27.1-34.9
				C1549.3,458.3,1554.5,466.2,1557.5,471.4z"/>
			<path class="st1" d="M1535.3,486.4c7.6,7.1,15.8,13.8,24.2,20.1l3.7-4.6c-0.8-0.6-38.1-30.9-41.7-30.5
				C1521.8,474.6,1530.2,481.7,1535.3,486.4z"/>
			<path class="st1" d="M1511.7,500.8c0.6,2.9,8.8,7.4,13.9,10.5c7.6,4.7,15.6,9,23.7,12.8l2.7-5.3
				C1551.3,518.5,1514.8,499.4,1511.7,500.8z"/>
			<path class="st1" d="M1493.9,528.3c1.7,2.6,12.4,4.9,19.2,6.7c10,2.7,20.5,4.8,30.9,6.4l1.1-5.8
				C1544.1,535.5,1496.9,526.2,1493.9,528.3z"/>
			<path class="st1" d="M1543.3,561.7l-0.1-5.9c-0.8,0-42,0.3-44.1,3c1.9,2.2,11.3,2.4,17.3,2.8
				C1525.2,562.1,1534.3,562.1,1543.3,561.7z"/>
			<path class="st1" d="M1496.3,591.4c2.7,1.5,13.3-1.5,20.1-3.1c10.1-2.4,20.3-5.4,30.3-8.8l-1.8-5.6
				C1543.9,574.2,1497.9,588.2,1496.3,591.4z"/>
			<path class="st1" d="M1515.1,615.9c2.7,1.1,11.1-3.2,16.5-5.7c8.1-3.6,16.2-7.9,23.9-12.5l-2.9-5.1
				C1552,593,1515.7,612.6,1515.1,615.9z"/>
			<path class="st1" d="M1528,646c3.1,0.1,11-7.6,16.3-12.2c7.8-6.8,15.4-14.3,22.6-22l-4.2-4.1C1562,608.5,1527.9,642.4,1528,646z"
				/>
			<path class="st1" d="M1556.1,658.8c2.9-0.3,8.3-8,11.9-12.8c5.5-7,10.6-14.6,15.2-22.3l-5-3.2
				C1577.9,621.3,1555.1,655.6,1556.1,658.8z"/>
			<path class="st1" d="M1590.3,661c3.7-9.7,6.9-19.8,9.6-30l-5.7-1.7c-0.3,0.9-14.4,46.9-12.6,50.1
				C1584.4,678,1587.8,667.5,1590.3,661z"/>
			<path class="st1" d="M1617,660.6c1.5-8.8,2.5-17.8,3-26.8l-5.9-0.5c0,0.8-4.1,41.8-1.7,44.2C1614.9,675.8,1616,666.5,1617,660.6z
				"/>
			<path class="st1" d="M1643.7,663.3c-1.3-10.3-3.2-20.8-5.6-31l-5.8,1.2c0.2,1,9.3,48.2,12.4,50.1
				C1646.5,681.1,1644.5,670.3,1643.7,663.3z"/>
			<path class="st1" d="M1657.1,625.3l-5.4,2.3c0.4,0.8,16,38.8,19.3,39.8c1.4-2.6-2-11.3-3.9-17
				C1664.3,641.9,1660.9,633.5,1657.1,625.3z"/>
			<path class="st1" d="M1667.8,619.3c0.6,0.7,30.9,38.2,34.5,38.5c0.4-3.1-6.4-11.8-10.4-17.5c-6-8.5-12.6-16.8-19.5-24.7
				L1667.8,619.3z"/>
			<path class="st1" d="M1682.2,605.1c0.7,0.5,32.4,26.8,35.7,26.1c0-2.9-7.1-9-11.4-13.2c-6.4-6.2-13.4-12-20.6-17.5L1682.2,605.1z
				"/>
			<path class="st1" d="M1741,607.9c-1.1-2.9-11.1-7.4-17.4-10.5c-9.3-4.7-19-8.9-28.9-12.7l-2.2,5.4
				C1693.5,590.5,1737.7,609.4,1741,607.9z"/>
			<path class="st1" d="M1699.7,565l-1.1,5.8c0.8,0.1,41.2,8.4,43.8,6.3c-1.4-2.6-10.5-4.6-16.3-6.3
				C1717.5,568.4,1708.6,566.5,1699.7,565z"/>
			<path class="st1" d="M1731.6,544.6c-10.4,0.2-21,1.1-31.4,2.3l0.6,5.9c1-0.1,48.9-4.2,51.2-7.1
				C1749.5,543.7,1738.6,544.4,1731.6,544.6z"/>
			<path class="st1" d="M1724.8,521.3c-8.7,1.9-17.4,4.4-26,7.3l1.7,5.6c0.8-0.3,40.3-11.9,41.6-15
				C1739.8,517.5,1730.7,520,1724.8,521.3z"/>
		</g>
	</g>
</g>
</svg>
