<?xml version="1.0" encoding="utf-8"?>
<!-- Generator: Adobe Illustrator 27.6.1, SVG Export Plug-In . SVG Version: 6.00 Build 0)  -->
<svg version="1.1" xmlns="http://www.w3.org/2000/svg" xmlns:xlink="http://www.w3.org/1999/xlink" x="0px" y="0px"
	 viewBox="0 0 600 763" style="enable-background:new 0 0 600 763;" xml:space="preserve">
<style type="text/css">
	.st0{fill:#BF3D1F;}
	.st1{fill:#FFFFFF;}
</style>
<g id="black">
	<g id="gRgMro.tif">
		<g>
			<g>
				<path d="M10,1c2,0,4,0,6,0c5.9,4,9.1,9.8,10.8,16.6c4.6,18.5,13.2,35,24.5,50.1c10.1,13.5,22.5,24.7,36.1,34.5
					c9.4,6.8,19,13.2,28.7,19.5c11,7.3,22.6,13.8,33.2,21.6c7.1,5.2,13.1,12,20.5,18.9c1.2-2.6,2.4-5.1,3.6-7.7
					c-0.4-1,0.3-1.5,1.1-1.5c2.5-0.1,5-0.1,7.5,0c5.9,0.2,7.7-1.7,6.9-8.4c5-0.2,9.9-0.4,14.8-0.6c4.9-0.1,6.1-1.6,4.5-7.3
					c6.3-1.6,12.6-4.5,19-4.7c11.4-0.3,23,0,34.1,2.1c12.1,2.4,23.9,6.8,35.5,11.3c4,1.5,6.9,2.5,10.5,0.1c3-2,6.4-4.1,8.5,1.3
					c5.1-3.2,9.7-6.6,14.7-9c9.6-4.6,20.1-5.4,30.5-6.5c3.4-0.4,5.2,0.2,5.6,3c7.2,0,14.2-0.9,20.7,0.2c7.9,1.4,15.5,4.6,23.3,7
					c1.7,0.6,3.7,1,5,2.2c1.3,1.2,1.9,3.2,3,4.8c0.8,1.2,1.8,2.6,3,3c5,1.6,10.2,2.8,15.7,4.3c10.5-8.8,21.3-19.1,33.4-27.8
					c15.4-11.1,32-20.4,47.7-31.1c17.8-12.1,32.6-27.4,42.2-46.7c5.9-11.8,9.9-24.5,14.5-36.9c1.7-4.5,4.6-7.3,9.2-8
					c4.4-0.7,7.7,1.5,10.2,5c3.9,5.5,5.4,11.8,4.8,18.4c-1.7,18.9-3.9,37.6-10.7,55.6c-6.6,17.2-13.6,34.6-25.9,48.2
					c-14.4,15.9-30.9,29.9-46.5,44.7c-0.1,0.1-0.3,0.2-0.4,0.3c-8.6,7.3-17.3,14.4-23.1,23.1c5.7,15.7,17,28.1,19.8,44.2
					c-6.3,4.2-7,6.7-1.6,11.3c6.5,5.5,8.6,12.9,10.3,20.5c0.7,3.4,0.4,7.9-1.4,10.6c-1.7,2.4-1.7,3.7-0.8,6c1.7,4.1,4,8.3,4.5,12.6
					c1.3,11.7,2.1,23.5,2.5,35.3c0.1,3.3-0.5,7.8-2.6,9.6c-2.8,2.5-2.3,4-1.3,6.7c1.1,3.3,2.1,6.9,2.3,10.4
					c0.3,4.6-0.3,9.3-0.3,13.9c0,3,1.6,6,4.7,4.9c4.7-1.7,6.3,1.4,6.7,4.1c0.6,3.9,0.1,8.1-0.9,11.9c-1,4-3.4,7.6-4.9,11.4
					c-0.4,1-0.5,2.7,0.1,3.6c3.7,5.6,3,11.5-1.9,16.2c-1,0.9-2,3.4-1.5,4.1c4,5.6,2.4,11.7,2.5,17.7c0.3,14.8-2,29.2-6,43.3
					c-3.8,13.4-7.9,26.7-11.7,40.1c-1.8,6.4-3.2,12.9-5.2,19.2c-0.5,1.5-2.6,2.5-4,3.8c-1-1.4-2.3-2.7-3.1-4.3
					c-1.2-2.5-2.1-5.2-3.1-7.8c-0.5,0.1-1.1,0.1-1.6,0.2c-0.8,1.9-1.8,3.7-2.4,5.7c-4.7,15.6-9.2,31.2-14,46.7
					c-6.6,21.2-13.4,42.4-20,63.6c-4.2,13.5-11.9,24.5-24.1,31.8c-9.9,6-20.1,11.7-30.3,17.2c-2,1.1-4.9,0.7-8.4,1.1
					c-4.1,2.7-9.5,6.2-14.6,9.9c-2.9,2.1-6.1,4.1-8.1,7c-5.6,7.7-12.4,13.8-21.2,17.6c-11,4.7-21.7,10.2-34.2,9.9
					c-11.1-0.2-22.3-0.1-33.4-0.2c-9.5-0.1-18.3-2.1-26.6-7c-4.5-2.7-9.7-4.3-14.5-6.6c-6.7-3.2-13.5-6.2-19.9-10
					c-20.7-12.1-40.5-25.4-59.8-39.6c-6.6-4.8-11.8-10.9-14.9-18.4c-3.2-7.5-6.2-15.1-8.8-22.8c-10.6-31.2-21-62.4-31.4-93.6
					c-2.1-6.2-7-7.2-11.4-2.4c-0.6,0.7-1.3,1.4-2.7,3c-8.7-13.2-9.1-27.7-9.2-41.9c-2.1-0.5-4-0.4-5.1-1.3
					c-3.3-2.6-8.2-23.7-6.7-27.6c0.2-0.4,0.8-0.8,0.8-1.2c0.4-4.7,2.5-10.3,0.7-13.8c-6.3-11.8-2.8-23-0.9-34.7
					c2,0.4,3.3,0.7,6.2,1.3c-3.5-10.6-6.6-20.3-10-30.7c-1.5,1.8-2.5,2.9-4.4,5.1c-2.7-10.7-3.6-20.2-0.7-29.8
					c0.6-1.8,2.4-3.3,3.6-4.9c1.8,1.1,3,1.9,4.1,2.5c7.3-3.2,3.1-11.1,6.9-15.6c0.1-0.1-0.7-1-1-1.5c-1.2-2.3-3.2-4.6-3.5-7.1
					c-0.9-6.8-2.1-13.9,3.6-19.8c-2.2-0.8-3.6-1.4-6.3-2.4c1.7-6.1,3.3-12,4.9-18.2c-1-0.3-2.5-0.7-5-1.5c2.9-5.5,5.5-10.6,8.3-16
					c-5.8-0.7-5.4-3.9-4.2-8.2c1.5-5.4,2-11.1,3.2-16.6c0.3-1.4,0.9-2.9,1.7-4.1c2.1-2.8,4.1-5.3,0.1-8.3c-0.8-0.6-0.9-2.9-0.6-4.2
					c3.3-13.8,6.7-27.5,19-36.7c2-1.5,3.3-4.1,0.2-5.5c-3.7-1.7-2.5-3.7-1-5.9c3.3-5.1,6.7-10.2,10.3-15.7
					c-9.2-7.8-18.3-15.5-27.4-23.3c-6.9-5.9-14.2-11.3-20.5-17.8c-10.5-10.8-20.5-22-30.2-33.4C16.9,108.4,9,89.7,4.7,69.3
					C3,61,2.2,52.4,1,43.9c0-8,0-16,0-24c0.4-1.5,1-3,1.1-4.5C2.6,9.4,4.6,4.3,10,1z"/>
			</g>
		</g>
	</g>
</g>
<g id="red">
	<g id="P8DAnF.tif">
		<g>
			<g>
				<path class="st0" d="M129.8,483.2c-0.9,4.5-1.7,9-2.8,13.4c-4.3,18.3-4.8,36.4,1.5,54.5c5.6,15.9,10.6,32.1,15.8,48.1
					c0.5,1.5,0.7,3.2,1.2,5.2c-2.2-0.4-3.9-0.8-5.2-1c-1.8-5.5-3.3-10.8-5.2-16c-2.3-6.2-4.8-12.3-7.3-18.3c-0.4-1-0.4-4.1-3.2-1.9
					c-0.1,0.1-2.2-1.7-2.5-2.9c-2.7-9.1-4.2-18.9-8.2-27.4c-3.9-8.2-6.2-16.5-6.4-25.2c-0.2-8.2,1-16.4,1.4-24.6
					c0.1-2.1-0.6-4.2-0.8-6.3c-0.4-3.1-1.5-6.3-0.9-9.2c1.2-5.8,3.4-11.3,5.1-17c0.2-0.8,0.3-1.6,0.5-2.3c-0.4-0.3-0.7-0.6-1.1-1
					c-1.1,1.2-2.3,2.3-3.3,3.5c-3.3,3.9-5,3.7-6.9-1.1c-1.4-3.5-3.2-7.1-3.7-10.7c-0.4-3.3,0.6-6.7,2-10.1
					c1.6,5.9-1.4,12.7,5.3,17.9c-2.4-61.9,5.4-122.2,17.7-183.1c8.7,6.2,17.2,7.7,26,6.3c5-0.8,10.1-2.2,14.6-4.4
					c7.4-3.7,14.5-8.2,21.7-12.4c-0.2-0.5-0.5-1-0.7-1.5c-4.1,1.5-8.1,3-12.2,4.4c-0.2-0.5-0.5-0.9-0.7-1.4c1.9-1.3,3.8-2.7,7-4.9
					c-7.3,1-13.3,1.8-19.3,2.6c-0.2-0.6-0.5-1.3-0.7-1.9c2.1-1.8,4.2-3.6,7.2-6.3c-10.4-1.1-21.3,3.3-28.9-7.3
					c0.4-0.6,1.5-2,2.6-3.5c1.1,1.1,2.5,2.1,3.2,3.4c1.7,3.5,4.6,4.9,8.1,4.7c17-0.8,31.1-7.7,42.6-20.1c0.9-1,1.7-2,2.7-3
					c0.5-0.4,1.1-0.6,1.3-0.7c0.5,2.2,0.6,5.9,1.6,6.3c2.2,0.7,4.9-0.4,7.4-0.9c2.4-0.5,4-4.7,7.4-1.8c0.2,0.2,2.5-1.8,3.5-3
					c5.2-6.9,7.9-14.8,8.2-23.9c21.3-1.7,40.2,6.8,59.8,12.9c-20-32.3-47.8-52.6-85.8-58.1c0.1-0.5,0.2-1.1,0.3-1.6
					c6.1,0.4,12.4-0.1,18.2,1.4c28.7,7.1,53.7,20.6,72.8,43.8c1.1,1.3,2.4,2.4,3.6,3.6c0.4-0.2,0.9-0.4,1.3-0.6
					c-0.3-1.6-0.4-3.3-1-4.7c-5.9-13.3-15.8-23.1-27.8-30.8c-12.7-8.1-26.6-13.5-41-17.7c-1.9-0.5-3.9-0.5-5.9-0.7
					c1.3-2.8,10.6-6.5,13.1-5.8c3.9,1,7.9,1.7,11.9,2.3c9.3,1.5,18.8,2,27.8,4.7c7.3,2.2,14,6.8,20.9,10.4c1.4,0.7,2.8,1.5,4.8,2.6
					c0-2.5,0-4.1,0-6.7c9,2.5,17.2,0.9,25-3.7c0.1,0.4,0.2,0.8,0.3,1.2c-1.6,2.3-3.2,4.6-4.9,6.9c0.3,0.4,0.6,0.8,0.8,1.2
					c7.7-7.1,16.2-11.8,28.4-10.8c-2.2,1.2-3.4,1.7-4.4,2.5c-8,6-16,12-24,18c-0.9,0.7-1.9,1.8-2,2.8c-0.1,1.4,0.5,2.9,0.8,4.4
					c1.2-0.4,2.8-0.5,3.6-1.3c4.2-4,8.1-8.2,12.3-12.4c4,4.2,7.5,0.7,10.8-0.5c8.8-3.2,17.4-7.1,26.2-10.5c1.7-0.7,3.9-0.1,6,1.1
					c-10.2,5.3-21.1,9.7-30.4,16.2c-9.2,6.5-17.1,14.9-20.6,26.1c0.5,0.4,1,0.9,1.5,1.3c2-1.8,4.1-3.4,5.9-5.3
					c8.7-9.4,18.8-17,30-23c3.4-1.8,7.7-1.9,11.6-3c2.6-0.7,5.2-1.6,8.2-1.7c-9.5,6.7-20.6,11.3-26.2,22.8c3.6-1.9,7.2-3.8,10.9-5.7
					c4.5-2.3,8.8-5.3,13.6-6.8c5.1-1.6,10.6-1.7,16.4-2.5c-0.1,1.3-0.2,2.4-0.4,4.1c8-2.4,15.8-4.5,22.1,1.8
					c-5.9,2.9-11.5,5.8-17.2,8.4c-1.9,0.9-4,1.6-6,1.5c-12.8-0.5-25,2.4-36.8,6.8c-6.7,2.5-12.9,6.4-19.3,9.6
					c-2.2,1.1-4.4,2.3-6.6,3.5c0.7,0.7,1.4,1.5,2.1,2.2c8.9-2.5,17.7-5.6,26.8-7.3c9.2-1.7,18.7-2.1,28.1-2.9
					c3.6-0.3,3.7,2.6,3.6,5.2c-0.4,13,6.4,22.9,14.2,32.4c0.6,0.7,1.6,1,3.2,0.8c-2.5-3.9-4.9-7.8-7.4-11.7c0.4-0.4,0.9-0.7,1.3-1.1
					c8.9,12,18.4,23.3,32.2,29.6c0.3-0.3,0.7-0.7,1-1c-2.2-2-4.4-4-6.5-6c-2.2-2.2-4.6-4.3-6.6-6.7c-2.5-3.1-5.7-6.2-3.5-11
					c0.2-0.5,0.1-1.4-0.2-1.9c-3-4.9-6.1-9.7-9.4-14.9c-2.5,2.8-4.8,3.3-7.3,0.2c-0.6-0.8-2.8-0.4-5-0.6c-1.3-4.5-1-9.8,1.5-14.9
					c1.9-3.9,4.1-6.3,9.3-4.5c2.6,0.9,6-0.2,9.4-0.5c-0.8,1.2-1.3,2.3-2.1,3.2c-3.8,4.1-4.3,9.1-2.8,14c3.7,11.9,11,21.5,22.1,27.4
					c6.3,3.4,13.4,5.3,20,8c1.5,0.6,2.9,1.4,5.6,2.6c-2.8,0.6-4.2,0.9-6.2,1.4c0.6,1.2,0.8,2.6,1.6,3.4c2.8,2.9,1.8,5.5,0.1,8.5
					c-1.8,3.1-4.3,2.7-6.9,1.9c-4.1-1.3-8-3-12.1-4.5c-1.9-0.7-3.9-1.4-6.1-1.3c9.5,6,18.7,12.4,31,12.1
					c-3.4,4.7-14.1,10.7-18.8,10.3c-7.4-0.6-13.6,1.2-18.9,6.5c-3.1,3.1-6.8,5.9-10.6,8.2c-3.6,2.1-2.4,3.6-0.2,5.6
					c4.7,4.2,9.6,8.2,14,12.6c2.5,2.5,4.5,5.7,6.3,8.8c2.8,4.7,1.8,6.3-3.5,7.3c-14.5,2.6-29,5-43.4,8.2
					c-18.8,4.1-35.2,13.1-48.5,26.9c-10.1,10.5-12.7,23.7-10.4,37.9c0.5,3.4,4.1,4.5,7.5,2.2c3.5-2.4,6.5-5.5,9.8-8.2
					c17.8-14.4,36.1-28.1,58.4-34.9c13-4,26.2-7.5,39.7-11.3c1.6,2.7,2.9,6.2,7.8,4.6c1-0.3,3.4,2.5,4.4,4.3c1,1.6,1.1,3.8,1.9,7.3
					c-5.6-4.3-10.2-7.9-14.9-11.4c-0.3,0.2-0.7,0.4-1,0.5c0.3,1.2,0.4,2.6,1.1,3.6c3.6,6.1,8.4,11,14.9,14.2c5.4,2.6,7.9,6.9,8.4,13
					c0.4,4.8,0.5,10.2,5.8,13.9c0.3-4.3,1.4-8.8,0.7-13c-0.7-4.4-3-8.6-4.1-13.1c3.5,2.8,4.9,6.5,5.3,11c0.8,9.7,1.8,19.4,3,29
					c0.2,2.1,1.1,4.2,2.2,6c0.7,1.1,2.4,1.5,3.7,2.2c0.4-1.3,1.1-2.6,1.1-3.9c-0.1-2.5-0.6-5.1-0.4-7.7c3,8.7,5.2,17.6,4.1,26.9
					c-0.1,1-2.4,2.4-3.8,2.5c-3.7,0.4-7.5,0.1-12.3,0.1c1.1,2.9,2,5.1,3,7.8c-4.6,0.6-10.5-4.7-13.7,2c1.9,3.2,3.7,6.4,5.6,9.6
					c-0.4,0.3-0.7,0.6-1.1,0.8c-1.2-0.7-2.5-1.4-3.6-2.2c-4.8-3.5-8.6-3.4-13.2,0.2c-1.4,1.1-3.2,1.6-5.7,2.9c1-5.9-2.3-5.8-5.2-5
					c-1.2,0.3-1.9,2.5-2.8,3.9c0.3,0.3,0.7,0.7,1,1c-2.3,0-4.7-0.2-6.9,0.1c-1,0.1-1.9,1.2-2.8,1.9c0.9,0.8,1.6,1.9,2.7,2.2
					c7.1,2.5,14.4,4.7,21.5,7.3c1.5,0.5,3.2,2.2,3.6,3.6c1.3,5.3,5,7.5,9.7,8.6c6.7,1.5,9.9,5,10.9,13c-2.5-2-4.8-3.6-7-5.4
					c-13.7-11.3-29.6-16.7-47-19.4c-13.2-2-26.2-5-39.1-8.5c-10.3-2.8-20.1-7.1-30.2-10.7c-1.1-0.4-2.2-0.6-3.2-0.9
					c-0.2,0.5-0.5,1-0.7,1.5c6.8,3.6,13.4,8,20.6,10.7c11,4.1,22.9,6,33.4,10.9c10.8,5,22.7,8.7,30.9,18.4c2.9,3.4,6.5,6.2,9.5,9.5
					c1.1,1.2,2,3.1,2.1,4.7c0.5,5.7,3.6,10.7,9.1,11.5c7.2,1,9.6,6.2,11.8,11.6c5.2,12.6,3.6,25.3-1.9,37.2
					c-11.5,24.6-23.3,49-35.2,73.4c-4.3,8.8-8.1,18-13.7,25.8c-7.8,11-16.9,21.1-25.9,31.2c-12.9,14.4-26.1,28.5-39.3,42.6
					c-2.6,2.8-5.6,5.1-8.6,7.4c-1,0.8-2.3,1.5-3.6,1.5c-4,0.2-8.1,0.1-12.2-0.8c1.2-0.1,2.4-0.4,3.6-0.3c4.6,0.4,8.1-1.6,10.9-4.9
					c9.9-11.4,19.7-22.7,29.5-34.1c3.8-4.4,7.4-8.9,11-13.4c0.7-0.9,1.1-1.9,0.9-3.8c-1,0.6-2.3,1-3.1,1.8
					c-13.1,13.6-26,27.5-42.2,37.4c-8.7,5.4-18.3,9.1-27.5,13.6c-1.4,0.7-2.6,1.9-4,2.8c1.4,0.5,2.8,1,4.3,1.4
					c0.9,0.2,2,0.1,3.3,1.2c-1.2,0.3-2.4,1-3.6,1c-12.4-0.1-24.8,0.1-37.2-0.5c-7-0.3-11.5-5.7-15.8-10.4
					c-11.8-12.9-23.2-26.2-34.8-39.3c-1.1-1.2-2.4-2.1-3.7-3.1c-7.6-5.6-15.4-11.2-22.9-17c-1.9-1.5-3.2-3.2-6-1.6
					c-0.7,0.4-2.7-0.7-3.7-1.5c-6-4.4-8.6-10.9-11.4-17.5c-5-11.8-11.3-23.1-16-35c-10.5-26.7-20.6-53.5-23-82.5
					c-1.2-13.7,4.1-25,12.2-35.2c9-11.2,19.5-21,32.2-28.1c0.6-0.3,1-1.1,1.2-2.1c-21.5,4.2-34.6,19.8-47.3,35.8
					c-0.5-0.1-1-0.2-1.5-0.4c-0.4-5-0.8-10-1.1-15c0.6-0.1,1.3-0.2,1.9-0.3c0.5,1.8,1,3.7,1.8,6.4c7.3-6.9,14.2-13.4,21.2-20.1
					c0.1,0.1,0-0.4-0.2-0.4c-8.7-0.9-9.5-2.6-8.3-11.5c1-7.3,5-12.8,8.8-18.6c0.9-1.4,1.8-2.9,3.2-5.1c-6.7-1.5-10.5,2.3-14.5,5.1
					c-10.6,7.3-17.1,18.1-24.1,28.6c-1.7,2.6-4.3,4.7-5.4,7.5c-1.6,4-3.5,8.4-3.2,12.5c1.1,12.5,3.1,24.9,4.9,37.4
					c0.2,1.7,1.3,3.2,2.4,4.8c-0.8-21-0.1-41.7,8.3-61.3C128.6,482.9,129.2,483.1,129.8,483.2z M439.4,440.7c0,0.5-0.1,1.3,0.1,1.4
					c1.6,1,3.1,2.4,4.8,2.6c0.8,0.1,1.9-2.2,2.8-3.4c-1.8-0.5-3.6-1.1-5.4-1.5c-0.6-0.1-1.3,0.2-1.9,0.4c1.3-2.9,2.6-5.9,3.8-8.8
					c2.6-3,7.2,6.9,9.3-2.9c1.1,1.7,2.1,2.5,2.4,3.5c1.4,6,5.4,6,10.3,5.2c2.6-0.4,5.3,0.1,7.9-0.3c2.7-0.4,5.3-1.2,7.8-2.3
					c2.9-1.2,2.5-4,0.4-5c-6-2.9-6.4-8.7-8.1-13.9c-2.9-8.6-5-17.7-13.2-23.3c-1.1-0.8-2.1-1.7-4-3.2c2.9,0,4.6,0,6.3,0
					c0.2-0.3,0.5-0.7,0.7-1c-1.7-1.6-3.1-3.8-5.1-4.7c-4.4-2-9.1-3.6-13.7-5c-15.8-4.9-31.3-3.1-46.6,2.4c-7.8,2.8-15.6,6-23.4,8.7
					c-5.5,1.9-11.2,3.4-17.3,5.3c1.6,1.9,3,3.4,4.6,5.3c-5.7,1.4-10.9,2.7-16.1,4c0.1,0.4,0.1,0.8,0.2,1.2c1,0.5,2.1,1,4.3,2.1
					c-7.3,1.8-13.3,3.3-19.6,4.8c0.4,1.7,0.7,3,0.9,4.3c-4.8,1.2-9.3,2.4-14.2,3.7c5.9,4.8,10.6,9.7,16.4,13c3.6,2,8.6,1.5,14.5,2.3
					c-3.8-9,0.1-12.3,6.3-14.8c3.8-1.5,7.2-4,10.6-6.2c13.5-8.7,26.4-18.7,42.4-22.4c5-1.2,10.5-0.7,15.7-1c0,0.7,0.1,1.4,0.1,2.1
					c-1.7,0.3-3.3,0.6-5,0.8c-9.9,0.9-19.3,3.4-27.4,9.1c-8.9,6.2-17.1,13.4-27.8,16.7c-2.1,0.7-3.5,3.5-5.2,5.4
					c1.9,1.4,3.8,2.9,5.7,4.3c0.6,0.4,1.3,0.7,1.6,0.9c-1.2,1.7-3.4,3.7-3.1,4.4c0.9,1.7,2.8,3,4.6,3.9c2.3,1.1,5.4,1,7.3,2.5
					c15.5,11.7,32.1,17.3,51.2,9.9c1.8-0.7,4.4-1.9,4.7-3.3C431,442.6,435.4,442.1,439.4,440.7z M163.8,436.7
					c0.1,0.5,0.2,1.1,0.3,1.6c-2,0.4-4,0.6-5.9,1.3c-10.6,3.5-21.6,6.4-31.8,11c-8.8,4-14.9,20.1-13.2,29.9c0.2,1,0.9,1.9,1.4,2.9
					c1-0.7,2.3-1.1,2.9-2c5.6-7.5,10.5-15.7,16.7-22.7c6.4-7.1,13.8-13.6,23.9-14.9c12.4-1.6,24.3,0.4,36,4.9
					c9.9,3.8,20.2,6.9,31,3.1c8.2-2.8,16.3-5.9,24.4-9c0.4-0.2,0.6-1,1.2-2.3c-6.1-1.1-11.8-2.2-17.1,1.1c-5.6,3.4-11.4,5-17.9,4
					c-4.4-0.7-8.8-1.6-13.3-1.9c-4.9-0.3-7.5-3.3-9.8-7.2c3.1,0.4,6.1,1.1,8.9,2.3c7.3,3.1,14.6,3.9,22.3,1.3
					c8.6-2.8,17.2-6.1,26.7-4.7c4,0.6,8.1-0.1,12.2,0c3.8,0.1,7.7-0.3,11.3,0.7c7.4,1.9,13.3,0.3,18-5.8c1.8-2.4,3.8-4.6,5.4-7.1
					c0.5-0.8-0.2-3.3-0.5-3.3c-4.3-0.4-3.6-3.3-2.8-6.3c-3.5-0.2-6.5-0.3-10.1-0.5c2.5-5.1-1.5-5.7-4.2-6.5
					c-2.9-0.8-6.1-0.8-9.6-1.1c3.1-2.9,1.7-4.4-0.9-5.2c-2.2-0.6-4.6-0.6-6.9-1.2c-1-0.3-1.9-1.3-2.7-2.1c-1.1-1.2-1.9-3.3-3.2-3.8
					c-4.5-1.8-9.3-3-14.3-4.6c1.1-1.6,1.9-2.9,3.3-4.9c-2.7-0.8-4.8-1.4-7-1.9c-4.8-1-10-1.1-14.4-3c-16.1-6.8-32.8-5.4-49.6-4.4
					c-2.4,0.1-5.2,0.7-7.2-0.2c-9-4.1-18.4-7.8-23-17.7c-0.3-0.7-1.4-1.2-2.2-1.7c-0.5,0.2-0.9,0.4-1.4,0.6
					c1.4,4.5,2.8,9.1,4.2,13.6c-0.6,0.2-1.2,0.4-1.9,0.6c-2.9-8.2-5.7-16.3-8.6-24.5c-0.6,0.2-1.2,0.4-1.8,0.5
					c1.3,12,2.7,23.9,4,35.9c-5.1-4.5-6.3-10.5-6.7-16.5c-1.5-22.3-2.8-44.7-4.1-67.1c-0.2-3.6,0-7.2,0-10.8c-0.7,0-1.4,0-2.1,0
					c-1.3,9.8-2.8,19.5-3.9,29.3c-1.2,9.9-1.9,19.9-3,29.8c-1.1,10.1-2.7,20.1-3.7,30.2c-1,9.9-1.9,19.8-2.2,29.8
					c-0.3,9.6,0.2,19.3,0.4,30.4c2.3-3.4,4.2-5.6,5.5-8.2c2.4-4.6,6.4-7.3,11.1-8.4c6.2-1.4,12.7-1.8,19.1-2.5
					c5.2-0.6,10.5-1,15.7-1.5c0-0.6,0-1.2,0-1.8c-1.9-1-3.7-2-5.8-3.1c26.8-20.3,70.4-20.4,95.8,5.3c-5,7.4,5.4,6.7,6,11.5
					c-2.3,0-4.7,0.5-6.8-0.1c-7.6-2.2-14.9-5.2-22.5-7.1c-8.9-2.2-17.9-4.4-27.3-1.6c-6.1,1.8-12.4,3.8-18.7,4.2
					c-12.8,0.7-25.6,0.1-38.4,0.4c-5.8,0.1-11.5,0.9-17.2,1.8c-7.2,1.1-14.8,13.2-11.7,21.2c3.5-2.8,7.2-5,9.7-8.1
					c5.2-6.5,12-8.5,19.7-8.8c3.9-0.2,7.9,0.5,13,0.9c-3,2.8-4.8,4.3-7.4,6.7C156.3,437.1,160,436.9,163.8,436.7z M304.7,605.5
					c-3-0.4-5.3-0.7-7.5-1.1c-9.6-1.7-19.1-4.4-28.7-5.1c-14.5-1-26.9-5.9-37.7-15.3c-5-4.3-9.9-8.7-14.7-13.2
					c-0.8-0.8-1.6-2.7-1.2-3.7c1.5-3.7-0.9-5.3-3.4-5.7c-3.6-0.6-7.8-1.1-11.1,0.2c-2.4,1-4.7,4.7-5,7.4c-0.4,3.7,3.3,3.4,6.2,3.8
					c2.7,0.4,5.9,1.4,7.5,3.4c12.6,15,25.6,29.4,41.5,41c1.5,1.1,2.6,3.4,3.2,5.3c4.8,15.2,13.1,27.2,28.5,33.4
					c3.4,1.4,5.3,0.1,7.5-1.6c5.1-4,10-8.3,17.2-7.4c2.3,0.3,4.6,0.1,7,0.1c3.1-0.1,5.2,0.4,7.2,3.6c2.1,3.3,6.1,5.3,9.5,7.6
					c0.8,0.5,2.6,0.2,3.5-0.5c5.9-4.2,11.8-8.4,17.3-13c6.6-5.6,8.9-13.7,11.8-21.5c0.8-2.2,2.4-5.1,4.3-5.9
					c9.6-3.7,15.6-11.3,22-18.7c6-7,11.8-14.2,18.3-20.7c2-2,5.9-2,8.9-3c1.6-0.5,4-0.8,4.5-1.9c0.5-1.2-0.2-4-1.2-4.7
					c-4-2.6-8.2-4.8-12.5-6.6c-3-1.2-4.3,0.5-4.6,3.9c-0.2,2.7-1.1,5.7-2.8,7.9c-3.5,4.6-7.4,8.9-11.5,12.9
					c-5.6,5.4-12.1,8.2-20.3,8.8c-14.8,1.1-29.5,3.4-44.2,5.6C317.3,602.1,310.8,604,304.7,605.5z M259.3,518.9
					c-0.8,0.7-2.2,1.2-2.5,2.1c-2,6.3-4.7,12.5-5.3,19c-1,10.4,1.1,12.6,10.5,15.8c1,2.2,1.4,4.4,2.7,6
					c9.7,12.6,21.8,21.8,37.8,25.1c7.4,1.5,14.1,1.1,20.9-2.7c12.2-6.8,21.3-17,31-26.5c1.5-1.4,1.7-4.1,2.5-6.1
					c-0.4-0.2-0.8-0.4-1.2-0.7c9.4-6,11.7-27.7,3.4-35.4c-0.5,0.8-1.3,1.6-1.4,2.4c-0.5,4.7-2.7,6.4-7.4,5.1
					c-0.7-0.2-2.6,1.1-2.9,2.1c-0.8,3.2-2.6,2.8-4.9,2c-1.2-0.4-3.6-0.6-3.7-0.2c-2,4.7-5,2.3-7.6,1.2c-8.2,8-26.7,11.5-36.9,3.9
					c-6.2-4.6-13.6-6.6-22-4.4c-1-1.6-2.2-3.5-3.8-5.9c-1.6,1.9-2.9,3.4-5.1,6C261.9,524.4,260.7,522,259.3,518.9z M141.5,328.1
					c-1.1,11.1,3.4,17.9,13.4,19.7c7,1.3,14.3,1.1,21.5,1.5c1.4,0.1,3-0.4,4.3-0.1c8.5,2,16.8,5,25.4,6.1c15.2,2,28.6,7.6,40.1,17.6
					c10.7,9.3,21,18.9,31.9,28c5.8,4.9,10.3,2.9,11.8-4.8c1.4-7.1,0.5-13.8-3-20.3c-6-11.2-15.1-19.4-24.8-27.2
					c-10.4-8.4-21.5-15.4-34.9-17.6c-11.9-2-24-3.2-35.8-5.4c-14.8-2.9-28.5-8.6-40.3-18.4c-1.2-1-3.2-1.2-4.8-1.8
					c-0.6,1.8-1.4,3.6-1.7,5.4c-0.2,1.6,1,4,0.3,4.7c-3.1,3.1-1.1,6.2-0.7,9.2c0.3,2,0.8,3.9,1.1,5.8c0,0.2-0.3,0.4-0.7,0.9
					C143.6,330.6,142.8,329.7,141.5,328.1z M408.6,534.6c2.2-4.4,0.4-5.1-2.7-5.5c-7.5-1-14.3-3.6-19.6-9.4
					c-5.9-6.5-12-12.7-18-19.1c-3.6-3.8-7-7.9-10.9-11.5c-1.5-1.4-3.9-2.1-6.1-2.6c-0.6-0.1-2.6,2.1-2.4,2.6
					c2.1,4.7,3.4,11.7,7.1,13.4c9.3,4.4,15.7,11.5,21.7,19c9.5,11.8,19.3,22.8,34.7,27.2c6.4,1.8,12.4,5.1,18.3,8.2
					c1.4,0.7,2.8,4,2.3,5.5c-2.8,8.1-6.2,16.1-9.3,24.1c-0.7,1.7-0.9,3.6-1.4,5.4c0.3,0.1,0.6,0.2,0.9,0.3c11-15.4,22-30.9,33-46.3
					c-0.2-0.3-0.4-0.7-0.6-1c-4.3,1.9-8.5,3.8-12.8,5.8c-0.1-0.3-0.3-0.6-0.4-0.8c1.7-2.3,3.3-4.7,5-7c-0.4-0.3-0.8-0.6-1.1-0.9
					c-4.2,1.8-8.5,3.7-12.7,5.5c-0.3-0.3-0.5-0.6-0.8-0.9c1.5-2.9,3-5.8,4.8-9.3c-5.7,1.2-10.5,2.2-15.2,3.2c-0.2-0.3-0.4-0.7-0.6-1
					c1.9-2.2,3.7-4.4,6.4-7.5C421,532.8,415.5,533.6,408.6,534.6z M196.5,590.8c0.4-0.3,0.8-0.5,1.2-0.8c-3.3-8.6-6.5-17.2-10-25.7
					c-1.2-3.1-1.3-5.4,2-7c6.9-3.3,13.9-6.5,20.7-9.9c6-3,12.6-5.5,17.4-9.8c7-6.2,12.4-14.1,18.9-21c4.3-4.5,8.5-10.2,14-12.2
					c6.3-2.4,8-6.9,9.9-11.8c0.6-1.5-0.6-3.8-1-5.7c-1.9,0.5-4.4,0.3-5.6,1.5c-5.4,5.2-10.7,10.7-15.7,16.3
					c-10.2,11.4-19.2,24.2-36.7,25.3c0.3,1.6,0.6,2.8,1.1,5.1c-6.5-1.1-12.5-2-19.6-3.2c2.5,3.3,4.4,5.6,7.1,9.2
					c-6.3-1.3-11.1-2.3-15.9-3.3c-0.2,0.4-0.3,0.9-0.5,1.3c1.8,2.5,3.5,5.1,5.3,7.6c-0.2,0.3-0.5,0.6-0.7,0.8
					c-4.6-1.5-9.1-3-13.7-4.5c-0.2,0.4-0.4,0.7-0.6,1.1c1.3,1.8,2.5,3.6,4.6,6.6c-5.5-2.3-9.7-4.1-13.9-5.9
					c-0.1,0.4-0.3,0.7-0.4,1.1C175.1,560.8,185.8,575.8,196.5,590.8z M247,645.5c11.1,15.4,24.6,24.9,42.9,25.6
					c14.3,0.6,28.6,0.5,42.9,0c5.6-0.2,11.9-1.5,16.5-4.4c7.7-5,14.4-11.5,21-17.9c2.2-2.1,2.7-5.9,4-9c-4.3,1.6-7.5,3.9-10.7,6.2
					c-9.2,6.8-18.8,13.5-30.3,14.7c-13.1,1.4-26.3,1.1-39.5,1.1c-9.3,0-18.2-2.1-26.6-6.2C260.8,652.4,254.5,649.2,247,645.5z
					 M166,506.6c-0.2-0.3-0.5-0.5-0.7-0.8c-1,0.4-2.2,0.5-2.9,1.2c-4.1,4-8.7,7.8-11.9,12.4c-7.5,10.8-12.5,22.7-7.6,36
					c6.8,18.5,14.1,36.8,21.4,55.1c2.9,7.3,6.4,14.3,9.9,21.4c1.4,2.8,3.3,5.4,5,8.1c0.5-0.3,1-0.5,1.4-0.8
					c-0.3-1.2-0.4-2.5-0.9-3.6c-5.2-11.9-11.1-23.6-15.4-35.8c-4.7-13.4-8.3-27.2-11.9-41c-4.4-16.8-1.3-32.2,9.8-45.8
					C163.6,511.2,164.7,508.8,166,506.6z M442.9,508.6c0.5-0.4,0.9-0.7,1.4-1.1c-1-1.7-1.8-3.5-3.1-5c-9.6-10.7-21.6-17.8-34.7-23.1
					c-11.8-4.7-24-8.4-36-12.5c-1-0.3-2.2,0-3.3,0c0.2,1.4,0,2.9,0.6,4c5.3,9.2,14.2,13.9,23.9,15.2c11,1.5,20.5,5.9,30,10.9
					C428.9,500.7,435.9,504.7,442.9,508.6z M287.1,484.9c2.2-4.4,4.5-8.4,6.2-12.6c1-2.5,1.4-5.4,1.9-8.1c0.5-3,0.3-6.2,1.5-8.8
					c1.2-2.6,4.5-4.2,1.1-7.5c-0.3-0.3,0.9-2.4,1.5-3.6c0.6-1.2,1.2-2.4,1.8-3.6c-1.3-0.4-2.7-1.2-4-1.2c-8.1,0-14.5,6.7-15.2,16
					c-0.6,8.8-2.7,17-7.6,24.4c-0.4,0.7-0.2,1.7-0.3,2.8C282.5,479.6,282.5,479.6,287.1,484.9z M459.1,572.4
					c-0.7-0.4-1.5-0.8-2.2-1.2c-24.7,23-30.9,56-45.4,84.7c1.8,0.1,3-0.4,3.5-1.2C430.9,627.9,444.9,600,459.1,572.4z M369.6,312
					c-2.8-1.9-15-1.4-19.8,0.9c-10.8,5.2-22.1,8.5-34.1,8.8c-4.6,0.1-9.3,0.3-13.9,0.6c-1.1,0.1-2.3,1-3,1.8c-0.3,0.3,0.4,2,1,2.5
					c7,4.5,14.2,7.8,22.7,4c6.7-3,13.4-6.2,20.3-8.9C351.5,318.3,360.5,315.3,369.6,312z M311.5,526.2c0.4,0.6,0.8,1.3,1.1,1.9
					c3.2-1.4,6.3-2.8,9.5-4.1c10.8-4.3,11.1-13,8.6-20.7c-1.8-5.6-9.4-10.1-15-8.9c-4.8,1-6.2,3.8-3.7,7.9c1.2,1.9,2.9,3.6,4.3,5.4
					c5.2,6.9,4.5,11-2.6,15.7C312.8,524.1,312.2,525.3,311.5,526.2z M322.3,441.5c-0.2,3-0.4,5.3-0.4,7.6c0,1.1,0.1,2.5,0.7,3.3
					c3.8,4.3,4.1,9.5,4.6,14.9c0.7,7.4,4,13.3,11.5,18.2c-0.4-2.9-0.5-4.6-0.8-6.3c-0.6-3.1-1.6-6.1-1.8-9.2
					c-0.3-4.6,0-9.3-0.1-13.9C335.9,446.9,329.6,440.9,322.3,441.5z M186.6,628.1c3.8,9.6,4.8,20.4,13.8,27.4
					c8.3,6.5,15.9,14,25.5,18.7C212.8,658.8,199.7,643.4,186.6,628.1z M313.9,479c-0.3,0.1-0.7,0.1-1,0.2c0,1.2-0.1,2.3,0,3.5
					c0.7,4.8,5.2,5,8.4,6.6c0.9,0.5,3.3-1,4.4-2.2c2.6-3-0.2-5.4-1.5-8c-1-2-1.4-4.2-2.1-6.3c-1.3-4.1-2.4-8.3-4.2-12.2
					c-0.4-0.9-3.3-1-4.9-0.7c-0.6,0.1-1.2,2.5-1.1,3.8C312.4,468.8,313.2,473.9,313.9,479z M290.1,170.3c-0.4,0.4-0.9,0.8-1.3,1.3
					c0.4,0.8,0.7,1.8,1.3,2.5c7.3,9.3,13.5,19.1,16.4,30.8c0.2,0.8,0.4,1.8,1,2.2c1.3,1,2.9,1.6,4.4,2.4c0.7-1.5,1.8-2.9,2.1-4.4
					c0.2-1-0.2-2.4-0.8-3.3c-4.5-7.5-8.8-15-13.8-22.2C296.9,176,293.3,173.4,290.1,170.3z M209.4,471.5c0.1,0.5,0.2,1,0.3,1.5
					c11.5-2.3,23.9-0.1,34.2-7.6c4.2-3,7.9-6.7,11.9-10.1c-0.3-0.2-0.5-0.4-0.8-0.6C239.8,460.3,224.6,465.9,209.4,471.5z
					 M171.7,411.7c0.2,0.6,0.4,1.3,0.5,1.9c12.5,0.7,24.9,0.7,36.9-3.8c1.2-0.5,2.2-1.5,3.3-2.2c-1.3-0.7-2.6-1.9-4-1.9
					c-5.4-0.2-11-0.8-16.3,0.2C185.2,407.1,178.5,409.7,171.7,411.7z M166.2,625.2c-1.3,6.7,13.6,39.5,20,42.6
					C183.3,650.9,173.2,638.7,166.2,625.2z M272.4,150.8c0.9,1.3,1.1,1.9,1.5,2.1c12.5,6.6,21.9,16.7,31.2,26.9
					c1.1,1.2,3.1,1.5,4.7,2.2c-0.1-1.9,0.4-4.3-0.5-5.5c-2.8-3.4-6-6.6-9.3-9.5C292.1,160.3,283.8,154,272.4,150.8z M190.9,658.2
					c-1.4,10.8,13.1,27.4,22.5,30.6C205.9,678.5,198.8,668.8,190.9,658.2z M211.3,600.8c1.1,9.3,9.7,18.3,18.3,19.6
					C226.4,611.1,218.9,606.4,211.3,600.8z M358,442.6c6.4,5.3,16.7,8.8,21.7,7.6C367.4,440.9,362.2,439,358,442.6z M144.7,436.8
					c-1.8-1.1-3.5-2.8-4.3-2.5c-4.1,1.9-7.9,4.3-11.7,6.7c-0.6,0.4-0.3,2-0.4,3c0.9,0,1.9,0.3,2.7,0c3.7-1.4,7.4-2.8,11-4.4
					C142.9,439.3,143.5,438.2,144.7,436.8z M323.6,436.1c0.6-0.4,1.3-0.9,1.9-1.3c-1.4-1.8-2.3-4.2-4.1-5.3
					c-3.8-2.4-7.7-5.5-12.6-3.8c-0.3,0.6-0.5,1.2-0.8,1.7C313.1,430.3,318.3,433.2,323.6,436.1z M218.3,407.5
					c-0.3,0.6-0.6,1.2-0.8,1.8c4.1,1.5,8.2,3.1,12.4,4.4c0.7,0.2,2.1-0.4,2.5-1c0.3-0.6-0.1-2-0.6-2.6
					C228.6,406.4,223,405.4,218.3,407.5z M462.1,564.8c-2.4-1.6-4-3.4-5.1-3.1c-1.2,0.3-2,2.5-3,3.8c1.2,0.8,2.4,2.2,3.6,2.2
					C458.8,567.7,460,566.3,462.1,564.8z M198,232.7c-2.1-1.4-3.5-2.9-4.4-2.7c-1.3,0.3-2.3,1.9-3.4,2.9c1.2,1,2.3,2.6,3.6,2.9
					C194.7,236,195.9,234.3,198,232.7z M453.8,247.2c-2.1-1.6-3.4-3.3-4.4-3.1c-1.3,0.3-2.3,2-3.4,3.1c1.1,0.9,2.1,2.5,3.3,2.6
					C450.4,249.9,451.7,248.5,453.8,247.2z M362.1,470.5c1.3-2,2.6-3.2,2.7-4.5c0.1-1-1.3-2.1-2.1-3.2c-1.3,1-3.2,1.8-3.6,3.1
					C358.8,466.7,360.6,468.3,362.1,470.5z"/>
			</g>
		</g>
	</g>
</g>
<g id="white">
	<g id="_x38_ZCJdP.tif">
		<g>
			<g>
				<path class="st1" d="M43.6,85c5-0.3,5.8,4.3,7.9,7.1c11.9,15.9,24.8,30.6,41.9,41.3c0.9,0.6,2,1.6,2.9,1.5
					c9.1-1.1,16,3.9,23.1,8.2c4.2,2.5,9.5,4.3,10.3,10.4c0.1,0.6,1.4,1.1,2.3,1.5c18.7,8.5,33.7,21.4,45.6,37.9
					c4.4,6.1,6.4,13.3,5.6,20.9c-0.2,1.8-1.7,3.4-2.6,5.1c-1.1-1.3-2.5-2.5-3.3-4c-7.3-14.6-16-28.2-30-37.5
					c-3.5-2.4-7.2-4.6-10.3-7.4c-6.2-5.6-12.7-6.2-21-4.8c-4.6,0.8-10.5-3.4-15.1-6.5c-4.3-2.9-7.5-7.2-11.2-10.9
					c-0.5-0.5-1.1-1-1.2-1.6c-0.4-7-6.3-9.1-10.8-12.5C64,123.4,54.6,109.7,46.6,94.9c-0.9-1.7-2-3.3-3-4.9
					C43.6,88.3,43.6,86.6,43.6,85z"/>
				<path class="st1" d="M584.6,82c-0.8,13.3-6.9,24.6-13.9,35.5c-1.8,2.7-2.8,6-4.1,9c-2.8,6.9-8.1,11.2-14.5,14.4
					c-3.6,1.9-7.2,4-10.4,6.5c-10,7.7-19.9,15.5-29.7,23.4c-3.6,2.9-6.7,6.4-10.2,9.4c-12.4,10.6-21.4,23.7-29.5,37.6
					c-0.7,1.2-1.1,2.7-1.9,3.8c-1.1,1.4-2.5,2.6-4.6,3.4c-0.1-9.1,0-17.5,3.8-25.6c6.4-13.5,16.5-23.4,28.5-31.7
					c12.9-8.9,25.7-17.9,38.5-26.9c3.1-2.2,5.3-4.7,6.7-8.6c2.2-6.5,6.6-11.3,13.7-13.6c3-1,5.7-3.6,7.8-6.1
					c7.4-9,12.4-19.5,16-30.6C581.9,82,583.3,82,584.6,82z"/>
				<path class="st1" d="M519.5,504.4c0,1,0,2,0,3c-0.6,0.3-1.5,0.5-1.6,0.9c-3.4,8.3-7.4,16.4-10,24.9c-4.8,15.8-8.6,32-13.2,47.9
					c-2.7,9.3-6.3,18.4-8.9,27.7c-3.6,12.9-7.1,25.8-11.1,38.6c-4,12.9-10.2,25.2-15.5,37.8c-1.5,3.5-3.1,6.8-4.7,10.3
					c0,0-0.3,0.3-0.3,0.3c-3.4-1.1-5.2-0.2-4.7,3.7c0,0-0.3,0.3-0.3,0.3c-2.6-0.9-4.5-1.1-3.7,2.7c0,0-0.3,0.3-0.3,0.3
					c-1.6-0.6-3.6-1.6-2.7,1.7c0,0-0.3,0.3-0.3,0.3c-1.6-0.6-3.6-1.6-2.7,1.7c0,0-0.3,0.3-0.3,0.3c-1.6-0.6-3.6-1.6-2.7,1.7
					c0,0-0.3,0.3-0.3,0.3c-4.4-0.6-6,0.3-6.7,3.7c0,0-0.3,0.3-0.3,0.3c-2,0.4-4,0.5-6,1.1c-3.2,1-6.4,2.2-9.7,3.4
					c-0.6-2.2-0.9-3.6-1.7-6.7c-3.3,3.3-6.1,5.7-8.3,8.5c-1.7,2.1-2.6,4.8-3.9,7.3c0,0-0.3,0.3-0.3,0.3c-1.4,0.1-2.9-0.2-4.2,0.3
					c-4.7,1.9-9.3,4.2-14,6.2c-5.8,2.4-11.6,4.6-17.4,6.9c-0.3-0.4-0.6-0.8-0.9-1.2c0.6-1,1.1-2.1,1.9-3.1c2.6-3.4,5.5-6.6,7.9-10.2
					c10.7-15.7,22.1-30.9,35.2-44.6c9.6-10,15.8-22.3,23.6-33.5c7.6-10.9,12.8-23.6,19.9-34.9c12.3-19.5,22.7-39.8,28.7-62.1
					c0.4-1.3,2.4-2.2,3.6-3.2c0,2.3,0,4.7,0,7c-0.8,0.7-2.2,1.4-2.3,2.2c-1.5,9.5-4,18.6-8,27.4c-3.1,6.9-4.5,14.5-7.2,21.6
					c-3.1,8.1-6.9,16-10.5,23.9c-1.2,2.6-2.6,5.1-3.9,7.7c0.3,0.4,0.6,0.8,0.9,1.3c1.6-0.6,4.1-0.6,4.8-1.8
					c3.9-6.3,8-12.6,10.8-19.4c5.4-13,10.2-26.2,15-39.5c4.2-11.8,8.4-23.5,12.1-35.5c5.8-18.8,4.7-37.8,0.4-56.7
					c-0.4-1.9-2.5-3.5-3.9-5.2c0,0,0,0,0,0c-0.2-1.3-0.3-2.7-0.5-4c-0.4-0.1-0.9-0.2-1.3-0.3c-1.3,2-5.8,2.3-3,6.4
					c1.1,1.6,3.1,2.5,4.7,3.7c0.1,1.6,0.2,3.3,0.3,4.9c-2-0.3-4-0.6-4.9-0.7c-3.1,0.3-5.2,0.6-7.3,0.8c-1.6-1.6-3.3-3.3-4.9-4.9
					c-1-1-2-2-3-3.1c0,0,0,0,0,0c-0.9-1.3-1.7-3.4-2.9-3.7c-3.3-0.8-6.7-0.9-10.1-1.3c0,0,0,0,0,0c-0.2-2.7,1-6-3-7c0,0,0,0,0,0
					c-1.1-1.4-1.9-3.4-3.3-4.1c-4.3-2.2-8.9-3.9-13.6-5.8c2-2.8,2-7.1,6.8-6.1c0.1,0.6,0.1,1.3,0.2,1.9c-0.5,4.1,3.1,3.3,5,3.9
					c7.2,2.2,15.1,3.1,19.9,10.3c0.4,0.6,3.7,0.4,4.5-0.5c1.9-2.1,2-4.5-1.6-5.5c-0.6-0.6-1.3-1.3-1.9-1.9c-0.5-2.9-1-5.8-1.5-8.2
					c3.2,0,5.8,0,8.5,0c0.7,0.1,1.3,0.1,2,0.2c0,0-0.1-0.1-0.1-0.1c0,0.7,0.1,1.3,0.1,2c-1.5,2.5-2.4,5.1,0.8,6.8
					c0.8,0.4,3.4-0.8,3.8-1.8c0.9-2.3,0.5-4.6-2.8-5c0.1-0.3,0.1-0.6,0.1-0.8c-0.7-1-1.4-2-2.1-3.1c-1-1-2-2-2.9-2.9
					c-0.1-2,5-2,1.9-5.1c-0.3-0.6-0.6-1.2-0.9-1.8c1.1-1,2-2.6,3.3-3c1.8-0.5,4.2,0.4,5.8-0.3c1.9-0.8,4.6-2.8,4.6-4.4
					c0.1-6-0.4-12.1-1.3-18.1c-0.3-1.9-2.3-3.5-3.5-5.2c0,0,0,0,0,0c-0.6-0.4-1.1-0.9-1.7-1.3c-0.6,1.3-1.2,2.6-1.8,3.9
					c-0.9-0.5-1.8-0.9-2.7-1.4c-0.6-6.8-1.1-13.6-1.8-20.4c-0.6-6.4-0.4-13-3.9-18.8c-1.5-2.6-3.1-4.2-6.2-1.6
					c-1.1,0.9-3.2,0.4-4.9,0.6c-0.3-0.3-0.6-0.6-0.9-0.9c-0.7-1.4-1.4-2.9-2.2-4.5c3.1-3.6,1.4-10.2-3.9-13.6
					c-0.3-0.3-0.6-0.6-0.9-0.9c0.2-5.8-5.2-3-8.4-5.4c1.4-1.2,2.4-2.5,3.8-3.3c6.4-3.7,12.5-7.9,15.5-14.9c2.6-6.1,4.3-12.6,5.9-19
					c0.3-1.1-1.8-2.9-2.8-4.3c0,0,0,0,0,0c-0.2-1-0.5-1.9-0.7-2.9c-0.5-0.1-0.9-0.3-1.4-0.4c-1.9,3.1-3.8,6.2-5.7,9.3c0,0,0,0,0,0
					c-0.8,0.8-1.6,1.6-2.4,2.4c0,0-0.3,0.3-0.3,0.3c-2.1-1.8-5.8,2.2-7.4-2.6c-1.2-3.7-3.9-7-5.9-10.4c-5.2,3.1-6.1,4.8-3.8,6.2
					c4.4,2.6,4.2,6.7,5,10.6c-6.9,3.5-6.9,3.5-11.3-2.4c-0.4-0.6-1.4-0.7-2.1-1.1c-1-1-1.9-1.9-2.9-2.9c-0.7-1-1.4-2-2.1-3.1
					c-1.6-1.6-3.3-3.3-4.9-4.9c0.4-3.3-1.8-3.2-4.1-3.1c-0.6-0.6-1.3-1.3-1.9-1.9c-0.5-1.5-0.9-3-1.4-4.6
					c5.4-4.2,10.6-8.9,16.4-12.6c2.7-1.8,7.3-3.5,9.6-2.4c4.6,2.2,7.3,0.4,10.6-1.9c2.5-1.8,5.3-3.2,8.1-4.6
					c2.7-1.4,5.5-3.5,8.4-3.7c7.8-0.7,14.6-3.6,20.8-8.2c1.2-0.9,2.9-1.3,4.3-2c0.4,1.3,0.8,2.6,1.2,3.9c0.2,1,0,2.1,0.5,2.8
					c1.6,2.5,3.3,4.9,5.2,7.2c0.4,0.6,1.4,0.7,2.1,1.1c0.1,1,0.2,2,0.3,2.9c0.2,0.7,0.5,1.4,0.7,2c0.1,0.7,0.2,1.3,0.3,2
					c0.2,0.7,0.5,1.4,0.7,2c0.1,0.7,0.2,1.3,0.3,2c0.2,0.7,0.5,1.4,0.7,2c0.1,0.7,0.2,1.3,0.3,2c0.2,0.7,0.5,1.4,0.7,2
					c0.1,1.3,0.1,2.6,0.2,3.9c-0.7,4.7,3.2,4.9,6,6.1c0,0,0,0,0,0c0.6,1,1.2,2.1,1.8,3.1c0.1,0.6,0.1,1.3,0.2,1.9
					c-0.3,0.6-0.8,1.2-0.9,1.8c-0.3,2.2-0.6,4.4-0.5,6.6c0,0.2,2.7,0.9,3,0.5c1.1-1.6,1.9-3.4,2.6-5.3c0.3-0.8,0.3-1.9,0.1-2.8
					c-1.8-8.3-3.8-16.6-5.7-25.1c0.7-0.1,1.6-0.3,2.5-0.5c0.6,0.6,1.3,1.3,1.9,1.9c0.7,1,1.4,2,2,3.1c0,0,0,0,0,0c0.7,1,1.4,2,2.1,3
					c0.3,0.3,0.6,0.6,0.9,0.9c0,3.1-0.1,6.3,4,7c0,0,0,0,0,0c0.6,1,1.2,2.1,1.8,3.1c0.1,0.3,0.2,0.6,0.2,0.9c0.6,1,1.2,2.1,1.8,3.1
					c0.1,0.7,0.2,1.3,0.3,2c0.2,0.7,0.5,1.4,0.7,2c0.1,1.3,0.2,2.6,0.3,3.9c0.2,0.7,0.5,1.4,0.7,2c0.1,3.3,0.2,6.6,0.3,9.9
					c0.2,0.7,0.5,1.4,0.7,2c0.1,4.3,0.2,8.6,0.3,12.9c0.2,0.7,0.5,1.4,0.7,2c0,1.7,0,3.3,0,5c-2,0-4,0-5.9,0c-1-1-1.9-1.9-2.9-2.9
					c-0.9-3.7-5.8-6.8-11.1-7.1c-0.3-0.3-0.6-0.6-0.9-0.9c-1-1-2-2-3-3.1c0,0,0,0,0,0c-0.4-0.5-0.8-1.1-1.2-1.6
					c-0.8,1.2-1.5,2.3-2.3,3.5c0.8,0.3,1.6,0.7,2.5,1c0,3,0,6,0,9c-1.1,0.5-2.2,1.1-3.4,1.6c-0.5-1-1.1-1.7-1.2-2.5
					c-1.1-10.8-2.2-21.6-3.2-32.4c-0.5-5.6-0.5-11.2-1.2-16.7c-0.2-1.4-1.9-2.6-2.9-3.9c0,0,0,0,0,0c-0.1-2.3-0.2-4.6-0.4-8.4
					c-2.7,2.5-4.3,3.9-6.1,5.6c2,2.2,3.7,4,5.4,5.7c0.1,3.3,0.2,6.6,0.3,9.9c0.2,0.7,0.5,1.4,0.7,2c0.1,5.3,0.2,10.6,0.3,15.9
					c0.2,0.7,0.5,1.4,0.7,2c0.1,3.3,0.2,6.6,0.3,9.9c0.2,0.7,0.5,1.4,0.7,2c0.1,4,0.2,8,0.3,11.9c0.2,0.7,0.5,1.4,0.7,2
					c0.1,1.6,0.2,3.3,0.3,4.9c-0.3,7.8,3.9,13.8,7.7,20c0.1,0.7,0.2,1.3,0.3,2c0.2,0.7,0.5,1.4,0.7,2c0.1,1,0.2,2,0.3,2.9
					c0.2,0.7,0.5,1.4,0.7,2c0.1,17.3,0.2,34.6,0.3,51.9c0.2,0.7,0.5,1.4,0.7,2c0.1,4.3,0.2,8.6,0.3,12.9c-0.6,0.7-1.6,1.5-1.6,2.1
					c0.3,3.7,0.8,7.5,1.3,11.7c0.2-0.1,1.5-0.1,2.5-0.7c4-2.5,5.7,0.5,7.7,3c0.8,1.1,1.9,1.9,2.8,2.9c0.1,0.7,0.2,1.3,0.3,2
					c0.2,0.7,0.5,1.4,0.7,2c0.1,1,0.2,2,0.3,3c0.2,0.7,0.5,1.4,0.7,2c0,1.3,0,2.7,0,4c-2.7,2.9-4.7,0-6.9-0.9c0,0,0,0,0,0
					c-0.1-1.7-0.3-3.3-0.4-5c-0.5-0.2-1-0.4-1.5-0.5c-1.3,1.7-2.6,3.3-3.9,5c1.6,1.1,3.1,2.3,4.7,3.4c0,1,0,2,0,3
					c-2.8,1.6-3.1,2.5-1,4c0.1,2.3,0.2,4.6,0.3,6.9C519,500.3,516.6,502.2,519.5,504.4z M501.8,398.7c0,2.9,0,5.3,0,7.7
					c-0.2,9.1-0.1,18.3-0.8,27.4c-0.6,7.8-3.2,15.5-3,23.2c0.2,8.5,2.7,16.9,4.2,25.4c0.4,2.3,0.9,4.5,1.5,7.7
					c6.6-11.5-0.5-20.6-3.2-30.2c2.1-0.4,3.6-0.6,5.4-1c-0.3-1.4-0.3-2.7-0.9-3.6c-3.3-5.7-2.9-11.6-1.5-17.6
					C506.7,424.7,507.4,411.8,501.8,398.7z M401.6,704.5c7.3-3.6,15.6-15.6,15.6-20.8C411.9,690.7,406.8,697.6,401.6,704.5z
					 M418.4,682.6c0.3,0.1,0.6,0.3,0.8,0.4c0.5-1.1,1-2.2,1.6-3.2c-0.3-0.1-0.6-0.3-0.9-0.4C419.5,680.4,418.9,681.5,418.4,682.6z
					 M399.1,709c-0.1-0.2-0.2-0.4-0.3-0.7c-0.3,0.2-0.6,0.5-0.7,0.8c0,0.1,0.3,0.4,0.5,0.6C398.8,709.4,399,709.2,399.1,709z"/>
				<path class="st1" d="M148,628.9c2.1,5.7,4.3,11.4,6.3,17.2c3.4,10,7.1,19.9,9.9,30.1c2.2,8,7.8,12.9,13.7,17.6
					c5.2,4.1,11.5,7,16.4,11.4c4.3,4,7.3,9.5,10.9,14.4c-0.5,0.6-1,1.2-1.5,1.8c-3.1-1.2-6.6-1.9-9.4-3.6
					c-11.9-7.3-24.8-13.8-32.9-25.6c-4.2-6-6.4-13.5-9-20.5c-6.7-18.3-13.6-36.5-19.6-55c-8-24.4-15.4-49-22.8-73.6
					c-1.4-4.6-1.3-9.7-2-14.7c5.4-0.5,5.4,3.9,6.1,6.1c2.7,7.6,4,15.6,6.6,23.2c4.9,13.9,10.3,27.6,15.6,41.4c1,2.5,2.4,4.9,3.8,7.7
					c0.2-1.8,0.3-3.2,0.6-6.2c2.4,2.2,4.5,3.3,5.4,5c8.5,17.3,18.6,33.7,26.6,51.3c4.8,10.7,11.5,20.7,20.2,29.3
					c14.3,14.2,27.7,29.3,41.4,44.1c1.7,1.9,3.2,4,4.8,6c-0.5,0.6-1.1,1.3-1.6,1.9c-3.5-1.8-7.5-2.9-10.3-5.4
					c-8.4-7.5-16.4-15.6-24.6-23.5c-3.2-3.1-6.3-6.2-9.4-9.3c-14-13.8-26.5-28.6-33.5-47.4c-3.1-8.3-7.2-16.2-10.8-24.2
					C148.5,628.8,148.3,628.8,148,628.9z"/>
				<path class="st1" d="M406.9,448.6c-8.2,0.6-17-4.8-26-9.9c-1.3-0.7-1.9-2.6-3-3.8c-0.9-1-1.9-2.2-3.1-2.4
					c-6.5-1.1-7.1-2.2-3.2-7.3c10.5-13.8,24.7-21,42-21.6c8.8-0.3,16.2,3.3,21,11.2c2.6,4.3,5.1,8.6,7.8,12.9
					c2.1,3.4,1.4,6.2-1.2,8.8C432.6,445.3,421.6,448.4,406.9,448.6z M409.1,409.5c-10.2,0-18.1,7.2-18.2,16.4
					c0,8.3,8.5,16.6,17,16.5c10.8-0.1,18.3-6.9,18.7-16.7C427,418.6,418.9,408,409.1,409.5z"/>
				<path class="st1" d="M333.5,147.9c1.1-1.5,2-3.8,3.5-4.3c8-2.5,16.2-4.7,24.4-6.6c3.6-0.8,7.5-1,11.2-1c1.8,0,3.5,1.5,5,2.8
					c10.2,0,20.5-1.1,30.5,3.9c5.6,2.8,12,3.7,17.9,5.9c1.4,0.5,2.3,2.7,3.4,4.1c-21.3,4.2-41.6,8.3-62.2,12.3
					c-1.3-4.2,2.7-5,5.3-6.1c9-3.6,18.2-6.8,27.4-10.1c0.6-0.2,1-0.6,1.8-1.1c-5-1.2-23.6,0.9-33.4,4.2
					c-10.5,3.5-20.9,7.6-31.6,11.6c-1.5-5.1,2.3-6,4.5-7.4c6.7-4.3,13.6-8.2,20.4-12.2c-0.2-0.5-0.3-1-0.5-1.5
					c-8.8,2.1-17.6,4.3-26.3,6.4C334.3,148.5,333.9,148.2,333.5,147.9z"/>
				<path class="st1" d="M521.6,481.4c2.2,0.9,4.2,3.8,6.9,0.9c-0.4,2.2-0.7,4.4-1.2,7.4c5.9-5.8,5.3-11.9,2.9-17.1
					c-1.5-3.2-0.8-5.3,0.3-8.2c2-5.1,5.5-10.4,1.1-16.1c1.9,1.6,3.9,3.2,6,4.9c2.7-2.1,0.1-4.2-1.1-6.3c-0.8-1.3-1.9-2.3-2.9-3.5
					c-1,1.3-2,2.7-2.9,4c-1.3-1.5-2.6-2.9-3.6-4.1c-1.9,4.5-4,9.3-5.9,14.3c-0.4,1-0.1,3.3,0.3,3.4c4.6,1.1,3.9,5.3,5.2,8.3
					c-0.9-1-2-1.8-2.8-2.9c-2-2.6-3.7-5.5-7.7-3c-1,0.6-2.3,0.7-2.5,0.7c-0.5-4.2-1-7.9-1.3-11.7c0-0.7,1-1.4,1.6-2.1
					c0.3-1.7,0.8-3.4,0.9-5c0.1-6,0-12.1,0-19.7c3.6,1.2,5.6,2,7.7,2.7c-0.2-0.6-0.5-1.7-0.8-2.9c1.7,2,3.4,4,5.5,5.8
					c-1.1,5.8-5.2,4.1-8.7,3.5c0,5.9,0,11.7,0,17.4c0.5,0.1,1,0.2,1.5,0.3c4.1-6.3,6.6-13.3,7.2-21.2c0.4-2.1,1-4.3,2-6.5
					c1-2.2,2.3-4.3,3.4-6.4c-1.4,6.7-2.8,13.5-4.2,20.2c8.6,2,13.5,9.7,11.1,16.8c-0.9,0.5-2.4,0.8-2.7,1.5c-1.8,4-3.4,8.2-4.9,12.4
					c-0.3,0.8-0.1,2,0.2,2.9c1.1,3.6,2.3,7.1,3.4,10.6c1-0.5,2-0.9,3-1.4c-4,15.5-7.9,31.1-11.8,46.6c-2.7,10.5-5.2,21-8,31.4
					c-0.6,2.2-1.6,4.4-3,6.2c-1,1.2-2.9,2.3-4.4,2.4c-0.8,0-1.9-2.2-2.4-3.6c-0.8-2.1-1.7-4.3-1.9-6.5c-0.1-1.2,1.5-2.4,2.3-3.6
					c1.1,1,2.3,2,3.4,3c-0.9,0.7-1.9,1.3-2.7,2c-0.1,0.1,0.5,1,0.8,1.5c0.7-0.6,1.4-1.1,2.1-1.7c3.7,0.9,1.9-2.2,1.7-3
					c-0.7-3.3-1.8-6.6-2.9-9.8c-1.8-5.3-1.3-10.3,1.5-15.1c1.4-2.4,2.2-5.1,3.4-7.6c0.6-1.2,1.5-2.2,2.3-3.4c0.9,1.3,1.9,2.6,2.7,4
					c0.3,0.5-0.1,1.3-0.1,2c-0.9,0.6-1.7,1.3-2.6,1.9c1,0,1.9,0,2.9,0.1c0.6-5.9,1.3-11.9,1.9-17.8c0.7-6.9,1.4-13.8,2.1-21
					c-0.2,0-1.4-0.2-2.8-0.4C522.6,486.5,522.1,484,521.6,481.4z M515.7,552c6-5.1,2.8-12.9,6.8-17.8c-4-3-6.2-2.7-7.7,1.1
					C512.6,540.6,513.5,545.8,515.7,552z M535.8,487.2c-9.4,6.7-8.8,16.1-9,25.3c0.7,0.2,1.3,0.4,2,0.6
					C531.2,504.5,533.5,495.9,535.8,487.2z"/>
				<path class="st1" d="M483.6,547.3c-1.2,1.1-3.3,1.9-3.6,3.2c-6,22.4-16.4,42.6-28.7,62.1c-7.1,11.3-12.3,24-19.9,34.9
					c-7.8,11.2-13.9,23.4-23.6,33.5c-13.1,13.7-24.5,28.9-35.2,44.6c-2.4,3.5-5.3,6.8-7.9,10.2c-0.7,1-1.3,2.1-1.9,3.1
					c0.3,0.4,0.6,0.8,0.9,1.2c5.8-2.3,11.7-4.5,17.4-6.9c4.7-2,9.3-4.3,14-6.2c1.2-0.5,2.8-0.2,4.2-0.3c-9.2,4.4-18.4,8.9-27.6,13.2
					c-4.2,2-8.5,3.9-12.9,5.6c-1.3,0.5-2.8,0.3-5.5,0.6c1-2.3,1.4-4,2.3-5.2c10.4-13.6,20.8-27.3,31.3-40.8
					c5.7-7.3,11.4-14.7,17.9-21.3c7-7.1,11.5-15.9,17.2-23.7c13.8-18.8,23.2-40.1,35.6-59.8c9.2-14.7,15.3-30.9,19.1-47.8
					c1-4.4-0.7-9.5-1.1-14.3c1.6,1.6,3.1,3.2,4.9,5c1.1-1.4,2.2-2.7,3.3-4.1c0.2,2.3,0.5,4.7,0.7,7c-3.2-0.3-4.6,0.9-3.5,4.3
					c1.2-0.8,2.3-1.5,3.5-2.3C484.3,544.6,483.9,546,483.6,547.3z"/>
				<path class="st1" d="M269.6,602.2c1.2,0,2.3-0.1,3.5,0c5.1,0.5,7.3,2.7,7,7.9c-0.6,10.2,2.6,18.9,9.9,26.1
					c1.1,1.1,2.2,2.4,3,3.7c2.3,3.8,1.4,5.8-2.9,7.3c-8.4,2.9-20.2-2.4-24.8-12.5c-3.1-6.8-5-14.4-5.9-21.9
					C258.3,604.5,260.6,602,269.6,602.2z"/>
				<path class="st1" d="M483.9,534.3c-1.1,1.3-2.2,2.7-3.3,4.1c-1.8-1.8-3.3-3.4-4.9-5c0,0,0,0,0,0c-0.7-1-1.4-2-2-3c0,0,0,0,0,0
					c-0.7-1-1.4-2-2.1-3c-1.3-1.3-2.6-2.6-3.9-3.9c-0.8-4.6-4.2-5.3-8-5.1c0,0,0,0,0,0c-0.6-1-1-2.7-1.7-2.9
					c-2.7-0.7-5.5-0.8-8.3-1.1c0,0,0,0,0,0c-0.3-2.9-0.4-5.9-1.1-8.7c-0.3-1.3-1.9-2.2-2.9-3.3c0,0,0,0,0,0c-2.4-6.1-7-9.9-13-12
					c-0.8,0-1.6,0-2.4,0c-0.1-0.2-0.3-0.3-0.4-0.5c0-0.8,0-1.6,0-2.4c-0.7-0.7-1.4-1.4-2-2.1c0,0,0,0,0,0c-1.2-2.1-2.4-4.2-3.8-6.7
					c9.9,1.9,18.8,4.5,26.5,10.2c2.1,1.6,5.8,1.2,8.7,1.7c0,0,0.3,0.3,0.3,0.3c-1.6,5.1,2.4,2.9,4.4,3.4c0.6,0.6,1.3,1.3,1.9,1.9
					c0.7,1,1.4,2,2.1,3.1c0.3,0.3,0.6,0.6,0.9,0.9c0.2,3.8,0.4,7.7,5,9c0,0,0,0,0,0c0,3.1-0.1,6.3,4,7c0,0,0,0,0,0
					c1.9,4.7,3.8,9.4,5.8,14.1C483.7,531.6,483.8,532.9,483.9,534.3z"/>
				<path class="st1" d="M356,611.9c0.2,16.7-7.1,29.1-21.7,37c-2.2,1.2-6,1.1-8.3,0c-3.5-1.8-2.2-5.3,0.2-7.3
					c5.6-4.8,7.8-11.3,9.3-17.9c1.2-5.4,1.6-11.2,1.2-16.7c-0.4-5.3,2.8-7,6.5-7.5c3.3-0.5,6.8,0.3,10.1,1.2
					c1.1,0.3,2.2,2.4,2.4,3.8C356.3,606.9,356,609.4,356,611.9z"/>
				<path class="st1" d="M432.8,490.4c6,2.2,10.7,5.9,13,12c-0.5,1.5-1.1,2.9-2.1,5.6c-3-1.5-6.1-3.1-9.3-4.6
					c-11.5-5.6-22.7-12-34.7-16.3c-6.9-2.5-14.8-2.5-21.2-6.7c-3.5-2.3-6.9-5-9.8-8.1c-1.4-1.4-1.5-4.1-2.5-7
					c2.5,0.2,4.2,0.1,5.6,0.5c13,4.4,26.1,8.7,39,13.6c4.9,1.8,9.3,4.9,14,7.4c0.9,0.5,2,0.4,3,0.6c0,0-0.1-0.1-0.1-0.1
					c0.7,0.9,1.3,1.7,2,2.6c0.2,0.1,0.3,0.3,0.4,0.5C431.1,490.4,431.9,490.4,432.8,490.4z"/>
				<path class="st1" d="M534.7,380.5c0,4.5,0.1,9-0.1,13.5c0,1.2-0.6,2.9-1.5,3.3c-0.8,0.4-2.5-0.4-3.4-1.2
					c-4.4-3.9-8.7-7.9-12.8-12.1c-2.2-2.3-3.5-5.1-3.4-8.8c0.2-8.4-0.6-16.8-0.8-25.2c0-2.1,1.1-4.2,1.6-6.2
					c2.5,0.9,5.9,1.1,7.4,2.8c4.4,5.4,9,11,11.6,17.4c2,4.9,1.2,11,1.7,16.5C535,380.4,534.8,380.5,534.7,380.5z"/>
				<path class="st1" d="M306.3,744.5c13.3-3.2,24.7-9.5,35-17.5c10.3-8,19.7-17.2,29.5-25.9c3.1-2.8,6-5.9,9.2-8.7
					c0.8-0.7,2.4-0.6,3.7-0.9c-0.2,1.2,0,2.7-0.6,3.4c-12.8,15.2-25.9,30.1-38.7,45.4c-4,4.7-8.8,7.2-14.8,7.6
					c-6.4,0.4-12.8,0.8-19.2,1C306.6,749.1,306.6,748.9,306.3,744.5z"/>
				<path class="st1" d="M507.3,215.8c-1.9,0-3.4,0-6.1,0c6.7,3.5,11.9,7.2,14.5,13.5c2.3,5.8,4.7,11.5,7.5,18.4
					c-2.9-0.2-4.3,0.1-5.3-0.4c-7.5-3.8-15.1-7.4-22.3-11.7c-3.7-2.2-6.7-5.5-9.9-8.4c-0.6-0.6-0.9-1.7-1-2.6
					c-0.3-4.1,5.4-11.3,9.2-12.1c0.8-2.1,1.2-4.3,2.5-5.8c0.9-1.1,2.9-1.9,4.3-1.7C503.5,205.4,507.5,212.2,507.3,215.8z"/>
				<path class="st1" d="M491.7,480.4c1.3,1.7,3.4,3.3,3.9,5.2c4.3,18.9,5.4,37.9-0.4,56.7c-3.7,11.9-7.9,23.7-12.1,35.5
					c-4.8,13.2-9.5,26.5-15,39.5c-2.8,6.8-6.9,13.1-10.8,19.4c-0.7,1.1-3.1,1.2-4.8,1.8c-0.3-0.4-0.6-0.8-0.9-1.3
					c1.3-2.6,2.7-5.1,3.9-7.7c3.6-7.9,7.3-15.8,10.5-23.9c2.7-7.1,4.1-14.7,7.2-21.6c4-8.8,6.5-17.9,8-27.4c0.1-0.8,1.5-1.5,2.3-2.2
					c-4.6,17.1-9.1,34.3-13.7,51.4c-0.1,0-0.3,0-0.4,0c1.2-2.8,2.5-5.6,3.7-8.4c1.2-2.9,2.4-5.7,3.4-8.6
					c4.8-14.8,9.4-29.6,14.3-44.4c3.1-9.2,4.7-18.6,5-28.3C496.3,503.9,494.9,492.1,491.7,480.4z"/>
				<path class="st1" d="M460.3,571.1c-2.8,5.5-5.6,11.1-8.5,16.6c-6.6,12.7-13.2,25.3-20,37.9c-5.1,9.4-10.4,18.7-15.8,27.9
					c-0.8,1.4-2.6,2.2-3.9,3.2c-0.5-0.4-1.1-0.7-1.6-1.1c0.8-2.5,1.3-5.1,2.3-7.5c6.3-14.3,12.3-28.7,19.1-42.8
					c5.5-11.4,11.5-22.7,20.6-31.9c1.7-1.7,4.2-2.6,6.3-3.8C459.4,570.1,459.8,570.6,460.3,571.1z"/>
				<path class="st1" d="M530.5,284.4c-1.6-1-3.2-1.9-4.7-3.1c-5.4-4.6-10.5-9.4-16-13.9c-6.6-5.5-10.2-12.9-14.2-20.2
					c-1.3-2.4-2.3-5-3.5-7.5c0.4-0.4,0.8-0.8,1.3-1.1c1.4,0.5,3.1,0.6,4.1,1.5c9.5,8.4,19.5,16.3,28.1,25.6c3.9,4.2,4.8,11.3,7.1,17
					C531.9,283.2,531.2,283.8,530.5,284.4z"/>
				<path class="st1" d="M217.8,337.7c1.3-0.7,2.7-2.2,3.9-2c12.4,1.8,23.6,5.6,33.6,14.1c10.5,8.9,17.7,20,24.9,31.4
					c1,1.5,0.9,3.7,1.3,5.5c-0.4,0.4-0.9,0.9-1.3,1.3c-1.7-1.2-3.7-2.1-4.9-3.6c-3.9-5-7-10.7-11.3-15.4c-5-5.5-10.8-10.4-16.4-15.4
					c-8.3-7.4-18.2-11.8-29-14.3C218.3,338.8,218.1,338.3,217.8,337.7z"/>
				<path class="st1" d="M308,153c-3.2-0.3-6.2-0.6-9.4-0.9c0.2,2.1,0.4,4.3,0.7,7.4c-7.5-4.2-13.9-8.6-21-11.4
					c-7.3-2.9-15.2-4.1-22.8-6.3c-7.3-2.1-15.3,0.6-23.5-2.9C245,131,305.5,142.7,308,153z"/>
				<path class="st1" d="M93.2,451.1c-1.4-1.3-3.6-2.3-4.2-3.9c-3.4-8.8-6.3-17.7-9.4-26.5c-0.4-1.2-0.8-2.4-1.8-3.5
					c-0.1,1.3,0.2,2.9-0.4,4c-0.4,0.8-1.9,1.1-2.9,1.7c-3.1-9.3-3.9-18.1-1.8-27.1c0.5-2.3,1.6-4.7,3.2-6.4c0.7-0.7,4,0,4.8,1
					c1,1.4,1.3,4,0.7,5.6c-1.9,5.5-0.3,10.7,1.3,15.7c3.6,11.2,7.5,22.4,11.2,33.6c0.4,1.4,0.5,2.9,0.7,4.3
					C94.1,450.1,93.6,450.6,93.2,451.1z"/>
				<path class="st1" d="M316,520.2c4.2-4.8,4.1-8.8-0.4-13.8c-0.6-0.6-1.3-1.1-1.7-1.8c-2-2.8-5.3-5.4-2.7-9.4
					c1.8-2.8,8.8-3.6,12.2-1.7c7.5,4.2,9.6,10.7,8.6,18.8c-0.8,6.2-4.5,9.8-10.2,11.7c-2.3,0.8-4.5,1.5-6.8,2.2
					C315.4,524.2,315.7,522.2,316,520.2z"/>
				<path class="st1" d="M196.5,227.1c1.2-3.9,2.3-7.7,3.4-11.5c1.5-4.9,3.4-9.8,4.2-14.8c0.7-4.7,6.1-7.2,9.9-4.6
					c5.2,3.6,7,9.4,4,15.2c-1.9,3.6-3.8,7.2-6.3,10.4C208.3,226,204.1,229.2,196.5,227.1z"/>
				<path class="st1" d="M454.6,695.5c1.6-3.4,3.2-6.8,4.7-10.3c5.3-12.5,11.5-24.8,15.5-37.8c3.9-12.8,7.4-25.7,11.1-38.6
					c2.6-9.3,6.2-18.4,8.9-27.7c4.6-15.9,8.4-32.1,13.2-47.9c2.6-8.5,6.6-16.7,10-24.9c0.2-0.5,1.1-0.6,1.6-0.9
					c-3.1,9-6.6,17.9-9.3,27.1c-6,19.9-11.6,39.9-17.5,59.8c-4.7,15.8-9.7,31.6-14.7,47.4c-3.9,12-7.9,24-12.3,35.9
					C463.3,684.2,460.7,691,454.6,695.5z"/>
				<path class="st1" d="M383.3,171.1c1.1-1.3,1.7-2.7,2.8-3.2c10.1-4.4,20.6-7.9,31.7-9c6.3-0.6,12.7-1.6,19-1.9
					c4.8-0.2,8.7,3.4,8.8,6.5C425,166,404.6,168.5,383.3,171.1z"/>
				<path class="st1" d="M457.3,245.5c8.9,1.4,17.1-0.2,24.5-6c3.9,17.1-4.9,25-24.2,22.8c1-2.9,2.8-5.6,2.6-8.3
					c-0.2-2.5-2.5-4.8-3.9-7.2C456.6,246.4,456.9,245.9,457.3,245.5z"/>
				<path class="st1" d="M532.5,418.5c-1.2,2.1-2.5,4.2-3.4,6.4c-1,2.1-1.6,4.4-2.4,6.6c-1.7-2-3.4-4-5.1-6c-1-1-1.9-1.9-2.9-2.9
					c0-8.3-0.1-16.6,0.2-24.9c0.1-1.8,1.9-3.5,2.9-5.3c1,1,2,2,2.9,2.9c0.7,1,1.4,2,2.1,3.1c0.6,0.6,1.3,1.3,1.9,1.9
					c0.7,1,1.4,2,2,3.1c0,0,0,0,0,0c0.9,1.7,1.8,3.4,2.8,5.1c0,1,0,2,0,3c-2.8,1.6-3.1,2.5-1,4C532.5,416.5,532.5,417.5,532.5,418.5
					z"/>
				<path class="st1" d="M495.6,259.7c-1.4,0.7-3,1.1-4.3,2c-6.2,4.6-13,7.4-20.8,8.2c-2.9,0.3-5.6,2.3-8.4,3.7
					c-2.8,1.4-5.5,2.9-8.1,4.6c-3.3,2.3-6,4.1-10.6,1.9c-2.3-1.1-6.9,0.7-9.6,2.4c-5.8,3.8-11,8.4-16.4,12.6
					c0.5,1.6,0.9,3.1,1.4,4.6c-1.6-1.6-3.7-3-4.7-5c-0.3-0.6,2.2-2.9,3.7-4.1c3.9-3.2,8-6.2,11.8-9.5c4.2-3.7,9-5.2,14.5-4.5
					c4.2,0.6,7.9-0.4,11.1-3.1c7.9-6.6,18.4-6.4,27.1-10.9c2.7-1.4,5.1-3.3,7.7-4.9C492.7,256.2,495,255.3,495.6,259.7z"/>
				<path class="st1" d="M317.5,458.4c0.6,0.7,2.4,2.1,3.4,3.9c1,1.9,1.7,4.3,1.8,6.5c0.1,4.7,1.8,8.6,4.1,12.7
					c2.2,3.9-1.2,7.4-5.8,6.9c-6.2-0.7-8.7-4.7-8.1-11.1c0.4-4.5-0.2-9.1-1.2-13.5C310.7,459.7,311.3,458.4,317.5,458.4z"/>
				<path class="st1" d="M108.8,233.6c-0.8,1.8-1.7,3.6-2.3,5.5c-2.7,8.7-5.2,17.4-8.1,26c-0.9,2.6-3,4.9-5,6.9
					c-0.6,0.7-2.9,0.7-3.5,0.1c-0.9-0.8-1.6-2.8-1.2-3.9c3.5-11.2,5.3-23.3,13.5-32.5c1.4-1.5,3.5-2.4,5.2-3.6
					C107.8,232.6,108.3,233.1,108.8,233.6z"/>
				<path class="st1" d="M460.6,322.8c-1.6,2.4-2.6,5.5-4.8,7.2c-6.5,5.3-14.1,8.4-22.5,9.7c-5.3,0.8-10.4,2.3-15.6,3.5
					c-2.5,0.6-4.9,1.1-7.4,1.6c-0.3-0.6-0.7-1.3-1-1.9c2-1.4,3.8-3.5,6-4.2c6.3-2,13-2.9,19.1-5.3c7-2.8,13.5-6.8,20.3-10.2
					c1.4-0.7,3-1.3,4.5-2C459.6,321.8,460.1,322.3,460.6,322.8z"/>
				<path class="st1" d="M96.5,522.9c0.7,1.3,1.7,2.6,1.9,4c0.8,5,1.3,10,2.1,15c0.9,5.3,2,10.5,3,15.7c0.1,0.5,0.5,1.3,0.9,1.4
					c6,1.5,1,5.3,1.6,7.9c-1.4,0.1-3.5,0.7-4.1,0c-1.8-2-3.9-4.3-4.4-6.8c-1.7-9.6-3-19.3-4.1-29c-0.3-2.5,0.7-5.1,1-7.6
					C95.2,523.3,95.9,523.1,96.5,522.9z"/>
				<path class="st1" d="M464.7,373.6c1.7-0.1,3.8,0.3,4.9-0.6c3.2-2.6,4.7-0.9,6.2,1.6c3.5,5.8,3.3,12.4,3.9,18.8
					c0.7,6.8,1.2,13.6,1.8,20.4c0.9,0.5,1.8,0.9,2.7,1.4c0.6-1.3,1.2-2.6,1.8-3.9c0.6,0.4,1.1,0.9,1.7,1.3c-0.4,1.1-0.8,2.1-1.1,3.2
					c-1.1,0.1-2.2,0.1-3.2,0.2c0,0.4,0,0.8,0,1.2c1.1,0,2.1,0,3.2,0c-0.3,1.1-0.7,2.1-1,3.2c-1.2-0.6-3.2-0.9-3.6-1.8
					c-1.6-4.6-3.3-9.2-4.1-14c-1-6-1.1-12.2-1.6-19.5c-0.4,1.9-0.5,2.7-0.6,3.4c-1.2,0.2-2.4,0.3-3.6,0.5c-0.3,0.4-0.6,0.9-0.8,1.3
					c1.5,1.4,3,2.8,4.4,4.2c-0.5,1-0.9,2-1.4,3c-1.1-0.7-2.8-1.2-3.3-2.2c-1-2.2-2.2-4.7-2-7C469.5,382.7,467.2,378.2,464.7,373.6z
					 M472.2,382.9c0.5-0.5,0.9-0.9,1.4-1.4c-1-0.9-1.9-1.7-2.9-2.6c-0.5,0.5-0.9,1-1.3,1.4C470.3,381.2,471.3,382,472.2,382.9z"/>
				<path class="st1" d="M422.5,389.8c8.5-0.8,14,2.4,18.8,5.9c4.6,3.3,8.9,7.4,9.9,13.6c0.2,1.3-0.1,2.7-0.1,4
					c-1.4-0.4-3.3-0.3-4.3-1.2c-3.6-3.4-6.8-7.4-10.5-10.6c-2.7-2.3-6.3-3.4-9.2-5.6C425.4,394.8,424.4,392.5,422.5,389.8z"/>
				<path class="st1" d="M470.7,306.7c1,1.5,3.1,3.2,2.8,4.3c-1.6,6.4-3.3,12.9-5.9,19c-2.9,7-9.1,11.2-15.5,14.9
					c-1.4,0.8-2.4,2.1-3.8,3.3c3.1,2.5,8.5-0.3,8.4,5.4c-2.4-0.4-4.9-0.9-8.2-1.5c1.3,1.8,1.8,2.5,2.4,3.3c-1.1,1.7-2.1,3.4-3.2,5.2
					c-1.1-1.6-2.2-3.2-3.2-4.8c-1.9-3.1-0.7-4.6,2.7-4.5c-2.8-5.3-2.1-6.1,3.5-9.9c4.7-3.3,9.6-7.1,12.9-11.7
					c2.8-3.9,3.6-9.3,5-14.1C469.6,312.8,470.1,309.7,470.7,306.7z"/>
				<path class="st1" d="M459.2,490.7c-2.9-0.5-6.6-0.1-8.7-1.7c-7.8-5.8-16.6-8.3-26.5-10.2c1.4,2.5,2.6,4.6,3.8,6.7
					c-6.9-3.1-13.9-6-20.7-9.3c-0.8-0.4-1-2-2.2-4.7c7.3,1.5,13,2.9,18.9,3.8c12.6,1.8,23.7,7,34.3,13.8
					C458.5,489.5,458.8,490.2,459.2,490.7z"/>
				<path class="st1" d="M96.5,275.9c-0.8,5.5-1.6,11-2.3,16.4c-0.3,1.9-0.9,4-0.6,5.8c0.9,4.8-3.4,6.7-5.3,10
					c-0.3,0.6-2.6,0.5-3.6,0c-0.7-0.4-1.3-2-1.1-2.9c1.5-7.8,3-15.5,5-23.2C89.5,278.5,91.3,275.2,96.5,275.9z"/>
				<path class="st1" d="M535,420.9c1.4-9.9,2.8-19.9,4.2-30c4-1.5,6.6,0.9,7.1,4.3c0.5,4.1,0.1,8.5-0.9,12.6
					c-0.9,3.7-2.8,7.2-4.8,10.5c-1,1.6-3.1,2.6-4.6,3.9C535.6,421.7,535.3,421.3,535,420.9z"/>
				<path class="st1" d="M499.7,290.7c1,1.3,2.8,2.5,2.9,3.9c0.7,5.5,0.7,11.2,1.2,16.7c1,10.8,2.1,21.6,3.2,32.4
					c0.1,0.8,0.7,1.5,1.2,2.5c1.2-0.6,2.3-1.1,3.4-1.6c0,2.7,0.4,5.4,0,8c-0.2,1.4-1.7,2.7-2.7,4c-1-1.2-2.6-2.4-2.9-3.8
					c-1.3-6.4-2.5-12.8-3.1-19.3C501.5,319.3,500.7,305,499.7,290.7z"/>
				<path class="st1" d="M414.1,169.5c9.3,0,18.3,0,27.3,0c0.3,5.1-2.5,8-7.2,8.3C426.3,178.3,414.4,173.3,414.1,169.5z"/>
				<path class="st1" d="M83.9,475.2c-3.3,0.8-4.7-0.6-4.4-3.9c0.6-7.8,1.3-15.6,1.9-23.3c3.7-1.4,5.1,0,6.2,3.3
					c2.1,5.9,0.1,11.1-1.8,16.4C85.1,470,84.6,472.4,83.9,475.2z"/>
				<path class="st1" d="M82.1,354.2c1.5-2.1,2.9-4.3,4.7-6.1c0.6-0.6,2.6-0.4,3.6,0.1c0.7,0.4,1.1,1.9,1.1,3
					c0.1,5.5,0.5,11-0.2,16.4c-0.3,2.1-2.6,5.1-4.6,5.7c-3.4,1-3.1-2.3-3.1-4.6c0-4.7,0-9.5,0-14.2C83,354.4,82.6,354.3,82.1,354.2z
					"/>
				<path class="st1" d="M81.5,495.5c2,1.1,3.8,1.6,4.1,2.4c2.8,9.1,5.3,18.2,7.9,27.3c-4.2,2-5.6,0.8-6.8-2.2
					C83.5,514.6,81.4,506,81.5,495.5z"/>
				<path class="st1" d="M434.8,315.7c0.7,0.4,1.6,0.5,2.1,1.1c4.4,5.9,4.4,5.9,11.3,2.4c-0.8-3.9-0.6-8-5-10.6
					c-2.3-1.4-1.4-3.1,3.8-6.2c2,3.4,4.7,6.7,5.9,10.4c1.6,4.8,5.3,0.7,7.4,2.6c-7,3.7-14.1,7.4-21.2,11.1
					C437.3,322.2,436,319,434.8,315.7z"/>
				<path class="st1" d="M430.3,179.8c-0.6,2.8-0.5,4-1,5c-3,5.5-14.8,8.8-20.3,5.5c-0.9-0.5-2-1.6-1.9-2.3c0.1-1,1.1-2.5,2-2.7
					C415.7,183.5,422.4,181.8,430.3,179.8z"/>
				<path class="st1" d="M91.9,376.7c1.2,5.7,2.3,10.9,3.3,16.1c0.2,1.3,0.6,2.8,0.1,3.8c-0.6,1.2-2.2,2.6-3.3,2.6
					c-1.1,0-2.9-1.5-3.2-2.7c-1.3-4.3-2.2-8.8-3.1-13.2C84.7,379.2,87.2,376.6,91.9,376.7z"/>
				<path class="st1" d="M445.7,455.4c-4.8-1-4.8,3.4-6.8,6.1c4.7,2,9.2,3.6,13.6,5.8c1.4,0.7,2.2,2.7,3.3,4.1
					c-5.6-2.2-11.1-4.5-16.8-6.5c-2.4-0.9-5.2-0.8-7.5-1.8c-1.4-0.6-2.4-2.3-3.5-3.5c1.2-0.8,2.4-1.9,3.7-2.2
					c1.7-0.4,3.6-0.1,4.8-1.2c1.8-1.3,3.4-3.1,5.4-3.6C442.8,452.4,444.4,454.4,445.7,455.4z"/>
				<path class="st1" d="M517.8,281.6c-0.9,0.2-1.8,0.4-2.5,0.5c2,8.6,3.9,16.9,5.7,25.1c0.2,0.9,0.2,2-0.1,2.8
					c-0.7,1.8-1.5,3.7-2.6,5.3c-0.3,0.4-3-0.3-3-0.5c0-2.2,0.2-4.4,0.5-6.6c0.1-0.6,0.6-1.2,0.9-1.8c0.4,0.2,0.9,0.4,2.5,1.2
					c-3.1-10.7-6-20.6-8.9-30.7C514.2,275.7,516.5,277.8,517.8,281.6z"/>
				<path class="st1" d="M122.2,205.9c-1.1,2.1-2.1,4.2-3.3,6.2c-2.2,3.6-4.3,7.3-6.9,10.5c-1,1.2-3.6,1.1-5.4,1.7
					c0.2-1.9,0-4.1,0.9-5.6c2.1-3.7,4.5-7.2,7.2-10.5c1.4-1.7,3.7-2.8,5.5-4.2C120.7,204.6,121.4,205.2,122.2,205.9z"/>
				<path class="st1" d="M91.8,327.2c-2.1,6,1.2,13.4-5.5,18.2c-0.9,0.6-2.4,1.4-2.9,1c-0.9-0.6-1.9-2.2-1.7-3.1
					c1.2-4.8,2.4-9.6,4.3-14.1c0.6-1.4,3.1-2,4.7-3C91,326.5,91.4,326.8,91.8,327.2z"/>
				<path class="st1" d="M487.7,412.5c1.2,1.7,3.3,3.4,3.5,5.2c0.9,6,1.4,12.1,1.3,18.1c0,1.5-2.7,3.5-4.6,4.4
					c-1.7,0.7-4-0.2-5.8,0.3c-1.3,0.4-2.2,1.9-3.3,3c-3.9-0.7-4.4-3.3-3.6-7c3.6,0.3,7.1,0.6,10.6,0.9c3,0.3,4.4-1,4.1-4
					C489.1,426.5,488.4,419.5,487.7,412.5z"/>
				<path class="st1" d="M538.5,481.4c-1,0.5-2,1-3,1.4c-1.1-3.6-2.3-7.1-3.4-10.6c-0.3-0.9-0.5-2.1-0.2-2.9
					c1.5-4.2,3.1-8.3,4.9-12.4c0.3-0.8,1.8-1,2.7-1.5c0,5.3,0,10.7,0,16c-1.8,1-4.4,1.7-1,4C538.5,477.4,538.5,479.4,538.5,481.4z"
					/>
				<path class="st1" d="M399.7,726.4c1.3-2.5,2.2-5.2,3.9-7.3c2.2-2.8,5-5.2,8.3-8.5c0.8,3.1,1.1,4.5,1.7,6.7
					c3.4-1.2,6.5-2.5,9.7-3.4c1.9-0.6,4-0.8,6-1.1c-6.2,3.3-12.4,6.8-18.8,9.8c-1,0.5-2.9-1.1-5.2-2.1
					C404.1,721.8,401.9,724.1,399.7,726.4z"/>
				<path class="st1" d="M473.7,465.5c3.6,0.9,3.5,3.3,1.6,5.5c-0.8,0.9-4.1,1.1-4.5,0.5c-4.8-7.1-12.6-8-19.9-10.3
					c-1.9-0.6-5.5,0.2-5-3.9c8.9,0.6,17,3.9,24.6,8.3C472.4,466.7,472.3,466.8,473.7,465.5z"/>
				<path class="st1" d="M457.7,354.6c5.3,3.4,7,10,3.9,13.6c0.8,1.6,1.5,3,2.2,4.5c-4.4-3-8.7-6-13.1-9.1c4.2,0.2,2.9-3,3.2-5.1
					c1.2,0.6,2.4,1.2,3.8,1.8C457.7,358.1,457.7,356.4,457.7,354.6z"/>
				<path class="st1" d="M306.6,423.8c8.7-1,13.8,2.3,18.4,6.4c0.8,0.7,0.2,2.9,0.3,4.4c-1.2,0-2.5,0.5-3.5,0
					c-3.8-1.8-7.6-3.8-11.2-6C309.4,427.8,308.5,426.1,306.6,423.8z"/>
				<path class="st1" d="M81.9,326.5c-0.5-7.4,4.8-15.4,10.1-15.6C93.4,318.8,88.8,326.1,81.9,326.5z"/>
				<path class="st1" d="M521.8,392.5c-1,1.8-2.9,3.5-2.9,5.3c-0.3,8.3-0.2,16.6-0.2,24.9c-4.7-3.2-4.1-8.1-3.9-12.8
					c0.3-6.5,0.9-13,1.5-21C518.4,390.2,520.1,391.3,521.8,392.5z"/>
				<path class="st1" d="M220.3,425c3.8,0.5,8.8-3,9.6,2.9c0.2,1.6-3,5.1-4.8,5.3C218.8,433.8,222.3,427.7,220.3,425z"/>
				<path class="st1" d="M478.8,455.3c-2.7,0-5.4,0-8.5,0c0.4,2.4,0.9,5.3,1.5,8.2c-2-3.7-4.5-7.3-5.7-11.3
					c-0.8-2.9,2.3-3.4,4.3-2.4C473.4,451.3,476,453.5,478.8,455.3z"/>
				<path class="st1" d="M479.7,491.4c2.1-0.2,4.2-0.5,7.3-0.8c0.9,0.1,2.9,0.4,4.9,0.7c-0.1,1.5-0.2,3.1-0.3,4.6
					c-1.6-0.5-3.1-1-4.9-1.5c0,0.8,0.3,2.2-0.1,3.4c-0.4,1-1.4,2.1-2.4,2.3c-0.6,0.2-1.9-1.1-2.3-1.9
					C481,496,480.4,493.7,479.7,491.4z"/>
				<path class="st1" d="M464.7,215.5c-2.4,2.3-3.7,4.7-5.4,5.1c-3.3,0.7-3.3-2.3-3.4-4.6c-0.1-2.9,0.3-6.1,3.9-6
					C461.2,210.1,462.5,212.9,464.7,215.5z"/>
				<path class="st1" d="M543,423.4c-0.4,4.7-0.8,8.8-1.1,12.9c-0.6,0.3-1.1,0.5-1.7,0.8c-1.1-1.2-3-2.3-3.3-3.8
					C535.8,428.3,538,424.8,543,423.4z"/>
				<path class="st1" d="M193.5,208.8c-2.8,2.4-4.1,4.4-5.9,4.8c-3,0.7-3.4-1.7-3.2-4.1c0.2-2.2,0-5.1,3.4-4.6
					C189.3,205.2,190.6,206.8,193.5,208.8z"/>
				<path class="st1" d="M460.9,567.2c-3.4-0.3-7.3,1.5-6.9-3.6c0.1-1.2,2.2-3.2,3.4-3.2C462.4,560.3,460.4,564.1,460.9,567.2z"/>
				<path class="st1" d="M363.8,460.9c0.7,1.4,2.2,3,1.9,4.2c-0.3,1.3-2.3,3.1-3.5,3.1c-1.2-0.1-2.9-2.1-3.1-3.5
					c-0.1-1.2,1.6-2.6,2.5-3.9C362.4,460.8,363.1,460.8,363.8,460.9z"/>
				<path class="st1" d="M395.5,351.1c-0.3-4.1,3.2-7.9,6.1-7.4c0.8,0.1,1.9,0.9,2.2,1.6c0.2,0.7-0.2,2.2-0.8,2.5
					C400.7,349.1,398.2,350,395.5,351.1z"/>
				<path class="st1" d="M448.8,250.3c-1-1.6-2.4-3.1-2.7-4.8c-0.1-0.7,2.5-2.8,3.4-2.5c1.3,0.3,2.9,2.1,3.2,3.5
					c0.2,1.1-1.3,2.5-2,3.8C450,250.3,449.4,250.3,448.8,250.3z"/>
				<path class="st1" d="M498.6,293.7c-1.7-1.8-3.3-3.6-5.4-5.7c1.8-1.7,3.4-3.1,6.1-5.6c0.2,3.8,0.3,6.1,0.4,8.4
					C499.3,291.7,499,292.7,498.6,293.7z"/>
				<path class="st1" d="M190.5,235.3c0-2.6,0-4.3,0-6.8c2.2,0.5,4.3,0.8,6.3,1.6c0.4,0.2,0.6,2.9,0.2,3.1
					C195.1,234.1,193,234.6,190.5,235.3z"/>
				<path class="st1" d="M510.6,374.5c-3.8-6.2-8-12.2-7.7-20C505.4,361.2,508,367.9,510.6,374.5z"/>
				<path class="st1" d="M453.9,358.5c-0.3,2.2,1,5.4-3.2,5.1c-1-1-1.9-1.9-2.9-2.9c1.1-1.7,2.1-3.4,3.2-5.2
					C451.9,356.5,452.9,357.5,453.9,358.5z"/>
				<path class="st1" d="M491.6,486.4c-1.6-1.2-3.7-2.1-4.7-3.7c-2.7-4.1,1.7-4.5,3-6.4c0.4,0.1,0.9,0.2,1.3,0.3
					c0.2,1.3,0.3,2.7,0.5,4C491.7,482.5,491.6,484.4,491.6,486.4z"/>
				<path class="st1" d="M520.5,484.4c-1.6-1.1-3.1-2.3-4.7-3.4c1.3-1.7,2.6-3.3,3.9-5c0.5,0.2,1,0.4,1.5,0.5c0.1,1.7,0.3,3.3,0.4,5
					C521.3,482.5,520.9,483.4,520.5,484.4z"/>
				<path class="st1" d="M458.7,478.5c3.4,0.4,6.9,0.4,10.1,1.3c1.2,0.3,1.9,2.4,2.9,3.7c-2.8-0.6-5.7-1.1-8.4-2
					C461.7,480.9,460.3,479.5,458.7,478.5z"/>
				<path class="st1" d="M196.5,430.3c1.2-1.6,2.3-3.2,3.5-4.8c1.1,1.1,2.1,2.2,3.2,3.2c-1.6,1.2-3.2,2.3-4.8,3.5
					C197.9,431.6,197.2,430.9,196.5,430.3z"/>
				<path class="st1" d="M504.6,274.7c-0.7-0.3-1.7-0.5-2.1-1.1c-1.8-2.3-3.6-4.7-5.2-7.2c-0.5-0.7-0.4-1.9-0.5-2.8
					c1.9,1.5,4.2,2.6,5.5,4.5C503.6,269.9,503.9,272.5,504.6,274.7z"/>
				<path class="st1" d="M516.6,336.7c5.3,0.2,10.1,3.3,11.1,7.1C524,341.4,520.3,339,516.6,336.7z"/>
				<path class="st1" d="M445.8,502.4c1,1.1,2.6,2.1,2.9,3.3c0.7,2.8,0.8,5.8,1.1,8.7C445.5,511.4,445.7,506.9,445.8,502.4z"/>
				<path class="st1" d="M449.8,514.4c2.8,0.3,5.6,0.5,8.3,1.1c0.8,0.2,1.2,1.9,1.7,2.9C456,518.2,452.1,518.2,449.8,514.4z"/>
				<path class="st1" d="M483.6,530.3c-1.9-4.7-3.8-9.4-5.8-14.1C479.8,520.9,481.7,525.6,483.6,530.3z"/>
				<path class="st1" d="M462.9,312.7c1.9-3.1,3.8-6.2,5.7-9.3c0.5,0.1,0.9,0.3,1.4,0.4c0.2,1,0.5,1.9,0.7,2.9
					c-1.6,1.2-3.2,2.3-4.8,3.5C464.9,311,463.9,311.9,462.9,312.7z"/>
				<path class="st1" d="M458,553.4c1.6,0,2.9,0,4.5,0c0,1.5,0,2.9,0,4.6c-1.5,0-2.9,0-4.5,0C458,556.5,458,555.2,458,553.4z"/>
				<path class="st1" d="M479.7,445.4c3.1,3.1-2.1,3.1-1.9,5.1c-1.1-1.3-2.3-2.6-4.2-4.8C476.5,445.6,478.1,445.5,479.7,445.4z"/>
				<path class="st1" d="M475.6,394.5c-1.5-1.4-3-2.8-4.4-4.2c0.3-0.4,0.6-0.9,0.8-1.3c1.2-0.2,2.4-0.3,3.6-0.5
					C475.6,390.5,475.6,392.5,475.6,394.5z"/>
				<path class="st1" d="M459.7,518.4c3.9-0.2,7.2,0.5,8,5.1C465.1,521.8,462.4,520.1,459.7,518.4z"/>
				<path class="st1" d="M316,520.2c-0.3,2-0.6,4-1,5.9c-1.2,0-2.5,0-3.7,0c-0.3-0.4-0.6-0.9-0.9-1.3
					C312.3,523.3,314.2,521.8,316,520.2z"/>
				<path class="st1" d="M473.9,509.3c-4.7-1.4-4.8-5.2-5-9C470.5,503.3,472.2,506.3,473.9,509.3z"/>
				<path class="st1" d="M514.8,301.6c-2.9-1.2-6.7-1.4-6-6.1C511.2,297.1,514.7,297.7,514.8,301.6z"/>
				<path class="st1" d="M429.6,712.5c0.6-3.4,2.2-4.3,6.7-3.7C434,710,431.8,711.2,429.6,712.5z"/>
				<path class="st1" d="M530.6,346.6c2,0,4,0,5.9,0c-0.3,1-0.6,1.9-0.8,2.9C534,348.5,532.3,347.6,530.6,346.6z"/>
				<path class="st1" d="M477.9,516.3c-4.2-0.7-4-3.9-4-7C475.2,511.6,476.5,513.9,477.9,516.3z"/>
				<path class="st1" d="M528.8,297.6c-4.2-0.7-4-3.9-4-7C526.1,292.9,527.4,295.3,528.8,297.6z"/>
				<path class="st1" d="M455.7,471.5c4.1,1,2.8,4.3,3,7C457.8,476.1,456.7,473.8,455.7,471.5z"/>
				<path class="st1" d="M484.6,543.3c-1.1,0.7-2.3,1.5-3.5,2.3c-1.1-3.4,0.3-4.5,3.5-4.3C484.6,542,484.6,542.6,484.6,543.3z"/>
				<path class="st1" d="M519.5,504.4c-2.9-2.1-0.6-4.1,0.3-6C519.7,500.3,519.6,502.3,519.5,504.4z"/>
				<path class="st1" d="M511.6,335.6c-0.8-0.3-1.6-0.7-2.5-1c0.8-1.2,1.5-2.3,2.3-3.5c0.4,0.5,0.8,1.1,1.2,1.6
					C512.3,333.7,511.9,334.6,511.6,335.6z"/>
				<path class="st1" d="M449.6,699.5c-0.5-3.8,1.2-4.8,4.7-3.7C452.7,697,451.1,698.3,449.6,699.5z"/>
				<path class="st1" d="M463.9,494.3c-1.9-0.5-6,1.7-4.4-3.4C461,492.1,462.5,493.2,463.9,494.3z"/>
				<path class="st1" d="M512.8,559.2c-0.7,0.6-1.4,1.1-2.1,1.7c-0.3-0.5-0.9-1.4-0.8-1.5c0.8-0.8,1.8-1.4,2.7-2
					C512.6,557.9,512.7,558.5,512.8,559.2z"/>
				<path class="st1" d="M533.5,408.5c-0.9-1.7-1.8-3.4-2.8-5.1C531.7,405.1,532.6,406.8,533.5,408.5z"/>
				<path class="st1" d="M445.6,702.5c-0.9-3.7,1.1-3.6,3.7-2.7C448,700.7,446.8,701.6,445.6,702.5z"/>
				<path class="st1" d="M420.8,301.7c2.2-0.1,4.5-0.3,4.1,3.1C423.5,303.7,422.1,302.7,420.8,301.7z"/>
				<path class="st1" d="M521.8,528.3c-1,0-1.9,0-2.9-0.1c0.9-0.6,1.7-1.3,2.6-1.9C521.6,527,521.7,527.6,521.8,528.3z"/>
				<path class="st1" d="M538.5,475.4c-3.4-2.3-0.8-3,1-4C539.2,472.7,538.8,474.1,538.5,475.4z"/>
				<path class="st1" d="M512.6,332.7c1,1,2,2,3,3.1C514.7,334.7,513.6,333.7,512.6,332.7z"/>
				<path class="st1" d="M471.7,483.4c1,1,2,2,3,3.1C473.7,485.5,472.7,484.5,471.7,483.4z"/>
				<path class="st1" d="M519.5,491.4c-2.1-1.5-1.8-2.4,1-4C520.2,488.7,519.9,490,519.5,491.4z"/>
				<path class="st1" d="M532.5,415.5c-2.1-1.5-1.8-2.4,1-4C533.2,412.8,532.9,414.2,532.5,415.5z"/>
				<path class="st1" d="M460.5,315.1c0.8-0.8,1.6-1.6,2.4-2.4C462.1,313.5,461.3,314.3,460.5,315.1z"/>
				<path class="st1" d="M442.6,704.5c-0.9-3.4,1-2.3,2.7-1.7C444.4,703.4,443.5,703.9,442.6,704.5z"/>
				<path class="st1" d="M486.5,417.2c-1.1,0-2.1,0-3.2,0c0-0.4,0-0.8,0-1.2c1.1-0.1,2.2-0.1,3.2-0.2
					C486.6,416.3,486.5,416.7,486.5,417.2z"/>
				<path class="st1" d="M439.6,706.5c-0.9-3.4,1-2.3,2.7-1.7C441.4,705.4,440.5,705.9,439.6,706.5z"/>
				<path class="st1" d="M436.6,708.5c-0.9-3.4,1-2.3,2.7-1.7C438.4,707.3,437.5,707.9,436.6,708.5z"/>
				<path class="st1" d="M467.9,499.3c-0.7-1-1.4-2-2.1-3.1C466.5,497.3,467.2,498.3,467.9,499.3z"/>
				<path class="st1" d="M530.5,300.7c-0.6-1-1.2-2.1-1.8-3.1C529.3,298.6,529.9,299.6,530.5,300.7z"/>
				<path class="st1" d="M516.6,304.7c-0.6-1-1.2-2.1-1.8-3.1C515.4,302.6,516,303.6,516.6,304.7z"/>
				<path class="st1" d="M530.8,403.5c-0.7-1-1.4-2-2-3.1C529.4,401.4,530.1,402.4,530.8,403.5z"/>
				<path class="st1" d="M480.7,453.5c0.7,1,1.4,2,2.1,3.1c-0.7-0.4-1.3-0.8-2-1.2c0,0,0.1,0.1,0.1,0.1
					C480.8,454.8,480.7,454.1,480.7,453.5z"/>
				<path class="st1" d="M526.8,398.5c-0.7-1-1.4-2-2.1-3.1C525.4,396.4,526.1,397.5,526.8,398.5z"/>
				<path class="st1" d="M521.8,286.6c-0.7-1-1.4-2-2-3.1C520.4,284.6,521.1,285.6,521.8,286.6z"/>
				<path class="st1" d="M532.5,304.7c-0.6-1-1.2-2.1-1.8-3.1C531.3,302.6,531.9,303.6,532.5,304.7z"/>
				<path class="st1" d="M429.8,309.7c0.7,1,1.4,2,2.1,3.1C431.1,311.7,430.5,310.7,429.8,309.7z"/>
				<path class="st1" d="M523.8,289.6c-0.7-1-1.4-2-2.1-3C522.4,287.6,523.1,288.6,523.8,289.6z"/>
				<path class="st1" d="M471.7,527.4c0.7,1,1.4,2,2.1,3C473.1,529.4,472.4,528.4,471.7,527.4z"/>
				<path class="st1" d="M473.7,530.4c0.7,1,1.4,2,2,3C475.1,532.4,474.4,531.4,473.7,530.4z"/>
				<path class="st1" d="M508.6,291.7c-0.2-0.7-0.5-1.4-0.7-2C508.1,290.3,508.3,291,508.6,291.7z"/>
				<path class="st1" d="M534.5,314.6c-0.2-0.7-0.5-1.4-0.7-2C534,313.3,534.3,314,534.5,314.6z"/>
				<path class="st1" d="M500.6,323.6c-0.2-0.7-0.5-1.4-0.7-2C500.1,322.3,500.3,322.9,500.6,323.6z"/>
				<path class="st1" d="M533.5,308.6c-0.2-0.7-0.5-1.4-0.7-2C533,307.3,533.3,308,533.5,308.6z"/>
				<path class="st1" d="M499.6,305.7c-0.2-0.7-0.5-1.4-0.7-2C499.1,304.3,499.3,305,499.6,305.7z"/>
				<path class="st1" d="M535.5,326.6c-0.2-0.7-0.5-1.4-0.7-2C535,325.3,535.3,325.9,535.5,326.6z"/>
				<path class="st1" d="M506.6,283.7c-0.2-0.7-0.5-1.4-0.7-2C506.1,282.3,506.3,283,506.6,283.7z"/>
				<path class="st1" d="M505.6,279.7c-0.2-0.7-0.5-1.4-0.7-2C505.1,278.3,505.3,279,505.6,279.7z"/>
				<path class="st1" d="M427.8,485.4c0.7,0.7,1.4,1.4,2,2.1c-0.7-0.1-1.3-0.1-2-0.2c0,0,0.1,0.1,0.1,0.1
					C427.9,486.8,427.8,486.1,427.8,485.4z"/>
				<path class="st1" d="M501.6,335.6c-0.2-0.7-0.5-1.4-0.7-2C501.1,334.2,501.3,334.9,501.6,335.6z"/>
				<path class="st1" d="M513.6,437.5c-0.2-0.7-0.5-1.4-0.7-2C513.1,436.1,513.3,436.8,513.6,437.5z"/>
				<path class="st1" d="M536.5,341.6c-0.2-0.7-0.5-1.4-0.7-2C536,340.2,536.3,340.9,536.5,341.6z"/>
				<path class="st1" d="M502.6,349.6c-0.2-0.7-0.5-1.4-0.7-2C502.1,348.2,502.3,348.9,502.6,349.6z"/>
				<path class="st1" d="M511.6,378.5c-0.2-0.7-0.5-1.4-0.7-2C511.1,377.2,511.3,377.9,511.6,378.5z"/>
				<path class="st1" d="M512.6,383.5c-0.2-0.7-0.5-1.4-0.7-2C512.1,382.2,512.3,382.9,512.6,383.5z"/>
				<path class="st1" d="M507.6,287.7c-0.2-0.7-0.5-1.4-0.7-2C507.1,286.3,507.3,287,507.6,287.7z"/>
				<path class="st1" d="M482.7,457.4c3.3,0.3,3.7,2.7,2.8,5c-0.4,1-3,2.2-3.8,1.8c-3.2-1.7-2.3-4.3-0.8-6.8
					C481.5,457.4,482.1,457.4,482.7,457.4z"/>
				<path class="st1" d="M527.8,476.4c0.2,0.7,0.5,1.4,0.7,2C528.3,477.7,528,477,527.8,476.4z"/>
				<path class="st1" d="M526.8,471.4c0.2,0.7,0.5,1.4,0.7,2C527.3,472.7,527,472,526.8,471.4z"/>
				<path class="st1" d="M527.5,431.2c-1,8-3.5,15-7.6,21.3c-0.5-0.1-1-0.2-1.5-0.3c0-5.7,0-11.4,0-17.4
					C521.9,435.4,526,437.1,527.5,431.2z"/>
				<path class="st1" d="M515.7,552c-2.2-6.1-3.1-11.4-0.9-16.7c1.6-3.9,3.8-4.1,7.7-1.1C518.5,539.1,521.7,546.8,515.7,552z"/>
				<path class="st1" d="M535.8,487.2c-2.3,8.6-4.6,17.2-6.9,25.9c-0.7-0.2-1.3-0.4-2-0.6C527,503.3,526.4,493.9,535.8,487.2z"/>
				<path class="st1" d="M531.6,448.5c-0.3-0.3-0.6-0.6-0.9-0.9c1-1.3,2-2.7,2.9-4c1,1.2,2.1,2.2,2.9,3.5c1.2,2.1,3.8,4.2,1.1,6.3
					C535.4,451.6,533.5,450.1,531.6,448.5z"/>
				<path class="st1" d="M472.2,382.9c-1-0.9-1.9-1.7-2.9-2.6c0.4-0.5,0.9-1,1.3-1.4c1,0.9,1.9,1.7,2.9,2.6
					C473.1,381.9,472.7,382.4,472.2,382.9z"/>
				<path class="st1" d="M406.9,420.1c1.4-1.1,3.4-3.7,5.9-4.3c3.3-0.8,7.1,3.3,7.2,6.6c0,2.7-4.2,6.5-7.2,6.1
					C408.9,427.9,407,425.6,406.9,420.1z"/>
			</g>
		</g>
	</g>
</g>
</svg>
