<?xml version="1.0" encoding="utf-8"?>
<!-- Generator: Adobe Illustrator 27.6.1, SVG Export Plug-In . SVG Version: 6.00 Build 0)  -->
<svg version="1.1" id="Layer_1" xmlns="http://www.w3.org/2000/svg" xmlns:xlink="http://www.w3.org/1999/xlink" x="0px" y="0px"
	 viewBox="0 0 32 32" style="enable-background:new 0 0 32 32;" xml:space="preserve">
<style type="text/css">
	.st0{fill:#FFFFFF;}
</style>
<g id="pJeJzU.tif">
	<g>
		<path class="st0" d="M2.2,13.7c0-3.5,0-7.1,0-10.6C2.2,1.4,3.6,0,5.3,0c7.1,0,14.2,0,21.3,0c1.5,0,2.7,0.9,3,2.3
			c0.1,0.3,0.1,0.6,0.1,0.8c0,7,0,14,0,21.1c0,1.9-1.5,3.3-3.3,3.3c-1.9,0-3.7,0-5.6,0c-0.2,0-0.4,0.1-0.5,0.2
			c-1.4,1.4-2.7,2.7-4.1,4.1c-0.2,0.2-0.3,0.2-0.5,0c-1.4-1.4-2.7-2.7-4.1-4.1c-0.2-0.2-0.3-0.2-0.5-0.2c-1.9,0-3.8,0-5.7,0
			c-1.9,0-3.2-1.3-3.2-3.2C2.2,20.8,2.2,17.2,2.2,13.7z M16,18.3C16,18.3,16,18.3,16,18.3c0.3,0,0.5,0,0.8,0c0.8,0,0.7,0,0.8-0.8
			c0-1,0.3-2,1-2.7c0.6-0.6,1.2-1.2,1.8-1.8c1.3-1.3,1.9-2.9,1.6-4.8c-0.6-3.8-4.6-6.2-8.2-4.7c-2.4,1-3.7,2.8-3.9,5.4
			c0,0.3,0.1,0.3,0.3,0.3c0.7,0,1.5,0,2.2,0c0.4,0,0.5,0,0.6-0.5c0.2-1.3,1.2-2.4,2.7-2.6c1-0.2,2.3,0.3,3,1.5
			c0.7,1.2,0.4,2.9-0.5,3.7c-0.9,0.7-1.6,1.6-2.4,2.5c-1.1,1.2-1.4,2.7-1.3,4.3c0,0.2,0.1,0.2,0.2,0.2C15.1,18.3,15.5,18.3,16,18.3z
			 M16,24.4C16,24.4,16,24.4,16,24.4c0.4,0,0.8,0,1.3,0c0.2,0,0.3,0,0.3-0.2c0-0.9,0-1.7,0-2.6c0-0.2-0.1-0.3-0.3-0.3
			c-0.8,0-1.7,0-2.5,0c-0.2,0-0.3,0.1-0.3,0.3c0,0.8,0,1.7,0,2.5c0,0.2,0.1,0.3,0.3,0.3C15.1,24.4,15.5,24.4,16,24.4z"/>
	</g>
</g>
</svg>
